<svg width="2643" height="1488" xmlns="http://www.w3.org/2000/svg" xmlns:xlink="http://www.w3.org/1999/xlink" xml:space="preserve" overflow="hidden"><defs><clipPath id="clip0"><rect x="230" y="463" width="2643" height="1488"/></clipPath></defs><g clip-path="url(#clip0)" transform="translate(-230 -463)"><rect x="231" y="464" width="2640" height="1485" fill="#FFFFFF"/><g><path d="M362.5 1706.56 2820.5 1706.56M362.5 1620.55 2820.5 1620.55M362.5 1533.55 2820.5 1533.55M362.5 1447.55 2820.5 1447.55M362.5 1360.54 2820.5 1360.54M362.5 1274.54 2820.5 1274.54M362.5 1187.54 2820.5 1187.54M362.5 1101.54 2820.5 1101.54M362.5 1015.53 2820.5 1015.53M362.5 928.531 2820.5 928.531M362.5 842.528 2820.5 842.528M362.5 755.525 2820.5 755.525M362.5 669.522 2820.5 669.522M362.5 583.5 2820.5 583.5" stroke="#D9D9D9" stroke-width="3.4375" stroke-linejoin="round" stroke-miterlimit="10" fill="none"/></g><g><path d="M362.5 1792.5 2820.5 1792.5" stroke="#D9D9D9" stroke-width="3.4375" stroke-linejoin="round" stroke-miterlimit="10" fill="none" fill-rule="evenodd"/></g><g><path d="M608 1689 1100.04 1067.04 1591.05 920.03 2083.07 1205.04 2575 808" stroke="#5B9BD5" stroke-width="10.3125" stroke-linecap="round" stroke-linejoin="round" stroke-miterlimit="10" fill="none"/></g><g><path d="M618.794 1689.56C618.794 1695.64 613.869 1700.56 607.794 1700.56 601.719 1700.56 596.794 1695.64 596.794 1689.56 596.794 1683.49 601.719 1678.56 607.794 1678.56 613.869 1678.56 618.794 1683.49 618.794 1689.56Z" stroke="#5B9BD5" stroke-width="3.4375" stroke-linejoin="round" stroke-miterlimit="10" fill="#5B9BD5"/><path d="M1110.79 1066.56C1110.79 1072.64 1105.87 1077.56 1099.79 1077.56 1093.72 1077.56 1088.79 1072.64 1088.79 1066.56 1088.79 1060.49 1093.72 1055.56 1099.79 1055.56 1105.87 1055.56 1110.79 1060.49 1110.79 1066.56Z" stroke="#5B9BD5" stroke-width="3.4375" stroke-linejoin="round" stroke-miterlimit="10" fill="#5B9BD5"/><path d="M1602.79 920.562C1602.79 926.637 1597.87 931.562 1591.79 931.562 1585.72 931.562 1580.79 926.637 1580.79 920.562 1580.79 914.487 1585.72 909.562 1591.79 909.562 1597.87 909.562 1602.79 914.487 1602.79 920.562Z" stroke="#5B9BD5" stroke-width="3.4375" stroke-linejoin="round" stroke-miterlimit="10" fill="#5B9BD5"/><path d="M2093.79 1205.56C2093.79 1211.64 2088.87 1216.56 2082.79 1216.56 2076.72 1216.56 2071.79 1211.64 2071.79 1205.56 2071.79 1199.49 2076.72 1194.56 2082.79 1194.56 2088.87 1194.56 2093.79 1199.49 2093.79 1205.56Z" stroke="#5B9BD5" stroke-width="3.4375" stroke-linejoin="round" stroke-miterlimit="10" fill="#5B9BD5"/><path d="M2585.79 807.562C2585.79 813.637 2580.87 818.562 2574.79 818.562 2568.72 818.562 2563.79 813.637 2563.79 807.562 2563.79 801.487 2568.72 796.562 2574.79 796.562 2580.87 796.562 2585.79 801.487 2585.79 807.562Z" stroke="#5B9BD5" stroke-width="3.4375" stroke-linejoin="round" stroke-miterlimit="10" fill="#5B9BD5"/></g><g><text fill="#595959" font-family="Calibri,Calibri_MSFontService,sans-serif" font-weight="400" font-size="41" transform="matrix(1 0 0 1 281.986 1804)">30</text></g><g><text fill="#595959" font-family="Calibri,Calibri_MSFontService,sans-serif" font-weight="400" font-size="41" transform="matrix(1 0 0 1 281.986 1718)">35</text></g><g><text fill="#595959" font-family="Calibri,Calibri_MSFontService,sans-serif" font-weight="400" font-size="41" transform="matrix(1 0 0 1 281.986 1632)">40</text></g><g><text fill="#595959" font-family="Calibri,Calibri_MSFontService,sans-serif" font-weight="400" font-size="41" transform="matrix(1 0 0 1 281.986 1545)">45</text></g><g><text fill="#595959" font-family="Calibri,Calibri_MSFontService,sans-serif" font-weight="400" font-size="41" transform="matrix(1 0 0 1 281.986 1459)">50</text></g><g><text fill="#595959" font-family="Calibri,Calibri_MSFontService,sans-serif" font-weight="400" font-size="41" transform="matrix(1 0 0 1 281.986 1372)">55</text></g><g><text fill="#595959" font-family="Calibri,Calibri_MSFontService,sans-serif" font-weight="400" font-size="41" transform="matrix(1 0 0 1 281.986 1286)">60</text></g><g><text fill="#595959" font-family="Calibri,Calibri_MSFontService,sans-serif" font-weight="400" font-size="41" transform="matrix(1 0 0 1 281.986 1200)">65</text></g><g><text fill="#595959" font-family="Calibri,Calibri_MSFontService,sans-serif" font-weight="400" font-size="41" transform="matrix(1 0 0 1 281.986 1113)">70</text></g><g><text fill="#595959" font-family="Calibri,Calibri_MSFontService,sans-serif" font-weight="400" font-size="41" transform="matrix(1 0 0 1 281.986 1027)">75</text></g><g><text fill="#595959" font-family="Calibri,Calibri_MSFontService,sans-serif" font-weight="400" font-size="41" transform="matrix(1 0 0 1 281.986 940)">80</text></g><g><text fill="#595959" font-family="Calibri,Calibri_MSFontService,sans-serif" font-weight="400" font-size="41" transform="matrix(1 0 0 1 281.986 854)">85</text></g><g><text fill="#595959" font-family="Calibri,Calibri_MSFontService,sans-serif" font-weight="400" font-size="41" transform="matrix(1 0 0 1 281.986 767)">90</text></g><g><text fill="#595959" font-family="Calibri,Calibri_MSFontService,sans-serif" font-weight="400" font-size="41" transform="matrix(1 0 0 1 281.986 681)">95</text></g><g><text fill="#595959" font-family="Calibri,Calibri_MSFontService,sans-serif" font-weight="400" font-size="41" transform="matrix(1 0 0 1 261.086 595)">100</text></g><g><text fill="#595959" font-family="Calibri,Calibri_MSFontService,sans-serif" font-weight="400" font-size="41" transform="matrix(1 0 0 1 566.659 1858)">312a</text></g><g><text fill="#595959" font-family="Calibri,Calibri_MSFontService,sans-serif" font-weight="400" font-size="41" transform="matrix(1 0 0 1 1046.91 1858)">403b1</text></g><g><text fill="#595959" font-family="Calibri,Calibri_MSFontService,sans-serif" font-weight="400" font-size="41" transform="matrix(1 0 0 1 1549.99 1858)">403a</text></g><g><text fill="#595959" font-family="Calibri,Calibri_MSFontService,sans-serif" font-weight="400" font-size="41" transform="matrix(1 0 0 1 2030.25 1858)">404b1</text></g><g><text fill="#595959" font-family="Calibri,Calibri_MSFontService,sans-serif" font-weight="400" font-size="41" transform="matrix(1 0 0 1 2533.33 1858)">404a</text></g><g><text fill="#595959" font-family="DengXian,DengXian_MSFontService,sans-serif" font-weight="400" font-size="64" transform="matrix(1 0 0 1 1486.88 547)">生物</text></g><g><path d="M1473 1910 1561 1910" stroke="#5B9BD5" stroke-width="10.3125" stroke-linecap="round" stroke-linejoin="round" stroke-miterlimit="10" fill="none" fill-rule="evenodd"/></g><g><path d="M1527 1910C1527 1916.07 1522.08 1921 1516 1921 1509.93 1921 1505 1916.07 1505 1910 1505 1903.92 1509.93 1899 1516 1899 1522.08 1899 1527 1903.92 1527 1910Z" stroke="#5B9BD5" stroke-width="3.4375" stroke-linejoin="round" stroke-miterlimit="10" fill="#5B9BD5"/></g><g><g><text fill="#595959" font-family="DengXian,DengXian_MSFontService,sans-serif" font-weight="400" font-size="41" transform="matrix(1 0 0 1 1569.95 1920)">分数</text></g></g><rect x="231.5" y="464.5" width="2640" height="1485" stroke="#D9D9D9" stroke-width="3.4375" stroke-linejoin="round" stroke-miterlimit="10" fill="none"/></g></svg>