<svg width="2648" height="1476" xmlns="http://www.w3.org/2000/svg" xml:space="preserve" overflow="hidden"><defs><clipPath id="a"><path d="M223 385h2648v1476H223z"/></clipPath></defs><g clip-path="url(#a)" transform="translate(-223 -385)"><path fill="#FFF" d="M224 386h2645v1473H224z"/><path d="M355.5 1584.55h2463m-2463-119h2463m-2463-119.01h2463m-2463-119h2463m-2463-119h2463m-2463-119.007h2463m-2463-119.004h2463m-2463-119.004h2463m-2463-119.004h2463M355.5 513.5h2463M355.5 1703.5h2463" stroke="#D9D9D9" stroke-width="3.438" stroke-linejoin="round" stroke-miterlimit="10" fill="none"/><path d="m492 1704 274.025-928.975L1040.03 633l273.01 71.023 274.01 24.001 274.01-36.001 273.01 83.002 274.01-71.002L2682 633" stroke="#5B9BD5" stroke-width="10.313" stroke-linecap="round" stroke-linejoin="round" stroke-miterlimit="10" fill="none"/><g stroke="#5B9BD5" stroke-width="3.438" stroke-linejoin="round" stroke-miterlimit="10" fill="#5B9BD5"><path d="M503.918 1703.48c0 6.08-4.924 11-10.999 11s-11-4.92-11-11c0-6.07 4.925-11 11-11s10.999 4.93 10.999 11ZM777.918 775.482c0 6.075-4.924 11-10.999 11s-11-4.925-11-11 4.925-11 11-11 10.999 4.925 10.999 11ZM1050.92 632.482c0 6.075-4.93 11-11 11-6.08 0-11-4.925-11-11s4.92-11 11-11c6.07 0 11 4.925 11 11ZM1324.92 703.482c0 6.075-4.93 11-11 11-6.08 0-11-4.925-11-11s4.92-11 11-11c6.07 0 11 4.925 11 11ZM1598.92 727.482c0 6.075-4.93 10.999-11 10.999-6.08 0-11-4.924-11-10.999s4.92-11 11-11c6.07 0 11 4.925 11 11ZM1871.92 692.482c0 6.075-4.93 11-11 11-6.08 0-11-4.925-11-11s4.92-11 11-11c6.07 0 11 4.925 11 11ZM2145.92 775.482c0 6.075-4.93 11-11 11-6.08 0-11-4.925-11-11s4.92-11 11-11c6.07 0 11 4.925 11 11ZM2419.92 703.482c0 6.075-4.93 11-11 11-6.08 0-11-4.925-11-11s4.92-11 11-11c6.07 0 11 4.925 11 11ZM2692.92 632.482c0 6.075-4.93 11-11 11-6.08 0-11-4.925-11-11s4.92-11 11-11c6.07 0 11 4.925 11 11Z"/></g><path d="m492 1704 274.025-130.95 274.005 35h273.01l274.01-47.05 274.01 24.05 273.01 35 274.01-12 273.92 36" stroke="#ED7D31" stroke-width="10.313" stroke-linecap="round" stroke-linejoin="round" stroke-miterlimit="10" fill="none"/><g stroke="#ED7D31" stroke-width="3.438" stroke-linejoin="round" stroke-miterlimit="10" fill="#ED7D31"><path d="M503.918 1703.48c0 6.08-4.924 11-10.999 11s-11-4.92-11-11c0-6.07 4.925-11 11-11s10.999 4.93 10.999 11ZM777.918 1572.48c0 6.08-4.924 11-10.999 11s-11-4.92-11-11c0-6.07 4.925-11 11-11s10.999 4.93 10.999 11ZM1050.92 1608.48c0 6.08-4.93 11-11 11-6.08 0-11-4.92-11-11 0-6.07 4.92-11 11-11 6.07 0 11 4.93 11 11ZM1324.92 1608.48c0 6.08-4.93 11-11 11-6.08 0-11-4.92-11-11 0-6.07 4.92-11 11-11 6.07 0 11 4.93 11 11ZM1598.92 1560.48c0 6.08-4.93 11-11 11-6.08 0-11-4.92-11-11 0-6.07 4.92-11 11-11 6.07 0 11 4.93 11 11ZM1871.92 1584.48c0 6.08-4.93 11-11 11-6.08 0-11-4.92-11-11 0-6.07 4.92-11 11-11 6.07 0 11 4.93 11 11ZM2145.92 1620.48c0 6.08-4.93 11-11 11-6.08 0-11-4.92-11-11 0-6.07 4.92-11 11-11 6.07 0 11 4.93 11 11ZM2419.92 1608.48c0 6.08-4.93 11-11 11-6.08 0-11-4.92-11-11 0-6.07 4.92-11 11-11 6.07 0 11 4.93 11 11ZM2692.92 1644.48c0 6.08-4.93 11-11 11-6.08 0-11-4.92-11-11 0-6.07 4.92-11 11-11 6.07 0 11 4.93 11 11Z"/></g><path d="m492 1704 274.025-130.95 274.005 107.01 273.01-72.01 274.01 24 274.01 12L2134.07 1525l274.01 83.05 273.92 36" stroke="#A5A5A5" stroke-width="10.313" stroke-linecap="round" stroke-linejoin="round" stroke-miterlimit="10" fill="none"/><g stroke="#A5A5A5" stroke-width="3.438" stroke-linejoin="round" stroke-miterlimit="10" fill="#A5A5A5"><path d="M503.918 1703.48c0 6.08-4.924 11-10.999 11s-11-4.92-11-11c0-6.07 4.925-11 11-11s10.999 4.93 10.999 11ZM777.918 1572.48c0 6.08-4.924 11-10.999 11s-11-4.92-11-11c0-6.07 4.925-11 11-11s10.999 4.93 10.999 11ZM1050.92 1679.48c0 6.08-4.93 11-11 11-6.08 0-11-4.92-11-11 0-6.07 4.92-11 11-11 6.07 0 11 4.93 11 11ZM1324.92 1608.48c0 6.08-4.93 11-11 11-6.08 0-11-4.92-11-11 0-6.07 4.92-11 11-11 6.07 0 11 4.93 11 11ZM1598.92 1632.48c0 6.08-4.93 11-11 11-6.08 0-11-4.92-11-11 0-6.07 4.92-11 11-11 6.07 0 11 4.93 11 11ZM1871.92 1644.48c0 6.08-4.93 11-11 11-6.08 0-11-4.92-11-11 0-6.07 4.92-11 11-11 6.07 0 11 4.93 11 11ZM2145.92 1525.48c0 6.08-4.93 11-11 11-6.08 0-11-4.92-11-11 0-6.07 4.92-11 11-11 6.07 0 11 4.93 11 11ZM2419.92 1608.48c0 6.08-4.93 11-11 11-6.08 0-11-4.92-11-11 0-6.07 4.92-11 11-11 6.07 0 11 4.93 11 11ZM2692.92 1644.48c0 6.08-4.93 11-11 11-6.08 0-11-4.92-11-11 0-6.07 4.92-11 11-11 6.07 0 11 4.93 11 11Z"/></g><text fill="#595959" font-family="Calibri,Calibri_MSFontService,sans-serif" font-weight="400" font-size="41" transform="translate(296.278 1715)">0</text><text fill="#595959" font-family="Calibri,Calibri_MSFontService,sans-serif" font-weight="400" font-size="41" transform="translate(275.378 1596)">10</text><text fill="#595959" font-family="Calibri,Calibri_MSFontService,sans-serif" font-weight="400" font-size="41" transform="translate(275.378 1477)">20</text><text fill="#595959" font-family="Calibri,Calibri_MSFontService,sans-serif" font-weight="400" font-size="41" transform="translate(275.378 1358)">30</text><text fill="#595959" font-family="Calibri,Calibri_MSFontService,sans-serif" font-weight="400" font-size="41" transform="translate(275.378 1239)">40</text><text fill="#595959" font-family="Calibri,Calibri_MSFontService,sans-serif" font-weight="400" font-size="41" transform="translate(275.378 1120)">50</text><text fill="#595959" font-family="Calibri,Calibri_MSFontService,sans-serif" font-weight="400" font-size="41" transform="translate(275.378 1001)">60</text><text fill="#595959" font-family="Calibri,Calibri_MSFontService,sans-serif" font-weight="400" font-size="41" transform="translate(275.378 882)">70</text><text fill="#595959" font-family="Calibri,Calibri_MSFontService,sans-serif" font-weight="400" font-size="41" transform="translate(275.378 763)">80</text><text fill="#595959" font-family="Calibri,Calibri_MSFontService,sans-serif" font-weight="400" font-size="41" transform="translate(275.378 644)">90</text><text fill="#595959" font-family="Calibri,Calibri_MSFontService,sans-serif" font-weight="400" font-size="41" transform="translate(254.478 525)">100</text><text fill="#595959" font-family="Calibri,Calibri_MSFontService,sans-serif" font-weight="400" font-size="41" transform="translate(451.072 1769)">312a</text><text fill="#595959" font-family="Calibri,Calibri_MSFontService,sans-serif" font-weight="400" font-size="41" transform="translate(713.367 1769)">403b1</text><text fill="#595959" font-family="Calibri,Calibri_MSFontService,sans-serif" font-weight="400" font-size="41" transform="translate(987.073 1769)">403b2</text><text fill="#595959" font-family="Calibri,Calibri_MSFontService,sans-serif" font-weight="400" font-size="41" transform="translate(1272.19 1769)">403a</text><text fill="#595959" font-family="Calibri,Calibri_MSFontService,sans-serif" font-weight="400" font-size="41" transform="translate(1534.49 1769)">404b1</text><text fill="#595959" font-family="Calibri,Calibri_MSFontService,sans-serif" font-weight="400" font-size="41" transform="translate(1808.2 1769)">404b2</text><text fill="#595959" font-family="Calibri,Calibri_MSFontService,sans-serif" font-weight="400" font-size="41" transform="translate(2081.9 1769)">404b3</text><text fill="#595959" font-family="Calibri,Calibri_MSFontService,sans-serif" font-weight="400" font-size="41" transform="translate(2367.02 1769)">404a</text><text fill="#595959" font-family="Calibri,Calibri_MSFontService,sans-serif" font-weight="400" font-size="41" transform="translate(2629.32 1769)">405b1</text><text fill="#595959" font-family="DengXian,DengXian_MSFontService,sans-serif" font-weight="400" font-size="64" transform="translate(1482.55 468)">化学</text><path d="M1042 1820h88" stroke="#5B9BD5" stroke-width="10.313" stroke-linecap="round" stroke-linejoin="round" stroke-miterlimit="10" fill="none"/><path d="M1097 1820c0 6.07-4.92 11-11 11-6.07 0-11-4.93-11-11 0-6.08 4.93-11 11-11 6.08 0 11 4.92 11 11Z" stroke="#5B9BD5" stroke-width="3.438" stroke-linejoin="round" stroke-miterlimit="10" fill="#5B9BD5"/><text fill="#595959" font-family="DengXian,DengXian_MSFontService,sans-serif" font-weight="400" font-size="41" transform="translate(1139.58 1830)">分数</text><path d="M1283 1820h88" stroke="#ED7D31" stroke-width="10.313" stroke-linecap="round" stroke-linejoin="round" stroke-miterlimit="10" fill="none"/><path d="M1337 1820c0 6.07-4.92 11-11 11-6.07 0-11-4.93-11-11 0-6.08 4.93-11 11-11 6.08 0 11 4.92 11 11Z" stroke="#ED7D31" stroke-width="3.438" stroke-linejoin="round" stroke-miterlimit="10" fill="#ED7D31"/><text fill="#595959" font-family="DengXian,DengXian_MSFontService,sans-serif" font-weight="400" font-size="41" transform="translate(1380.16 1830)">非能力因素失分</text><path d="M1730 1820h88" stroke="#A5A5A5" stroke-width="10.313" stroke-linecap="round" stroke-linejoin="round" stroke-miterlimit="10" fill="none"/><path d="M1784 1820c0 6.07-4.93 11-11 11-6.08 0-11-4.93-11-11 0-6.08 4.92-11 11-11 6.07 0 11 4.92 11 11Z" stroke="#A5A5A5" stroke-width="3.438" stroke-linejoin="round" stroke-miterlimit="10" fill="#A5A5A5"/><text fill="#595959" font-family="DengXian,DengXian_MSFontService,sans-serif" font-weight="400" font-size="41" transform="translate(1826.98 1830)">能力因素失分</text><path stroke="#D9D9D9" stroke-width="3.438" stroke-linejoin="round" stroke-miterlimit="10" fill="none" d="M224.5 386.5h2645v1473h-2645z"/></g></svg>