<svg width="2648" height="1476" xmlns="http://www.w3.org/2000/svg" xmlns:xlink="http://www.w3.org/1999/xlink" xml:space="preserve" overflow="hidden"><defs><clipPath id="clip0"><rect x="223" y="385" width="2648" height="1476"/></clipPath></defs><g clip-path="url(#clip0)" transform="translate(-223 -385)"><rect x="224" y="386" width="2645" height="1473" fill="#FFFFFF"/><g><path d="M355.5 1584.55 2818.5 1584.55M355.5 1465.55 2818.5 1465.55M355.5 1346.54 2818.5 1346.54M355.5 1227.54 2818.5 1227.54M355.5 1108.54 2818.5 1108.54M355.5 989.533 2818.5 989.533M355.5 870.529 2818.5 870.529M355.5 751.525 2818.5 751.525M355.5 632.521 2818.5 632.521M355.5 513.5 2818.5 513.5" stroke="#D9D9D9" stroke-width="3.4375" stroke-linejoin="round" stroke-miterlimit="10" fill="none"/></g><g><path d="M355.5 1703.5 2818.5 1703.5" stroke="#D9D9D9" stroke-width="3.4375" stroke-linejoin="round" stroke-miterlimit="10" fill="none" fill-rule="evenodd"/></g><g><path d="M492 1704 766.025 775.025 1040.03 633 1313.04 704.023 1587.05 728.024 1861.06 692.023 2134.07 775.025 2408.08 704.023 2682 633" stroke="#5B9BD5" stroke-width="10.3125" stroke-linecap="round" stroke-linejoin="round" stroke-miterlimit="10" fill="none"/></g><g><path d="M503.918 1703.48C503.918 1709.56 498.994 1714.48 492.919 1714.48 486.844 1714.48 481.919 1709.56 481.919 1703.48 481.919 1697.41 486.844 1692.48 492.919 1692.48 498.994 1692.48 503.918 1697.41 503.918 1703.48Z" stroke="#5B9BD5" stroke-width="3.4375" stroke-linejoin="round" stroke-miterlimit="10" fill="#5B9BD5"/><path d="M777.918 775.482C777.918 781.557 772.994 786.482 766.919 786.482 760.844 786.482 755.919 781.557 755.919 775.482 755.919 769.407 760.844 764.482 766.919 764.482 772.994 764.482 777.918 769.407 777.918 775.482Z" stroke="#5B9BD5" stroke-width="3.4375" stroke-linejoin="round" stroke-miterlimit="10" fill="#5B9BD5"/><path d="M1050.92 632.482C1050.92 638.557 1045.99 643.482 1039.92 643.482 1033.84 643.482 1028.92 638.557 1028.92 632.482 1028.92 626.407 1033.84 621.482 1039.92 621.482 1045.99 621.482 1050.92 626.407 1050.92 632.482Z" stroke="#5B9BD5" stroke-width="3.4375" stroke-linejoin="round" stroke-miterlimit="10" fill="#5B9BD5"/><path d="M1324.92 703.482C1324.92 709.557 1319.99 714.482 1313.92 714.482 1307.84 714.482 1302.92 709.557 1302.92 703.482 1302.92 697.407 1307.84 692.482 1313.92 692.482 1319.99 692.482 1324.92 697.407 1324.92 703.482Z" stroke="#5B9BD5" stroke-width="3.4375" stroke-linejoin="round" stroke-miterlimit="10" fill="#5B9BD5"/><path d="M1598.92 727.482C1598.92 733.557 1593.99 738.481 1587.92 738.481 1581.84 738.481 1576.92 733.557 1576.92 727.482 1576.92 721.407 1581.84 716.482 1587.92 716.482 1593.99 716.482 1598.92 721.407 1598.92 727.482Z" stroke="#5B9BD5" stroke-width="3.4375" stroke-linejoin="round" stroke-miterlimit="10" fill="#5B9BD5"/><path d="M1871.92 692.482C1871.92 698.557 1866.99 703.482 1860.92 703.482 1854.84 703.482 1849.92 698.557 1849.92 692.482 1849.92 686.407 1854.84 681.482 1860.92 681.482 1866.99 681.482 1871.92 686.407 1871.92 692.482Z" stroke="#5B9BD5" stroke-width="3.4375" stroke-linejoin="round" stroke-miterlimit="10" fill="#5B9BD5"/><path d="M2145.92 775.482C2145.92 781.557 2140.99 786.482 2134.92 786.482 2128.84 786.482 2123.92 781.557 2123.92 775.482 2123.92 769.407 2128.84 764.482 2134.92 764.482 2140.99 764.482 2145.92 769.407 2145.92 775.482Z" stroke="#5B9BD5" stroke-width="3.4375" stroke-linejoin="round" stroke-miterlimit="10" fill="#5B9BD5"/><path d="M2419.92 703.482C2419.92 709.557 2414.99 714.482 2408.92 714.482 2402.84 714.482 2397.92 709.557 2397.92 703.482 2397.92 697.407 2402.84 692.482 2408.92 692.482 2414.99 692.482 2419.92 697.407 2419.92 703.482Z" stroke="#5B9BD5" stroke-width="3.4375" stroke-linejoin="round" stroke-miterlimit="10" fill="#5B9BD5"/><path d="M2692.92 632.482C2692.92 638.557 2687.99 643.482 2681.92 643.482 2675.84 643.482 2670.92 638.557 2670.92 632.482 2670.92 626.407 2675.84 621.482 2681.92 621.482 2687.99 621.482 2692.92 626.407 2692.92 632.482Z" stroke="#5B9BD5" stroke-width="3.4375" stroke-linejoin="round" stroke-miterlimit="10" fill="#5B9BD5"/></g><g><path d="M492 1704 766.025 1573.05 1040.03 1608.05 1313.04 1608.05 1587.05 1561 1861.06 1585.05 2134.07 1620.05 2408.08 1608.05 2682 1644.05" stroke="#ED7D31" stroke-width="10.3125" stroke-linecap="round" stroke-linejoin="round" stroke-miterlimit="10" fill="none"/></g><g><path d="M503.918 1703.48C503.918 1709.56 498.994 1714.48 492.919 1714.48 486.844 1714.48 481.919 1709.56 481.919 1703.48 481.919 1697.41 486.844 1692.48 492.919 1692.48 498.994 1692.48 503.918 1697.41 503.918 1703.48Z" stroke="#ED7D31" stroke-width="3.4375" stroke-linejoin="round" stroke-miterlimit="10" fill="#ED7D31"/><path d="M777.918 1572.48C777.918 1578.56 772.994 1583.48 766.919 1583.48 760.844 1583.48 755.919 1578.56 755.919 1572.48 755.919 1566.41 760.844 1561.48 766.919 1561.48 772.994 1561.48 777.918 1566.41 777.918 1572.48Z" stroke="#ED7D31" stroke-width="3.4375" stroke-linejoin="round" stroke-miterlimit="10" fill="#ED7D31"/><path d="M1050.92 1608.48C1050.92 1614.56 1045.99 1619.48 1039.92 1619.48 1033.84 1619.48 1028.92 1614.56 1028.92 1608.48 1028.92 1602.41 1033.84 1597.48 1039.92 1597.48 1045.99 1597.48 1050.92 1602.41 1050.92 1608.48Z" stroke="#ED7D31" stroke-width="3.4375" stroke-linejoin="round" stroke-miterlimit="10" fill="#ED7D31"/><path d="M1324.92 1608.48C1324.92 1614.56 1319.99 1619.48 1313.92 1619.48 1307.84 1619.48 1302.92 1614.56 1302.92 1608.48 1302.92 1602.41 1307.84 1597.48 1313.92 1597.48 1319.99 1597.48 1324.92 1602.41 1324.92 1608.48Z" stroke="#ED7D31" stroke-width="3.4375" stroke-linejoin="round" stroke-miterlimit="10" fill="#ED7D31"/><path d="M1598.92 1560.48C1598.92 1566.56 1593.99 1571.48 1587.92 1571.48 1581.84 1571.48 1576.92 1566.56 1576.92 1560.48 1576.92 1554.41 1581.84 1549.48 1587.92 1549.48 1593.99 1549.48 1598.92 1554.41 1598.92 1560.48Z" stroke="#ED7D31" stroke-width="3.4375" stroke-linejoin="round" stroke-miterlimit="10" fill="#ED7D31"/><path d="M1871.92 1584.48C1871.92 1590.56 1866.99 1595.48 1860.92 1595.48 1854.84 1595.48 1849.92 1590.56 1849.92 1584.48 1849.92 1578.41 1854.84 1573.48 1860.92 1573.48 1866.99 1573.48 1871.92 1578.41 1871.92 1584.48Z" stroke="#ED7D31" stroke-width="3.4375" stroke-linejoin="round" stroke-miterlimit="10" fill="#ED7D31"/><path d="M2145.92 1620.48C2145.92 1626.56 2140.99 1631.48 2134.92 1631.48 2128.84 1631.48 2123.92 1626.56 2123.92 1620.48 2123.92 1614.41 2128.84 1609.48 2134.92 1609.48 2140.99 1609.48 2145.92 1614.41 2145.92 1620.48Z" stroke="#ED7D31" stroke-width="3.4375" stroke-linejoin="round" stroke-miterlimit="10" fill="#ED7D31"/><path d="M2419.92 1608.48C2419.92 1614.56 2414.99 1619.48 2408.92 1619.48 2402.84 1619.48 2397.92 1614.56 2397.92 1608.48 2397.92 1602.41 2402.84 1597.48 2408.92 1597.48 2414.99 1597.48 2419.92 1602.41 2419.92 1608.48Z" stroke="#ED7D31" stroke-width="3.4375" stroke-linejoin="round" stroke-miterlimit="10" fill="#ED7D31"/><path d="M2692.92 1644.48C2692.92 1650.56 2687.99 1655.48 2681.92 1655.48 2675.84 1655.48 2670.92 1650.56 2670.92 1644.48 2670.92 1638.41 2675.84 1633.48 2681.92 1633.48 2687.99 1633.48 2692.92 1638.41 2692.92 1644.48Z" stroke="#ED7D31" stroke-width="3.4375" stroke-linejoin="round" stroke-miterlimit="10" fill="#ED7D31"/></g><g><path d="M492 1704 766.025 1573.05 1040.03 1680.06 1313.04 1608.05 1587.05 1632.05 1861.06 1644.05 2134.07 1525 2408.08 1608.05 2682 1644.05" stroke="#A5A5A5" stroke-width="10.3125" stroke-linecap="round" stroke-linejoin="round" stroke-miterlimit="10" fill="none"/></g><g><path d="M503.918 1703.48C503.918 1709.56 498.994 1714.48 492.919 1714.48 486.844 1714.48 481.919 1709.56 481.919 1703.48 481.919 1697.41 486.844 1692.48 492.919 1692.48 498.994 1692.48 503.918 1697.41 503.918 1703.48Z" stroke="#A5A5A5" stroke-width="3.4375" stroke-linejoin="round" stroke-miterlimit="10" fill="#A5A5A5"/><path d="M777.918 1572.48C777.918 1578.56 772.994 1583.48 766.919 1583.48 760.844 1583.48 755.919 1578.56 755.919 1572.48 755.919 1566.41 760.844 1561.48 766.919 1561.48 772.994 1561.48 777.918 1566.41 777.918 1572.48Z" stroke="#A5A5A5" stroke-width="3.4375" stroke-linejoin="round" stroke-miterlimit="10" fill="#A5A5A5"/><path d="M1050.92 1679.48C1050.92 1685.56 1045.99 1690.48 1039.92 1690.48 1033.84 1690.48 1028.92 1685.56 1028.92 1679.48 1028.92 1673.41 1033.84 1668.48 1039.92 1668.48 1045.99 1668.48 1050.92 1673.41 1050.92 1679.48Z" stroke="#A5A5A5" stroke-width="3.4375" stroke-linejoin="round" stroke-miterlimit="10" fill="#A5A5A5"/><path d="M1324.92 1608.48C1324.92 1614.56 1319.99 1619.48 1313.92 1619.48 1307.84 1619.48 1302.92 1614.56 1302.92 1608.48 1302.92 1602.41 1307.84 1597.48 1313.92 1597.48 1319.99 1597.48 1324.92 1602.41 1324.92 1608.48Z" stroke="#A5A5A5" stroke-width="3.4375" stroke-linejoin="round" stroke-miterlimit="10" fill="#A5A5A5"/><path d="M1598.92 1632.48C1598.92 1638.56 1593.99 1643.48 1587.92 1643.48 1581.84 1643.48 1576.92 1638.56 1576.92 1632.48 1576.92 1626.41 1581.84 1621.48 1587.92 1621.48 1593.99 1621.48 1598.92 1626.41 1598.92 1632.48Z" stroke="#A5A5A5" stroke-width="3.4375" stroke-linejoin="round" stroke-miterlimit="10" fill="#A5A5A5"/><path d="M1871.92 1644.48C1871.92 1650.56 1866.99 1655.48 1860.92 1655.48 1854.84 1655.48 1849.92 1650.56 1849.92 1644.48 1849.92 1638.41 1854.84 1633.48 1860.92 1633.48 1866.99 1633.48 1871.92 1638.41 1871.92 1644.48Z" stroke="#A5A5A5" stroke-width="3.4375" stroke-linejoin="round" stroke-miterlimit="10" fill="#A5A5A5"/><path d="M2145.92 1525.48C2145.92 1531.56 2140.99 1536.48 2134.92 1536.48 2128.84 1536.48 2123.92 1531.56 2123.92 1525.48 2123.92 1519.41 2128.84 1514.48 2134.92 1514.48 2140.99 1514.48 2145.92 1519.41 2145.92 1525.48Z" stroke="#A5A5A5" stroke-width="3.4375" stroke-linejoin="round" stroke-miterlimit="10" fill="#A5A5A5"/><path d="M2419.92 1608.48C2419.92 1614.56 2414.99 1619.48 2408.92 1619.48 2402.84 1619.48 2397.92 1614.56 2397.92 1608.48 2397.92 1602.41 2402.84 1597.48 2408.92 1597.48 2414.99 1597.48 2419.92 1602.41 2419.92 1608.48Z" stroke="#A5A5A5" stroke-width="3.4375" stroke-linejoin="round" stroke-miterlimit="10" fill="#A5A5A5"/><path d="M2692.92 1644.48C2692.92 1650.56 2687.99 1655.48 2681.92 1655.48 2675.84 1655.48 2670.92 1650.56 2670.92 1644.48 2670.92 1638.41 2675.84 1633.48 2681.92 1633.48 2687.99 1633.48 2692.92 1638.41 2692.92 1644.48Z" stroke="#A5A5A5" stroke-width="3.4375" stroke-linejoin="round" stroke-miterlimit="10" fill="#A5A5A5"/></g><g><text fill="#595959" font-family="Calibri,Calibri_MSFontService,sans-serif" font-weight="400" font-size="41" transform="matrix(1 0 0 1 296.278 1715)">0</text></g><g><text fill="#595959" font-family="Calibri,Calibri_MSFontService,sans-serif" font-weight="400" font-size="41" transform="matrix(1 0 0 1 275.378 1596)">10</text></g><g><text fill="#595959" font-family="Calibri,Calibri_MSFontService,sans-serif" font-weight="400" font-size="41" transform="matrix(1 0 0 1 275.378 1477)">20</text></g><g><text fill="#595959" font-family="Calibri,Calibri_MSFontService,sans-serif" font-weight="400" font-size="41" transform="matrix(1 0 0 1 275.378 1358)">30</text></g><g><text fill="#595959" font-family="Calibri,Calibri_MSFontService,sans-serif" font-weight="400" font-size="41" transform="matrix(1 0 0 1 275.378 1239)">40</text></g><g><text fill="#595959" font-family="Calibri,Calibri_MSFontService,sans-serif" font-weight="400" font-size="41" transform="matrix(1 0 0 1 275.378 1120)">50</text></g><g><text fill="#595959" font-family="Calibri,Calibri_MSFontService,sans-serif" font-weight="400" font-size="41" transform="matrix(1 0 0 1 275.378 1001)">60</text></g><g><text fill="#595959" font-family="Calibri,Calibri_MSFontService,sans-serif" font-weight="400" font-size="41" transform="matrix(1 0 0 1 275.378 882)">70</text></g><g><text fill="#595959" font-family="Calibri,Calibri_MSFontService,sans-serif" font-weight="400" font-size="41" transform="matrix(1 0 0 1 275.378 763)">80</text></g><g><text fill="#595959" font-family="Calibri,Calibri_MSFontService,sans-serif" font-weight="400" font-size="41" transform="matrix(1 0 0 1 275.378 644)">90</text></g><g><text fill="#595959" font-family="Calibri,Calibri_MSFontService,sans-serif" font-weight="400" font-size="41" transform="matrix(1 0 0 1 254.478 525)">100</text></g><g><text fill="#595959" font-family="Calibri,Calibri_MSFontService,sans-serif" font-weight="400" font-size="41" transform="matrix(1 0 0 1 451.072 1769)">312a</text></g><g><text fill="#595959" font-family="Calibri,Calibri_MSFontService,sans-serif" font-weight="400" font-size="41" transform="matrix(1 0 0 1 713.367 1769)">403b1</text></g><g><text fill="#595959" font-family="Calibri,Calibri_MSFontService,sans-serif" font-weight="400" font-size="41" transform="matrix(1 0 0 1 987.073 1769)">403b2</text></g><g><text fill="#595959" font-family="Calibri,Calibri_MSFontService,sans-serif" font-weight="400" font-size="41" transform="matrix(1 0 0 1 1272.19 1769)">403a</text></g><g><text fill="#595959" font-family="Calibri,Calibri_MSFontService,sans-serif" font-weight="400" font-size="41" transform="matrix(1 0 0 1 1534.49 1769)">404b1</text></g><g><text fill="#595959" font-family="Calibri,Calibri_MSFontService,sans-serif" font-weight="400" font-size="41" transform="matrix(1 0 0 1 1808.2 1769)">404b2</text></g><g><text fill="#595959" font-family="Calibri,Calibri_MSFontService,sans-serif" font-weight="400" font-size="41" transform="matrix(1 0 0 1 2081.9 1769)">404b3</text></g><g><text fill="#595959" font-family="Calibri,Calibri_MSFontService,sans-serif" font-weight="400" font-size="41" transform="matrix(1 0 0 1 2367.02 1769)">404a</text></g><g><text fill="#595959" font-family="Calibri,Calibri_MSFontService,sans-serif" font-weight="400" font-size="41" transform="matrix(1 0 0 1 2629.32 1769)">405b1</text></g><g><text fill="#595959" font-family="DengXian,DengXian_MSFontService,sans-serif" font-weight="400" font-size="64" transform="matrix(1 0 0 1 1482.55 468)">化学</text></g><g><path d="M1042 1820 1130 1820" stroke="#5B9BD5" stroke-width="10.3125" stroke-linecap="round" stroke-linejoin="round" stroke-miterlimit="10" fill="none" fill-rule="evenodd"/></g><g><path d="M1097 1820C1097 1826.07 1092.08 1831 1086 1831 1079.93 1831 1075 1826.07 1075 1820 1075 1813.92 1079.93 1809 1086 1809 1092.08 1809 1097 1813.92 1097 1820Z" stroke="#5B9BD5" stroke-width="3.4375" stroke-linejoin="round" stroke-miterlimit="10" fill="#5B9BD5"/></g><g><g><text fill="#595959" font-family="DengXian,DengXian_MSFontService,sans-serif" font-weight="400" font-size="41" transform="matrix(1 0 0 1 1139.58 1830)">分数</text></g></g><g><path d="M1283 1820 1371 1820" stroke="#ED7D31" stroke-width="10.3125" stroke-linecap="round" stroke-linejoin="round" stroke-miterlimit="10" fill="none" fill-rule="evenodd"/></g><g><path d="M1337 1820C1337 1826.07 1332.08 1831 1326 1831 1319.93 1831 1315 1826.07 1315 1820 1315 1813.92 1319.93 1809 1326 1809 1332.08 1809 1337 1813.92 1337 1820Z" stroke="#ED7D31" stroke-width="3.4375" stroke-linejoin="round" stroke-miterlimit="10" fill="#ED7D31"/></g><g><g><text fill="#595959" font-family="DengXian,DengXian_MSFontService,sans-serif" font-weight="400" font-size="41" transform="matrix(1 0 0 1 1380.16 1830)">非能力因素失分</text></g></g><g><path d="M1730 1820 1818 1820" stroke="#A5A5A5" stroke-width="10.3125" stroke-linecap="round" stroke-linejoin="round" stroke-miterlimit="10" fill="none" fill-rule="evenodd"/></g><g><path d="M1784 1820C1784 1826.07 1779.07 1831 1773 1831 1766.92 1831 1762 1826.07 1762 1820 1762 1813.92 1766.92 1809 1773 1809 1779.07 1809 1784 1813.92 1784 1820Z" stroke="#A5A5A5" stroke-width="3.4375" stroke-linejoin="round" stroke-miterlimit="10" fill="#A5A5A5"/></g><g><g><text fill="#595959" font-family="DengXian,DengXian_MSFontService,sans-serif" font-weight="400" font-size="41" transform="matrix(1 0 0 1 1826.98 1830)">能力因素失分</text></g></g><rect x="224.5" y="386.5" width="2645" height="1473" stroke="#D9D9D9" stroke-width="3.4375" stroke-linejoin="round" stroke-miterlimit="10" fill="none"/></g></svg>