<svg width="2644" height="1487" xmlns="http://www.w3.org/2000/svg" xmlns:xlink="http://www.w3.org/1999/xlink" xml:space="preserve" overflow="hidden"><defs><clipPath id="clip0"><rect x="8" y="601" width="2644" height="1487"/></clipPath></defs><g clip-path="url(#clip0)" transform="translate(-8 -601)"><rect x="8.99993" y="602" width="2641" height="1484" fill="#FFFFFF"/><g><path d="M187.5 1856.56 2575.5 1856.56M187.5 1777.56 2575.5 1777.56M187.5 1697.56 2575.5 1697.56M187.5 1618.55 2575.5 1618.55M187.5 1539.55 2575.5 1539.55M187.5 1460.55 2575.5 1460.55M187.5 1380.55 2575.5 1380.55M187.5 1301.54 2575.5 1301.54M187.5 1222.54 2575.5 1222.54M187.5 1142.54 2575.5 1142.54M187.5 1063.54 2575.5 1063.54M187.5 984.532 2575.5 984.532M187.5 904.53 2575.5 904.53M187.5 825.527 2575.5 825.527M187.5 746.5 2575.5 746.5" stroke="#D9D9D9" stroke-width="3.4375" stroke-linejoin="round" stroke-miterlimit="10" fill="none"/></g><g><path d="M187.5 1935.5 2575.5 1935.5" stroke="#D9D9D9" stroke-width="3.4375" stroke-linejoin="round" stroke-miterlimit="10" fill="none" fill-rule="evenodd"/></g><g><path d="M585 1171 1381.05 1056.03 2177 1016" stroke="#5B9BD5" stroke-width="10.3125" stroke-linecap="round" stroke-linejoin="round" stroke-miterlimit="10" fill="none"/></g><g><path d="M596.996 1170.68C596.996 1176.76 592.071 1181.68 585.996 1181.68 579.921 1181.68 574.996 1176.76 574.996 1170.68 574.996 1164.61 579.921 1159.68 585.996 1159.68 592.071 1159.68 596.996 1164.61 596.996 1170.68Z" stroke="#5B9BD5" stroke-width="3.4375" stroke-linejoin="round" stroke-miterlimit="10" fill="#5B9BD5"/><path d="M1393 1055.68C1393 1061.76 1388.07 1066.68 1382 1066.68 1375.92 1066.68 1371 1061.76 1371 1055.68 1371 1049.61 1375.92 1044.68 1382 1044.68 1388.07 1044.68 1393 1049.61 1393 1055.68Z" stroke="#5B9BD5" stroke-width="3.4375" stroke-linejoin="round" stroke-miterlimit="10" fill="#5B9BD5"/><path d="M2189 1015.68C2189 1021.76 2184.07 1026.68 2178 1026.68 2171.92 1026.68 2167 1021.76 2167 1015.68 2167 1009.61 2171.92 1004.68 2178 1004.68 2184.07 1004.68 2189 1009.61 2189 1015.68Z" stroke="#5B9BD5" stroke-width="3.4375" stroke-linejoin="round" stroke-miterlimit="10" fill="#5B9BD5"/></g><g><path d="M585 1183 1381.05 818 2177 945.031" stroke="#ED7D31" stroke-width="10.3125" stroke-linecap="round" stroke-linejoin="round" stroke-miterlimit="10" fill="none"/></g><g><path d="M596.996 1182.68C596.996 1188.76 592.071 1193.68 585.996 1193.68 579.921 1193.68 574.996 1188.76 574.996 1182.68 574.996 1176.61 579.921 1171.68 585.996 1171.68 592.071 1171.68 596.996 1176.61 596.996 1182.68Z" stroke="#ED7D31" stroke-width="3.4375" stroke-linejoin="round" stroke-miterlimit="10" fill="#ED7D31"/><path d="M1393 817.681C1393 823.756 1388.07 828.681 1382 828.681 1375.92 828.681 1371 823.756 1371 817.681 1371 811.607 1375.92 806.682 1382 806.682 1388.07 806.682 1393 811.607 1393 817.681Z" stroke="#ED7D31" stroke-width="3.4375" stroke-linejoin="round" stroke-miterlimit="10" fill="#ED7D31"/><path d="M2189 944.682C2189 950.757 2184.07 955.681 2178 955.681 2171.92 955.681 2167 950.757 2167 944.682 2167 938.607 2171.92 933.682 2178 933.682 2184.07 933.682 2189 938.607 2189 944.682Z" stroke="#ED7D31" stroke-width="3.4375" stroke-linejoin="round" stroke-miterlimit="10" fill="#ED7D31"/></g><g><path d="M585 925.03 1381.05 933 2177 826" stroke="#A5A5A5" stroke-width="10.3125" stroke-linecap="round" stroke-linejoin="round" stroke-miterlimit="10" fill="none"/></g><g><path d="M596.996 924.682C596.996 930.757 592.071 935.681 585.996 935.681 579.921 935.681 574.996 930.757 574.996 924.682 574.996 918.607 579.921 913.682 585.996 913.682 592.071 913.682 596.996 918.607 596.996 924.682Z" stroke="#A5A5A5" stroke-width="3.4375" stroke-linejoin="round" stroke-miterlimit="10" fill="#A5A5A5"/><path d="M1393 932.682C1393 938.757 1388.07 943.681 1382 943.681 1375.92 943.681 1371 938.757 1371 932.682 1371 926.607 1375.92 921.682 1382 921.682 1388.07 921.682 1393 926.607 1393 932.682Z" stroke="#A5A5A5" stroke-width="3.4375" stroke-linejoin="round" stroke-miterlimit="10" fill="#A5A5A5"/><path d="M2189 825.682C2189 831.757 2184.07 836.681 2178 836.681 2171.92 836.681 2167 831.757 2167 825.682 2167 819.607 2171.92 814.682 2178 814.682 2184.07 814.682 2189 819.607 2189 825.682Z" stroke="#A5A5A5" stroke-width="3.4375" stroke-linejoin="round" stroke-miterlimit="10" fill="#A5A5A5"/></g><g><path d="M585 1619 1381.05 1294.04 2177 1270" stroke="#FFC000" stroke-width="10.3125" stroke-linecap="round" stroke-linejoin="round" stroke-miterlimit="10" fill="none"/></g><g><path d="M596.996 1618.68C596.996 1624.76 592.071 1629.68 585.996 1629.68 579.921 1629.68 574.996 1624.76 574.996 1618.68 574.996 1612.61 579.921 1607.68 585.996 1607.68 592.071 1607.68 596.996 1612.61 596.996 1618.68Z" stroke="#FFC000" stroke-width="3.4375" stroke-linejoin="round" stroke-miterlimit="10" fill="#FFC000"/><path d="M1393 1293.68C1393 1299.76 1388.07 1304.68 1382 1304.68 1375.92 1304.68 1371 1299.76 1371 1293.68 1371 1287.61 1375.92 1282.68 1382 1282.68 1388.07 1282.68 1393 1287.61 1393 1293.68Z" stroke="#FFC000" stroke-width="3.4375" stroke-linejoin="round" stroke-miterlimit="10" fill="#FFC000"/><path d="M2189 1269.68C2189 1275.76 2184.07 1280.68 2178 1280.68 2171.92 1280.68 2167 1275.76 2167 1269.68 2167 1263.61 2171.92 1258.68 2178 1258.68 2184.07 1258.68 2189 1263.61 2189 1269.68Z" stroke="#FFC000" stroke-width="3.4375" stroke-linejoin="round" stroke-miterlimit="10" fill="#FFC000"/></g><g><path d="M585 1936 1381.05 1270 2177 1270" stroke="#4472C4" stroke-width="10.3125" stroke-linecap="round" stroke-linejoin="round" stroke-miterlimit="10" fill="none"/></g><g><path d="M596.996 1935.68C596.996 1941.76 592.071 1946.68 585.996 1946.68 579.921 1946.68 574.996 1941.76 574.996 1935.68 574.996 1929.61 579.921 1924.68 585.996 1924.68 592.071 1924.68 596.996 1929.61 596.996 1935.68Z" stroke="#4472C4" stroke-width="3.4375" stroke-linejoin="round" stroke-miterlimit="10" fill="#4472C4"/><path d="M1393 1269.68C1393 1275.76 1388.07 1280.68 1382 1280.68 1375.92 1280.68 1371 1275.76 1371 1269.68 1371 1263.61 1375.92 1258.68 1382 1258.68 1388.07 1258.68 1393 1263.61 1393 1269.68Z" stroke="#4472C4" stroke-width="3.4375" stroke-linejoin="round" stroke-miterlimit="10" fill="#4472C4"/><path d="M2189 1269.68C2189 1275.76 2184.07 1280.68 2178 1280.68 2171.92 1280.68 2167 1275.76 2167 1269.68 2167 1263.61 2171.92 1258.68 2178 1258.68 2184.07 1258.68 2189 1263.61 2189 1269.68Z" stroke="#4472C4" stroke-width="3.4375" stroke-linejoin="round" stroke-miterlimit="10" fill="#4472C4"/></g><g><path d="M585 1650 1381.05 1297.04 2177 1246" stroke="#70AD47" stroke-width="10.3125" stroke-linecap="round" stroke-linejoin="round" stroke-miterlimit="10" fill="none"/></g><g><path d="M596.996 1650.68C596.996 1656.76 592.071 1661.68 585.996 1661.68 579.921 1661.68 574.996 1656.76 574.996 1650.68 574.996 1644.61 579.921 1639.68 585.996 1639.68 592.071 1639.68 596.996 1644.61 596.996 1650.68Z" stroke="#70AD47" stroke-width="3.4375" stroke-linejoin="round" stroke-miterlimit="10" fill="#70AD47"/><path d="M1393 1297.68C1393 1303.76 1388.07 1308.68 1382 1308.68 1375.92 1308.68 1371 1303.76 1371 1297.68 1371 1291.61 1375.92 1286.68 1382 1286.68 1388.07 1286.68 1393 1291.61 1393 1297.68Z" stroke="#70AD47" stroke-width="3.4375" stroke-linejoin="round" stroke-miterlimit="10" fill="#70AD47"/><path d="M2189 1245.68C2189 1251.76 2184.07 1256.68 2178 1256.68 2171.92 1256.68 2167 1251.76 2167 1245.68 2167 1239.61 2171.92 1234.68 2178 1234.68 2184.07 1234.68 2189 1239.61 2189 1245.68Z" stroke="#70AD47" stroke-width="3.4375" stroke-linejoin="round" stroke-miterlimit="10" fill="#70AD47"/></g><g><text fill="#595959" font-family="Calibri,Calibri_MSFontService,sans-serif" font-weight="400" font-size="41" transform="matrix(1 0 0 1 128.015 1948)">0</text></g><g><text fill="#595959" font-family="Calibri,Calibri_MSFontService,sans-serif" font-weight="400" font-size="41" transform="matrix(1 0 0 1 107.115 1868)">10</text></g><g><text fill="#595959" font-family="Calibri,Calibri_MSFontService,sans-serif" font-weight="400" font-size="41" transform="matrix(1 0 0 1 107.115 1789)">20</text></g><g><text fill="#595959" font-family="Calibri,Calibri_MSFontService,sans-serif" font-weight="400" font-size="41" transform="matrix(1 0 0 1 107.115 1710)">30</text></g><g><text fill="#595959" font-family="Calibri,Calibri_MSFontService,sans-serif" font-weight="400" font-size="41" transform="matrix(1 0 0 1 107.115 1630)">40</text></g><g><text fill="#595959" font-family="Calibri,Calibri_MSFontService,sans-serif" font-weight="400" font-size="41" transform="matrix(1 0 0 1 107.115 1551)">50</text></g><g><text fill="#595959" font-family="Calibri,Calibri_MSFontService,sans-serif" font-weight="400" font-size="41" transform="matrix(1 0 0 1 107.115 1472)">60</text></g><g><text fill="#595959" font-family="Calibri,Calibri_MSFontService,sans-serif" font-weight="400" font-size="41" transform="matrix(1 0 0 1 107.115 1392)">70</text></g><g><text fill="#595959" font-family="Calibri,Calibri_MSFontService,sans-serif" font-weight="400" font-size="41" transform="matrix(1 0 0 1 107.115 1313)">80</text></g><g><text fill="#595959" font-family="Calibri,Calibri_MSFontService,sans-serif" font-weight="400" font-size="41" transform="matrix(1 0 0 1 107.115 1234)">90</text></g><g><text fill="#595959" font-family="Calibri,Calibri_MSFontService,sans-serif" font-weight="400" font-size="41" transform="matrix(1 0 0 1 86.2147 1154)">100</text></g><g><text fill="#595959" font-family="Calibri,Calibri_MSFontService,sans-serif" font-weight="400" font-size="41" transform="matrix(1 0 0 1 86.2147 1075)">110</text></g><g><text fill="#595959" font-family="Calibri,Calibri_MSFontService,sans-serif" font-weight="400" font-size="41" transform="matrix(1 0 0 1 86.2147 996)">120</text></g><g><text fill="#595959" font-family="Calibri,Calibri_MSFontService,sans-serif" font-weight="400" font-size="41" transform="matrix(1 0 0 1 86.2147 916)">130</text></g><g><text fill="#595959" font-family="Calibri,Calibri_MSFontService,sans-serif" font-weight="400" font-size="41" transform="matrix(1 0 0 1 86.2147 837)">140</text></g><g><text fill="#595959" font-family="Calibri,Calibri_MSFontService,sans-serif" font-weight="400" font-size="41" transform="matrix(1 0 0 1 86.2147 758)">150</text></g><g><text fill="#595959" font-family="Calibri,Calibri_MSFontService,sans-serif" font-weight="400" font-size="41" transform="matrix(1 0 0 1 543.966 2001)">312a</text></g><g><text fill="#595959" font-family="Calibri,Calibri_MSFontService,sans-serif" font-weight="400" font-size="41" transform="matrix(1 0 0 1 1339.99 2001)">403a</text></g><g><text fill="#595959" font-family="Calibri,Calibri_MSFontService,sans-serif" font-weight="400" font-size="41" transform="matrix(1 0 0 1 2136.01 2001)">404a</text></g><g><text fill="#595959" font-family="DengXian,DengXian_MSFontService,sans-serif" font-weight="400" font-size="64" transform="matrix(1 0 0 1 1041.95 694)">大考各科成绩折线图</text></g><g><path d="M650 2047 738 2047" stroke="#5B9BD5" stroke-width="10.3125" stroke-linecap="round" stroke-linejoin="round" stroke-miterlimit="10" fill="none" fill-rule="evenodd"/></g><g><path d="M705 2047C705 2053.07 700.075 2058 694 2058 687.925 2058 683 2053.07 683 2047 683 2040.92 687.925 2036 694 2036 700.075 2036 705 2040.92 705 2047Z" stroke="#5B9BD5" stroke-width="3.4375" stroke-linejoin="round" stroke-miterlimit="10" fill="#5B9BD5"/></g><g><g><text fill="#595959" font-family="DengXian,DengXian_MSFontService,sans-serif" font-weight="400" font-size="41" transform="matrix(1 0 0 1 747.418 2057)">语文</text></g></g><g><path d="M887 2047 975 2047" stroke="#ED7D31" stroke-width="10.3125" stroke-linecap="round" stroke-linejoin="round" stroke-miterlimit="10" fill="none" fill-rule="evenodd"/></g><g><path d="M941 2047C941 2053.07 936.075 2058 930 2058 923.925 2058 919 2053.07 919 2047 919 2040.92 923.925 2036 930 2036 936.075 2036 941 2040.92 941 2047Z" stroke="#ED7D31" stroke-width="3.4375" stroke-linejoin="round" stroke-miterlimit="10" fill="#ED7D31"/></g><g><g><text fill="#595959" font-family="DengXian,DengXian_MSFontService,sans-serif" font-weight="400" font-size="41" transform="matrix(1 0 0 1 984.037 2057)">数学</text></g></g><g><path d="M1123 2047 1211 2047" stroke="#A5A5A5" stroke-width="10.3125" stroke-linecap="round" stroke-linejoin="round" stroke-miterlimit="10" fill="none" fill-rule="evenodd"/></g><g><path d="M1178 2047C1178 2053.07 1173.07 2058 1167 2058 1160.92 2058 1156 2053.07 1156 2047 1156 2040.92 1160.92 2036 1167 2036 1173.07 2036 1178 2040.92 1178 2047Z" stroke="#A5A5A5" stroke-width="3.4375" stroke-linejoin="round" stroke-miterlimit="10" fill="#A5A5A5"/></g><g><g><text fill="#595959" font-family="DengXian,DengXian_MSFontService,sans-serif" font-weight="400" font-size="41" transform="matrix(1 0 0 1 1220.66 2057)">英语</text></g></g><g><path d="M1360 2047 1448 2047" stroke="#FFC000" stroke-width="10.3125" stroke-linecap="round" stroke-linejoin="round" stroke-miterlimit="10" fill="none" fill-rule="evenodd"/></g><g><path d="M1414 2047C1414 2053.07 1409.08 2058 1403 2058 1396.93 2058 1392 2053.07 1392 2047 1392 2040.92 1396.93 2036 1403 2036 1409.08 2036 1414 2040.92 1414 2047Z" stroke="#FFC000" stroke-width="3.4375" stroke-linejoin="round" stroke-miterlimit="10" fill="#FFC000"/></g><g><g><text fill="#595959" font-family="DengXian,DengXian_MSFontService,sans-serif" font-weight="400" font-size="41" transform="matrix(1 0 0 1 1457.28 2057)">物理</text></g></g><g><path d="M1597 2047 1685 2047" stroke="#4472C4" stroke-width="10.3125" stroke-linecap="round" stroke-linejoin="round" stroke-miterlimit="10" fill="none" fill-rule="evenodd"/></g><g><path d="M1651 2047C1651 2053.07 1646.07 2058 1640 2058 1633.92 2058 1629 2053.07 1629 2047 1629 2040.92 1633.92 2036 1640 2036 1646.07 2036 1651 2040.92 1651 2047Z" stroke="#4472C4" stroke-width="3.4375" stroke-linejoin="round" stroke-miterlimit="10" fill="#4472C4"/></g><g><g><text fill="#595959" font-family="DengXian,DengXian_MSFontService,sans-serif" font-weight="400" font-size="41" transform="matrix(1 0 0 1 1693.89 2057)">化学</text></g></g><g><path d="M1833 2047 1921 2047" stroke="#70AD47" stroke-width="10.3125" stroke-linecap="round" stroke-linejoin="round" stroke-miterlimit="10" fill="none" fill-rule="evenodd"/></g><g><path d="M1888 2047C1888 2053.07 1883.08 2058 1877 2058 1870.93 2058 1866 2053.07 1866 2047 1866 2040.92 1870.93 2036 1877 2036 1883.08 2036 1888 2040.92 1888 2047Z" stroke="#70AD47" stroke-width="3.4375" stroke-linejoin="round" stroke-miterlimit="10" fill="#70AD47"/></g><g><g><text fill="#595959" font-family="DengXian,DengXian_MSFontService,sans-serif" font-weight="400" font-size="41" transform="matrix(1 0 0 1 1930.51 2057)">生物</text></g></g><rect x="9.50013" y="602.5" width="2641" height="1484" stroke="#D9D9D9" stroke-width="3.4375" stroke-linejoin="round" stroke-miterlimit="10" fill="none"/></g></svg>