<svg width="2644" height="1487" xmlns="http://www.w3.org/2000/svg" xml:space="preserve" overflow="hidden"><defs><clipPath id="a"><path d="M8 601h2644v1487H8z"/></clipPath></defs><g clip-path="url(#a)" transform="translate(-8 -601)"><path fill="#FFF" d="M9 602h2641v1484H9z"/><path d="M187.5 1856.56h2388m-2388-79h2388m-2388-80h2388m-2388-79.01h2388m-2388-79h2388m-2388-79h2388m-2388-80h2388m-2388-79.01h2388m-2388-79h2388m-2388-80h2388m-2388-79h2388m-2388-79.008h2388m-2388-80.002h2388m-2388-79.003h2388M187.5 746.5h2388M187.5 1935.5h2388" stroke="#D9D9D9" stroke-width="3.438" stroke-linejoin="round" stroke-miterlimit="10" fill="none"/><path d="m585 1171 796.05-114.97L2177 1016" stroke="#5B9BD5" stroke-width="10.313" stroke-linecap="round" stroke-linejoin="round" stroke-miterlimit="10" fill="none"/><g stroke="#5B9BD5" stroke-width="3.438" stroke-linejoin="round" stroke-miterlimit="10" fill="#5B9BD5"><path d="M596.996 1170.68c0 6.08-4.925 11-11 11s-11-4.92-11-11c0-6.07 4.925-11 11-11s11 4.93 11 11ZM1393 1055.68c0 6.08-4.93 11-11 11-6.08 0-11-4.92-11-11 0-6.07 4.92-11 11-11 6.07 0 11 4.93 11 11ZM2189 1015.68c0 6.08-4.93 11-11 11-6.08 0-11-4.92-11-11 0-6.07 4.92-11 11-11 6.07 0 11 4.93 11 11Z"/></g><path d="m585 1183 796.05-365L2177 945.031" stroke="#ED7D31" stroke-width="10.313" stroke-linecap="round" stroke-linejoin="round" stroke-miterlimit="10" fill="none"/><g stroke="#ED7D31" stroke-width="3.438" stroke-linejoin="round" stroke-miterlimit="10" fill="#ED7D31"><path d="M596.996 1182.68c0 6.08-4.925 11-11 11s-11-4.92-11-11c0-6.07 4.925-11 11-11s11 4.93 11 11ZM1393 817.681c0 6.075-4.93 11-11 11-6.08 0-11-4.925-11-11 0-6.074 4.92-10.999 11-10.999 6.07 0 11 4.925 11 10.999ZM2189 944.682c0 6.075-4.93 10.999-11 10.999-6.08 0-11-4.924-11-10.999s4.92-11 11-11c6.07 0 11 4.925 11 11Z"/></g><path d="m585 925.03 796.05 7.97L2177 826" stroke="#A5A5A5" stroke-width="10.313" stroke-linecap="round" stroke-linejoin="round" stroke-miterlimit="10" fill="none"/><g stroke="#A5A5A5" stroke-width="3.438" stroke-linejoin="round" stroke-miterlimit="10" fill="#A5A5A5"><path d="M596.996 924.682c0 6.075-4.925 10.999-11 10.999s-11-4.924-11-10.999 4.925-11 11-11 11 4.925 11 11ZM1393 932.682c0 6.075-4.93 10.999-11 10.999-6.08 0-11-4.924-11-10.999s4.92-11 11-11c6.07 0 11 4.925 11 11ZM2189 825.682c0 6.075-4.93 10.999-11 10.999-6.08 0-11-4.924-11-10.999s4.92-11 11-11c6.07 0 11 4.925 11 11Z"/></g><path d="m585 1619 796.05-324.96L2177 1270" stroke="#FFC000" stroke-width="10.313" stroke-linecap="round" stroke-linejoin="round" stroke-miterlimit="10" fill="none"/><g stroke="#FFC000" stroke-width="3.438" stroke-linejoin="round" stroke-miterlimit="10" fill="#FFC000"><path d="M596.996 1618.68c0 6.08-4.925 11-11 11s-11-4.92-11-11c0-6.07 4.925-11 11-11s11 4.93 11 11ZM1393 1293.68c0 6.08-4.93 11-11 11-6.08 0-11-4.92-11-11 0-6.07 4.92-11 11-11 6.07 0 11 4.93 11 11ZM2189 1269.68c0 6.08-4.93 11-11 11-6.08 0-11-4.92-11-11 0-6.07 4.92-11 11-11 6.07 0 11 4.93 11 11Z"/></g><path d="m585 1936 796.05-666H2177" stroke="#4472C4" stroke-width="10.313" stroke-linecap="round" stroke-linejoin="round" stroke-miterlimit="10" fill="none"/><g stroke="#4472C4" stroke-width="3.438" stroke-linejoin="round" stroke-miterlimit="10" fill="#4472C4"><path d="M596.996 1935.68c0 6.08-4.925 11-11 11s-11-4.92-11-11c0-6.07 4.925-11 11-11s11 4.93 11 11ZM1393 1269.68c0 6.08-4.93 11-11 11-6.08 0-11-4.92-11-11 0-6.07 4.92-11 11-11 6.07 0 11 4.93 11 11ZM2189 1269.68c0 6.08-4.93 11-11 11-6.08 0-11-4.92-11-11 0-6.07 4.92-11 11-11 6.07 0 11 4.93 11 11Z"/></g><path d="m585 1650 796.05-352.96L2177 1246" stroke="#70AD47" stroke-width="10.313" stroke-linecap="round" stroke-linejoin="round" stroke-miterlimit="10" fill="none"/><g stroke="#70AD47" stroke-width="3.438" stroke-linejoin="round" stroke-miterlimit="10" fill="#70AD47"><path d="M596.996 1650.68c0 6.08-4.925 11-11 11s-11-4.92-11-11c0-6.07 4.925-11 11-11s11 4.93 11 11ZM1393 1297.68c0 6.08-4.93 11-11 11-6.08 0-11-4.92-11-11 0-6.07 4.92-11 11-11 6.07 0 11 4.93 11 11ZM2189 1245.68c0 6.08-4.93 11-11 11-6.08 0-11-4.92-11-11 0-6.07 4.92-11 11-11 6.07 0 11 4.93 11 11Z"/></g><text fill="#595959" font-family="Calibri,Calibri_MSFontService,sans-serif" font-weight="400" font-size="41" transform="translate(128.015 1948)">0</text><text fill="#595959" font-family="Calibri,Calibri_MSFontService,sans-serif" font-weight="400" font-size="41" transform="translate(107.115 1868)">10</text><text fill="#595959" font-family="Calibri,Calibri_MSFontService,sans-serif" font-weight="400" font-size="41" transform="translate(107.115 1789)">20</text><text fill="#595959" font-family="Calibri,Calibri_MSFontService,sans-serif" font-weight="400" font-size="41" transform="translate(107.115 1710)">30</text><text fill="#595959" font-family="Calibri,Calibri_MSFontService,sans-serif" font-weight="400" font-size="41" transform="translate(107.115 1630)">40</text><text fill="#595959" font-family="Calibri,Calibri_MSFontService,sans-serif" font-weight="400" font-size="41" transform="translate(107.115 1551)">50</text><text fill="#595959" font-family="Calibri,Calibri_MSFontService,sans-serif" font-weight="400" font-size="41" transform="translate(107.115 1472)">60</text><text fill="#595959" font-family="Calibri,Calibri_MSFontService,sans-serif" font-weight="400" font-size="41" transform="translate(107.115 1392)">70</text><text fill="#595959" font-family="Calibri,Calibri_MSFontService,sans-serif" font-weight="400" font-size="41" transform="translate(107.115 1313)">80</text><text fill="#595959" font-family="Calibri,Calibri_MSFontService,sans-serif" font-weight="400" font-size="41" transform="translate(107.115 1234)">90</text><text fill="#595959" font-family="Calibri,Calibri_MSFontService,sans-serif" font-weight="400" font-size="41" transform="translate(86.215 1154)">100</text><text fill="#595959" font-family="Calibri,Calibri_MSFontService,sans-serif" font-weight="400" font-size="41" transform="translate(86.215 1075)">110</text><text fill="#595959" font-family="Calibri,Calibri_MSFontService,sans-serif" font-weight="400" font-size="41" transform="translate(86.215 996)">120</text><text fill="#595959" font-family="Calibri,Calibri_MSFontService,sans-serif" font-weight="400" font-size="41" transform="translate(86.215 916)">130</text><text fill="#595959" font-family="Calibri,Calibri_MSFontService,sans-serif" font-weight="400" font-size="41" transform="translate(86.215 837)">140</text><text fill="#595959" font-family="Calibri,Calibri_MSFontService,sans-serif" font-weight="400" font-size="41" transform="translate(86.215 758)">150</text><text fill="#595959" font-family="Calibri,Calibri_MSFontService,sans-serif" font-weight="400" font-size="41" transform="translate(543.966 2001)">312a</text><text fill="#595959" font-family="Calibri,Calibri_MSFontService,sans-serif" font-weight="400" font-size="41" transform="translate(1339.99 2001)">403a</text><text fill="#595959" font-family="Calibri,Calibri_MSFontService,sans-serif" font-weight="400" font-size="41" transform="translate(2136.01 2001)">404a</text><text fill="#595959" font-family="DengXian,DengXian_MSFontService,sans-serif" font-weight="400" font-size="64" transform="translate(1041.95 694)">大考各科成绩折线图</text><path d="M650 2047h88" stroke="#5B9BD5" stroke-width="10.313" stroke-linecap="round" stroke-linejoin="round" stroke-miterlimit="10" fill="none"/><path d="M705 2047c0 6.07-4.925 11-11 11s-11-4.93-11-11c0-6.08 4.925-11 11-11s11 4.92 11 11Z" stroke="#5B9BD5" stroke-width="3.438" stroke-linejoin="round" stroke-miterlimit="10" fill="#5B9BD5"/><text fill="#595959" font-family="DengXian,DengXian_MSFontService,sans-serif" font-weight="400" font-size="41" transform="translate(747.418 2057)">语文</text><path d="M887 2047h88" stroke="#ED7D31" stroke-width="10.313" stroke-linecap="round" stroke-linejoin="round" stroke-miterlimit="10" fill="none"/><path d="M941 2047c0 6.07-4.925 11-11 11s-11-4.93-11-11c0-6.08 4.925-11 11-11s11 4.92 11 11Z" stroke="#ED7D31" stroke-width="3.438" stroke-linejoin="round" stroke-miterlimit="10" fill="#ED7D31"/><text fill="#595959" font-family="DengXian,DengXian_MSFontService,sans-serif" font-weight="400" font-size="41" transform="translate(984.037 2057)">数学</text><path d="M1123 2047h88" stroke="#A5A5A5" stroke-width="10.313" stroke-linecap="round" stroke-linejoin="round" stroke-miterlimit="10" fill="none"/><path d="M1178 2047c0 6.07-4.93 11-11 11-6.08 0-11-4.93-11-11 0-6.08 4.92-11 11-11 6.07 0 11 4.92 11 11Z" stroke="#A5A5A5" stroke-width="3.438" stroke-linejoin="round" stroke-miterlimit="10" fill="#A5A5A5"/><text fill="#595959" font-family="DengXian,DengXian_MSFontService,sans-serif" font-weight="400" font-size="41" transform="translate(1220.66 2057)">英语</text><path d="M1360 2047h88" stroke="#FFC000" stroke-width="10.313" stroke-linecap="round" stroke-linejoin="round" stroke-miterlimit="10" fill="none"/><path d="M1414 2047c0 6.07-4.92 11-11 11-6.07 0-11-4.93-11-11 0-6.08 4.93-11 11-11 6.08 0 11 4.92 11 11Z" stroke="#FFC000" stroke-width="3.438" stroke-linejoin="round" stroke-miterlimit="10" fill="#FFC000"/><text fill="#595959" font-family="DengXian,DengXian_MSFontService,sans-serif" font-weight="400" font-size="41" transform="translate(1457.28 2057)">物理</text><path d="M1597 2047h88" stroke="#4472C4" stroke-width="10.313" stroke-linecap="round" stroke-linejoin="round" stroke-miterlimit="10" fill="none"/><path d="M1651 2047c0 6.07-4.93 11-11 11-6.08 0-11-4.93-11-11 0-6.08 4.92-11 11-11 6.07 0 11 4.92 11 11Z" stroke="#4472C4" stroke-width="3.438" stroke-linejoin="round" stroke-miterlimit="10" fill="#4472C4"/><text fill="#595959" font-family="DengXian,DengXian_MSFontService,sans-serif" font-weight="400" font-size="41" transform="translate(1693.89 2057)">化学</text><path d="M1833 2047h88" stroke="#70AD47" stroke-width="10.313" stroke-linecap="round" stroke-linejoin="round" stroke-miterlimit="10" fill="none"/><path d="M1888 2047c0 6.07-4.92 11-11 11-6.07 0-11-4.93-11-11 0-6.08 4.93-11 11-11 6.08 0 11 4.92 11 11Z" stroke="#70AD47" stroke-width="3.438" stroke-linejoin="round" stroke-miterlimit="10" fill="#70AD47"/><text fill="#595959" font-family="DengXian,DengXian_MSFontService,sans-serif" font-weight="400" font-size="41" transform="translate(1930.51 2057)">生物</text><path stroke="#D9D9D9" stroke-width="3.438" stroke-linejoin="round" stroke-miterlimit="10" fill="none" d="M9.5 602.5h2641v1484H9.5z"/></g></svg>