<svg width="2643" height="1489" xmlns="http://www.w3.org/2000/svg" xmlns:xlink="http://www.w3.org/1999/xlink" xml:space="preserve" overflow="hidden"><defs><clipPath id="clip0"><rect x="182" y="425" width="2643" height="1489"/></clipPath></defs><g clip-path="url(#clip0)" transform="translate(-182 -425)"><rect x="183" y="426" width="2640" height="1486" fill="#FFFFFF"/><g><path d="M313.5 1655.55 2772.5 1655.55M313.5 1554.55 2772.5 1554.55M313.5 1454.55 2772.5 1454.55M313.5 1353.54 2772.5 1353.54M313.5 1253.54 2772.5 1253.54M313.5 1152.54 2772.5 1152.54M313.5 1052.53 2772.5 1052.53M313.5 951.531 2772.5 951.531M313.5 851.528 2772.5 851.528M313.5 750.525 2772.5 750.525M313.5 650.522 2772.5 650.522M313.5 549.5 2772.5 549.5" stroke="#D9D9D9" stroke-width="3.4375" stroke-linejoin="round" stroke-miterlimit="10" fill="none"/></g><g><path d="M313.5 1756.5 2772.5 1756.5" stroke="#D9D9D9" stroke-width="3.4375" stroke-linejoin="round" stroke-miterlimit="10" fill="none" fill-rule="evenodd"/></g><g><path d="M468 1002.03 775.025 610.02 1082.04 851.028 1389.05 1022 1697.06 550 2004.07 731.024 2311.08 761.025 2619 751.025" stroke="#5B9BD5" stroke-width="10.3125" stroke-linecap="round" stroke-linejoin="round" stroke-miterlimit="10" fill="none"/></g><g><path d="M478.669 1002.75C478.669 1008.82 473.744 1013.75 467.669 1013.75 461.594 1013.75 456.67 1008.82 456.67 1002.75 456.67 996.674 461.594 991.749 467.669 991.749 473.744 991.749 478.669 996.674 478.669 1002.75Z" stroke="#5B9BD5" stroke-width="3.4375" stroke-linejoin="round" stroke-miterlimit="10" fill="#5B9BD5"/><path d="M785.669 610.749C785.669 616.824 780.744 621.749 774.669 621.749 768.594 621.749 763.67 616.824 763.67 610.749 763.67 604.674 768.594 599.749 774.669 599.749 780.744 599.749 785.669 604.674 785.669 610.749Z" stroke="#5B9BD5" stroke-width="3.4375" stroke-linejoin="round" stroke-miterlimit="10" fill="#5B9BD5"/><path d="M1093.67 851.749C1093.67 857.824 1088.74 862.749 1082.67 862.749 1076.59 862.749 1071.67 857.824 1071.67 851.749 1071.67 845.674 1076.59 840.749 1082.67 840.749 1088.74 840.749 1093.67 845.674 1093.67 851.749Z" stroke="#5B9BD5" stroke-width="3.4375" stroke-linejoin="round" stroke-miterlimit="10" fill="#5B9BD5"/><path d="M1400.67 1022.75C1400.67 1028.82 1395.74 1033.75 1389.67 1033.75 1383.59 1033.75 1378.67 1028.82 1378.67 1022.75 1378.67 1016.67 1383.59 1011.75 1389.67 1011.75 1395.74 1011.75 1400.67 1016.67 1400.67 1022.75Z" stroke="#5B9BD5" stroke-width="3.4375" stroke-linejoin="round" stroke-miterlimit="10" fill="#5B9BD5"/><path d="M1707.67 549.749C1707.67 555.824 1702.74 560.749 1696.67 560.749 1690.59 560.749 1685.67 555.824 1685.67 549.749 1685.67 543.674 1690.59 538.75 1696.67 538.75 1702.74 538.75 1707.67 543.674 1707.67 549.749Z" stroke="#5B9BD5" stroke-width="3.4375" stroke-linejoin="round" stroke-miterlimit="10" fill="#5B9BD5"/><path d="M2015.67 730.749C2015.67 736.824 2010.74 741.749 2004.67 741.749 1998.59 741.749 1993.67 736.824 1993.67 730.749 1993.67 724.674 1998.59 719.749 2004.67 719.749 2010.74 719.749 2015.67 724.674 2015.67 730.749Z" stroke="#5B9BD5" stroke-width="3.4375" stroke-linejoin="round" stroke-miterlimit="10" fill="#5B9BD5"/><path d="M2322.67 760.749C2322.67 766.824 2317.74 771.748 2311.67 771.748 2305.59 771.748 2300.67 766.824 2300.67 760.749 2300.67 754.674 2305.59 749.749 2311.67 749.749 2317.74 749.749 2322.67 754.674 2322.67 760.749Z" stroke="#5B9BD5" stroke-width="3.4375" stroke-linejoin="round" stroke-miterlimit="10" fill="#5B9BD5"/><path d="M2629.67 750.749C2629.67 756.824 2624.74 761.749 2618.67 761.749 2612.59 761.749 2607.67 756.824 2607.67 750.749 2607.67 744.674 2612.59 739.749 2618.67 739.749 2624.74 739.749 2629.67 744.674 2629.67 750.749Z" stroke="#5B9BD5" stroke-width="3.4375" stroke-linejoin="round" stroke-miterlimit="10" fill="#5B9BD5"/></g><g><text fill="#595959" font-family="Calibri,Calibri_MSFontService,sans-serif" font-weight="400" font-size="41" transform="matrix(1 0 0 1 233.861 1768)">90</text></g><g><text fill="#595959" font-family="Calibri,Calibri_MSFontService,sans-serif" font-weight="400" font-size="41" transform="matrix(1 0 0 1 233.861 1667)">95</text></g><g><text fill="#595959" font-family="Calibri,Calibri_MSFontService,sans-serif" font-weight="400" font-size="41" transform="matrix(1 0 0 1 212.961 1567)">100</text></g><g><text fill="#595959" font-family="Calibri,Calibri_MSFontService,sans-serif" font-weight="400" font-size="41" transform="matrix(1 0 0 1 212.961 1466)">105</text></g><g><text fill="#595959" font-family="Calibri,Calibri_MSFontService,sans-serif" font-weight="400" font-size="41" transform="matrix(1 0 0 1 212.961 1366)">110</text></g><g><text fill="#595959" font-family="Calibri,Calibri_MSFontService,sans-serif" font-weight="400" font-size="41" transform="matrix(1 0 0 1 212.961 1265)">115</text></g><g><text fill="#595959" font-family="Calibri,Calibri_MSFontService,sans-serif" font-weight="400" font-size="41" transform="matrix(1 0 0 1 212.961 1165)">120</text></g><g><text fill="#595959" font-family="Calibri,Calibri_MSFontService,sans-serif" font-weight="400" font-size="41" transform="matrix(1 0 0 1 212.961 1064)">125</text></g><g><text fill="#595959" font-family="Calibri,Calibri_MSFontService,sans-serif" font-weight="400" font-size="41" transform="matrix(1 0 0 1 212.961 963)">130</text></g><g><text fill="#595959" font-family="Calibri,Calibri_MSFontService,sans-serif" font-weight="400" font-size="41" transform="matrix(1 0 0 1 212.961 863)">135</text></g><g><text fill="#595959" font-family="Calibri,Calibri_MSFontService,sans-serif" font-weight="400" font-size="41" transform="matrix(1 0 0 1 212.961 762)">140</text></g><g><text fill="#595959" font-family="Calibri,Calibri_MSFontService,sans-serif" font-weight="400" font-size="41" transform="matrix(1 0 0 1 212.961 662)">145</text></g><g><text fill="#595959" font-family="Calibri,Calibri_MSFontService,sans-serif" font-weight="400" font-size="41" transform="matrix(1 0 0 1 212.961 561)">150</text></g><g><text fill="#595959" font-family="Calibri,Calibri_MSFontService,sans-serif" font-weight="400" font-size="41" transform="matrix(1 0 0 1 426.347 1821)">312a</text></g><g><text fill="#595959" font-family="Calibri,Calibri_MSFontService,sans-serif" font-weight="400" font-size="41" transform="matrix(1 0 0 1 722.226 1821)">403b1</text></g><g><text fill="#595959" font-family="Calibri,Calibri_MSFontService,sans-serif" font-weight="400" font-size="41" transform="matrix(1 0 0 1 1029.52 1821)">403b2</text></g><g><text fill="#595959" font-family="Calibri,Calibri_MSFontService,sans-serif" font-weight="400" font-size="41" transform="matrix(1 0 0 1 1348.22 1821)">403a</text></g><g><text fill="#595959" font-family="Calibri,Calibri_MSFontService,sans-serif" font-weight="400" font-size="41" transform="matrix(1 0 0 1 1644.1 1821)">404b1</text></g><g><text fill="#595959" font-family="Calibri,Calibri_MSFontService,sans-serif" font-weight="400" font-size="41" transform="matrix(1 0 0 1 1951.39 1821)">404b2</text></g><g><text fill="#595959" font-family="Calibri,Calibri_MSFontService,sans-serif" font-weight="400" font-size="41" transform="matrix(1 0 0 1 2258.68 1821)">404b3</text></g><g><text fill="#595959" font-family="Calibri,Calibri_MSFontService,sans-serif" font-weight="400" font-size="41" transform="matrix(1 0 0 1 2577.39 1821)">404a</text></g><g><text fill="#595959" font-family="DengXian,DengXian_MSFontService,sans-serif" font-weight="400" font-size="64" transform="matrix(1 0 0 1 1438.76 504)">英语</text></g><g><path d="M1425 1869 1513 1869" stroke="#5B9BD5" stroke-width="10.3125" stroke-linecap="round" stroke-linejoin="round" stroke-miterlimit="10" fill="none" fill-rule="evenodd"/></g><g><path d="M1479 1868C1479 1874.07 1474.08 1879 1468 1879 1461.93 1879 1457 1874.07 1457 1868 1457 1861.92 1461.93 1857 1468 1857 1474.08 1857 1479 1861.92 1479 1868Z" stroke="#5B9BD5" stroke-width="3.4375" stroke-linejoin="round" stroke-miterlimit="10" fill="#5B9BD5"/></g><g><g><text fill="#595959" font-family="DengXian,DengXian_MSFontService,sans-serif" font-weight="400" font-size="41" transform="matrix(1 0 0 1 1521.83 1879)">分数</text></g></g><rect x="183.5" y="426.5" width="2640" height="1486" stroke="#D9D9D9" stroke-width="3.4375" stroke-linejoin="round" stroke-miterlimit="10" fill="none"/></g></svg>