<svg width="2643" height="1489" xmlns="http://www.w3.org/2000/svg" xml:space="preserve" overflow="hidden"><defs><clipPath id="a"><path d="M182 425h2643v1489H182z"/></clipPath></defs><g clip-path="url(#a)" transform="translate(-182 -425)"><path fill="#FFF" d="M183 426h2640v1486H183z"/><path d="M313.5 1655.55h2459m-2459-101h2459m-2459-100h2459m-2459-101.01h2459m-2459-100h2459m-2459-101h2459m-2459-100.01h2459m-2459-100.999h2459m-2459-100.003h2459m-2459-101.003h2459m-2459-100.003h2459M313.5 549.5h2459M313.5 1756.5h2459" stroke="#D9D9D9" stroke-width="3.438" stroke-linejoin="round" stroke-miterlimit="10" fill="none"/><path d="m468 1002.03 307.025-392.01 307.015 241.008L1389.05 1022l308.01-472 307.01 181.024 307.01 30.001 307.92-10" stroke="#5B9BD5" stroke-width="10.313" stroke-linecap="round" stroke-linejoin="round" stroke-miterlimit="10" fill="none"/><g stroke="#5B9BD5" stroke-width="3.438" stroke-linejoin="round" stroke-miterlimit="10" fill="#5B9BD5"><path d="M478.669 1002.75c0 6.07-4.925 11-11 11s-10.999-4.93-10.999-11c0-6.076 4.924-11.001 10.999-11.001s11 4.925 11 11.001ZM785.669 610.749c0 6.075-4.925 11-11 11s-10.999-4.925-10.999-11 4.924-11 10.999-11 11 4.925 11 11ZM1093.67 851.749c0 6.075-4.93 11-11 11-6.08 0-11-4.925-11-11s4.92-11 11-11c6.07 0 11 4.925 11 11ZM1400.67 1022.75c0 6.07-4.93 11-11 11-6.08 0-11-4.93-11-11 0-6.08 4.92-11 11-11 6.07 0 11 4.92 11 11ZM1707.67 549.749c0 6.075-4.93 11-11 11-6.08 0-11-4.925-11-11s4.92-10.999 11-10.999c6.07 0 11 4.924 11 10.999ZM2015.67 730.749c0 6.075-4.93 11-11 11-6.08 0-11-4.925-11-11s4.92-11 11-11c6.07 0 11 4.925 11 11ZM2322.67 760.749c0 6.075-4.93 10.999-11 10.999-6.08 0-11-4.924-11-10.999s4.92-11 11-11c6.07 0 11 4.925 11 11ZM2629.67 750.749c0 6.075-4.93 11-11 11-6.08 0-11-4.925-11-11s4.92-11 11-11c6.07 0 11 4.925 11 11Z"/></g><text fill="#595959" font-family="Calibri,Calibri_MSFontService,sans-serif" font-weight="400" font-size="41" transform="translate(233.861 1768)">90</text><text fill="#595959" font-family="Calibri,Calibri_MSFontService,sans-serif" font-weight="400" font-size="41" transform="translate(233.861 1667)">95</text><text fill="#595959" font-family="Calibri,Calibri_MSFontService,sans-serif" font-weight="400" font-size="41" transform="translate(212.961 1567)">100</text><text fill="#595959" font-family="Calibri,Calibri_MSFontService,sans-serif" font-weight="400" font-size="41" transform="translate(212.961 1466)">105</text><text fill="#595959" font-family="Calibri,Calibri_MSFontService,sans-serif" font-weight="400" font-size="41" transform="translate(212.961 1366)">110</text><text fill="#595959" font-family="Calibri,Calibri_MSFontService,sans-serif" font-weight="400" font-size="41" transform="translate(212.961 1265)">115</text><text fill="#595959" font-family="Calibri,Calibri_MSFontService,sans-serif" font-weight="400" font-size="41" transform="translate(212.961 1165)">120</text><text fill="#595959" font-family="Calibri,Calibri_MSFontService,sans-serif" font-weight="400" font-size="41" transform="translate(212.961 1064)">125</text><text fill="#595959" font-family="Calibri,Calibri_MSFontService,sans-serif" font-weight="400" font-size="41" transform="translate(212.961 963)">130</text><text fill="#595959" font-family="Calibri,Calibri_MSFontService,sans-serif" font-weight="400" font-size="41" transform="translate(212.961 863)">135</text><text fill="#595959" font-family="Calibri,Calibri_MSFontService,sans-serif" font-weight="400" font-size="41" transform="translate(212.961 762)">140</text><text fill="#595959" font-family="Calibri,Calibri_MSFontService,sans-serif" font-weight="400" font-size="41" transform="translate(212.961 662)">145</text><text fill="#595959" font-family="Calibri,Calibri_MSFontService,sans-serif" font-weight="400" font-size="41" transform="translate(212.961 561)">150</text><text fill="#595959" font-family="Calibri,Calibri_MSFontService,sans-serif" font-weight="400" font-size="41" transform="translate(426.347 1821)">312a</text><text fill="#595959" font-family="Calibri,Calibri_MSFontService,sans-serif" font-weight="400" font-size="41" transform="translate(722.226 1821)">403b1</text><text fill="#595959" font-family="Calibri,Calibri_MSFontService,sans-serif" font-weight="400" font-size="41" transform="translate(1029.52 1821)">403b2</text><text fill="#595959" font-family="Calibri,Calibri_MSFontService,sans-serif" font-weight="400" font-size="41" transform="translate(1348.22 1821)">403a</text><text fill="#595959" font-family="Calibri,Calibri_MSFontService,sans-serif" font-weight="400" font-size="41" transform="translate(1644.1 1821)">404b1</text><text fill="#595959" font-family="Calibri,Calibri_MSFontService,sans-serif" font-weight="400" font-size="41" transform="translate(1951.39 1821)">404b2</text><text fill="#595959" font-family="Calibri,Calibri_MSFontService,sans-serif" font-weight="400" font-size="41" transform="translate(2258.68 1821)">404b3</text><text fill="#595959" font-family="Calibri,Calibri_MSFontService,sans-serif" font-weight="400" font-size="41" transform="translate(2577.39 1821)">404a</text><text fill="#595959" font-family="DengXian,DengXian_MSFontService,sans-serif" font-weight="400" font-size="64" transform="translate(1438.76 504)">英语</text><path d="M1425 1869h88" stroke="#5B9BD5" stroke-width="10.313" stroke-linecap="round" stroke-linejoin="round" stroke-miterlimit="10" fill="none"/><path d="M1479 1868c0 6.07-4.92 11-11 11-6.07 0-11-4.93-11-11 0-6.08 4.93-11 11-11 6.08 0 11 4.92 11 11Z" stroke="#5B9BD5" stroke-width="3.438" stroke-linejoin="round" stroke-miterlimit="10" fill="#5B9BD5"/><text fill="#595959" font-family="DengXian,DengXian_MSFontService,sans-serif" font-weight="400" font-size="41" transform="translate(1521.83 1879)">分数</text><path stroke="#D9D9D9" stroke-width="3.438" stroke-linejoin="round" stroke-miterlimit="10" fill="none" d="M183.5 426.5h2640v1486h-2640z"/></g></svg>