<svg width="2644" height="1488" xmlns="http://www.w3.org/2000/svg" xml:space="preserve" overflow="hidden"><defs><clipPath id="a"><path d="M308 335h2644v1488H308z"/></clipPath></defs><g clip-path="url(#a)" transform="translate(-308 -335)"><path fill="#FFF" d="M309 336h2641v1485H309z"/><path d="M440.5 1573.55h2459m-2459-81h2459m-2459-82h2459m-2459-81.01h2459m-2459-82h2459m-2459-81h2459m-2459-82h2459m-2459-82.01h2459m-2459-81h2459m-2459-82.002h2459m-2459-81.003h2459m-2459-82.003h2459m-2459-81.002h2459m-2459-82.003h2459M440.5 431.5h2459M440.5 1655.5h2459" stroke="#D9D9D9" stroke-width="3.438" stroke-linejoin="round" stroke-miterlimit="10" fill="none"/><path d="m616 881 351.032-269.98 351.008-44.001L1670.05 505l351.02 37.018 351.01 122.004L2724 636.021" stroke="#5B9BD5" stroke-width="10.313" stroke-linecap="round" stroke-linejoin="round" stroke-miterlimit="10" fill="none"/><g stroke="#5B9BD5" stroke-width="3.438" stroke-linejoin="round" stroke-miterlimit="10" fill="#5B9BD5"><path d="M626.874 880.393c0 6.075-4.924 11-10.999 11s-11-4.925-11-11 4.925-11 11-11 10.999 4.925 10.999 11ZM978.874 611.393c0 6.075-4.924 10.999-10.999 10.999s-11-4.924-11-10.999 4.925-11 11-11 10.999 4.925 10.999 11ZM1329.87 566.393c0 6.075-4.92 10.999-11 10.999-6.07 0-10.99-4.924-10.99-10.999s4.92-11 10.99-11c6.08 0 11 4.925 11 11ZM1680.87 505.393c0 6.075-4.92 11-11 11-6.07 0-10.99-4.925-10.99-11s4.92-11 10.99-11c6.08 0 11 4.925 11 11ZM2032.87 542.393c0 6.075-4.92 10.999-11 10.999-6.07 0-10.99-4.924-10.99-10.999s4.92-11 10.99-11c6.08 0 11 4.925 11 11ZM2383.87 664.393c0 6.075-4.92 10.999-11 10.999-6.07 0-10.99-4.924-10.99-10.999s4.92-11 10.99-11c6.08 0 11 4.925 11 11ZM2734.87 635.393c0 6.075-4.92 11-11 11-6.07 0-10.99-4.925-10.99-11s4.92-11 10.99-11c6.08 0 11 4.925 11 11Z"/></g><path d="m616 1656 351.032-179.95 351.008 82 352.01 57 351.02-33L2372.08 1423 2724 1549.05" stroke="#ED7D31" stroke-width="10.313" stroke-linecap="round" stroke-linejoin="round" stroke-miterlimit="10" fill="none"/><g stroke="#ED7D31" stroke-width="3.438" stroke-linejoin="round" stroke-miterlimit="10" fill="#ED7D31"><path d="M626.874 1655.39c0 6.08-4.924 11-10.999 11s-11-4.92-11-11c0-6.07 4.925-11 11-11s10.999 4.93 10.999 11ZM978.874 1476.39c0 6.08-4.924 11-10.999 11s-11-4.92-11-11c0-6.07 4.925-11 11-11s10.999 4.93 10.999 11ZM1329.87 1557.39c0 6.08-4.92 11-11 11-6.07 0-10.99-4.92-10.99-11 0-6.07 4.92-11 10.99-11 6.08 0 11 4.93 11 11ZM1680.87 1614.39c0 6.08-4.92 11-11 11-6.07 0-10.99-4.92-10.99-11 0-6.07 4.92-11 10.99-11 6.08 0 11 4.93 11 11ZM2032.87 1582.39c0 6.08-4.92 11-11 11-6.07 0-10.99-4.92-10.99-11 0-6.07 4.92-11 10.99-11 6.08 0 11 4.93 11 11ZM2383.87 1423.39c0 6.08-4.92 11-11 11-6.07 0-10.99-4.92-10.99-11 0-6.07 4.92-11 10.99-11 6.08 0 11 4.93 11 11ZM2734.87 1549.39c0 6.08-4.92 11-11 11-6.07 0-10.99-4.92-10.99-11 0-6.07 4.92-11 10.99-11 6.08 0 11 4.93 11 11Z"/></g><path d="M616 1656h351.032l351.008-36.95 352.01 4 351.02-4 351.01 36.95 351.92-98" stroke="#A5A5A5" stroke-width="10.313" stroke-linecap="round" stroke-linejoin="round" stroke-miterlimit="10" fill="none"/><g stroke="#A5A5A5" stroke-width="3.438" stroke-linejoin="round" stroke-miterlimit="10" fill="#A5A5A5"><path d="M626.874 1655.39c0 6.08-4.924 11-10.999 11s-11-4.92-11-11c0-6.07 4.925-11 11-11s10.999 4.93 10.999 11ZM978.874 1655.39c0 6.08-4.924 11-10.999 11s-11-4.92-11-11c0-6.07 4.925-11 11-11s10.999 4.93 10.999 11ZM1329.87 1618.39c0 6.08-4.92 11-11 11-6.07 0-10.99-4.92-10.99-11 0-6.07 4.92-11 10.99-11 6.08 0 11 4.93 11 11ZM1680.87 1622.39c0 6.08-4.92 11-11 11-6.07 0-10.99-4.92-10.99-11 0-6.07 4.92-11 10.99-11 6.08 0 11 4.93 11 11ZM2032.87 1618.39c0 6.08-4.92 11-11 11-6.07 0-10.99-4.92-10.99-11 0-6.07 4.92-11 10.99-11 6.08 0 11 4.93 11 11ZM2383.87 1655.39c0 6.08-4.92 11-11 11-6.07 0-10.99-4.92-10.99-11 0-6.07 4.92-11 10.99-11 6.08 0 11 4.93 11 11ZM2734.87 1557.39c0 6.08-4.92 11-11 11-6.07 0-10.99-4.92-10.99-11 0-6.07 4.92-11 10.99-11 6.08 0 11 4.93 11 11Z"/></g><text fill="#595959" font-family="Calibri,Calibri_MSFontService,sans-serif" font-weight="400" font-size="41" transform="translate(380.967 1667)">0</text><text fill="#595959" font-family="Calibri,Calibri_MSFontService,sans-serif" font-weight="400" font-size="41" transform="translate(360.067 1586)">10</text><text fill="#595959" font-family="Calibri,Calibri_MSFontService,sans-serif" font-weight="400" font-size="41" transform="translate(360.067 1504)">20</text><text fill="#595959" font-family="Calibri,Calibri_MSFontService,sans-serif" font-weight="400" font-size="41" transform="translate(360.067 1422)">30</text><text fill="#595959" font-family="Calibri,Calibri_MSFontService,sans-serif" font-weight="400" font-size="41" transform="translate(360.067 1341)">40</text><text fill="#595959" font-family="Calibri,Calibri_MSFontService,sans-serif" font-weight="400" font-size="41" transform="translate(360.067 1259)">50</text><text fill="#595959" font-family="Calibri,Calibri_MSFontService,sans-serif" font-weight="400" font-size="41" transform="translate(360.067 1178)">60</text><text fill="#595959" font-family="Calibri,Calibri_MSFontService,sans-serif" font-weight="400" font-size="41" transform="translate(360.067 1096)">70</text><text fill="#595959" font-family="Calibri,Calibri_MSFontService,sans-serif" font-weight="400" font-size="41" transform="translate(360.067 1015)">80</text><text fill="#595959" font-family="Calibri,Calibri_MSFontService,sans-serif" font-weight="400" font-size="41" transform="translate(360.067 933)">90</text><text fill="#595959" font-family="Calibri,Calibri_MSFontService,sans-serif" font-weight="400" font-size="41" transform="translate(339.167 851)">100</text><text fill="#595959" font-family="Calibri,Calibri_MSFontService,sans-serif" font-weight="400" font-size="41" transform="translate(339.167 770)">110</text><text fill="#595959" font-family="Calibri,Calibri_MSFontService,sans-serif" font-weight="400" font-size="41" transform="translate(339.167 688)">120</text><text fill="#595959" font-family="Calibri,Calibri_MSFontService,sans-serif" font-weight="400" font-size="41" transform="translate(339.167 607)">130</text><text fill="#595959" font-family="Calibri,Calibri_MSFontService,sans-serif" font-weight="400" font-size="41" transform="translate(339.167 525)">140</text><text fill="#595959" font-family="Calibri,Calibri_MSFontService,sans-serif" font-weight="400" font-size="41" transform="translate(339.167 444)">150</text><text fill="#595959" font-family="Calibri,Calibri_MSFontService,sans-serif" font-weight="400" font-size="41" transform="translate(574.572 1721)">312a</text><text fill="#595959" font-family="Calibri,Calibri_MSFontService,sans-serif" font-weight="400" font-size="41" transform="translate(914.49 1721)">403b1</text><text fill="#595959" font-family="Calibri,Calibri_MSFontService,sans-serif" font-weight="400" font-size="41" transform="translate(1265.82 1721)">403b2</text><text fill="#595959" font-family="Calibri,Calibri_MSFontService,sans-serif" font-weight="400" font-size="41" transform="translate(1628.56 1721)">403a</text><text fill="#595959" font-family="Calibri,Calibri_MSFontService,sans-serif" font-weight="400" font-size="41" transform="translate(1968.48 1721)">404b1</text><text fill="#595959" font-family="Calibri,Calibri_MSFontService,sans-serif" font-weight="400" font-size="41" transform="translate(2319.81 1721)">404b2</text><text fill="#595959" font-family="Calibri,Calibri_MSFontService,sans-serif" font-weight="400" font-size="41" transform="translate(2682.56 1721)">404a</text><text fill="#595959" font-family="DengXian,DengXian_MSFontService,sans-serif" font-weight="400" font-size="64" transform="translate(1565.45 409)">数学</text><path d="M1126 1778h88" stroke="#5B9BD5" stroke-width="10.313" stroke-linecap="round" stroke-linejoin="round" stroke-miterlimit="10" fill="none"/><path d="M1180 1777c0 6.07-4.93 11-11 11-6.08 0-11-4.93-11-11 0-6.08 4.92-11 11-11 6.07 0 11 4.92 11 11Z" stroke="#5B9BD5" stroke-width="3.438" stroke-linejoin="round" stroke-miterlimit="10" fill="#5B9BD5"/><text fill="#595959" font-family="DengXian,DengXian_MSFontService,sans-serif" font-weight="400" font-size="41" transform="translate(1222.96 1787)">分数</text><path d="M1366 1778h88" stroke="#ED7D31" stroke-width="10.313" stroke-linecap="round" stroke-linejoin="round" stroke-miterlimit="10" fill="none"/><path d="M1420 1777c0 6.07-4.93 11-11 11-6.08 0-11-4.93-11-11 0-6.08 4.92-11 11-11 6.07 0 11 4.92 11 11Z" stroke="#ED7D31" stroke-width="3.438" stroke-linejoin="round" stroke-miterlimit="10" fill="#ED7D31"/><text fill="#595959" font-family="DengXian,DengXian_MSFontService,sans-serif" font-weight="400" font-size="41" transform="translate(1462.9 1787)">非能力因素失分</text><path d="M1812 1778h88" stroke="#A5A5A5" stroke-width="10.313" stroke-linecap="round" stroke-linejoin="round" stroke-miterlimit="10" fill="none"/><path d="M1866 1777c0 6.07-4.92 11-11 11-6.07 0-11-4.93-11-11 0-6.08 4.93-11 11-11 6.08 0 11 4.92 11 11Z" stroke="#A5A5A5" stroke-width="3.438" stroke-linejoin="round" stroke-miterlimit="10" fill="#A5A5A5"/><text fill="#595959" font-family="DengXian,DengXian_MSFontService,sans-serif" font-weight="400" font-size="41" transform="translate(1909.09 1787)">能力因素失分</text><path stroke="#D9D9D9" stroke-width="3.438" stroke-linejoin="round" stroke-miterlimit="10" fill="none" d="M309.5 336.5h2641v1485h-2641z"/></g></svg>