<svg width="2650" height="1478" xmlns="http://www.w3.org/2000/svg" xmlns:xlink="http://www.w3.org/1999/xlink" xml:space="preserve" overflow="hidden"><defs><clipPath id="clip0"><rect x="263" y="411" width="2650" height="1478"/></clipPath></defs><g clip-path="url(#clip0)" transform="translate(-263 -411)"><rect x="264" y="412" width="2647" height="1475" fill="#FFFFFF"/><g><path d="M395.5 1606.55 2860.5 1606.55M395.5 1485.55 2860.5 1485.55M395.5 1364.54 2860.5 1364.54M395.5 1243.54 2860.5 1243.54M395.5 1122.54 2860.5 1122.54M395.5 1001.53 2860.5 1001.53M395.5 879.529 2860.5 879.529M395.5 758.525 2860.5 758.525M395.5 637.521 2860.5 637.521M395.5 516.5 2860.5 516.5" stroke="#D9D9D9" stroke-width="3.4375" stroke-linejoin="round" stroke-miterlimit="10" fill="none"/></g><g><path d="M395.5 1727.5 2860.5 1727.5" stroke="#D9D9D9" stroke-width="3.4375" stroke-linejoin="round" stroke-miterlimit="10" fill="none" fill-rule="evenodd"/></g><g><path d="M519 1243 765.025 953.031 1011.03 698.023 1258.04 517 1504.05 747.025 1751.06 856.028 1997.07 711.023 2244.07 819.027 2490.08 711.023 2737 626.021" stroke="#5B9BD5" stroke-width="10.3125" stroke-linecap="round" stroke-linejoin="round" stroke-miterlimit="10" fill="none"/></g><g><path d="M529.695 1244C529.695 1250.07 524.771 1255 518.696 1255 512.621 1255 507.696 1250.07 507.696 1244 507.696 1237.92 512.621 1233 518.696 1233 524.771 1233 529.695 1237.92 529.695 1244Z" stroke="#5B9BD5" stroke-width="3.4375" stroke-linejoin="round" stroke-miterlimit="10" fill="#5B9BD5"/><path d="M776.696 952.999C776.696 959.074 771.771 963.998 765.696 963.998 759.621 963.998 754.696 959.074 754.696 952.999 754.696 946.924 759.621 941.999 765.696 941.999 771.771 941.999 776.696 946.924 776.696 952.999Z" stroke="#5B9BD5" stroke-width="3.4375" stroke-linejoin="round" stroke-miterlimit="10" fill="#5B9BD5"/><path d="M1022.7 698.999C1022.7 705.074 1017.77 709.998 1011.7 709.998 1005.62 709.998 1000.7 705.074 1000.7 698.999 1000.7 692.924 1005.62 687.999 1011.7 687.999 1017.77 687.999 1022.7 692.924 1022.7 698.999Z" stroke="#5B9BD5" stroke-width="3.4375" stroke-linejoin="round" stroke-miterlimit="10" fill="#5B9BD5"/><path d="M1268.7 516.999C1268.7 523.074 1263.77 527.999 1257.7 527.999 1251.62 527.999 1246.7 523.074 1246.7 516.999 1246.7 510.924 1251.62 505.999 1257.7 505.999 1263.77 505.999 1268.7 510.924 1268.7 516.999Z" stroke="#5B9BD5" stroke-width="3.4375" stroke-linejoin="round" stroke-miterlimit="10" fill="#5B9BD5"/><path d="M1515.7 746.999C1515.7 753.074 1510.77 757.998 1504.7 757.998 1498.62 757.998 1493.7 753.074 1493.7 746.999 1493.7 740.924 1498.62 735.999 1504.7 735.999 1510.77 735.999 1515.7 740.924 1515.7 746.999Z" stroke="#5B9BD5" stroke-width="3.4375" stroke-linejoin="round" stroke-miterlimit="10" fill="#5B9BD5"/><path d="M1761.7 855.999C1761.7 862.074 1756.77 866.998 1750.7 866.998 1744.62 866.998 1739.7 862.074 1739.7 855.999 1739.7 849.924 1744.62 844.999 1750.7 844.999 1756.77 844.999 1761.7 849.924 1761.7 855.999Z" stroke="#5B9BD5" stroke-width="3.4375" stroke-linejoin="round" stroke-miterlimit="10" fill="#5B9BD5"/><path d="M2008.7 710.999C2008.7 717.074 2003.77 721.998 1997.7 721.998 1991.62 721.998 1986.7 717.074 1986.7 710.999 1986.7 704.924 1991.62 699.999 1997.7 699.999 2003.77 699.999 2008.7 704.924 2008.7 710.999Z" stroke="#5B9BD5" stroke-width="3.4375" stroke-linejoin="round" stroke-miterlimit="10" fill="#5B9BD5"/><path d="M2254.7 819.999C2254.7 826.074 2249.77 830.998 2243.7 830.998 2237.62 830.998 2232.7 826.074 2232.7 819.999 2232.7 813.924 2237.62 808.999 2243.7 808.999 2249.77 808.999 2254.7 813.924 2254.7 819.999Z" stroke="#5B9BD5" stroke-width="3.4375" stroke-linejoin="round" stroke-miterlimit="10" fill="#5B9BD5"/><path d="M2501.7 710.999C2501.7 717.074 2496.77 721.998 2490.7 721.998 2484.62 721.998 2479.7 717.074 2479.7 710.999 2479.7 704.924 2484.62 699.999 2490.7 699.999 2496.77 699.999 2501.7 704.924 2501.7 710.999Z" stroke="#5B9BD5" stroke-width="3.4375" stroke-linejoin="round" stroke-miterlimit="10" fill="#5B9BD5"/><path d="M2747.7 625.999C2747.7 632.074 2742.77 636.998 2736.7 636.998 2730.62 636.998 2725.7 632.074 2725.7 625.999 2725.7 619.924 2730.62 614.999 2736.7 614.999 2742.77 614.999 2747.7 619.924 2747.7 625.999Z" stroke="#5B9BD5" stroke-width="3.4375" stroke-linejoin="round" stroke-miterlimit="10" fill="#5B9BD5"/></g><g><path d="M519 1727 765.025 1388 1011.03 1582.05 1258.04 1727 1504.05 1691.06 1751.06 1606.05 1997.07 1534.05 2244.07 1425.05 2490.08 1558.05 2737 1691.06" stroke="#ED7D31" stroke-width="10.3125" stroke-linecap="round" stroke-linejoin="round" stroke-miterlimit="10" fill="none"/></g><g><path d="M529.695 1728C529.695 1734.07 524.771 1739 518.696 1739 512.621 1739 507.696 1734.07 507.696 1728 507.696 1721.92 512.621 1717 518.696 1717 524.771 1717 529.695 1721.92 529.695 1728Z" stroke="#ED7D31" stroke-width="3.4375" stroke-linejoin="round" stroke-miterlimit="10" fill="#ED7D31"/><path d="M776.696 1389C776.696 1395.07 771.771 1400 765.696 1400 759.621 1400 754.696 1395.07 754.696 1389 754.696 1382.92 759.621 1378 765.696 1378 771.771 1378 776.696 1382.92 776.696 1389Z" stroke="#ED7D31" stroke-width="3.4375" stroke-linejoin="round" stroke-miterlimit="10" fill="#ED7D31"/><path d="M1022.7 1582C1022.7 1588.07 1017.77 1593 1011.7 1593 1005.62 1593 1000.7 1588.07 1000.7 1582 1000.7 1575.92 1005.62 1571 1011.7 1571 1017.77 1571 1022.7 1575.92 1022.7 1582Z" stroke="#ED7D31" stroke-width="3.4375" stroke-linejoin="round" stroke-miterlimit="10" fill="#ED7D31"/><path d="M1268.7 1728C1268.7 1734.07 1263.77 1739 1257.7 1739 1251.62 1739 1246.7 1734.07 1246.7 1728 1246.7 1721.92 1251.62 1717 1257.7 1717 1263.77 1717 1268.7 1721.92 1268.7 1728Z" stroke="#ED7D31" stroke-width="3.4375" stroke-linejoin="round" stroke-miterlimit="10" fill="#ED7D31"/><path d="M1515.7 1691C1515.7 1697.07 1510.77 1702 1504.7 1702 1498.62 1702 1493.7 1697.07 1493.7 1691 1493.7 1684.92 1498.62 1680 1504.7 1680 1510.77 1680 1515.7 1684.92 1515.7 1691Z" stroke="#ED7D31" stroke-width="3.4375" stroke-linejoin="round" stroke-miterlimit="10" fill="#ED7D31"/><path d="M1761.7 1607C1761.7 1613.07 1756.77 1618 1750.7 1618 1744.62 1618 1739.7 1613.07 1739.7 1607 1739.7 1600.92 1744.62 1596 1750.7 1596 1756.77 1596 1761.7 1600.92 1761.7 1607Z" stroke="#ED7D31" stroke-width="3.4375" stroke-linejoin="round" stroke-miterlimit="10" fill="#ED7D31"/><path d="M2008.7 1534C2008.7 1540.07 2003.77 1545 1997.7 1545 1991.62 1545 1986.7 1540.07 1986.7 1534 1986.7 1527.92 1991.62 1523 1997.7 1523 2003.77 1523 2008.7 1527.92 2008.7 1534Z" stroke="#ED7D31" stroke-width="3.4375" stroke-linejoin="round" stroke-miterlimit="10" fill="#ED7D31"/><path d="M2254.7 1425C2254.7 1431.07 2249.77 1436 2243.7 1436 2237.62 1436 2232.7 1431.07 2232.7 1425 2232.7 1418.92 2237.62 1414 2243.7 1414 2249.77 1414 2254.7 1418.92 2254.7 1425Z" stroke="#ED7D31" stroke-width="3.4375" stroke-linejoin="round" stroke-miterlimit="10" fill="#ED7D31"/><path d="M2501.7 1558C2501.7 1564.07 2496.77 1569 2490.7 1569 2484.62 1569 2479.7 1564.07 2479.7 1558 2479.7 1551.92 2484.62 1547 2490.7 1547 2496.77 1547 2501.7 1551.92 2501.7 1558Z" stroke="#ED7D31" stroke-width="3.4375" stroke-linejoin="round" stroke-miterlimit="10" fill="#ED7D31"/><path d="M2747.7 1691C2747.7 1697.07 2742.77 1702 2736.7 1702 2730.62 1702 2725.7 1697.07 2725.7 1691 2725.7 1684.92 2730.62 1680 2736.7 1680 2742.77 1680 2747.7 1684.92 2747.7 1691Z" stroke="#ED7D31" stroke-width="3.4375" stroke-linejoin="round" stroke-miterlimit="10" fill="#ED7D31"/></g><g><path d="M519 1727 765.025 1630.05 1011.03 1691.06 1258.04 1727 1504.05 1534.05 1751.06 1509 1997.07 1727 2244.07 1727 2490.08 1703.06 2737 1655.05" stroke="#A5A5A5" stroke-width="10.3125" stroke-linecap="round" stroke-linejoin="round" stroke-miterlimit="10" fill="none"/></g><g><path d="M529.695 1728C529.695 1734.07 524.771 1739 518.696 1739 512.621 1739 507.696 1734.07 507.696 1728 507.696 1721.92 512.621 1717 518.696 1717 524.771 1717 529.695 1721.92 529.695 1728Z" stroke="#A5A5A5" stroke-width="3.4375" stroke-linejoin="round" stroke-miterlimit="10" fill="#A5A5A5"/><path d="M776.696 1631C776.696 1637.07 771.771 1642 765.696 1642 759.621 1642 754.696 1637.07 754.696 1631 754.696 1624.92 759.621 1620 765.696 1620 771.771 1620 776.696 1624.92 776.696 1631Z" stroke="#A5A5A5" stroke-width="3.4375" stroke-linejoin="round" stroke-miterlimit="10" fill="#A5A5A5"/><path d="M1022.7 1691C1022.7 1697.07 1017.77 1702 1011.7 1702 1005.62 1702 1000.7 1697.07 1000.7 1691 1000.7 1684.92 1005.62 1680 1011.7 1680 1017.77 1680 1022.7 1684.92 1022.7 1691Z" stroke="#A5A5A5" stroke-width="3.4375" stroke-linejoin="round" stroke-miterlimit="10" fill="#A5A5A5"/><path d="M1268.7 1728C1268.7 1734.07 1263.77 1739 1257.7 1739 1251.62 1739 1246.7 1734.07 1246.7 1728 1246.7 1721.92 1251.62 1717 1257.7 1717 1263.77 1717 1268.7 1721.92 1268.7 1728Z" stroke="#A5A5A5" stroke-width="3.4375" stroke-linejoin="round" stroke-miterlimit="10" fill="#A5A5A5"/><path d="M1515.7 1534C1515.7 1540.07 1510.77 1545 1504.7 1545 1498.62 1545 1493.7 1540.07 1493.7 1534 1493.7 1527.92 1498.62 1523 1504.7 1523 1510.77 1523 1515.7 1527.92 1515.7 1534Z" stroke="#A5A5A5" stroke-width="3.4375" stroke-linejoin="round" stroke-miterlimit="10" fill="#A5A5A5"/><path d="M1761.7 1510C1761.7 1516.07 1756.77 1521 1750.7 1521 1744.62 1521 1739.7 1516.07 1739.7 1510 1739.7 1503.92 1744.62 1499 1750.7 1499 1756.77 1499 1761.7 1503.92 1761.7 1510Z" stroke="#A5A5A5" stroke-width="3.4375" stroke-linejoin="round" stroke-miterlimit="10" fill="#A5A5A5"/><path d="M2008.7 1728C2008.7 1734.07 2003.77 1739 1997.7 1739 1991.62 1739 1986.7 1734.07 1986.7 1728 1986.7 1721.92 1991.62 1717 1997.7 1717 2003.77 1717 2008.7 1721.92 2008.7 1728Z" stroke="#A5A5A5" stroke-width="3.4375" stroke-linejoin="round" stroke-miterlimit="10" fill="#A5A5A5"/><path d="M2254.7 1728C2254.7 1734.07 2249.77 1739 2243.7 1739 2237.62 1739 2232.7 1734.07 2232.7 1728 2232.7 1721.92 2237.62 1717 2243.7 1717 2249.77 1717 2254.7 1721.92 2254.7 1728Z" stroke="#A5A5A5" stroke-width="3.4375" stroke-linejoin="round" stroke-miterlimit="10" fill="#A5A5A5"/><path d="M2501.7 1704C2501.7 1710.07 2496.77 1715 2490.7 1715 2484.62 1715 2479.7 1710.07 2479.7 1704 2479.7 1697.92 2484.62 1693 2490.7 1693 2496.77 1693 2501.7 1697.92 2501.7 1704Z" stroke="#A5A5A5" stroke-width="3.4375" stroke-linejoin="round" stroke-miterlimit="10" fill="#A5A5A5"/><path d="M2747.7 1655C2747.7 1661.07 2742.77 1666 2736.7 1666 2730.62 1666 2725.7 1661.07 2725.7 1655 2725.7 1648.92 2730.62 1644 2736.7 1644 2742.77 1644 2747.7 1648.92 2747.7 1655Z" stroke="#A5A5A5" stroke-width="3.4375" stroke-linejoin="round" stroke-miterlimit="10" fill="#A5A5A5"/></g><g><text fill="#595959" font-family="Calibri,Calibri_MSFontService,sans-serif" font-weight="400" font-size="41" transform="matrix(1 0 0 1 336.177 1739)">0</text></g><g><text fill="#595959" font-family="Calibri,Calibri_MSFontService,sans-serif" font-weight="400" font-size="41" transform="matrix(1 0 0 1 315.277 1618)">10</text></g><g><text fill="#595959" font-family="Calibri,Calibri_MSFontService,sans-serif" font-weight="400" font-size="41" transform="matrix(1 0 0 1 315.277 1497)">20</text></g><g><text fill="#595959" font-family="Calibri,Calibri_MSFontService,sans-serif" font-weight="400" font-size="41" transform="matrix(1 0 0 1 315.277 1376)">30</text></g><g><text fill="#595959" font-family="Calibri,Calibri_MSFontService,sans-serif" font-weight="400" font-size="41" transform="matrix(1 0 0 1 315.277 1255)">40</text></g><g><text fill="#595959" font-family="Calibri,Calibri_MSFontService,sans-serif" font-weight="400" font-size="41" transform="matrix(1 0 0 1 315.277 1134)">50</text></g><g><text fill="#595959" font-family="Calibri,Calibri_MSFontService,sans-serif" font-weight="400" font-size="41" transform="matrix(1 0 0 1 315.277 1013)">60</text></g><g><text fill="#595959" font-family="Calibri,Calibri_MSFontService,sans-serif" font-weight="400" font-size="41" transform="matrix(1 0 0 1 315.277 892)">70</text></g><g><text fill="#595959" font-family="Calibri,Calibri_MSFontService,sans-serif" font-weight="400" font-size="41" transform="matrix(1 0 0 1 315.277 771)">80</text></g><g><text fill="#595959" font-family="Calibri,Calibri_MSFontService,sans-serif" font-weight="400" font-size="41" transform="matrix(1 0 0 1 315.277 650)">90</text></g><g><text fill="#595959" font-family="Calibri,Calibri_MSFontService,sans-serif" font-weight="400" font-size="41" transform="matrix(1 0 0 1 294.377 528)">100</text></g><g><text fill="#595959" font-family="Calibri,Calibri_MSFontService,sans-serif" font-weight="400" font-size="41" transform="matrix(1 0 0 1 477.351 1792)">312a</text></g><g><text fill="#595959" font-family="Calibri,Calibri_MSFontService,sans-serif" font-weight="400" font-size="41" transform="matrix(1 0 0 1 712.405 1792)">403b1</text></g><g><text fill="#595959" font-family="Calibri,Calibri_MSFontService,sans-serif" font-weight="400" font-size="41" transform="matrix(1 0 0 1 958.872 1792)">403b2</text></g><g><text fill="#595959" font-family="Calibri,Calibri_MSFontService,sans-serif" font-weight="400" font-size="41" transform="matrix(1 0 0 1 1205.34 1792)">403b3</text></g><g><text fill="#595959" font-family="Calibri,Calibri_MSFontService,sans-serif" font-weight="400" font-size="41" transform="matrix(1 0 0 1 1463.22 1792)">403a</text></g><g><text fill="#595959" font-family="Calibri,Calibri_MSFontService,sans-serif" font-weight="400" font-size="41" transform="matrix(1 0 0 1 1698.27 1792)">404b1</text></g><g><text fill="#595959" font-family="Calibri,Calibri_MSFontService,sans-serif" font-weight="400" font-size="41" transform="matrix(1 0 0 1 1944.74 1792)">404b2</text></g><g><text fill="#595959" font-family="Calibri,Calibri_MSFontService,sans-serif" font-weight="400" font-size="41" transform="matrix(1 0 0 1 2191.21 1792)">404b3</text></g><g><text fill="#595959" font-family="Calibri,Calibri_MSFontService,sans-serif" font-weight="400" font-size="41" transform="matrix(1 0 0 1 2449.09 1792)">404a</text></g><g><text fill="#595959" font-family="Calibri,Calibri_MSFontService,sans-serif" font-weight="400" font-size="41" transform="matrix(1 0 0 1 2684.14 1792)">405b1</text></g><g><text fill="#595959" font-family="DengXian,DengXian_MSFontService,sans-serif" font-weight="400" font-size="64" transform="matrix(1 0 0 1 1522.99 486)">物理</text></g><g><path d="M1083 1848 1171 1848" stroke="#5B9BD5" stroke-width="10.3125" stroke-linecap="round" stroke-linejoin="round" stroke-miterlimit="10" fill="none" fill-rule="evenodd"/></g><g><path d="M1137 1848.5C1137 1854.31 1132.07 1859.02 1126 1859.02 1119.92 1859.02 1115 1854.31 1115 1848.5 1115 1842.69 1119.92 1837.98 1126 1837.98 1132.07 1837.98 1137 1842.69 1137 1848.5Z" stroke="#5B9BD5" stroke-width="3.4375" stroke-linejoin="round" stroke-miterlimit="10" fill="#5B9BD5"/></g><g><g><text fill="#595959" font-family="DengXian,DengXian_MSFontService,sans-serif" font-weight="400" font-size="41" transform="matrix(1 0 0 1 1179.88 1858)">分数</text></g></g><g><path d="M1323 1848 1411 1848" stroke="#ED7D31" stroke-width="10.3125" stroke-linecap="round" stroke-linejoin="round" stroke-miterlimit="10" fill="none" fill-rule="evenodd"/></g><g><path d="M1378 1848.5C1378 1854.31 1373.07 1859.02 1367 1859.02 1360.92 1859.02 1356 1854.31 1356 1848.5 1356 1842.69 1360.92 1837.98 1367 1837.98 1373.07 1837.98 1378 1842.69 1378 1848.5Z" stroke="#ED7D31" stroke-width="3.4375" stroke-linejoin="round" stroke-miterlimit="10" fill="#ED7D31"/></g><g><g><text fill="#595959" font-family="DengXian,DengXian_MSFontService,sans-serif" font-weight="400" font-size="41" transform="matrix(1 0 0 1 1420.67 1858)">非能力因素失分</text></g></g><g><path d="M1770 1848 1858 1848" stroke="#A5A5A5" stroke-width="10.3125" stroke-linecap="round" stroke-linejoin="round" stroke-miterlimit="10" fill="none" fill-rule="evenodd"/></g><g><path d="M1825 1848.5C1825 1854.31 1820.08 1859.02 1814 1859.02 1807.93 1859.02 1803 1854.31 1803 1848.5 1803 1842.69 1807.93 1837.98 1814 1837.98 1820.08 1837.98 1825 1842.69 1825 1848.5Z" stroke="#A5A5A5" stroke-width="3.4375" stroke-linejoin="round" stroke-miterlimit="10" fill="#A5A5A5"/></g><g><g><text fill="#595959" font-family="DengXian,DengXian_MSFontService,sans-serif" font-weight="400" font-size="41" transform="matrix(1 0 0 1 1867.7 1858)">能力因素失分</text></g></g><rect x="264.5" y="412.5" width="2647" height="1475" stroke="#D9D9D9" stroke-width="3.4375" stroke-linejoin="round" stroke-miterlimit="10" fill="none"/></g></svg>