<svg width="2650" height="1478" xmlns="http://www.w3.org/2000/svg" xml:space="preserve" overflow="hidden"><defs><clipPath id="a"><path d="M263 411h2650v1478H263z"/></clipPath></defs><g clip-path="url(#a)" transform="translate(-263 -411)"><path fill="#FFF" d="M264 412h2647v1475H264z"/><path d="M395.5 1606.55h2465m-2465-121h2465m-2465-121.01h2465m-2465-121h2465m-2465-121h2465m-2465-121.01h2465m-2465-122.001h2465m-2465-121.004h2465m-2465-121.004h2465M395.5 516.5h2465M395.5 1727.5h2465" stroke="#D9D9D9" stroke-width="3.438" stroke-linejoin="round" stroke-miterlimit="10" fill="none"/><path d="m519 1243 246.025-289.969 246.005-255.008L1258.04 517l246.01 230.025 247.01 109.003 246.01-145.005 247 108.004 246.01-108.004L2737 626.021" stroke="#5B9BD5" stroke-width="10.313" stroke-linecap="round" stroke-linejoin="round" stroke-miterlimit="10" fill="none"/><g stroke="#5B9BD5" stroke-width="3.438" stroke-linejoin="round" stroke-miterlimit="10" fill="#5B9BD5"><path d="M529.695 1244c0 6.07-4.924 11-10.999 11s-11-4.93-11-11c0-6.08 4.925-11 11-11s10.999 4.92 10.999 11ZM776.696 952.999c0 6.075-4.925 10.999-11 10.999s-11-4.924-11-10.999 4.925-11 11-11 11 4.925 11 11ZM1022.7 698.999c0 6.075-4.93 10.999-11 10.999-6.08 0-11-4.924-11-10.999s4.92-11 11-11c6.07 0 11 4.925 11 11ZM1268.7 516.999c0 6.075-4.93 11-11 11-6.08 0-11-4.925-11-11s4.92-11 11-11c6.07 0 11 4.925 11 11ZM1515.7 746.999c0 6.075-4.93 10.999-11 10.999-6.08 0-11-4.924-11-10.999s4.92-11 11-11c6.07 0 11 4.925 11 11ZM1761.7 855.999c0 6.075-4.93 10.999-11 10.999-6.08 0-11-4.924-11-10.999s4.92-11 11-11c6.07 0 11 4.925 11 11ZM2008.7 710.999c0 6.075-4.93 10.999-11 10.999-6.08 0-11-4.924-11-10.999s4.92-11 11-11c6.07 0 11 4.925 11 11ZM2254.7 819.999c0 6.075-4.93 10.999-11 10.999-6.08 0-11-4.924-11-10.999s4.92-11 11-11c6.07 0 11 4.925 11 11ZM2501.7 710.999c0 6.075-4.93 10.999-11 10.999-6.08 0-11-4.924-11-10.999s4.92-11 11-11c6.07 0 11 4.925 11 11ZM2747.7 625.999c0 6.075-4.93 10.999-11 10.999-6.08 0-11-4.924-11-10.999s4.92-11 11-11c6.07 0 11 4.925 11 11Z"/></g><path d="m519 1727 246.025-339 246.005 194.05L1258.04 1727l246.01-35.94 247.01-85.01 246.01-72 247-109 246.01 133L2737 1691.06" stroke="#ED7D31" stroke-width="10.313" stroke-linecap="round" stroke-linejoin="round" stroke-miterlimit="10" fill="none"/><g stroke="#ED7D31" stroke-width="3.438" stroke-linejoin="round" stroke-miterlimit="10" fill="#ED7D31"><path d="M529.695 1728c0 6.07-4.924 11-10.999 11s-11-4.93-11-11c0-6.08 4.925-11 11-11s10.999 4.92 10.999 11ZM776.696 1389c0 6.07-4.925 11-11 11s-11-4.93-11-11c0-6.08 4.925-11 11-11s11 4.92 11 11ZM1022.7 1582c0 6.07-4.93 11-11 11-6.08 0-11-4.93-11-11 0-6.08 4.92-11 11-11 6.07 0 11 4.92 11 11ZM1268.7 1728c0 6.07-4.93 11-11 11-6.08 0-11-4.93-11-11 0-6.08 4.92-11 11-11 6.07 0 11 4.92 11 11ZM1515.7 1691c0 6.07-4.93 11-11 11-6.08 0-11-4.93-11-11 0-6.08 4.92-11 11-11 6.07 0 11 4.92 11 11ZM1761.7 1607c0 6.07-4.93 11-11 11-6.08 0-11-4.93-11-11 0-6.08 4.92-11 11-11 6.07 0 11 4.92 11 11ZM2008.7 1534c0 6.07-4.93 11-11 11-6.08 0-11-4.93-11-11 0-6.08 4.92-11 11-11 6.07 0 11 4.92 11 11ZM2254.7 1425c0 6.07-4.93 11-11 11-6.08 0-11-4.93-11-11 0-6.08 4.92-11 11-11 6.07 0 11 4.92 11 11ZM2501.7 1558c0 6.07-4.93 11-11 11-6.08 0-11-4.93-11-11 0-6.08 4.92-11 11-11 6.07 0 11 4.92 11 11ZM2747.7 1691c0 6.07-4.93 11-11 11-6.08 0-11-4.93-11-11 0-6.08 4.92-11 11-11 6.07 0 11 4.92 11 11Z"/></g><path d="m519 1727 246.025-96.95 246.005 61.01 247.01 35.94 246.01-192.95 247.01-25.05 246.01 218h247l246.01-23.94 246.92-48.01" stroke="#A5A5A5" stroke-width="10.313" stroke-linecap="round" stroke-linejoin="round" stroke-miterlimit="10" fill="none"/><g stroke="#A5A5A5" stroke-width="3.438" stroke-linejoin="round" stroke-miterlimit="10" fill="#A5A5A5"><path d="M529.695 1728c0 6.07-4.924 11-10.999 11s-11-4.93-11-11c0-6.08 4.925-11 11-11s10.999 4.92 10.999 11ZM776.696 1631c0 6.07-4.925 11-11 11s-11-4.93-11-11c0-6.08 4.925-11 11-11s11 4.92 11 11ZM1022.7 1691c0 6.07-4.93 11-11 11-6.08 0-11-4.93-11-11 0-6.08 4.92-11 11-11 6.07 0 11 4.92 11 11ZM1268.7 1728c0 6.07-4.93 11-11 11-6.08 0-11-4.93-11-11 0-6.08 4.92-11 11-11 6.07 0 11 4.92 11 11ZM1515.7 1534c0 6.07-4.93 11-11 11-6.08 0-11-4.93-11-11 0-6.08 4.92-11 11-11 6.07 0 11 4.92 11 11ZM1761.7 1510c0 6.07-4.93 11-11 11-6.08 0-11-4.93-11-11 0-6.08 4.92-11 11-11 6.07 0 11 4.92 11 11ZM2008.7 1728c0 6.07-4.93 11-11 11-6.08 0-11-4.93-11-11 0-6.08 4.92-11 11-11 6.07 0 11 4.92 11 11ZM2254.7 1728c0 6.07-4.93 11-11 11-6.08 0-11-4.93-11-11 0-6.08 4.92-11 11-11 6.07 0 11 4.92 11 11ZM2501.7 1704c0 6.07-4.93 11-11 11-6.08 0-11-4.93-11-11 0-6.08 4.92-11 11-11 6.07 0 11 4.92 11 11ZM2747.7 1655c0 6.07-4.93 11-11 11-6.08 0-11-4.93-11-11 0-6.08 4.92-11 11-11 6.07 0 11 4.92 11 11Z"/></g><text fill="#595959" font-family="Calibri,Calibri_MSFontService,sans-serif" font-weight="400" font-size="41" transform="translate(336.177 1739)">0</text><text fill="#595959" font-family="Calibri,Calibri_MSFontService,sans-serif" font-weight="400" font-size="41" transform="translate(315.277 1618)">10</text><text fill="#595959" font-family="Calibri,Calibri_MSFontService,sans-serif" font-weight="400" font-size="41" transform="translate(315.277 1497)">20</text><text fill="#595959" font-family="Calibri,Calibri_MSFontService,sans-serif" font-weight="400" font-size="41" transform="translate(315.277 1376)">30</text><text fill="#595959" font-family="Calibri,Calibri_MSFontService,sans-serif" font-weight="400" font-size="41" transform="translate(315.277 1255)">40</text><text fill="#595959" font-family="Calibri,Calibri_MSFontService,sans-serif" font-weight="400" font-size="41" transform="translate(315.277 1134)">50</text><text fill="#595959" font-family="Calibri,Calibri_MSFontService,sans-serif" font-weight="400" font-size="41" transform="translate(315.277 1013)">60</text><text fill="#595959" font-family="Calibri,Calibri_MSFontService,sans-serif" font-weight="400" font-size="41" transform="translate(315.277 892)">70</text><text fill="#595959" font-family="Calibri,Calibri_MSFontService,sans-serif" font-weight="400" font-size="41" transform="translate(315.277 771)">80</text><text fill="#595959" font-family="Calibri,Calibri_MSFontService,sans-serif" font-weight="400" font-size="41" transform="translate(315.277 650)">90</text><text fill="#595959" font-family="Calibri,Calibri_MSFontService,sans-serif" font-weight="400" font-size="41" transform="translate(294.377 528)">100</text><text fill="#595959" font-family="Calibri,Calibri_MSFontService,sans-serif" font-weight="400" font-size="41" transform="translate(477.351 1792)">312a</text><text fill="#595959" font-family="Calibri,Calibri_MSFontService,sans-serif" font-weight="400" font-size="41" transform="translate(712.405 1792)">403b1</text><text fill="#595959" font-family="Calibri,Calibri_MSFontService,sans-serif" font-weight="400" font-size="41" transform="translate(958.872 1792)">403b2</text><text fill="#595959" font-family="Calibri,Calibri_MSFontService,sans-serif" font-weight="400" font-size="41" transform="translate(1205.34 1792)">403b3</text><text fill="#595959" font-family="Calibri,Calibri_MSFontService,sans-serif" font-weight="400" font-size="41" transform="translate(1463.22 1792)">403a</text><text fill="#595959" font-family="Calibri,Calibri_MSFontService,sans-serif" font-weight="400" font-size="41" transform="translate(1698.27 1792)">404b1</text><text fill="#595959" font-family="Calibri,Calibri_MSFontService,sans-serif" font-weight="400" font-size="41" transform="translate(1944.74 1792)">404b2</text><text fill="#595959" font-family="Calibri,Calibri_MSFontService,sans-serif" font-weight="400" font-size="41" transform="translate(2191.21 1792)">404b3</text><text fill="#595959" font-family="Calibri,Calibri_MSFontService,sans-serif" font-weight="400" font-size="41" transform="translate(2449.09 1792)">404a</text><text fill="#595959" font-family="Calibri,Calibri_MSFontService,sans-serif" font-weight="400" font-size="41" transform="translate(2684.14 1792)">405b1</text><text fill="#595959" font-family="DengXian,DengXian_MSFontService,sans-serif" font-weight="400" font-size="64" transform="translate(1522.99 486)">物理</text><path d="M1083 1848h88" stroke="#5B9BD5" stroke-width="10.313" stroke-linecap="round" stroke-linejoin="round" stroke-miterlimit="10" fill="none"/><path d="M1137 1848.5c0 5.81-4.93 10.52-11 10.52-6.08 0-11-4.71-11-10.52s4.92-10.52 11-10.52c6.07 0 11 4.71 11 10.52Z" stroke="#5B9BD5" stroke-width="3.438" stroke-linejoin="round" stroke-miterlimit="10" fill="#5B9BD5"/><text fill="#595959" font-family="DengXian,DengXian_MSFontService,sans-serif" font-weight="400" font-size="41" transform="translate(1179.88 1858)">分数</text><path d="M1323 1848h88" stroke="#ED7D31" stroke-width="10.313" stroke-linecap="round" stroke-linejoin="round" stroke-miterlimit="10" fill="none"/><path d="M1378 1848.5c0 5.81-4.93 10.52-11 10.52-6.08 0-11-4.71-11-10.52s4.92-10.52 11-10.52c6.07 0 11 4.71 11 10.52Z" stroke="#ED7D31" stroke-width="3.438" stroke-linejoin="round" stroke-miterlimit="10" fill="#ED7D31"/><text fill="#595959" font-family="DengXian,DengXian_MSFontService,sans-serif" font-weight="400" font-size="41" transform="translate(1420.67 1858)">非能力因素失分</text><path d="M1770 1848h88" stroke="#A5A5A5" stroke-width="10.313" stroke-linecap="round" stroke-linejoin="round" stroke-miterlimit="10" fill="none"/><path d="M1825 1848.5c0 5.81-4.92 10.52-11 10.52-6.07 0-11-4.71-11-10.52s4.93-10.52 11-10.52c6.08 0 11 4.71 11 10.52Z" stroke="#A5A5A5" stroke-width="3.438" stroke-linejoin="round" stroke-miterlimit="10" fill="#A5A5A5"/><text fill="#595959" font-family="DengXian,DengXian_MSFontService,sans-serif" font-weight="400" font-size="41" transform="translate(1867.7 1858)">能力因素失分</text><path stroke="#D9D9D9" stroke-width="3.438" stroke-linejoin="round" stroke-miterlimit="10" fill="none" d="M264.5 412.5h2647v1475h-2647z"/></g></svg>