<svg version="1.0" xmlns="http://www.w3.org/2000/svg" width="710.667" height="710.667" viewBox="0 0 533 533"><path d="M153.2 5.4c-.6 2.9-.8 6.3-.5 7.5.3 1.2-.2 5.6-1.2 9.6-1.1 4.7-1.5 9.1-1.1 12.2.7 5.9.8 7 .3 10.9-.5 4.3-1.5 5.6-3.9 4.8-1.7-.5-2-.3-1.5 1 .4.9.2 1.6-.3 1.6-.6 0-1-.5-1-1.1 0-.5-.4-.8-.9-.5-.4.3-2.6-.3-4.7-1.3-2.2-1.1-4.1-1.8-4.2-1.6-.8.8 2.2 8.4 5.9 14.8 3.7 6.5 3.8 7 2.5 10.1-1.5 3.5-4.1 5.5-10.1 7.5-2.2.7-6.6 2.9-9.8 4.7-3.2 1.9-6.5 3.4-7.3 3.4-.7 0-1.4.4-1.4 1 0 .5-.7 1-1.5 1-.9 0-1.8.7-2.1 1.5-.4.8-1 1.5-1.6 1.5-2 0-5.3 4.9-7.8 11.7-.7 1.8-2.3 3.9-3.6 4.8-3.3 2.1-4.8 5.3-3.4 7 .9 1.1 2.5.7 8.8-2.1 8.1-3.7 23.5-11 31.4-15 2.6-1.3 5.5-2.4 6.3-2.4.9 0 3.1-1.5 5-3.3 7.7-7.2 9.8-8.8 13.7-10.8 2.2-1.1 5.1-1.9 6.4-1.6 1.6.3 2.4 0 2.4-.9 0-1 1.6-1.4 6.1-1.4 4.3 0 6 .3 5.7 1.2-.3.7-1.3 1.5-2.4 1.8-2.4.6-12.4 8.9-12.4 10.3 0 .5-1.1 2-2.5 3.3-2.8 2.6-3.3 4.7-1 3.7.9-.3 2.4.2 3.5 1.2 1.9 1.7 1.8 1.8-1.6 4.1-1.9 1.3-4.8 2.4-6.4 2.4-1.6 0-3.1.4-3.4.9-.3.5-1.5.7-2.5.4-1.3-.3-2.5.3-3.6 2.1-1.5 2.3-3 3.4-12.5 9.3-2.1 1.3-5.2 2.2-7.7 2.3-2.3 0-4.4.4-4.8.9-.3.5-4.2 2.2-8.8 3.7-5.2 1.7-9.5 3.9-11.9 6-2.1 1.9-5 3.6-6.5 4-1.6.3-3.3.7-3.9.9-1.5.4-3.5-.9-3.8-2.6-1.1-5.6-1.9-6.9-4.3-6.9-1.3 0-3.3-.5-4.5-1.1-1.5-.8-3.2-.7-7 .6-5 1.6-10.2 1.3-11.4-.6-.8-1.4 3.8-7.9 5.6-7.9.8 0 2.6-1.2 4-2.6 3.3-3.4 11.8-9.7 15.5-11.7 3.7-1.9 9.8-8.1 10.1-10.3.3-1.8-.5-2.9-6-8.8-2.1-2.2-4.9-5.7-6.1-7.6-3.6-5.6-7-8.5-14.2-12-10.1-4.9-12.6-7-14.7-12.9-2.6-7.4-8-10-12.7-6.3-1.8 1.5-2.2 2.8-2.1 6.2.2 3.6 1 5.1 5.2 9.7 4.3 4.7 5 6 5 9.7 0 2.3-.4 4.6-.9 5.2-.4.5-1.6 3-2.6 5.6-1.2 3.2-3.8 6.7-7.8 10.5-11.1 10.8-12.6 12.4-13.2 15.3-.9 3.9-3.9 7.6-6.9 8.4-2.5.6-13.7-.6-16.8-1.9-1.7-.7-1.8.4-1.8 13.4V144h2.5c3.9 0 7.3 2 7.8 4.6.6 3.3-4.4 7.7-7.9 6.8l-2.4-.6v102.9l3 .1c1.6 0 3.2-.4 3.5-.9.4-.5 1.4-.5 2.6.2 1.6.8 2.5.7 3.7-.4.9-.8 2.8-1.7 4.2-1.9 2.2-.3 2.5-.8 2.3-3.7-.2-3.9-2.2-8.3-3.5-7.5-.4.3-.8 0-.8-.5 0-.6-1-1.1-2.2-1.1-1.4 0-2.7-.9-3.4-2.3-.9-2.1-.7-2.6 2-4.4 1.7-1.1 5.1-2.3 7.5-2.7 2.4-.4 5.1-1.1 6.1-1.6 2.4-1.3 1.9-6.4-1-9.5-2-2.1-2.1-5.3 0-4 .4.3 1.5-.6 2.4-1.9 1.4-2.3 1.4-2.5-.2-2.8-.9-.2-2.7 0-3.8.5-1.7.7-2.7.4-4.3-1.2-2.4-2.4-2.8-5.1-.7-5.1.8 0 1.8-.5 2.1-1 .8-1.3-2.3-6.3-3.4-5.5-.5.3-1.9-.4-3.2-1.4-2.3-1.8-2.3-2-.6-3.8.9-1.1 1.7-2.7 1.7-3.6 0-2.7 1.6-2.8 3-.2 1.5 2.8 4.6 3.5 3.6.9-.5-1.3-.2-1.5 1.4-1.1 1.1.3 2 .2 2-.2 0-1 7-3.1 10.3-3.1 3.9 0 4-1.4 1-6.9-2.7-4.8-2.7-5.1-1-6.8 1.3-1.4 3.9-1.8 11.8-2.1 9.1-.4 10.1-.6 10.9-2.6.4-1.1.5-2.5.2-3-1.2-2-.1-9 1.9-12.2 4.4-7.2 13.9-11.2 15.4-6.5.9 2.9 4.6 3.8 22.5 5.6 9.1.9 18.4 2 20.7 2.5 2.7.6 5.2.6 6.7 0 2.9-1.1 6-6.4 5.1-8.7-.3-.9 0-4.2.6-7.5 1.1-5.4 1.5-6 4.7-7.4 1.9-.8 4-2.1 4.6-2.9 1-1.4 1.6-1.3 5.5.6 2.4 1.1 5.3 1.8 6.5 1.5 3-.7 6.1-3.7 6.2-5.9.2-4.7.5-5.7 1.7-5.7.7 0 2-.8 2.9-1.8 4-4 5.6-5.2 7.1-5.2 1 0 1.7-.5 1.7-1.1 0-.5 1.3-1.5 2.9-2 4.5-1.6 4.5-5 .1-7.1-2.2-1-2.8-1.7-1.7-1.7.9-.1 2.2-1.2 2.8-2.5.9-1.9 2.5-2.7 7.3-3.7 3.3-.8 8.7-1.4 11.8-1.5 5-.1 5.6 0 4.9 1.5-1.5 2.7-4.4 4.9-7.1 5.3-1.4.1-2.6 1-2.8 1.9-.2 1.3.9 1.8 5.4 2.3 5 .6 6.5.3 10.9-1.9 2.9-1.4 5.6-2.5 6-2.5 1.3 0 9.9-4.3 11.2-5.6.7-.7 3.8-2 7-3 3.2-.9 8.1-3.2 10.8-4.9 8.4-5.4 15.4-9 16-8.3 1.4 1.4-.8 4.8-7 11.1-6.9 6.8-7.8 8.7-4.4 8.7 2.7 0 5.9 1.8 5.9 3.3 0 .7-1.8 2.8-4 4.6-3.3 2.7-3.8 3.6-2.9 5.2.8 1.6.5 2.4-1.7 4.3l-2.8 2.3 3.5-.5 3.4-.5-2.1 2.4c-1.2 1.3-2.4 3.2-2.7 4.1-.4 1-1.1 1.8-1.6 1.8-.6 0-.8.7-.4 1.7.5 1.3.2 1.5-1.8 1-1.3-.4-6.3-1.2-11.1-1.9-4.9-.6-8.8-1.5-8.8-2 0-.4.9-.8 1.9-.8 3.2 0 3.5-1.9.7-4.7-2.9-2.9-3.3-4.3-1.1-4.3.9 0 1.2-.6.9-1.5-.4-1 0-1.5 1.5-1.5 1.2 0 2.1-.5 2.1-1 0-.6.8-1 1.8-1 1.9 0 6.2-3.1 6.2-4.5 0-1.5-6.5.6-9 3-2.8 2.7-7 4.5-10.5 4.5-2.9 0-3.3.6-3.9 5.6-.4 3-1.4 4.7-4.3 7.2-2.1 1.8-4.9 3.5-6.3 3.8-1.4.4-3.2 1.2-4 1.9-.8.7-2.4 1.5-3.5 1.8-1.1.3-5.3 1.7-9.3 3.2-4 1.5-7.8 2.5-8.5 2.2-1.5-.5-8.9 2.6-12.8 5.4-1.6 1.1-2.9 1.6-2.9 1 0-.6-.6-1.1-1.4-1.1-.8 0-1.6-.7-2-1.5-.7-2-7.6-2.1-7.6-.1 0 .7.9 1.6 2 1.9 1.4.3 2 1.4 2 3.1 0 1.4-.5 2.6-1 2.6-.6 0-1.5 1.1-2.1 2.3-.6 1.3-2.5 3.2-4.2 4.2-1.8 1.1-3.9 2.7-4.7 3.7-1.6 1.9-7.2 5.4-10.3 6.5-2.9.9-1.5 3.7 2.3 4.5 1.9.4 14.5.7 28 .7 27.8 0 29.3-.4 28.4-6.1-.5-3-.2-3.5 3-5.2 1.9-1 3.6-1.7 3.8-1.6.2.2 1.3-.2 2.6-.9 1.9-1 2.2-.9 2.2.6 0 4.5-10.4 36.7-12.6 39.2-.2.2-2.2-1.7-4.5-4.2-2.2-2.6-4.9-4.7-6-4.7-1.1 0-2.8-.5-3.9-1.2-1.7-1.1-2.4-.8-5 1.7-2.9 2.8-3.1 3.4-2.5 7.5.8 5.6 3.2 9.6 9 14.9 4 3.6 4.4 4.4 3.1 5.6-.8.8-2.3 5.4-3.4 10.2-1.7 7.2-1.8 8.9-.7 9.6 2.4 1.3 1.2 10.1-1.8 14.1-3 3.9-3.5 7.7-1.2 9.6.8.7 1.5 2.1 1.5 3.2 0 3.3 8.7 10.4 16.3 13.3 5 1.9 6.9 4.1 4.8 5.4-.6.4-1.4 1.8-1.6 3.2-.3 1.3-1 2.6-1.5 2.7-.7.3-.7.8-.1 1.6 1.3 1.5-1.4 11.7-3.5 13.2-1 .8-1.1 1.3-.3 1.6.7.2.1 1.4-1.5 2.8-1.4 1.4-2.6 3-2.6 3.7 0 .6-.9 1.5-2.1 1.8-1.6.5-1.9 1.2-1.5 3.1.4 1.4.2 2.4-.4 2.4-.6 0-.8.5-.5 1 .3.6-.1 1.3-1 1.6-2.7 1.1-3.7 5.1-2.1 8.9 1.4 3.2 1.3 3.5-.9 5.9-1.3 1.4-2 2.6-1.5 2.6 1.9 0 1 1.8-1.2 2.4-2.2.7-2.2.7-.3 1.6 1.1.5 1.7.9 1.2.9-.4.1-.1 1.1.8 2.4.8 1.3 1.2 2.7.9 3-.4.4-.1 1.3.6 2.2.7.8.9 1.5.5 1.5s-.2.7.5 1.4c.6.8 1 2.5.9 3.8-.2 1.3.6 3.7 1.7 5.3 3.1 4.5 3.6 6.5 1.7 7.2-1.4.6-1.4.7.1 1.8s1.4 1.3-.9 1.9c-1.7.4-2.5 1.2-2.3 2.3.2 1.2-.6 1.9-2.7 2.3-1.6.3-2.9 1-2.8 1.6.1.5-1.4.9-3.2 1-4.2.1-8.9 3-8.1 5.1.5 1.1.2 1.4-1.1.9-.9-.4-2-.1-2.4.6-.5.7-1.4 1.3-2.1 1.3-3.2.1-9.8 1.8-9.8 2.5 0 .4-2.2 1-5 1.4-4.7.6-8 2.6-4.4 2.6 1.6 0 1.5.3-.3 2.3-1.7 1.8-2 3.1-1.6 6.7.3 2.5 1 4.9 1.7 5.3.6.4 3.1.5 5.6.2 2.5-.3 9.1-.9 14.6-1.4 5.6-.5 10.7-1.2 11.4-1.6.7-.4 2.5.2 4.1 1.4 1.9 1.4 4.3 2.1 7.3 2.1 4.3 0 6.9-1.5 4.9-2.9-.5-.3-1.2-1.4-1.6-2.4-.4-1.2-.1-1.7 1.1-1.8.9 0 2.9-.2 4.4-.4 1.5-.2 3 .1 3.3.6.4.5.2.9-.3.9-1.9 0-.1 8.4 2.2 10.6 3.1 2.8 19.3 5.4 30.9 5 5.5-.2 8.7.1 8.7.8 0 .6.4.6 1.1-.1.7-.7 2.1-.8 3.9-.3 1.6.5 3.2.4 3.8-.2.6-.6 1.7-.5 3 .3 2 1.3 15 .5 31.5-1.9 3.2-.4 6-.6 6.3-.3 1 1 7.8 1 9 0 .6-.5 1.8-.7 2.6-.4.9.4 2.2-.1 3.1-.9 2-2 2.8-2 2.1-.1-.4.8-.1 1.5.5 1.5s1.1-.5 1.1-1.1c0-.7 1-.1 2.3 1.2 2.9 3 7.5 6.9 8.2 6.9.3 0 .5-.7.5-1.5 0-1.8 1.2-1.9 2.9-.3 1 1.1 1.2 1 .9-.1-.2-.7.3-1.6 1.1-1.9 2.2-.8.7 2.2-1.7 3.3-2.6 1.1-3.1 5.5-.6 5.5.8 0 1.2-.5.9-1-.3-.5-.1-1 .4-1 .6 0 1.1.7 1.1 1.5s.9 1.9 2 2.5c1.1.6 2 1.7 2 2.5 0 .9.9 1.5 2.1 1.5 1.5 0 1.9.4 1.5 1.6-.8 2.2 3.2 8.7 5 8 .7-.3 1.6-.1 1.9.4.4.7 1.3.6 2.5 0 2.5-1.3 2.6-1.3 2.7 1 .1 1.1-.7 2.5-1.8 3-1.1.6-1.7 1.5-1.4 2 .4.6 1.6.3 3-.6 2.1-1.4 2.3-2.2 2.2-8.5-.1-4.8-.6-7-1.6-7.4-.9-.4-1.2-1.5-.8-3.4.4-1.8.2-3.1-.5-3.3-.7-.3-.9-1.2-.4-2.4 1.2-2.8 1.2-9.3.1-9.8-.5-.3-.2-.5.8-.5 1.3-.1 1.6-.5.9-1.7-.5-.9-.5-3.3 0-5.8.5-2.2 1-5.5 1.1-7.1.4-3.9 2.4-7.5 4.2-7.5 2.2 0 1.8 3.9-.5 5.8-1.7 1.5-1.8 1.9-.5 3.6 1.5 1.9 1.5 1.9 1.5-.5 0-1.9.2-2.1 1-.9.8 1.2 1 1 1-.8 0-1.3.4-2.1.9-1.8.5.3 1.2-.5 1.5-1.8.3-1.3.9-3.1 1.2-4 .4-1.1.1-1.6-1-1.6-1.6 0-1.6-.1-2-12.8-.1-2.2.6-4 2.1-5.4 1.2-1.1 2.5-3.5 2.9-5.2.4-1.7 2.2-6 4-9.6 1.9-3.5 3.4-7.6 3.4-9 0-1.5.8-3.5 1.9-4.6 2.5-2.8 3.9-5.4 5-10 .5-2.2 1.8-6.2 2.8-8.9 1.1-2.8 1.8-5.6 1.5-6.3-.2-.8.3-1.2 1.3-1 1.5.2 1.8-.6 2.1-4.7.4-5.1.7-6.9 1.7-9.5.3-.8 1.1-3.3 1.8-5.5s2.1-4.6 3.1-5.4c2.1-1.4 4.2-5.8 3.9-8-.1-.7.3-1 .9-.6.6.4 1.5-.6 2.1-2.4.6-1.7 1.5-3.1 2-3.1s2.6-1.5 4.5-3.3c4.9-4.4 6.4-5.1 7.7-3.8.8.8.7 1.1-.3 1.1-.7 0-1 .3-.7.7.4.3 1.5-.1 2.5-1 1.2-1.1 4-1.6 10.2-1.8 4.7-.1 8.8-.6 9.2-1.2.7-1.2 12.5-1 18 .2 3.2.7 3.7.6 4.2-1.2.5-1.9.6-1.9 3-.4 1.4 1 3.3 1.7 4.3 1.7 1.5 0 1.5-.2-.3-1.5-1.8-1.4-1.8-1.4.6-1.5 2.3 0 6.7 1.9 4.5 2-1.7.1 1.9 2 3.7 2 1.1 0 1.5-.6 1.1-2-.5-1.9-.2-2 3.2-1.7 2.2.2 4.4 1.2 5.1 2.2 1.1 1.4 2.6 1.8 6.6 1.7 8.7-.3 32.1-1.3 34.8-1.6 3.8-.4 8.1-2.8 7.6-4.3-.7-1.8 1.2-1.6 3.2.3 1 1.1 1.7 1.3 2 .5.2-.6 1.5-1.1 2.9-1.1 2.1 0 2.3.2 1.3 1.5-1 1.2-.6 1.3 2.6.8 2.7-.4 3.5-.3 3 .5-.4.7-1.7 1.2-2.9 1.2-3.2 0-.8 1.7 3.6 2.5 3.5.7 3.7.6 3.7-1.8 0-1.9-.7-2.6-3.2-3.3l-3.3-.8 3.3-.3c3-.4 3.2-.6 3.2-4.7 0-2.3-.5-4.7-1.2-5.4-.9-.9-.9-1.2 0-1.2s1.2-29 1.2-127.5V0H188.8l-2.4 2.2C185.1 3.5 184 5 184 5.7c0 .6-.9.9-2 .6-1.4-.4-2 0-2 1.1 0 .9-.8 1.6-1.8 1.6s-2.6.6-3.6 1.3c-1.8 1.3-1.8 1.5-.1 4 1.1 1.7 1.5 3.6 1.1 5.1-.4 1.5 0 2.8.9 3.6 2.8 2.4 1.1 6.6-2.3 5.6-1.5-.5-2-1.5-2-3.6.1-1.7-.6-3.8-1.5-4.8-1-1-1.7-2.4-1.7-3.1 0-.7-.5-.9-1.2-.5-.8.5-.9.2-.5-1 1.5-3.9 1.8-6.4.9-7-.7-.4-.7-1.8-.1-3.9 1.1-3.9 1.2-5.6.1-4.2-.4.6-1.9 1.6-3.5 2.3-2.4 1-3 .9-4.7-.8-3.6-3.6-5.6-2.6-6.8 3.4zm257.6 16.8c-.3.7-1.5 1.5-2.8 1.6-2.1.3-2.2.2-1.1-1.2 1.6-1.9 4.4-2.1 3.9-.4zM432 22c0 .5-.3 1-.7 1-.5 0-2.3 1.4-4.2 3-1.8 1.7-4.1 3-5 3-1.4.1-1.4.2.2 1.4 1.5 1.2 1.5 1.5.3 2.6-2.3 1.8-3.5.4-3.3-3.8.2-3.2.5-3.7 3-4 1.5-.2 3.2-1.2 3.7-2.3 1.1-2 6-2.7 6-.9zM181.7 34.7c1 2.6 1 3.3.1 3.3-2.3-.1-6-3.9-5.4-5.6.9-2.5 3.8-1.2 5.3 2.3zm232.3-1c1.3 1.3 1.2 1.6-.8 3.1-1.3.9-3.8 3.2-5.5 5C396.8 53.2 389.9 60 389.2 60c-1.7 0-6.3 5-5.6 6.1.4.8.9.7 1.5-.2.5-.9 1-.5 1.4 1.3 1 3.9.2 7.1-2 8.3-6.8 3.6-6.6 3.3-5 6.4 1.2 2.5 1.2 3.1.1 4-1 .9-1.6.9-2.1.1s-1.2-.8-2.3.2c-4.7 3.7-9.4 4.9-10.7 2.7-2.5-3.9 4.8-15.5 9.1-14.5 4.7 1.2 4.7-5.4.1-9.3-.8-.6-1.8-2.7-2.1-4.6-.7-3.4-.1-4.7 3.2-7.8 6.1-5.8 7.4-7.3 7.9-9.9.5-2.6.9-2.9 3.2-2.3 1.6.3 2.1.2 1.3-.3-.9-.6-.6-1.2 1.2-2.2 2.9-1.5 5.6-.8 5.6 1.6 0 3.2 2.5.6 2.8-2.9.3-3.4.6-3.7 3.5-3.8 1.8-.1 4.3-.5 5.7-.9 3-.9 6-.3 8 1.7zM294.5 48.8c1.7 1.2 3.6 5.2 3 6.2-.4.6-1.2 1-2 1-.7 0-1.6 1.1-1.9 2.4-.3 1.4-1.9 3-3.5 3.7-1.6.7-2.7 1.7-2.5 2.1.3.4-.6 1-2 1.4-1.3.3-3.3 1.7-4.3 3S279 71 278.4 71c-.7 0-2.5.7-4 1.5-1.6.8-4.8 1.5-7.1 1.5-4 0-4.3-.2-4.3-2.6 0-1.8 1.4-3.9 4.4-6.7 6.1-5.7 6.8-6.2 10.7-8.2 1.9-1 3.7-2.2 4-2.7 1-1.5 8.3-5.7 9.9-5.8.8 0 2 .4 2.5.8zm146.5 28c0 .4-.9 1.5-2 2.5-2.2 1.9-2.5 1.5-1-1.4 1.1-1.9 3-2.6 3-1.1zm-50.3 7.9c.4 1.2-2.3 4.3-3.8 4.3-.5 0-1.3-1-1.8-2.3-.7-1.8-.4-2.3 1.3-2.8 2.6-.8 3.9-.6 4.3.8zm27.8 7.3c-.3.5-.6 3.4-.6 6.5-.1 3.8-.5 5.5-1.4 5.5-.7 0-1.6-.6-1.8-1.3-.5-1.1-1.1 2.7-.8 4.6.4 2.6-2.2 8.7-3.9 9.2-1.2.4-1.9 1.4-1.8 2.3.2 1.3-.6 1.6-4.1 1.7-5.6 0-6.3-1.8-2.2-5.7 1.7-1.6 3.1-3.6 3.1-4.4 0-1.1.6-1.3 1.9-.9 1.1.3 2.2.1 2.6-.5.4-.7-.2-1.4-1.4-1.7-1.7-.4-1.9-.8-1-1.9.9-1.1 1.5-1.1 2.5-.3 1.1.9 1.6.6 2.3-1.4.5-1.4 1.5-2.7 2.1-2.9.6-.2 1.3-1.5 1.4-2.8.4-3.9 1.6-7 2.7-7 .6 0 .7.4.4 1zm-158.2 5.1c-.3 1.2-1.4 1.9-2.9 1.9s-2.4.6-2.4 1.5c0 .8-.7 1.5-1.5 1.5-3.3 0-.1-6.5 3.9-7.9 2.4-1 3.6.2 2.9 3zm105.8 9.6c-.3 3.2-2.1 4.7-2.1 1.8 0-.8-.9-3.1-2.1-5.2l-2.1-3.7 2.8-2.5 2.9-2.5.5 4.5c.3 2.4.3 5.9.1 7.6zm19.9-5.2c0 .8-.5 1.5-1.1 1.5-.5 0-.7.4-.4 1 .3.6-.1.7-.9.4-1.9-.7-2.1-3-.3-3.7 2.1-.9 2.7-.7 2.7.8zm71.6 7.8c.9-.3 1.4.1 1.4 1.3-.1 2.3-2.3 5.4-3.9 5.4-1.4 0-1.4-1.7 0-2.6.6-.3.8-1.8.5-3.3-.3-1.4-.3-2.1 0-1.4.3.7 1.2.9 2 .6zm-57.1 1.6c.3.5.1 1.2-.5 1.6-.5.3-1-.1-1-.9 0-1.8.6-2.1 1.5-.7zM249 114c0 .5-.4 1-.9 1-.6 0-1.3-.5-1.6-1-.3-.6.1-1 .9-1 .9 0 1.6.4 1.6 1zm18.3 1.4c2.1 1.6 2.2 3.9.1 5.6-2.7 2.3-3.8 5.2-2.3 6.1 1.1.6.9.9-.5 1.5-2.1.8-6.5-2.2-8.2-5.5-1.9-3.8-.6-6.7 3.4-7.8 5.1-1.4 5.5-1.4 7.5.1zm55.2 1.6c.3.5.1 1-.4 1-.6 0-1.1-.5-1.1-1 0-.6.2-1 .4-1 .3 0 .8.4 1.1 1zm64 2.6c2.4 1.6 3.4 4.4 1.6 4.4-.5 0-1.8 1.5-3 3.2-1.1 1.8-2.1 2.7-2.1 2 0-.6-.6-1.2-1.4-1.2-2.2 0-3.9-2.8-3.2-5.3.4-1.9 3-4.1 5.4-4.6.1-.1 1.4.6 2.7 1.5zm12.1 4.5c1 1.7-1.3 3.6-2.7 2.2-1.2-1.2-.4-3.3 1.1-3.3.5 0 1.2.5 1.6 1.1zm-142.9 7.5c-.3.3-1.2.4-1.9.1-.8-.3-.5-.6.6-.6 1.1-.1 1.7.2 1.3.5zM155 145c0 .5-.2 1-.4 1-.3 0-.8-.5-1.1-1-.3-.6-.1-1 .4-1 .6 0 1.1.4 1.1 1zM22.3 174.7c-1.4.3-2.3 1.2-2.3 2.2 0 2.6-2.4 4.3-5.6 3.9-3.3-.4-4.5-2.8-1.4-2.8 1.3 0 2.4-.8 2.7-2 .4-1.6 1.3-2 4.7-1.9 2.3.1 3.1.4 1.9.6zM7.7 194.2c-.3.8-.6.5-.6-.6-.1-1.1.2-1.7.5-1.3.3.3.4 1.2.1 1.9zm292.8.8c-.3.5.1 1 .9 1 .9 0 1.6-.5 1.6-1 0-1.2 3.4-.6 10.8 2.1 3 1.1 5.7 1.7 6.2 1.4.5-.3 1.2 0 1.6.6.3.6.1 1.5-.5 1.9-1.9 1.1 8.3 5.1 14.1 5.5 2.8.2 5.4.7 5.7 1.2.3.4 2.6 1.5 5.1 2.4 3.7 1.3 4.6 2.1 4.8 4.3.3 2.5.6 2.7 3 2.1 1.5-.4 4.1-.8 5.9-.9 1.7-.1 4.1-1 5.2-2 1.7-1.5 2.3-1.6 3.5-.6.9.6 1.8 2 2.1 3 .6 1.9 2.2 2.6 12 5.5 3.3.9 6.7 2 7.5 2.5.9.4 3.1 1.1 5 1.5 1.8.4 4.2 1.7 5.1 2.9 1.6 1.9 2.8 2.1 14.6 2.2 7 .1 13.5.3 14.3.5.9.3 1.5-.3 1.5-1.3 0-2.7 1.6-3.4 3.1-1.4.7 1.1 1.1 2.9.8 4.1-.5 2.1-.1 2.2 7.8 2.9 4.5.4 8.7 1.1 9.2 1.6.6.6 1.8 1 2.8 1 2.5 0 2.2 1.9-.4 2.9-2.1.8-2.1 1-.5 1.6 1.3.5 2.3.1 3.3-1.4 2.1-2.9 3.3-2.6 4.9 1.3 1.7 4.1 6.7 5.6 9.6 3 1.7-1.5 1.9-1.5 2.5 0 .6 1.6 3.4 2.3 3.4.8 0-1.8 11.7-1.8 13.5 0 .3.3 2.2.2 4.3-.1 5.7-1 9.4-.3 9 1.7-.2.9-1.2 1.8-2.2 2-1.4.3-1.7 0-1.3-1.2.6-1.6-1.3-2.3-2.6-1-.4.4-2.3.8-4.4.9-28.7 2.1-37.1 3.1-35.6 4.6.5.5 2.3.5 4.3-.1 4.3-1.1 11.5-1.5 20-1.1 6.1.4 6.3.4 2.5 1.1-3.7.7-3.8.7-1 1 1.7.1 3.4.2 3.9.1s1.7.6 2.7 1.5c1.8 1.6 1.9 1.6 1.9.1 0-1.9 1.6-2.3 2.2-.5.2.6 1.9 1.1 3.7 1.1 3.1 0 3.2.2 1.5 1.4-1 .7-3.1 1.3-4.7 1.3-2.5 0-2.8.2-1.7 1.5 1.1 1.3.1 1.5-8.2 1.5-7.6 0-10.3-.4-13.8-2.1-4-1.9-5.6-2.1-15.8-1.7-8.1.4-11.2.2-10.9-.6.2-.6 1.4-1.1 2.6-1.1 1.2 0 2.6-.7 3-1.4.5-.7 1.3-1.1 1.9-.7.5.3 1.2-.1 1.6-.9.8-2.2-.9-2.6-3-.7-1.1 1.1-2.9 1.6-4.6 1.4-2.1-.3-2.8 0-2.8 1.2 0 2-1.9 2-4.8 0-1.2-.8-3.1-1.3-4.1-.9-1.1.3-2.8.1-3.8-.4-1-.6-3.4-1.5-5.3-2-3.5-.8-3.5-.9-1-1.8 1.6-.7 3-.7 4.1 0 1.2.8 2.7.5 5.5-.9l3.9-1.9-4.9-.3c-2.7-.2-6.1.2-7.7.8-1.5.7-4.1.9-5.8.5-2-.4-3.1-.3-3.1.4 0 1.3-2.2 1-3.2-.4-.4-.5-1.5-.2-2.6.9-1.2 1-2.2 1.3-2.6.7-.4-.5-2.2-.7-4.1-.4-2.2.4-3.5.2-3.5-.5 0-1.9 4.1-3.4 7.5-2.8 1.8.4 5.4.2 7.9-.4 5.8-1.3 19.6-1.6 25.9-.6 4.1.7 4.6.6 4.1-.8-.5-1.3-.1-1.5 2.4-1 2.6.5 3 .3 3.4-2 .5-2.6-.5-3.5-1.7-1.6-.9 1.5-2.7 1.2-1.9-.3.4-.6-.5-.1-1.9 1.2-1.5 1.4-3 2.1-3.4 1.7-.4-.4-.1-1.1.6-1.5 1.3-.8.2-1.1-9.4-2.6-7.8-1.2-16.6-1-17.5.5-.5.8-.7 1.7-.4 2.1.5.9-3.5 2.3-4.3 1.5-.4-.3-.1-.6.5-.6.7 0 1.2-.5 1.2-1 0-.6-.7-1-1.5-1s-1.5.7-1.5 1.5c0 .9-1 1.6-2.7 1.7-3.4.1-6.5.5-7.8.8-1.5.4-5.9.6-19.5 1-6.9.2-13.6.7-14.9 1.2-1.4.5-4.9.4-8.4-.3-5-.9-6.3-.8-7.2.3-.5.8-1.9 1.2-2.9 1-1.4-.3-1.7 0-1.3 1.2.4 1 .1 1.6-.8 1.6-.8 0-1.5-.7-1.5-1.5s-.9-1.9-2-2.5c-2.8-1.5-2.5-2.7 1-3.2 1.7-.3 3-.1 3 .4 0 1.1 4.1 1 6-.2.9-.6 1.7-.5 2.1.2.4.6 1.4.8 2.3.5 1.5-.6 1.5-.8-.2-2.5-1-1-2.7-1.8-3.7-1.9-2.7-.2-8-1-8-1.3 0-.5-19.2-.7-21.2-.3-2.7.6-2.1 2.3.8 2.3 1.1 0 1.8.4 1.5.9-.3.4 1.2 1.5 3.4 2.4 2.2.8 4 2 4 2.6 0 1.3-.6 1.4-2.9.1-1.4-.7-2.4-.4-3.9 1.1-1.2 1-2.5 1.8-2.9 1.8-1.6-.4-4.3 1.4-4.3 2.7 0 .8-.4 1.4-.9 1.4-2.1 0-4.1 3.4-4.1 7 0 2.1-.4 4.2-1 4.5-.5.3-1 1.3-1 2.1s.5 1.2 1 .9c1.7-1 1.1.4-1 2.5-2 2-4 1.9-4-.1 0-.6-.7-1.7-1.5-2.5-1.2-1.2-1.5-1.3-1.7-.2 0 .7-.2 1.7-.2 2.3-.1.5-.5 1.6-.9 2.2-.6.9-.1 1.3 1.4 1.3 1.7 0 2 .4 1.6 2.1-.7 2.5.2 5.1 1.4 4.4.5-.3 1.6-2.1 2.5-4 .9-1.9 2-3.5 2.4-3.5.5 0 2.3-2.6 4.1-5.8 4.4-7.7 6.8-9.8 11.5-10 2.2-.1 5-.3 6.3-.4 1.3-.2 2.6.3 2.8 1 .3.8-.1 1-1.1.6-1.9-.7-12.6 7.9-12.6 10.2 0 .8-.5 1.4-1.1 1.4-.5 0-.8-.4-.4-.9 1-1.7-1.5-2.3-3-.8-.8.9-1.9 1.7-2.5 1.9-.6.2-1.2 2.1-1.4 4.3-.2 2.2-.5 4.4-.6 5-.1.5-.2 1.7-.1 2.5.1 1.3.2 1.3 1.1 0 .6-.9 1-1 1-.3 0 .6-.5 1.5-1.1 1.9-.8.5-.7.9.1 1.4 1 .6.8 1.5-.9 3.7-2 2.4-2.1 2.8-.7 3.1 2 .4 2.1 3.6.1 5.2-1.7 1.4-2.1 3.5-.5 2.5.6-.3 1-.2 1 .4 0 1.7-1.7 2.1-2.9.7-1.2-1.4-6.1-1-6.1.5 0 .5-.7.9-1.6.9-.8 0-1.3.4-1 .9.3.5 1.6.7 2.8.3l2.1-.5-2.1 2.1c-1.2 1.2-3 2.2-3.9 2.2-1.5 0-1.6-.2-.3-1s1.1-1.1-.7-1.6c-2.4-.7-2.6-3.1-.5-5.6 1.5-1.9.6-2.8-2.8-2.8-1.5 0-3.3-.6-3.9-1.3-1.1-1.5-1-7.4.2-9.4.5-.8-.1-1.1-1.9-1-2.8.2-3.4-.9-3.6-6.6-.1-1.5-.5-2.7-.8-2.7-.4 0-.6-1.9-.6-4.3.1-2.9.5-4.2 1.5-4.2 2.5 0 2.3-2.5-.3-3.4-1.7-.7-2.4-1.7-2.3-3.3 0-1.3.5-2.5.9-2.9.4-.3.3-2-.2-3.8-.5-1.9-.7-3.8-.4-4.3.6-.9-2.2-3.8-6.4-6.6-1.4-.9-2.1-2.1-1.7-3 .3-.8.1-2-.5-2.7-.8-1-.2-1.5 2.9-2 5.6-.9 10.3-4.4 11.5-8.3 1.4-4.9-1.2-6.5-10-6.2l-4.2.1.3-5.6c.2-3.3 1.1-6.7 2.2-8.3 1-1.5 2.6-4.4 3.5-6.6 1.5-3.2 2.2-3.7 4.1-3.2 1.2.4 4.3.9 7 1.2 3.8.4 4.7.2 4.7-1.1 0-.8.5-1.5 1.1-1.5.5 0 .7.4.4 1zm57.3 17.1c-.2.6-.8 1-1.3 1s-1.1-.4-1.3-1c-.2-.6.4-1.1 1.3-1.1s1.5.5 1.3 1.1zm46.2.9c0 .5-.4 1-1 1-.5 0-1-.5-1-1 0-.6.5-1 1-1 .6 0 1 .4 1 1zm41.9 18.6c-1.7 2.1-3.1 1.7-1.9-.6.6-1.1 1.5-1.8 2.1-1.4.6.4.6 1.1-.2 2zM195 235.9c0 .9-4.1 2.3-4.8 1.6-.2-.2-.1-.8.3-1.4.8-1.3 4.5-1.5 4.5-.2zm296.8.3c-.6 1.8-2.8 2.1-2.8.4 0-.9.7-1.6 1.6-1.6.9 0 1.4.5 1.2 1.2zM195.7 240c-.1 1.1-.7 2-1.4 2-1.1 0-1.1-.5-.3-2 .6-1.1 1.3-2 1.5-2 .2 0 .3.9.2 2zm272.6 1.4c1.6 1.2 1.6 1.4.1 2-2.2.9-5.4.7-5.4-.2 0-.9 2.1-3.2 3-3.2.3 0 1.3.7 2.3 1.4zm32.2.6c.3.5.1 1-.4 1-.6 0-1.1-.5-1.1-1 0-.6.2-1 .4-1 .3 0 .8.4 1.1 1zm-19.5 1c0 .5-.8 1-1.7 1-1.5 0-1.6-.2-.3-1 1.9-1.2 2-1.2 2 0zm-145.3 4.6c-.3.3-1.2.4-1.9.1-.8-.3-.5-.6.6-.6 1.1-.1 1.7.2 1.3.5zm58 1.1c.4 1.1-9 2.3-14.2 1.8-1.6-.1-3.9-.3-4.9-.4-1.1 0-1.6-.4-1.3-.8 2.1-2.1 19.7-2.7 20.4-.6zm-52.9 1.9c.1.1-.9.9-2.4 1.9-1.9 1.2-2.9 1.4-3.7.6-.8-.8-.5-1.1 1.1-1.1 1.2 0 2.2-.5 2.2-1 0-.6-.5-1-1.1-1-.5 0-.7-.5-.4-1 .5-.8 1.2-.7 2.3.2 1 .7 1.8 1.3 2 1.4zm58.2-1c0 .2-.9.4-2 .4s-2-.4-2-.9.9-.7 2-.4c1.1.3 2 .7 2 .9zm109.9 1.3c-.3.6-1 .7-1.8.2-.7-.5-1-1.4-.6-2.1.9-1.4 2.9.2 2.4 1.9zM326 249.7c0 .5-1.1 1.3-2.5 2-2.9 1.3-3.1 1.1-.9-1.1 1.6-1.7 3.4-2.1 3.4-.9zm168-.3c0 1.8-1.5 3.6-3.1 3.6-1.7 0-1.8-.3-.7-2s3.8-2.8 3.8-1.6zM364 252c0 .5-.4 1-1 1-.5 0-1-.5-1-1 0-.6.5-1 1-1 .6 0 1 .4 1 1zm55.3-.3c-.7.2-1.9.2-2.5 0-.7-.3-.2-.5 1.2-.5s1.9.2 1.3.5zM505 253c0 .5-.2 1-.4 1-.3 0-.8-.5-1.1-1-.3-.6-.1-1 .4-1 .6 0 1.1.4 1.1 1zm-144.9 1.4c-1 1.2-.8 1.5 1.1 1.9 1.3.2.9.4-.9.3-1.8-.1-3 0-2.8.3.5.4-3.4 4.1-4.5 4.1-.3 0-2.8 2-5.6 4.5-2.7 2.4-5.2 4.4-5.6 4.5-1.4 0-.8-1.6 1.2-3.8 2.4-2.5 2.6-5.2.5-5.2-1.8 0-2 2-.2 2 .6 0 .1.9-1.3 2-2.3 1.8-2.6 1.8-3.7.3-1-1.3-1.5-1.4-2.8-.3-.8.7-1.5 2-1.6 2.9 0 1.6-8.9 8.8-8.9 7.2 0-.4.9-2 2.1-3.5 1.3-1.6 1.6-2.6.8-2.6-.7 0-.3-1 1-2.4l2.3-2.5-2.3.5c-2.3.5-2.3.4.5-2.1 2.8-2.6 3-2.6 3.7-.9.7 1.7.8 1.7.8.1.1-1.6 2.5-2.3 7.4-1.9.9.1 1.7-.3 1.7-.9 0-.6.8-.9 1.8-.7 1.1.2 2.6-.3 3.5-1 .9-.8 3.8-2 6.4-2.7 6.3-1.7 6.8-1.7 5.4-.1zM500 254c0 .5-.4 1-1 1-.5 0-1-.5-1-1 0-.6.5-1 1-1 .6 0 1 .4 1 1zm25.3-.3c1.5.2 2.7.9 2.7 1.4 0 .6-.5.7-1.2.3-.6-.4-1.7.1-2.4 1.1-1 1.3-1.7 1.5-2.6.8-2.3-1.8-7.1-2.2-8.5-.7-.8.8-2.3 1.4-3.4 1.4-1 0-1.9.5-1.9 1.1 0 .8-.5.8-1.5-.1-1.8-1.5-.9-3.4 1.2-2.6.8.3 1.1.1.8-.4-.3-.6.3-1 1.4-1 1.1 0 2.2-.4 2.5-.9.7-1 8.4-1.3 12.9-.4zm-96.4 1.9c1.1 1-1 1.3-5.2.8-2.6-.4-4.4-1.1-4.1-1.6.5-.8 8.3-.2 9.3.8zm-423.2 0c-.3.3-1.2.4-1.9.1-.8-.3-.5-.6.6-.6 1.1-.1 1.7.2 1.3.5zm410.1.1c-1 .2-2.8.2-4 0-1.3-.2-.5-.4 1.7-.4 2.2-.1 3.2.1 2.3.4zM435 257c0 .5-.4 1-1 1-.5 0-1-.5-1-1 0-.6.5-1 1-1 .6 0 1 .4 1 1zm-62 1.9c0 .5-1.1 1.1-2.5 1.3-2 .4-2.3.3-1.4-.8 1.3-1.6 3.9-1.9 3.9-.5zm19 1.5c0 .9-4 1.3-4.6.5-.3-.5.6-.9 2-.9s2.6.2 2.6.4zm30.5.6c.3.5.1 1-.4 1-.6 0-1.1-.5-1.1-1 0-.6.2-1 .4-1 .3 0 .8.4 1.1 1zm-38 1.1c1 1.5.4 1.8-2.7 1.2-1.5-.3-2.5-.9-2.2-1.4.7-1.2 4.1-1.1 4.9.2zm12-.1c.3.5-.1 1-1 1s-1.3-.5-1-1c.3-.6.8-1 1-1 .2 0 .7.4 1 1zm-39 1c-.3.5.3 1 1.5 1s1.8.5 1.5 1c-.4.6.7.8 2.9.5 4.4-.5 4.8 1.3.9 4.1-5.4 3.9-5.9 4.1-4 1.1 1.7-2.7 1.7-2.7-.5-2.8-3.7-.2-6.2.2-7.2 1.2-1.5 1.4-2.6 1.1-2.6-.6 0-.8.5-1.5 1.1-1.5.6 0 .8-.7.5-1.6-.4-1 0-1.5 1.2-1.3 3 .3 3.7-.1 2.2-1.1-1.2-.8-1-1 .8-1 1.3 0 2 .4 1.7 1zm16 1.5c-2.2.7-4.4 1-4.9.7-1.4-.8 2.4-2.1 5.9-2 2.8 0 2.8.1-1 1.3zm76.5-.5c0 1.3-1.1 1.3-3 0-1.2-.8-1.1-1 .8-1 1.2 0 2.2.4 2.2 1zm9 0c0 .5-.5 1-1.1 1-.5 0-.7-.5-.4-1 .3-.6.8-1 1.1-1 .2 0 .4.4.4 1zm8 0c0 1.3-3 1.3-5 0-1.1-.7-.7-1 1.8-1 1.7 0 3.2.4 3.2 1zm-73 1.5c0 .8-.6 1.5-1.4 1.5-.7 0-1.9.7-2.6 1.5-1.4 1.7-3 2-3 .6 0-.7 5.1-4.5 6.8-5 .1-.1.2.6.2 1.4zm5-.5c0 .5-.5 1-1.1 1-.5 0-.7-.5-.4-1 .3-.6.8-1 1.1-1 .2 0 .4.4.4 1zm39 0c0 .5-.6 1-1.4 1-.8 0-1.8-.5-2.1-1-.3-.6.3-1 1.4-1 1.2 0 2.1.4 2.1 1zm-58.4 2.5c-1.1.8-2.7 1.5-3.5 1.5-1.3-.1-1.2-.4.3-1.5 1.1-.8 2.7-1.5 3.5-1.5 1.3.1 1.2.4-.3 1.5zm-41.6.5c0 .5-.5 1-1.1 1-.5 0-.7-.5-.4-1 .3-.6.8-1 1.1-1 .2 0 .4.4.4 1zm98.5 0c-.3.5-1.2.7-2 .3-2.1-.7-1.9-1.3.6-1.3 1.1 0 1.8.4 1.4 1zm-67.5 1.5c-.7.9-1.5 1.3-1.7 1.1-.7-.7.7-2.6 1.9-2.6.6 0 .6.6-.2 1.5zm-26.7 3.5c.3 1.1-.2 2.5-1.1 3.2-1.3 1.1-1.5 1-.9-1 .4-1.8.2-2.2-.9-1.8-.8.3-1.4.1-1.4-.4s.8-1.1 1.8-1.3c.9-.3 1.8-.5 1.8-.6.1 0 .4.8.7 1.9zm8.1.4c-.5 2.1-.3 2.3 2.3 1.9 2.7-.5 2.7-.5 1 1.3-1 1.1-3.1 1.9-4.7 1.9-2.7 0-2.7-.1-1.3-1.8 1.1-1.1 1.2-1.7.4-1.7-.9 0-.9-.5-.1-2 1.5-2.8 3.2-2.5 2.4.4zm26.3-.6c1 1.6.7 2-2.4 3.1-4.7 1.7-8.6 2.1-9.9 1-1.3-1.1-4.4 1.4-4.4 3.4 0 .7-.4.7-1.2-.2-1.1-1-.9-1.4.6-2.3 1-.6 2.7-1.9 3.8-3 1.1-1.1 3.7-2.3 5.7-2.5 2-.3 3.8-.7 4-.9 1-.9 2.7-.3 3.8 1.4zm-56.9 1.4c1.5 1.5 1.6 3.8.2 3.8-.5 0-1-.9-1-2.1 0-1.1-.4-1.7-1-1.4-.5.3-1 .1-1-.4 0-1.4 1.3-1.4 2.8.1zm41.2.2c0 .2-.7.6-1.5 1-.8.3-1.5.1-1.5-.4 0-.6.7-1 1.5-1s1.5.2 1.5.4zm-35 4c0 .2-.7.7-1.6 1-.8.3-1.2.2-.9-.4.6-1 2.5-1.4 2.5-.6zm10.3 1.3c-.7.3-1.3 1.1-1.3 1.9 0 1.2-.3 1.2-1.4.2-1.4-1.3-1.1-3.2.4-2.3.5.3 1.2 0 1.5-.6.4-.5 1-.7 1.4-.3.3.4 0 .9-.6 1.1zm-6.8.3c-.3.5-1.1 1-1.6 1-.6 0-.7-.5-.4-1 .3-.6 1.1-1 1.6-1 .6 0 .7.4.4 1zm24.9.5c-.4.8-1 1.5-1.5 1.5-.4 0-.6-.7-.3-1.5.4-.8 1-1.5 1.5-1.5.4 0 .6.7.3 1.5zm-22.4 5c.8-.5.8-.1-.1 1.3-1.3 2-4.3 3.5-5.3 2.5-.3-.3.2-1.6 1.1-3 1.1-1.7 1.8-2 2.3-1.2.4.6 1.3.8 2 .4zm-13.8 4.7c-.7.7-1.2.8-1.2.2 0-1.4 1.2-2.6 1.9-1.9.2.3-.1 1.1-.7 1.7zm50.5-.6c-.3.3-1.2.4-1.9.1-.8-.3-.5-.6.6-.6 1.1-.1 1.7.2 1.3.5zm-48.2 3.4c-.3.5-1.1 1-1.6 1-.6 0-.7-.5-.4-1 .3-.6 1.1-1 1.6-1 .6 0 .7.4.4 1zm-5 11c-.4 1.2-.9 1.9-1.2 1.7-.3-.3-.2-1.5.2-2.7.4-1.2.9-1.9 1.2-1.7.3.3.2 1.5-.2 2.7zm-8.1 2.5c-.4.8-.8 1.5-1 1.5-.2 0-.4-.7-.4-1.5s.4-1.5 1-1.5c.5 0 .7.7.4 1.5zM355 343c0 .6-1 2.4-2.2 4-1.3 1.8-2.1 4.2-2 6.5.1 1.9-.3 3.5-.8 3.5-.6 0-1-.3-1.1-.8 0-.4-.2-2.2-.3-4-.2-1.7.1-3.2.6-3.2.6 0 .8-.6.5-1.4-.3-.8.3-2.3 1.4-3.5 2.1-2.3 3.9-2.7 3.9-1.1zm-36 24.9c0 .9-2.4 2.1-4.2 2.1-.6 0-.6-.6.2-1.5 1.4-1.6 4-2 4-.6zM176 404c-1.1 2.1-4.8 4.5-5.7 3.7-1-1 .8-4.6 2.5-5 3.8-1 4.3-.8 3.2 1.3zm139 0c0 .5-.4 1-1 1-.5 0-1-.5-1-1 0-.6.5-1 1-1 .6 0 1 .4 1 1zm-14 .9c0 .6-.4 1.3-1 1.6-.5.3-1-.1-1-.9 0-.9.5-1.6 1-1.6.6 0 1 .4 1 .9zm28.4 5.7c.9 2.2.8 2.4-.9 1.8-.8-.4-1.5-1.2-1.5-2 0-1.9 1.6-1.8 2.4.2zm-13.8 3c-.3.8-1 1.3-1.5.9-.5-.3-1.6.4-2.4 1.5-.7 1.1-1.7 1.7-2 1.3-1.2-1.1-.8-2.3.8-2.3.8 0 1.5-.7 1.5-1.5 0-1.7 3.3-3.8 3.8-2.4.2.5.1 1.7-.2 2.5zm8.1 1c-.9.9-2.8-.6-2.1-1.8.4-.6 1-.6 1.7.1.6.6.8 1.3.4 1.7zm-14.3 5.5c-.6 1.1-2.4.2-2.4-1.1 0-.5.7-.7 1.5-.4.8.4 1.2 1 .9 1.5z"/><path d="M402 36c0 .5.4 1 .9 1 .6 0 1.3-.5 1.6-1 .3-.6-.1-1-.9-1-.9 0-1.6.4-1.6 1zM408 36c0 .5.5 1 1 1 .6 0 1-.5 1-1 0-.6-.4-1-1-1-.5 0-1 .4-1 1zM383.2 48.2c-1.5 1.5-1.6 3.8-.2 3.8.6 0 1-.6 1-1.3 0-.9.2-.9.9.1.6 1.1 1.1 1 2.5-.3.9-.9 1.4-2.1 1.1-2.6-.9-1.3-3.9-1.1-5.3.3zM408 113.1c0 .5.5.7 1 .4.6-.3 1-.8 1-1.1 0-.2-.4-.4-1-.4-.5 0-1 .5-1 1.1zM324.3 230.1c-1.2.4-1 .8 1 2.2 2.9 1.9 5.3 2.2 6.2.7.3-.6 4.5-.8 10.2-.5 8.7.4 14.5-.6 12.9-2.3-.8-.7-28.2-.9-30.3-.1zM357 231.5c0 .9.5 1.5 1.1 1.3.6-.2 1.1-.8 1.1-1.3s-.5-1.1-1.1-1.3c-.6-.2-1.1.4-1.1 1.3zM409.6 234.8c-.3.3-.3.9 0 1.3.7 1.2 5.4 1.2 5.4 0 0-1-4.7-2.1-5.4-1.3zM371.8 238.7c.7.3 1.6.2 1.9-.1.4-.3-.2-.6-1.3-.5-1.1 0-1.4.3-.6.6zM397.8 240.1c1.3 1.3 6.2 2.2 6.2 1.1 0-.5-1.6-1.2-3.5-1.4-1.9-.2-3.2-.1-2.7.3zM391 241.1c0 .5.5.7 1 .4.6-.3 1-.8 1-1.1 0-.2-.4-.4-1-.4-.5 0-1 .5-1 1.1zM311.8 241.7c.6.2 1.8.2 2.5 0 .6-.3.1-.5-1.3-.5-1.4 0-1.9.2-1.2.5zM320.5 244c.3.5 1.3 1 2.1 1s1.4-.5 1.4-1c0-.6-.9-1-2.1-1-1.1 0-1.7.4-1.4 1zM435.5 251c-.8 1.3.5 1.3 2.5 0 1.3-.8 1.3-1-.2-1-.9 0-2 .4-2.3 1zM290.7 253.1c-1 1.1-1.6 2.4-1.3 2.7.6.6 3.5-2.7 3.6-4.1 0-1.1-.4-.9-2.3 1.4zM306.4 254.6c.3.9.6 1.8.6 2 0 .2.4.4.9.4s.7-.9.4-2c-.3-1.1-1-2-1.5-2-.6 0-.7.7-.4 1.6zM477.3 257.4c-1.8.6-3.3 1.3-3.3 1.7 0 1.4 2.1 2.1 3.3 1.1.8-.7 2.6-.7 5.5.1 3.2.8 4.5.8 5.4-.1.9-.9.8-1.2-.4-1.2-.9 0-1.8-.6-2.1-1.4-.6-1.6-3.8-1.6-8.4-.2zM324.5 257.8c-.6.4-1.7 1.6-2.5 2.6-1.6 2-1.3 1.9 4.8-2 .2-.1-.1-.4-.5-.7-.5-.3-1.3-.3-1.8.1zM297.7 258.6c-.4.4-.4 1.9 0 3.3.5 2.2.4 2.4-.9 1.4-.8-.7-1.8-1-2.1-.6-.4.3-.7.1-.7-.5 0-.7-.7-1.2-1.5-1.2-2.1 0-1.9 1.3.5 2.8 1.1.7 2 1.8 2 2.6 0 .7 1 1.6 2.3 2 3.4.9 3.7.8 3.7-1.4 0-1.1.5-2 1-2 .6 0 1-1.2.9-2.8l-.1-2.7-.8 2.5c-.8 2.4-.9 2.3-1.4-2.2-.1-1.4-2-2.1-2.9-1.2zM292 272c-.8.5-1.2 1.1-.9 1.4.2.3 1.1.1 1.9-.4.8-.5 1.2-1.1.9-1.4-.2-.3-1.1-.1-1.9.4zM299.7 281c-.3 1.3 0 2 .9 2 .8 0 1.4-.9 1.4-2s-.4-2-.9-2-1.1.9-1.4 2zM311 283.1c0 1.1.5 1.7 1 1.4.6-.3 1-1.3 1-2.1s-.4-1.4-1-1.4c-.5 0-1 .9-1 2.1zM308.2 286.2c-1.4 1.4-1.6 3.5-.3 4.2.5.3 1.1-.8 1.3-2.4.3-1.7.4-3 .3-3 0 0-.6.5-1.3 1.2zM310 292.9c0 .5.7 1.1 1.5 1.5.9.3 1.5 0 1.5-.9 0-.8-.7-1.5-1.5-1.5s-1.5.4-1.5.9zM309.5 296c-.3.5-.1 1 .4 1 .6 0 1.1-.5 1.1-1 0-.6-.2-1-.4-1-.3 0-.8.4-1.1 1zM351 257.5c0 .8.5 1.5 1 1.5.6 0 1-.7 1-1.5s-.4-1.5-1-1.5c-.5 0-1 .7-1 1.5zM177.5 4c-.3.5-.1 1 .4 1 .6 0 1.1-.5 1.1-1 0-.6-.2-1-.4-1-.3 0-.8.4-1.1 1zM228.8 117.1c-3 1.7-2 2.8 2 2.2 4.5-.7 5.1-1.1 3.2-2.3-1.9-1.2-3.1-1.2-5.2.1zM135 136.9c-.5 1.1-1 3.1-1 4.5 0 2.1.5 2.6 2.5 2.6 1.4 0 2.5.4 2.5 1 0 2 2.5.9 3.8-1.7 2.1-4.7 1.6-7-1.9-7.7-4.5-.9-4.7-.8-5.9 1.3zM114.7 173.2c-5.7 6.5-8.4 13-7 16.9.6 1.5.7 3.3.2 4-1.4 2.2-1 5.6.6 6.2 1.8.8 2.4-.1 2.7-4.6.1-2.1.5-3.7.9-3.7s1.3-2.4 1.9-5.4c.6-3 1.8-6 2.6-6.7 1-.8 1.3-2.1.9-3.7-.4-1.8-.1-2.5 1.5-2.9 1.3-.3 2-1.4 2-2.9 0-3.5-1.2-3-6.3 2.8zM44.8 214.7c-1 .2-1.8 1.1-1.8 1.9 0 1 1.2 1.4 4.1 1.4 3.3 0 4-.3 3.5-1.6-.3-.9-.6-1.8-.6-2 0-.5-2.8-.3-5.2.3zM3.5 263c-1.1.4-2.3.6-2.7.3-.5-.2-.8 6.4-.8 14.7 0 11.8.3 15 1.2 14.4.7-.5 3.2-2 5.6-3.5 3.4-2.2 5.1-2.6 8-2.2 4.6.7 4.5.5 3.2 3.8-.6 1.5-1.3 2.5-1.7 2.2-.3-.4-1.8.2-3.3 1.3-3.4 2.4-4 2.5-4 .4 0-.8-.5-1.2-1-.9-.6.4-.8 1.5-.5 2.6.5 1.5.1 1.9-1.5 1.9-1.5 0-2-.5-1.7-1.5.7-1.7-.9-3-1.8-1.5-.4.6-1.1.8-1.6.5-.5-.4-.9 2.9-.9 7.9 0 9.3.3 9.7 5.1 6.9 2.3-1.3 3.1-1.5 4.1-.5.9.9.9 1.2 0 1.2-.6 0-.9.7-.5 1.7.6 1.4 0 1.5-4 1L0 313v14.4c0 12.4.2 14.5 1.6 15 1.6.6 1.6.8 0 2.4-1.4 1.6-1.6 4.7-1.6 21 0 17.3.2 19.1 1.7 19.5 1.7.4 1.7.5.1.6-1.6.1-1.7 4.8-1.8 73.6V533h66.5c37.5 0 66.5-.4 66.5-.9 0-1.9-3.1-3.3-6.3-2.8-3.3.5-6.7-1.1-6.7-3.2 0-.6.6-1.1 1.4-1.1 2.1 0 3.1-2.1 1.6-3-.7-.5-1-1.7-.7-3 .5-1.9.3-2.1-1.9-1.6-1.4.4-2.4.2-2.4-.4 0-.5.5-1 1-1 .6 0 1-.7 1-1.5s-.7-1.5-1.5-1.5-1.5.7-1.5 1.5-.7 1.5-1.5 1.5c-.9 0-1.8-.7-2.1-1.5-.4-.8-1.2-1.5-2-1.5s-1.4-.4-1.4-.9c0-.6.8-1 1.8-1 .9 0 3.6-.1 5.9-.3 3.6-.3 4.4 0 5.3 2 .5 1.3 1.5 2 2 1.7.6-.4.8-1.2.4-1.8-.3-.7.3-.2 1.4 1 1.1 1.2 2.3 1.9 2.6 1.5.4-.4 2-.7 3.5-.8 2.6-.1 2.9.2 4 5.1 1.1 5 1.2 7.4.1 8.5-.3.3-1.1 1.5-1.8 2.7L134 533h37.1l-.7-2.3c-.4-1.2-.9-2.8-1.1-3.5-.3-.6.2-1.2 1.2-1.2 1.1 0 1.5-.5 1.2-1.4-.3-.8 0-1.9.7-2.5 1-.8 2.7-.5 6.7 1.4 3.4 1.5 7.2 2.5 10.2 2.5 2.6 0 4.7.4 4.7 1 0 .5-.7 1-1.5 1-1.2 0-3.5 2.8-3.5 4.4 0 .3 29.9.6 66.5.6H322v-2.3c0-3 2.4-6.2 3.9-5.3.9.6.9 1.1.1 2.1-1.5 1.8-.3 5.5 1.7 5.5 1.2 0 1.4-.8 1-3.5-.3-2-.2-3.5.4-3.5.6 0 .7.4.4 1-.3.5-.1 1 .5 1s.8 1 .4 2.5l-.6 2.5h22.1c12.9 0 22.1-.4 22.1-.9s-1.2-1.9-2.6-3c-2.5-1.9-2.5-2.1-.6-2.1 1.3 0 2.2-.8 2.5-2.2.4-2.2.4-2.2.6-.2.1 1.5 1 2.3 3.1 2.7 2.1.5 3.1 1.4 3.6 3.2l.6 2.5h24.6l.7-5.1c.4-2.7.4-5.3.1-5.7-.4-.3-2.6-.7-4.9-.8-5.7-.2-5.7-.2-5.7-1.9 0-2-2.6-1.9-3.4 0-.4 1 .3 1.9 1.8 2.5 2.8 1 3.4 2.3 2.8 6.2-.4 2.9-2.2 4-2.2 1.3 0-.8-.4-1.5-1-1.5-.5 0-1 .4-1 .8 0 1.2-5.8 1.3-6.5.2-.3-.5-1.2-.7-2-.4-1 .4-1.3-.2-1-2.2.1-1.4-.5-4.1-1.4-5.8-.9-1.7-1.6-3.2-1.6-3.3 0-.1-1.3-.5-2.9-.9-2.6-.6-2.9-.5-2.4 1.4.8 2.9-4 7.2-5.6 5-.6-.7-1.9-1.2-2.9-1-1 .2-2.5-.2-3.3-.9-1.4-1.2-1.4-1.4.1-2.5.9-.7 1.4-1.7 1.1-2.3-.9-1.4 2.5-4.6 5.5-5.4 1.6-.4 3.1 0 4.9 1.6 1.4 1.2 2.2 1.8 1.8 1.3-.4-.4-.1-1.5.7-2.3 2.4-2.4 1.9-8.6-.9-11.3-2.3-2.1-2.6-2.1-4.1-.6-.9.9-2.2 1.6-3 1.6-.7 0-2.3 1.2-3.6 2.6-1.3 1.4-3.4 2.9-4.6 3.4-2.8 1.2-2.9 2.6-.3 3.3 2.3.6 2.7 2.7.5 2.7-.8 0-1.5-.4-1.5-.9 0-1.2-5.6-2.2-12-1.9-9.4.3-10.6.1-14-1.5-2.5-1.3-3.6-1.4-4.7-.6-1.7 1.5-5.4-1.5-4.6-3.7.3-.8-.1-1.4-.9-1.4-2.4 0-6.8-2.4-6.8-3.8 0-1.8-1.1-1.5-3.7.9-1.8 1.8-2.5 2-3.7 1-1.8-1.5-9.3-2.2-12.1-1.1-1.1.4-3.2 1-4.7 1.4-2.3.5-2.6.3-2.1-1 .5-1.5.1-1.6-3.5-1.1-4.2.5-6.6-.6-3.7-1.7.8-.3 1.5-1.4 1.5-2.5s.5-2.3 1.1-2.6c.6-.4.8-1.3.5-2.1-.3-.8-.1-1.4.4-1.4 2.3 0 .7-2.2-2.5-3.5-2.5-1.1-4.1-1.2-6.1-.5-2 .8-3.4.7-5.7-.5-3.9-1.9-5.1-1.9-4.3.1.8 2.1-.3 3.7-1.7 2.6-.7-.5-2.7-1.2-4.5-1.5l-3.3-.7 2.1 3c1.2 1.7 2.6 2.8 3.1 2.5.5-.4.9-.1.9.4 0 .6.7 1.1 1.5 1.1s1.5-.7 1.5-1.6c0-1.3.9-1.4 5.8-.8 3.1.3 6 .8 6.5 1.1 1.4.8.7 2.3-1.2 2.3-2.7 0-5.1 1-5.1 2.2 0 1.5-2.7 3.8-4.5 3.8-1.3 0-1.6.7-1.3 3 .4 2.4.1 3-1.3 3-1 0-2.1.5-2.4 1-.4.6-1.4 1-2.3.9-3.4-.3-4.1.2-4.7 3-.9 4.3-4.7 6.5-9.3 5.4-3.6-.9-5.7-3.3-2.8-3.3.9 0 1.6-.7 1.6-1.5 0-.9-.6-1.2-1.5-.9-.8.4-1.5 1-1.5 1.5 0 1.6-1.8 1-4.7-1.6-2.6-2.3-2.7-2.6-1-3.6.9-.5 1.4-1.5 1.1-2.1-.4-.6-.3-.8.3-.5.5.3 2.2-.1 3.7-.9 3.6-1.8 4.6-1.8 4.6.2 0 .9.7 1.4 1.8 1.2 2.5-.5 2.7-5 .4-6.5-1.6-1-2.6-.7-5.5 1.3-4.2 2.8-5.1 3-4.3.9.5-1.3.1-1.3-2.7-.2-3.3 1.4-6.1 1.2-5.1-.4.8-1.3-1-1.1-2.4.3-1.6 1.6-4.9-1.4-5.7-5.3-.9-3.9-2.1-4.4-5.1-2-3.2 2.5-5.1 2.6-7.5.5-1.2-1.1-2.7-1.3-5.3-.9-3.6.7-4.5 1.8-2.6 3 .6.4.8 1.1.4 1.6-.4.6-1.2.5-2.2-.4-1.2-1.1-2.4-1.2-4-.6-2.6 1-2.5 3.4.1 3.4.9 0 1.6.4 1.4 1-.1.5-1.3 1-2.7 1-3 0-5.2 1.3-4.5 2.6.6.9-4.9.1-7.5-1.1-.8-.4-3.1-.8-5-.8s-3.6-.6-3.9-1.3c-.2-.6-1.2-1.9-2.2-2.7-2.5-2.2-2.5-2.4 1.6-4.6 3.4-1.9 4.7-4.6 2.2-4.6-.7 0-1.8-.5-2.5-1.2-1.7-1.7-5.2-2-6.9-.7-1.1.9-1.6.8-2.6-.6-.8-1-3.1-1.9-5.8-2.2-4.2-.5-4.6-.3-10.2 4.9-4.3 4.1-5.6 5.9-5.1 7.4.5 1.8.5 1.8-1 0-1.2-1.5-1.9-1.7-2.8-.8-.6.6-.9 1.5-.5 1.9 1.2 1.1 11.7 1.6 11.7.5 0-.6-.5-1.2-1.2-1.4-.6-.2.7-.4 3.1-.4 3.9.1 7.1 2.2 7.1 4.7 0 .4-4.1.7-9.2.8-5 0-9.6.5-10.1 1-1.3 1.3-6.7.3-8.9-1.7-2.3-1.9-6.4-.8-7.1 1.9-.6 2.2-2.8 2.2-3.5 0-.2-.6 1-1.7 2.7-2.4 3.9-1.4 3.5-3-1-3.7-3.8-.6-4.7-3.3-1.2-3.8 3.3-.5 3.6-3 .5-4.6-2.2-1.1-3.3-1.1-5.7-.1-2.4 1.1-3.3 1-5-.1-1-.8-2.7-1.4-3.7-1.4s-1.8-.5-1.8-1c0-.6.8-1 1.9-1 1.2 0 2-.9 2.3-2.5.4-2 .2-2.3-1.2-1.5-2.1 1.1-3.4.1-2-1.6.6-.6 1.9-1 2.9-.7 1.2.3 2-.2 2.3-1.5.4-1.2 2.1-2.4 5.2-3.3 2.5-.7 4.6-1.7 4.6-2.2 0-.4-1.7-1.5-3.7-2.3-7.8-3.3-10.3-4.7-10.3-5.9 0-.7.4-1.5 1-1.7.5-.2.7-1.3.4-2.5-.5-1.8-1.1-2.2-3-1.7-1.8.5-2.4.2-2.4-1 0-1.8-1.1-2.1-2.6-.6-.8.8-1.9.7-3.7-.1-2.4-1.1-2.5-1.3-1-2.4 1.4-1.1 1.2-1.3-1.6-1.7-2.8-.4-3.2-.2-2.8 1.4.3 1 .1 1.8-.4 1.8s-.9-.9-.9-1.9c0-2.5-1.6-3.6-2.4-1.5-.3.8-1.1 1.2-1.7.8-.8-.4-.7-.9.2-1.5.7-.4 1-1.1.6-1.5-.9-1 6.9-4.3 10.1-4.3 1.3-.1 2.1-.5 1.7-1.1-.3-.5-1.2-.7-2-.4-1.1.5-1.3-.1-1-2.5.5-4-1.5-4.1-4.8-.1-2 2.3-3.4 3-6.2 3-3.9 0-7.5 1.5-7.5 3s4.7 1.2 5.3-.3c.4-.9.6-.9.6.1.1.7-1.1 1.7-2.6 2.3-3.6 1.3-10.3.2-10.3-1.8 0-1.8-3.2-1.3-3.8.6-.3 1 0 1.2 1.1.8.9-.3 2.1.1 2.8 1 .7.8 2.4 1.9 3.7 2.4 1.5.6 2.2 1.5 1.9 2.3-.4.9.3 1.6 1.9 2 2.7.7 3.3 2.6.8 2.6-1 0-1.4.6-1.1 1.5.8 1.9-1 3-2.8 1.5-1-.8-1.5-.8-2.2.4-.4.8-2 1.8-3.5 2.1-2.4.6-2.8.4-2.8-1.4 0-1.5.6-2.1 2.2-2.1 1.2 0 1.8-.3 1.5-.7-.4-.3-.2-1.2.4-2 .9-1 .6-1.3-1.3-1.3-1.3 0-2.9.5-3.5 1.1-.9.9-1.4.5-1.9-1.5-.3-1.4-.9-2.6-1.3-2.6s-.7-.9-.8-2c-.1-1.4.4-2 1.8-2 1.1 0 1.8-.4 1.4-1-.3-.5-1.3-.6-2.2-.3-1.1.4-1.4.2-1.1-.8.3-.8 1-1.3 1.6-1.2.5.1.9-1.2.8-2.9-.1-2.3.4-3.3 1.7-3.6.9-.2 1.7.1 1.7.7s-.7 1.1-1.5 1.1c-3.3 0-1.2 1.8 2.5 2.2 2.2.2 4 0 4-.4 0-.5 1.5-.8 3.3-.8l3.2-.1-4.5-2.4c-2.5-1.3-5.2-2.2-6-2-.8.3-2.2 0-3-.5-1.5-.9-1.3-1.1 1.3-1.4.6-.1 1.1-1.1.9-2.2-.4-2.7 2.9-3.7 5.7-1.7 1.2.8 2.1 1 2.1.4s.5-1.1 1-1.1c.6 0 1 .6 1 1.4 0 1 .9 1.4 2.7 1.2 1.7-.2 3.3.3 3.9 1.3 1 1.3 1.4 1.3 2.8.2 2-1.7 2.1-4.1.1-4.1-.9 0-1.2.6-.8 1.7.6 1.5.5 1.6-.9.3-.9-.8-1.2-1.7-.7-2 1.9-1.3-.9-2.9-4.1-2.5-4.9.8-17 1.4-14.2.8 1.2-.2 2.2-1 2.2-1.8 0-.7.6-1.6 1.2-1.8.7-.3.2-.6-1.1-.6-2.4-.1-2.1-1.6.2-1.6.7-.1 1.1-.6 1-1.3-.2-.7.4-1.2 1.2-1.2.8 0 1.5-.7 1.5-1.5 0-1.9 1.9-1.9 2.6 0 .5 1.3.8 1.3 2.7 0 2.7-1.9 6.3-1.9 7-.1.5 1.3-1.4 2.8-3.8 3-1.3.1-1.9 3.6-.6 3.6.6 0 1.1-.5 1.1-1 0-.6.7-1 1.5-1s1.5.3 1.5.7c0 .5 1.6.8 3.5.8 3.9 0 4.7-1.1 1.3-1.8l-2.3-.4 2.3-.2c2.1-.1 3.3-3.1 1.2-3.1-.5 0-.7-.7-.4-1.5.4-.8 1.2-1.5 1.9-1.5.8 0 1.7-.5 2.1-1.2.5-.8-.3-.9-3.1-.5-3.4.6-3.6.5-1.9-.8 1.1-.8 2.5-1.5 3.2-1.5.6 0 1.2-.5 1.2-1 0-1.5-1.6-1.2-3 .5-.9 1.1-1.6 1.2-2.6.4-1.8-1.5-3.7-.1-3.1 2.3.5 1.6.3 1.7-1 .7-1.2-1-1.6-1-2.4.2-.7 1.1-.9 1-.9-.5s-.5-1.7-2.7-1.2l-2.8.6 2.8-1.5c2.8-1.6 3.4-2.9 1.7-4-.6-.4-.8-1-.5-1.5.7-1.2-9.7-.5-12.2.9-2.8 1.4-3.3 1.4-3.3-.4 0-1-.9-1.3-3.2-1-1.7.2-4.7-.3-6.7-1.2-3.2-1.3-3.4-1.6-1.6-2.3 2.8-1.2 7.5-1.2 7.5 0 0 .5.4 1 1 1 .5 0 .9-.5.7-1.1-.1-.6.4-1.4 1.1-1.6.6-.3 1.2.1 1.2.9 0 .7 1.1 1.8 2.4 2.4 2.1 1 2.4.9 2.4-1.2 0-2.7-2.2-4.9-3.9-3.9-.6.4-1.5.1-2-.6-.6-1-.9-1.1-.9-.2 0 .7-.5 1.3-1.1 1.3-.6 0-.7-.5-.2-1.3.4-.6.8-2.2.8-3.4.1-2-.1-2.1-1.5-.8-2.8 2.5-7.3 1.8-10.2-1.5-2.4-2.8-2.5-3-.7-3 1.1 0 1.8.4 1.4 1-1 1.6 4 4.2 6.9 3.4 1.4-.3 2.6-1 2.6-1.5s.7-.9 1.5-.9c.9 0 1.5.9 1.5 2.4 0 3.2 1.6 4.1 3.6 2.2.8-.9 2-1.6 2.5-1.6s.9-.5.9-1.1c0-.5-.4-.7-1-.4-.5.3-1 .1-1-.4 0-.6.7-1.1 1.6-1.1 1.3 0 1.5.7 1.1 3.5-.5 3-.2 3.8 1.8 5.1 1.4.9 3 1.4 3.7 1.1.7-.2.1-.8-1.4-1.2-2.5-.6-2.7-1.1-2.4-4.8.2-2.3.9-4.3 1.5-4.5 2.6-.9.9-2.4-2.1-1.8-4 .8-5.8 2.3-5.2 4.4.2.9-.2.3-1-1.3-1.7-3.7-1.1-4.2 6.2-5.1 4.9-.6 5.2-.8 3.7-2.3-2.1-2.4-2-2.6 2.1-4.6 4.8-2.3 3.8-2.8-2.2-1.1-2.7.8-6.6 1.7-8.8 2.1-2.9.5-3.6.9-2.7 1.8 1.6 1.6 1.4 2.4-.8 3-2.5.6-3.4-.2-2-1.9.7-.9.5-1.4-1-1.9-2.6-.8-2.7-2.5-.2-2.5 2.3 0 5.4-2.8 4.6-4.1-.4-.5.1-.9.9-.9.9 0 1.6-.6 1.6-1.4 0-1.1-1-1.3-3.9-.9-2.3.3-4.1.1-4.5-.6-.5-.7.2-1.1 1.9-1.1 2 0 2.6-.4 2.2-1.5-.4-.8-.2-1.7.3-2 1.6-1 1.1-2.5-.7-2.5-1.5 0-1.6.2-.3 1 1.2.8.9 1-1.2 1-1.4 0-2.8-.4-3-1-.4-1.1-7.5-1.5-10.5-.5-1.4.4-2.3.3-2.3-.3s.9-1.4 2-1.7c1.1-.4 1.8-1.1 1.5-1.6-.4-.5-1.4-.5-2.5.1-1.3.7-2.1.7-2.5 0-.3-.5-1.5-1-2.5-1-1.6 0-1.7-.3-.7-3 .9-2.3.9-3.3 0-3.8-.6-.4-1-1.9-1-3.3.2-2.7.2-2.7 3.9-1.2 2.8 1.1 4.1 1.2 5.7.3 3-1.6 2.6-3.9-.9-5.1-3.5-1.3-3.8-2.5-1-3.4 1.1-.3 2-1.1 2-1.6s1.4-.9 3-.9c1.7 0 3 .3 3 .7 0 1.4 6.9 1.4 7.7 0 .4-.6 2.2-1.2 3.8-1.2 2.7 0 3-.3 2.8-2.8-.2-2.4.1-2.6 2.4-2.1 2.2.6 2.5.4 2-1-.7-1.8 1-5.6 3.1-6.9 2.5-1.6.1-2.7-2.7-1.2-2.2 1.1-2.7 1.9-2.4 3.9.4 2.1.2 2.4-1.6 1.9-1.4-.4-2.1-.1-2.1 1 0 2.5-2.7 4.2-4.5 2.7-1-.9-1.5-.9-1.5-.1 0 .6-.5 1.1-1.1 1.1-.6 0-1.9 1-3 2.2l-1.8 2.3-.1-2.6c0-3.6-.8-4-4.2-2.3-4.2 2.2-8.1 1.5-8.8-1.6-.4-1.7-1.6-2.7-3.8-3.4-2.2-.6-3.2-1.5-3.2-2.8 0-1.1-.9-2.2-2-2.5-1.6-.4-2-1.4-2-4.4 0-4.2-.6-4.6-3.4-2.6-1.6 1.2-1.7 1.6-.5 3.5s1.1 2.4-.3 3.8c-1 1-2.1 1.3-3 .8-.7-.5-2.2-.8-3.3-.9-1.1 0-1.9-.6-1.7-1.3.3-1.9-1.6-1.4-2.1.5-.3 1.2-.5.8-.6-.9-.1-3 1.4-4.5 3.2-3 .8.7 1.6.6 2.4-.3 1.5-1.6-.8-3.9-4.9-4.9-1.6-.4-3.3-1.8-4.2-3.8-2.4-4.6-2.1-6 1.2-5.6 2.3.3 2.7.7 2.4 3-.1 1.6.2 2.8.8 2.8.5 0 1-.4 1-.8 0-1.4 4.8-3.3 5.5-2.2.4.6 0 1-.8 1-1.4 0-2.7 2-2.7 4.1 0 2 4.1.8 5.2-1.6 1.4-3.2 2.6-3.2 3.9.2.8 2 1.2 2.4 2.2 1.4.8-.8.8-1.4.2-1.9-1.5-1.1-1.8-5.1-.5-6.7.6-.8 1-2.4.8-3.7-.2-1.8-.8-2.2-3-2-2 .2-2.8-.2-3.3-1.8-.6-1.9-1.3-2.1-4.6-1.8-2.1.2-3.9 0-3.9-.4 0-.5.5-.8 1.2-.8.6 0 2-.8 3.1-1.8 1.1-.9 3.5-1.7 5.5-1.7 2.8 0 3.8-.5 4-1.9.3-1.1 0-1.6-.7-1.2-.6.4-1.1.2-1.1-.3 0-.6-1.3-2.3-3-3.8-3.7-3.3-3.8-5.1-.3-5.9 2.7-.7 6.5-4.3 5.7-5.5-.2-.3-4.1-.5-8.7-.4-5.7.1-8.4-.2-8.3-1 .2-1.8-6.4-8.7-7.8-8.2-.8.3-1.7.2-2.2-.3-.5-.4-1.8-.4-2.9 0zm9.5 10c-1.2.7-1.2 1.2-.1 3.4 1.2 2.1 1.1 2.7-.2 4-1.3 1.3-2 1.4-4.1.4-3.1-1.3-3.1-1.7-.8-5.7 1.2-2.2 2.4-3.1 4.2-3.1 1.9 0 2.2.2 1 1zm17.5 2c.4.6-.5 1-1.9 1s-2.6-.5-2.6-1c0-.6.9-1 1.9-1 1.1 0 2.3.4 2.6 1zM15 319.5c0 .8-.2 1.5-.4 1.5s-1.2.3-2.1.6c-1.5.6-1.5.4-.4-1.5 1.6-2.5 2.9-2.7 2.9-.6zm7.1 15.9c-.9 1.1-.9 1.6 0 2.2.7.4 1.5.2 1.7-.4.7-2.2 4.2-1.4 4.2 1 0 2 .1 2.1 2 .3 1.1-1 2-2.4 2-3.1 0-.8.6-1.1 1.5-.8.9.4 1.5.1 1.5-.7 0-.7 1.1-.3 2.7 1.2 1.4 1.3 2.3 1.8 1.9 1.1-.5-.7-.1-1.2 1-1.2 1.4 0 1.5.7 1 3.9-.5 3.4-.3 3.9 1.6 4.4 3.5 1 1.6 1.7-2.6 1-2.5-.4-4-1.2-4.3-2.4-.7-2.4-4.1-3.1-5.2-1.1-.7 1.2-1.3 1.3-2.3.5-.7-.6-3-1.3-5-1.7-4-.7-5-3-2.6-5.4 1.6-1.6 2.4-.6.9 1.2zM5 339c0 .5-.7 1-1.5 1s-1.5-.5-1.5-1c0-.6.7-1 1.5-1s1.5.4 1.5 1zm22.7 10.2c-.3.8-.6.5-.6-.6-.1-1.1.2-1.7.5-1.3.3.3.4 1.2.1 1.9zm-9.2-.2c-.3.5-1.2 1-1.8 1-.7 0-.6-.4.3-1 1.9-1.2 2.3-1.2 1.5 0zm4.5 2.9c0 .5-.9 1.1-2 1.4-2.3.6-2.5.2-.7-1.7 1.2-1.4 2.7-1.2 2.7.3zm12-.5c0 .3-.4.8-1 1.1-.5.3-1 .1-1-.4 0-.6.5-1.1 1-1.1.6 0 1 .2 1 .4zm.7 4.8c-.3.8-.6.5-.6-.6-.1-1.1.2-1.7.5-1.3.3.3.4 1.2.1 1.9zM10 357c0 .5-.6 1-1.4 1-.8 0-1.8-.5-2.1-1-.3-.6.3-1 1.4-1 1.2 0 2.1.4 2.1 1zm8 .9c0 .6-.4 1.3-1 1.6-.5.3-1-.1-1-.9 0-.9.5-1.6 1-1.6.6 0 1 .4 1 .9zm10 1.1c0 .5-.7 1-1.6 1-.8 0-1.2-.5-.9-1 .3-.6 1-1 1.6-1 .5 0 .9.4.9 1zm17.5 9c.3.5-.1 1-1 1s-1.3-.5-1-1c.3-.6.8-1 1-1 .2 0 .7.4 1 1zM22 370c-.9 1.8-.8 2 1.6 2 2.1 0 2.4-.3 1.5-1.4-.9-1.1-.6-1.5 1.6-1.9 3.5-.7 3.7-.5 2.9 3.5-.6 3.1-.8 3.3-4.5 3.2-2.1-.1-4.3-.4-5-.8-.6-.4-1.1-.3-1.1.3 0 .5.6 1.1 1.3 1.4.6.2.9.8.5 1.2-1.3 1.3-3.8-.4-3.8-2.5 0-2.6 3-6.9 4.8-7 1 0 1 .5.2 2zm31.5 0c-1.8 1.9-1.7 2 .2 2 2.5 0 4.9 2.5 3.3 3.5-2.2 1.3-.8 2.3 2.5 1.8 2.2-.3 3.5-.2 3.5.5 0 .6-1.2 1.2-2.7 1.4-2.2.2-2.8.8-2.6 2.5.2 1.9-.1 2.1-3.5 1.8-3.1-.4-3.2-.3-.8.3 1.7.4 2.9 1.1 2.8 1.7 0 .5.8 1 1.8.9 1.1 0 2 .5 2 1.3 0 .7.6 1.3 1.4 1.3.8 0 1.8.5 2.2 1.2.4.7.3.8-.4.4s-1.2-.2-1.2.3c0 1.8-2.4 1.2-3.8-.9-.6-1.1-3.9-3.2-7.2-4.7-4.5-2-6-3.1-6-4.7 0-1.2-.3-3.1-.6-4.4-.5-1.6-.2-2.2 1.1-2.2 1.1 0 1.5.6 1.1 1.7-.3 1 0 2.5.7 3.5 1.6 2 6.9 2.8 7.4 1 .3-.8-.7-1.2-3.1-1.2-2.7 0-3.4-.3-3-1.5.4-.8 1.7-1.5 3-1.5 1.5 0 2.4-.6 2.4-1.5s-.9-1.5-2.4-1.5c-1.3 0-2.6-.7-3-1.5-.6-1.6 1.9-3.4 4.8-3.5 1.8 0 1.8.1.1 2zm-14.8 1.1c-1.4.8-2.2.8-3 0-.8-.8-.3-1.1 1.9-1.1 2.5.1 2.7.2 1.1 1.1zM3 375c0 .5-.2 1-.4 1-.3 0-.8-.5-1.1-1-.3-.6-.1-1 .4-1 .6 0 1.1.4 1.1 1zm31.7.6c-.3.3-1.2.4-1.9.1-.8-.3-.5-.6.6-.6 1.1-.1 1.7.2 1.3.5zm6.4.8c-.9 1.1-.7 1.5 1.1 1.9 2.5.7 1.7 2.1-1.9 3.2-2.1.6-2.2.4-1.7-2.5.6-2.5.4-2.9-1-2.4-.9.3-1.6 1-1.6 1.5s-.5.9-1.2.9c-.6 0-.3-.9.7-2 2.1-2.3 7.5-2.9 5.6-.6zM21 382c0 .5-.4 1-1 1-.5 0-1-.5-1-1 0-.6.5-1 1-1 .6 0 1 .4 1 1zm52.6 2.2c.5.8.2.9-1 .5-1.4-.5-1.7-.3-1.2.8.3.9 0 1.5-.8 1.5-1.7 0-3.8-2.4-2.9-3.3 1.1-1.1 5.1-.8 5.9.5zM28.1 387c.5 0 .9.5.9 1 0 .6-1.1.8-2.5.4-2.1-.5-2.4-.3-1.9 1.1.5 1.3.3 1.6-.7 1.3-1.8-.6-1.3-3.9.9-5.6 1.4-1.1 1.8-1 2 .2.2.9.8 1.6 1.3 1.6zm-12.4.6c-.3.3-1.2.4-1.9.1-.8-.3-.5-.6.6-.6 1.1-.1 1.7.2 1.3.5zM11 389c0 .5-.5 1-1.1 1-.5 0-.7-.5-.4-1 .3-.6.8-1 1.1-1 .2 0 .4.4.4 1zm34 1.5c0 1.3-1.4 3.5-2.2 3.5-.6 0-.5-.6.2-1.5 1-1.2.9-1.5-.8-1.5-1.5 0-1.9.5-1.5 2 .4 1.5 0 2-1.5 2-1.1 0-2.2-.7-2.6-1.5-.3-.9 0-1.5.8-1.5s1.6-.6 1.9-1.4c.3-.9 1.5-1.2 3.1-.9 1.4.3 2.6.7 2.6.8zm10.5 1.6c-1 1.5-2.5 1-1.9-.6.4-.8 1-1.2 1.5-.9.5.3.7 1 .4 1.5zm-27.5-.2c0 .5-.7 1.1-1.4 1.4-1 .4-1.3.1-.9-.9.6-1.5 2.3-1.9 2.3-.5zm30 1.6c0 .8-.7 1.5-1.6 1.5-1.4 0-1.4-.3-.4-1.5.7-.8 1.4-1.5 1.6-1.5.2 0 .4.7.4 1.5zm-23.5.5c.3.5-.1 1-1 1s-1.3-.5-1-1c.3-.6.8-1 1-1 .2 0 .7.4 1 1zm10.9 2.5c-.4.8-.8 1.5-1 1.5-.2 0-.4-.7-.4-1.5s.4-1.5 1-1.5c.5 0 .7.7.4 1.5zm-8.8 2.2c1.3 1.3 1.4 1.8.3 2.2-.7.2-1.5-.1-1.7-.8-.2-.6-1-1.1-1.8-1.1-.9 0-1.2-.5-.9-1 .9-1.4 2.1-1.2 4.1.7zm16.2-.5c-.3.7-1.5 1.4-2.9 1.6-2.4.4-2.4.3-.4-1.2 2.4-1.9 3.8-2 3.3-.4zm6.2 1.7c0 1-4 2.2-5.2 1.5-1.8-1.1-.6-2.4 2.2-2.4 1.7 0 3 .4 3 .9zM9.5 403c-.3.5-1 1-1.6 1-.5 0-.9-.5-.9-1 0-.6.7-1 1.6-1 .8 0 1.2.4.9 1zm18.5 0c0 .5-.4 1-1 1-.5 0-1-.5-1-1 0-.6.5-1 1-1 .6 0 1 .4 1 1zm10 0c0 .5-.4 1-.9 1-.6 0-1.3-.5-1.6-1-.3-.6.1-1 .9-1 .9 0 1.6.4 1.6 1zm-5 2c0 .5-.4 1-1 1-.5 0-1-.5-1-1 0-.6.5-1 1-1 .6 0 1 .4 1 1zm-25 1c0 .5-.8 1-1.7 1-1.5 0-1.6-.2-.3-1 1.9-1.2 2-1.2 2 0zm11 1c0 .5-.4 1-1 1-.5 0-1-.5-1-1 0-.6.5-1 1-1 .6 0 1 .4 1 1zm27 .4c0 .6-1.4 1.1-3 1.2-1.7.1-3-.4-3-1s1.4-1.1 3-1.2c1.7-.1 3 .4 3 1zm-10.6 4.2c.8 2.2.8 2.4-.6 2.4-.6 0-.8-.3-.5-.7.4-.3.2-1.2-.4-2-.7-.8-.8-1.3-.1-1.3.5 0 1.3.7 1.6 1.6zm18.6-1.2c0 .3-.4.8-1 1.1-.5.3-1 .1-1-.4 0-.6.5-1.1 1-1.1.6 0 1 .2 1 .4zm7.8.2c1.9.5 2 .9 1 2.2-1.1 1.3-.9 1.4 1.5.8 2.1-.5 2.8-.3 2.5.6-.3.7-1.5 1.5-2.8 1.8-2 .5-2.1.7-.6 1.9.8.7 1.3 1.7 1 2.2-.8 1.3-4.2 1.1-5-.3-.5-.8-.2-.9.9-.5 2.1.8 2.2-.7.1-2.7-.8-.9-1.1-1.6-.5-1.6.6 0 1.1-.9 1.1-2 0-2.5-2-2.7-2.1-.3 0 1.1-.3 1.3-.6.5-.2-.6-1.1-1.2-1.9-1.2-.8 0-1.4-.5-1.4-1 0-1.1 3.3-1.3 6.8-.4zm7.2.4c0 .5-.5 1-1.1 1-.5 0-.7-.5-.4-1 .3-.6.8-1 1.1-1 .2 0 .4.4.4 1zm-25 2c0 .5-.4 1-1 1-.5 0-1-.5-1-1 0-.6.5-1 1-1 .6 0 1 .4 1 1zm13.8 4.9c.2 1.7-.1 3.1-.7 3.1s-1.1-.9-1.1-2-.4-2-1-2c-.5 0-.7.6-.4 1.4.4 1.1 0 1.3-1.5.9-1.2-.3-2.1-.1-2.1.6 0 1.1 1.3 1.5 3.6 1.2.7-.1 1.4.6 1.8 1.4.4 1.2 0 1.4-2.2.9-4-1-4.9-2.1-3.4-4.4 1.2-2 .6-2.4-3.5-2.3-.7.1-1.3-.4-1.3-.9 0-.6 1.1-.7 2.4-.4 1.5.4 2.8 0 3.6-.9 1.9-2.3 5.4-.3 5.8 3.4zm12.7-3.9c-.3.5-1 1-1.6 1-.5 0-.9-.5-.9-1 0-.6.7-1 1.6-1 .8 0 1.2.4.9 1zm-37.8.6c-.3.3-1.2.4-1.9.1-.8-.3-.5-.6.6-.6 1.1-.1 1.7.2 1.3.5zM13 416c0 .5-1.2 1-2.6 1-1.4 0-2.3-.4-1.9-1 .3-.6 1.5-1 2.6-1 1 0 1.9.4 1.9 1zm29.5 0c-.3.5 0 1 .8 1s1.7.6 2 1.3c.3.8-.4 1.2-2.2 1.1-5.5-.2-5.7-.4-3.2-2.4 2.5-2.2 3.6-2.6 2.6-1zm6.5 3c0 .5-.4 1-1 1-.5 0-1-.5-1-1 0-.6.5-1 1-1 .6 0 1 .4 1 1zm-36.3.6c-.3.3-1.2.4-1.9.1-.8-.3-.5-.6.6-.6 1.1-.1 1.7.2 1.3.5zm6 0c-.3.3-1.2.4-1.9.1-.8-.3-.5-.6.6-.6 1.1-.1 1.7.2 1.3.5zm18.3-.2c0 .3-.4.8-1 1.1-.5.3-1 .1-1-.4 0-.6.5-1.1 1-1.1.6 0 1 .2 1 .4zm22.6 4.2c-.3.9-.6 1.8-.6 2 0 .2-.7.4-1.5.4-1.3 0-1.3-.3-.3-2 1.5-2.4 3.3-2.7 2.4-.4zm4.4-.6c-1 .6-1.1 1-.2 1 .6 0 1.2.4 1.2 1 0 1.4-2.7 1.3-3.6-.1-.7-1.1 1.2-2.9 3.1-2.9.6 0 .3.5-.5 1zm-11 3c0 .5-.6 1-1.4 1-.8 0-1.6.5-1.8 1-.2.6-.9.1-1.6-1-1.1-1.8-1-2 1.8-2 1.6 0 3 .4 3 1zm-14.9 3.4c-1.4 1.7 0 2.9 2.3 2 2-.8 2.1 1.2.2 3.1-1.2 1.2-1.5 1.1-1.9-.6-.3-1.2-1-1.8-1.6-1.4-.6.3-1.1 0-1.2-.7 0-1-.2-1-.6-.1-.6 1.6-2.3 1.7-2.3.2s3-3.8 4.9-3.9c1 0 1.1.3.2 1.4zm44.4 2.5c-.6.5-2.5-1-2.5-2 0-.5.6-.4 1.4.3.8.7 1.2 1.5 1.1 1.7zm-56.5-.5c0 .2-.7.9-1.5 1.6-1.2 1-1.5 1-1.5-.4 0-.9.7-1.6 1.5-1.6s1.5.2 1.5.4zm30.1 1.4c-.7.2-1.8-.1-2.3-.6-.8-.8-.4-.9 1.3-.5 1.3.4 1.8.8 1 1.1zm6.4.2c-3.4.7-4 .5-3.1-.8.3-.5 1.8-.7 3.3-.4l2.8.6-3 .6zm-7.5 2.9c0 1.6-1.2 4.1-2 4.1-.4 0-.5-1.1-.2-2.5.4-2.3 2.2-3.6 2.2-1.6zm6.8 5.1c1.1 1.8 1 2-1.3 2-2.4 0-3.4-1.8-1.8-3.3 1-1.1 1.7-.8 3.1 1.3zm-.8 4c0 .5-.7 1-1.5 1s-1.5-.5-1.5-1c0-.6.7-1 1.5-1s1.5.4 1.5 1zm-4.5 1c.3.5-.1 1-.9 1-.9 0-1.6-.5-1.6-1 0-.6.4-1 .9-1 .6 0 1.3.4 1.6 1zm-22.4 4.3c-.8.8-1.1.7-1.1-.4 0-2 1.3-3.4 1.8-1.9.3.7-.1 1.7-.7 2.3zm49.9 2.2c0 1.7-.2 1.8-2.5.9-1.3-.5-1.4-.8-.3-1.5 1.9-1.3 2.8-1.1 2.8.6zm5 2c0 .8-.9 1.5-2 1.5-2 0-2.6-1.1-1.3-2.3 1.2-1.3 3.3-.7 3.3.8zm16 4.5c0 .5-.7 1-1.5 1s-1.5-.5-1.5-1c0-.6.7-1 1.5-1s1.5.4 1.5 1zm-33 9.1c-.9 1.6-1.4 1.8-2.6.9-.7-.7-2.1-1-2.9-.6-.8.3-1.5.2-1.5-.3 0-1.3.7-1.6 4.5-1.9 3.3-.2 3.5-.1 2.5 1.9zm9-1.1c0 .5-.4 1-1 1-.5 0-1-.5-1-1 0-.6.5-1 1-1 .6 0 1 .4 1 1zm-4 1c0 .5-.4 1-1 1-.5 0-1-.5-1-1 0-.6.5-1 1-1 .6 0 1 .4 1 1zm-29.3 3.6c-.3.3-1.2.4-1.9.1-.8-.3-.5-.6.6-.6 1.1-.1 1.7.2 1.3.5zm14 0c-.3.3-1.2.4-1.9.1-.8-.3-.5-.6.6-.6 1.1-.1 1.7.2 1.3.5zm31.3 3.5c0 2.2-.4 2.8-1.2 2.2-.7-.4-2.4-.7-3.8-.6-2.5.2-2.5.2.3-.9 1.5-.7 2.7-1.8 2.7-2.5s.5-1.3 1-1.3c.6 0 1 1.4 1 3.1zm12 5.3c0 1.1-1.9 1.5-2.5.6-.3-.5.1-1 .9-1 .9 0 1.6.2 1.6.4zm-46 7.3c0 2.6-.1 2.6-1.5.7-1.9-2.5-1.9-3.4 0-3.4 1 0 1.5 1 1.5 2.7zm49 3.2c0 .6-.4 1.3-1 1.6-.5.3-1-.1-1-.9 0-.9.5-1.6 1-1.6.6 0 1 .4 1 .9zm57.3 5.8c-.7.2-1.9.2-2.5 0-.7-.3-.2-.5 1.2-.5s1.9.2 1.3.5zM121 499c0 .5-.9 1-2 1s-2-.5-2-1c0-.6.9-1 2-1s2 .4 2 1zm94.4-.4c2.3.9 2 2.3-.4 1.7-1.1-.3-2-.9-2-1.4 0-1.1.3-1.1 2.4-.3zm-133.6 3.6c-.3.7-1.3 1.5-2.4 1.7-1.6.3-1.7.1-.5-1.3 1.6-1.9 3.4-2.1 2.9-.4zm-13.3.7c.7 1.2-1.2 2.4-2.5 1.6-1.1-.7-.4-2.5 1-2.5.5 0 1.1.4 1.5.9zm6.2-.3c-.3.3-1.2.4-1.9.1-.8-.3-.5-.6.6-.6 1.1-.1 1.7.2 1.3.5zm141.5 1.7c-1.2.6-2.5.7-2.9.3-1.1-1 1.8-2.5 3.5-1.8 1.3.4 1.1.8-.6 1.5zm56.3 2.7c-.4.6 1.4 1 4.7 1 4.2.1 4.9.3 3.5 1.1-2.4 1.4-10.1.3-11.7-1.6-1-1.3-.8-1.5 1.4-1.5 1.6 0 2.5.4 2.1 1zM123 508c0 .5-.5 1-1.1 1-.5 0-.7-.5-.4-1 .3-.6.8-1 1.1-1 .2 0 .4.4.4 1zm15.5 2c-.3.5-1.5 1-2.5 1s-2.2-.5-2.5-1c-.4-.6.7-1 2.5-1s2.9.4 2.5 1zm55.5 2.5c-1.2 1.5-3 1.2-3-.6 0-.5 1-.9 2.1-.9 1.8 0 1.9.2.9 1.5zm96.1.5c1.3 1 1.9 1.9 1.3 2-.6 0-1.4-.3-1.8-.7-.4-.4-1.7-.8-2.8-.8-1.2 0-2.3-.6-2.5-1.3-.7-1.9 3.2-1.4 5.8.8zm-10.4-.4c-.3.3-1.2.4-1.9.1-.8-.3-.5-.6.6-.6 1.1-.1 1.7.2 1.3.5zm-37.7 3.5c0 1.1-2.7 1.2-3.4 0-.3-.4-.3-1.1 0-1.4.8-.8 3.4.3 3.4 1.4zm-53.5-.1c.3.5-.1 1-.9 1-.9 0-1.6-.5-1.6-1 0-.6.4-1 .9-1 .6 0 1.3.4 1.6 1zm42 1.6c.8.3 1.5.1 1.5-.6 0-1.5 4.2-.9 4.8.8.3.9-.3 1.1-2.2.6-2.7-.6-3.4.4-1.5 2.3 1.7 1.7-.3 2-4.1.7-1.9-.7-3.1-1.3-2.6-1.3.5-.1.3-.7-.3-1.4-1.3-1.6-.3-3 1.6-2.2.7.3 2 .8 2.8 1.1zm-90.8 1.6c-.3.8-.6.5-.6-.6-.1-1.1.2-1.7.5-1.3.3.3.4 1.2.1 1.9zm152.9 2.6c.4 2.6-1.2 3.8-3.1 2.2-1.1-.9-1.2-1.6-.2-3.1 1.5-2.4 2.9-2 3.3.9zm-179.6.6c0 .2-.9.6-2 .9-1.1.3-2 .1-2-.4s.9-.9 2-.9 2 .2 2 .4zm7 .6c0 .5-.4 1-1 1-.5 0-1-.5-1-1 0-.6.5-1 1-1 .6 0 1 .4 1 1zM95.8 268.1c-3.9 1.5-4.1 3.5-.7 6.4 2.3 1.8 4.2 2.5 7.4 2.5 2.4 0 4.7-.5 5-1 .3-.6 1.5-1 2.6-1 1 0 1.9-.5 1.9-1 0-.6 1.1-1 2.4-1 1.3 0 3.1-.3 4-.6 3.1-1.2 1.5-2.4-3.1-2.4-2.7 0-6.6-.5-8.8-1.1-6.7-1.8-7.9-1.8-10.7-.8zM62.7 270.7c-.4.3-.7 1.5-.7 2.5 0 1.3.7 1.8 2.5 1.8 2.8 0 2.9-.3 1.5-3.1-1.1-2-2.2-2.4-3.3-1.2zM511.5 271c-.3.5.1 1 1 1s1.3-.5 1-1c-.3-.6-.8-1-1-1-.2 0-.7.4-1 1zM516 271c.8.5 2.6.9 4 .9 2.3 0 2.3-.1.5-.9-1.1-.5-2.9-.9-4-.9-1.7-.1-1.7.1-.5.9z"/><path d="M41.5 281.1c-2.2 1.1-5 2.6-6.3 3.3l-2.2 1.3 2 2.3c1.1 1.3 2 3.1 2 4 0 1.9 4 6 5.9 6 .7 0 2.6-1.4 4.2-3.1 2.3-2.4 2.7-3.5 1.9-4.9-1.3-2.4-1.3-6 0-6 .6 0 1-1 1-2.3 0-3-3.1-3.2-8.5-.6zM71.8 282.3c-3.7 1.4-3.5 2.9.6 5.1 2.9 1.5 3.7 1.6 5.5.4 2.7-1.6 2.6-2.5-.1-4.9-2.6-2.1-2.4-2.1-6-.6zM87.7 284.7c-.4.3-.7 1.1-.7 1.7 0 .6.5.5 1.2-.2.6-.6.9-1.4.7-1.7-.3-.3-.9-.2-1.2.2zM114 294.4c0 .9.7 1.6 1.6 1.6 1.7 0 1.4-2.2-.4-2.8-.7-.2-1.2.3-1.2 1.2zM57.3 297.7c-2.1.8-1.5 3 .9 3.6 2.5.7 3.8.1 3.8-1.8 0-1-2.5-2.8-3.3-2.4-.1 0-.8.3-1.4.6zM97 302c0 .5.7 1 1.5 1s1.5-.5 1.5-1c0-.6-.7-1-1.5-1s-1.5.4-1.5 1zM111.5 303c-.4.6.5 1 1.9 1s2.6-.5 2.6-1c0-.6-.9-1-1.9-1-1.1 0-2.3.4-2.6 1zM37.6 307.5c-1.5 1.4-2.4 3-2.1 3.5.8 1.3 4.5 1.3 4.5 0 0-.6.6-1 1.4-1 2.2 0 3-1.9 1.6-3.5-1.7-2-2.3-1.9-5.4 1zM62.6 305.7c-1.2 1.2-.6 4.1 1.5 6.4 1.4 1.7 2.2 2 2.5 1.1.3-.6 1.6-1.2 2.8-1.2 2.9 0 5.8-4.7 3.7-5.9-1.6-1-9.6-1.3-10.5-.4zM47 320.5c0 .9.9 1.5 2.5 1.5 2.8 0 3.4-1.5.9-2.4-2.5-1-3.4-.7-3.4.9zM23.5 323c-.3.5-.1 1 .4 1 .6 0 1.1-.5 1.1-1 0-.6-.2-1-.4-1-.3 0-.8.4-1.1 1zM53.8 323.6c-1.5.8-4 1.2-5.5 1-1.8-.3-3.7.2-5.3 1.4l-2.5 1.9 2.5.9c1.4.5 3 .6 3.5.2 1.8-1.3 9.5-2.8 11.6-2.3 1.9.5 2 .4 1-1.5-1.6-3-2.3-3.2-5.3-1.6zM61 326.8c0 .5 1.4 1.2 3 1.4 1.9.3 2.9.1 2.7-.6-.4-1.4-5.7-2.1-5.7-.8zM149.4 327.5c-1.1.7-1.3 1.4-.7 1.8 1.4.9 7.4-.3 6.8-1.3-.9-1.5-4.4-1.8-6.1-.5zM48.6 332.2c-2.1 2.9-2 3.8.3 3.8 1.1 0 2.3-.9 2.6-2 .3-1.1 1.3-2 2.1-2s1.4-.5 1.4-1c0-1.9-4.9-1-6.4 1.2zM65.5 332c-.3.5-.1 1 .4 1 .6 0 1.1-.5 1.1-1 0-.6-.2-1-.4-1-.3 0-.8.4-1.1 1zM87 334c0 .5.7.7 1.5.4.8-.4 1.5-.8 1.5-1 0-.2-.7-.4-1.5-.4s-1.5.4-1.5 1zM133.5 334.1c-.4.6-.5 1.3-.2 1.6.7.7 2.7-.6 2.7-1.8 0-1.2-1.7-1.2-2.5.2zM79.1 335.4c-.9 1-.8 1.5.4 2 1 .4 1.5-.1 1.5-1.4 0-2.4-.4-2.5-1.9-.6zM389 336.1c0 1.1.5 1.7 1 1.4.6-.3 1-1.3 1-2.1s-.4-1.4-1-1.4c-.5 0-1 .9-1 2.1zM363.3 344.2c-2.4 3.2-3.8 9.4-2.3 10.3.5.3 1.2-.4 1.5-1.6.4-1.2 1.9-3.2 3.3-4.4 1.6-1.4 2.3-2.8 1.9-3.8-.8-2-3.1-2.2-4.4-.5zM55.5 347c-1.9.8-1.9.9.3.9 1.2.1 2.2.7 2.2 1.5 0 .7-1 1.6-2.2 2-2.3.6-2.3.6.4 2 3.5 1.8 6 1.2 7.5-2.1 1.4-2.9.9-4.5-1.1-3.7-.8.3-1.7.1-2.1-.5-.7-1.3-2.2-1.3-5-.1zM110.1 351.6c-1.3 1.9-2.7 3.4-3.2 3.4s-.9.7-.9 1.5c0 2.2 7.8 2.1 8.7-.1.4-1 0-2.2-1-2.9-1-.7-1.3-1.5-.7-2.1.5-.5.6-1.4.2-2.1-.5-.8-1.5 0-3.1 2.3zM87.8 351.8c-.3 1.1.1 3.4.8 5.1l1.4 3.3 2.5-2.9c2.1-2.4 2.6-2.6 3.5-1.3.6.9 1 1 1 .3 0-1.7-2.9-4.3-4.9-4.3-.9 0-2.2-.5-2.8-1.1-.7-.7-1.2-.5-1.5.9zM68 353.9c0 .6.7 1.1 1.6 1.1 1.2 0 .9.6-1.1 2.1-1.7 1.4-2.9 1.8-3.4 1.1-.8-1.4-6.1-.3-6.1 1.3 0 .7.7 1.8 1.5 2.5 1.2 1 1.5 1 1.5-.2 0-1.8 9-3.4 10-1.8.4.6 1.3.5 2.6-.5 1-.8 3.1-1.5 4.7-1.5 2 0 2.7-.5 2.7-2.1 0-1.1-.4-1.8-.9-1.4-.5.3-1.3 0-1.7-.6-.5-.9-1-.8-1.8.2-.6.8-1.9 2-2.8 2.8-1.6 1.2-1.8 1.1-1.8-.2 0-.9.8-1.8 1.8-2 1.1-.3.7-.5-1-.6-1.4 0-3.3-.4-4.2-.7-.9-.3-1.6-.1-1.6.5zM44.6 355.9c-.9 1.4 1.1 5.1 2.8 5.1 1.8 0 1.6-2.7-.5-4.6-1.1-1-1.9-1.2-2.3-.5zM151 360c0 .6.7 1 1.5 1s1.5-.2 1.5-.4-.7-.6-1.5-1c-.8-.3-1.5-.1-1.5.4zM107.8 361c-1.4.4-5.5.8-9 .9-4.1 0-7.6.7-10.1 2-2 1-5.1 1.8-6.7 1.7-2.5-.2-3 .2-3 2 0 1.5-.7 2.4-2.1 2.6-1.2.2-2.7 1.2-3.3 2.3-.6 1.1-1.8 2.5-2.6 3.2-1.3 1.1-1.3 1.2-.1 1.3 1.1 0 .9.4-.5 1.5-1.8 1.4-1.8 1.4.6 1.5 1.5 0 3.1-.5 3.7-1.1.8-.8 3.6-1.5 7.7-1.8.5-.1.3-.8-.5-1.7-1-1.3-1-1.7.2-2.5.8-.5 2.1-.9 2.9-.9 1.1 0 1.1.3.2 1.2-.7.7-1.2 1.5-1.2 1.9 0 1.1 5.9 3.2 7.5 2.6.8-.4 1.9.1 2.4 1.1 1 1.6 1 1.6 1.1-.1 0-2.1 2.3-2.2 4-.2 1.5 1.8 10.5 2.1 11.6.3.7-1.2-2.4-4.1-3.6-3.3-.4.3-1-1.7-1.4-4.3-.5-4.1-.3-4.9 1.6-6.4 1.4-1 2.7-1.3 3.4-.8.6.6 1.9.3 3.3-.7 1.8-1.2 2-1.7 1-2.4-1.7-1-3.5-1-7.1.1zm-8.7 5c.4 0 .6.6.3 1.4-.3.7-2.3 1.6-4.4 2-2.2.3-4.5 1.5-5.3 2.6-1.6 2.2-2.7 1.8-2-.8.5-2.1 7.2-6.1 9.1-5.6.8.2 1.8.4 2.3.4zm-22.4 9.6c-.3.3-1.2.4-1.9.1-.8-.3-.5-.6.6-.6 1.1-.1 1.7.2 1.3.5zM352.5 361c-.3.5-.1 1 .4 1 .6 0 1.1-.5 1.1-1 0-.6-.2-1-.4-1-.3 0-.8.4-1.1 1zM55.5 361.9c-.3.5-.1 1.2.5 1.6.5.3 1-.1 1-.9 0-1.8-.6-2.1-1.5-.7zM67 364.5c.7.8 1.7 1.5 2.2 1.5.6 0 .5-.7-.2-1.5s-1.7-1.5-2.2-1.5c-.6 0-.5.7.2 1.5zM75.3 366.7c-1.8.7-1.6 2.3.2 2.3.8 0 1.5-.7 1.5-1.5s-.1-1.5-.2-1.4c-.2 0-.9.3-1.5.6zM66.2 369.1c.2.7 1 1.5 1.7 1.7.8.3 1.2-.1.9-.9-.2-.7-1-1.5-1.7-1.7-.8-.3-1.2.1-.9.9zM348 371.7c0 .5.5 1.5 1 2.3.8 1.2 1 1.1 1-.8 0-1.2-.4-2.2-1-2.2-.5 0-1 .3-1 .7z"/><path d="M85.5 381.5c3.6 2.9 6.1 3.2 6.8.6.4-1.5-.2-2-3.2-2.5-6.2-1-6.8-.7-3.6 1.9zM93.4 384.2c-.2.3.9 1.1 2.5 1.6 2.5.9 3 .8 3.4-.8.4-1.6 0-1.9-2.5-1.7-1.6.1-3.2.5-3.4.9zM103.6 384.7c-1.2 1.2-.5 2.3 1.4 2.3 1.1 0 2-.4 2-.9 0-1.1-2.6-2.2-3.4-1.4zM147 385c0 .5.5 1 1 1 .6 0 1-.5 1-1 0-.6-.4-1-1-1-.5 0-1 .4-1 1zM110.7 386.2c-.9.6-.9 1 .2 1.7 1.8 1.1 5.1.2 5.1-1.5 0-1.4-3.3-1.5-5.3-.2zM94 392c0 .5.5 1 1 1 .6 0 1-.5 1-1 0-.6-.4-1-1-1-.5 0-1 .4-1 1zM371 392.5c0 .8.7 1.5 1.5 1.5s1.5-.7 1.5-1.5-.7-1.5-1.5-1.5-1.5.7-1.5 1.5zM103.8 392.7c.7.3 1.6.2 1.9-.1.4-.3-.2-.6-1.3-.5-1.1 0-1.4.3-.6.6zM81.8 394.4c-3.6 2.7-1.5 6 2.2 3.6 1.3-.8 1.3-1.1.1-1.9-.7-.5-1-1.4-.7-2 .9-1.4.5-1.4-1.6.3zM108 393.9c0 1.8 1.7 2 3.6.6 1.8-1.4 1.8-1.4-.8-1.5-1.6 0-2.8.4-2.8.9zM75.5 396c-.3.5-.1 1.8.4 2.7.6 1 1.1 1.3 1.1.6 0-.6.3-1.8.6-2.7.7-1.7-1.1-2.2-2.1-.6zM103.8 397.7c-2.4.6-2.3 2.3.1 2.3 1 0 2.1-.7 2.5-1.5.6-1.5.4-1.6-2.6-.8zM114 399c0 .5.5 1 1.1 1 .5 0 .7-.5.4-1-.3-.6-.8-1-1.1-1-.2 0-.4.4-.4 1zM117 400.3c0 .9 1.3 1.1 4.3.8 3.3-.3 3.8-.5 2.2-1.2-3.1-1.2-6.5-1-6.5.4zM84.5 402c.3.5.8 1 1.1 1 .2 0 .4-.5.4-1 0-.6-.5-1-1.1-1-.5 0-.7.4-.4 1zM361.8 408.7c.7.3 1.6.2 1.9-.1.4-.3-.2-.6-1.3-.5-1.1 0-1.4.3-.6.6zM398.5 409c.3.5.8 1 1.1 1 .2 0 .4-.5.4-1 0-.6-.5-1-1.1-1-.5 0-.7.4-.4 1zM385 411.6c-1.5 3.8-1.2 5.6.8 5.2 1.2-.2 1.8-1.4 2-4.1.4-4.3-1.4-5-2.8-1.1zM361 415.5c-.7.9-.9 1.9-.5 2.3.4.4 1 .2 1.2-.4.2-.7 1.3-1 2.4-.7 1.5.4 1.8.2 1.3-1.1-.8-2-2.8-2.1-4.4-.1zM143 419c0 .5.5 1 1 1 .6 0 1-.5 1-1 0-.6-.4-1-1-1-.5 0-1 .4-1 1zM103 423c-1.2.8-.9 1 1.3 1 1.6 0 2.6-.4 2.2-1-.8-1.2-1.6-1.2-3.5 0zM357.8 422.7c-2 .5-2.3 1.8-.8 2.8 1.2.7 4-1.2 4-2.6 0-.9-.4-1-3.2-.2zM273.8 424.7c.7.3 1.6.2 1.9-.1.4-.3-.2-.6-1.3-.5-1.1 0-1.4.3-.6.6zM125.5 427c.3.5.8 1 1.1 1 .2 0 .4-.5.4-1 0-.6-.5-1-1.1-1-.5 0-.7.4-.4 1zM129.8 427.7c.7.3 1.6.2 1.9-.1.4-.3-.2-.6-1.3-.5-1.1 0-1.4.3-.6.6zM264.5 428c.3.5 1.3 1 2.1 1s1.2-.5.9-1c-.3-.6-1.3-1-2.1-1s-1.2.4-.9 1zM270 428c0 .5.7 1 1.5 1s1.5-.5 1.5-1c0-.6-.7-1-1.5-1s-1.5.4-1.5 1zM193.5 429c.3.5 1 1 1.6 1 .5 0 .9-.5.9-1 0-.6-.7-1-1.6-1-.8 0-1.2.4-.9 1zM188.7 429.7c-1.2 1.2-.7 2.2.8 1.7.8-.4 1.5-1 1.5-1.5 0-1.1-1.4-1.2-2.3-.2zM285 430.1c0 .5.4.8.9.5.5-.3 1.4.1 2.1.9.7.8 2.4 1.5 3.9 1.5 2.2-.1 2.4-.2.8-1.1-.9-.5-2.1-.8-2.6-.5-.5.3-1.4-.1-2.1-.9-1.4-1.7-3-2-3-.4zM278 432c0 .5.9 1 2.1 1 1.1 0 1.7-.5 1.4-1-.3-.6-1.3-1-2.1-1s-1.4.4-1.4 1zM72.2 433.2c.3.7 1.3 1.5 2.3 1.7 1.7.3 1.7.2.3-1.3-2-1.9-3.1-2.1-2.6-.4zM102 433c0 .5.6 1 1.4 1 .8 0 1.8-.5 2.1-1 .3-.6-.3-1-1.4-1-1.2 0-2.1.4-2.1 1zM108.6 432.8c-.3.6-.1 1.4.5 1.7 1.4.9 2 .2 1-1.4-.6-.8-1.1-.9-1.5-.3zM91 434.9c0 .6.4 1.3 1 1.6.6.3.7-.1.4-.9-.7-1.8-1.4-2.1-1.4-.7zM165.3 434.8c-2.4.2-4.3.7-4.3 1.3 0 .5-1.3.9-3 .9-1.6 0-3 .4-3 .9 0 1.8 3.8 1.8 7.6 0 2.2-.9 5-1.6 6.4-1.4 9 1.4 14.2 1.5 13.8.3-.5-1.4-10.4-2.5-17.5-2zM309.2 436.8c-1.8 1.2 3.4 3.5 6 2.6 1.5-.4 1.7-.9.7-2-1.3-1.5-4.7-1.8-6.7-.6zM105 441c-1.5 1-1.5 1 2.5 1 .3 0 .5-.3.6-.7.1-1.2-1.5-1.3-3.1-.3zM292 440.8c.1 2.3 2 3.4 5.1 2.9 3.4-.5 9.6 1.6 11.1 3.7.5.7.8.7.8-.2 0-.8.8-1 2.5-.6 2.1.5 2.5.3 2.5-1.5 0-1.6-.6-2.1-2.7-2.1-1.6 0-4.4-.4-6.3-.9-5.3-1.4-13-2.2-13-1.3zM151.3 442.7c-.7 1.9-.6 2 5.5 2.8 3.5.5 5.2.3 5.2-.4 0-.6-.9-1.1-1.9-1.1-1.1 0-2.2-.4-2.5-.9-1-1.6-5.7-1.9-6.3-.4zM284 442.1c0 .5.5.7 1 .4.6-.3 1-.8 1-1.1 0-.2-.4-.4-1-.4-.5 0-1 .5-1 1.1zM382.2 445.2c-1.6 1.6-1.5 2.8.3 2.8.8 0 1.5-.9 1.5-2 0-2.3-.2-2.4-1.8-.8zM169 446.1c0 .5 1.1.9 2.5.9s2.5-.2 2.5-.4-1.1-.6-2.5-.8c-1.4-.3-2.5-.1-2.5.3zM315.9 445.2c-1.2 4.3-.6 5.6 3 6.3 1.3.2 2.2-.3 2.7-1.7.7-2.4-1.2-4-4-3.2-1.2.4-1.6.2-1.2-.5.4-.6.5-1.1.2-1.1s-.6.1-.7.2zM96.5 448c.3.5.8 1 1.1 1 .2 0 .4-.5.4-1 0-.6-.5-1-1.1-1-.5 0-.7.4-.4 1zM104 449.3c-2.5 1-2.5 1-.2 1.4 1.2.3 3.1.3 4.2.1 2-.3 2-.4.3-1.4-1.3-.8-2.6-.8-4.3-.1zM264.7 448.7c-2.2.6-1.7 2.7.8 3.1 1.8.4 3.7-1.6 2.9-3-.5-.8-.8-.8-3.7-.1zM248 452.3c-2.3 1.2-3.5 3.7-1.7 3.7h3.2c2.2 0 2.4-.3 1.5-1.9-.7-1.4-.6-2.1.3-2.4.6-.3.8-.6.2-.6-.5 0-2.1.5-3.5 1.2zM219 453.1c0 .5.5.7 1 .4.6-.3 1-.8 1-1.1 0-.2-.4-.4-1-.4-.5 0-1 .5-1 1.1zM106 454c0 .5.7 1 1.6 1 .8 0 1.2-.5.9-1-.3-.6-1-1-1.6-1-.5 0-.9.4-.9 1zM280.8 456.2c-4.1 1.4-3.4 2.8 1.2 2.8 2.8 0 4-.4 4-1.4 0-1.9-2-2.5-5.2-1.4zM334.5 456.3c-4.5 2.6-4.5 2.7-2.4 4.8 1.1 1.1 2.5 1.7 3.2 1.2.7-.4 2-.6 3-.5.9.2 1.7-.2 1.7-.7 0-.6-.6-1.1-1.4-1.1-.9 0-1.2-.8-.8-2.5.5-2.7-.2-2.9-3.3-1.2zM326 458c0 .5.4 1 .9 1 .6 0 1.3-.5 1.6-1 .3-.6-.1-1-.9-1-.9 0-1.6.4-1.6 1zM175 460c0 .5.6 1 1.4 1 2.8 0 2.9 2.3.4 4.4-1.7 1.4-2.4 2.7-1.9 3.8.5 1.5 1 1.6 3 .5 1.4-.7 3.2-2.6 4.1-4.2 1.8-3.1 1.9-3.1 10-2l4.5.6-2.5-2.1c-1.9-1.7-3.2-2.1-6.2-1.6-2.3.4-3.8.2-3.8-.4 0-.5-2-1-4.5-1s-4.5.4-4.5 1zM163.3 460.7c-3.2.6-2.9 1.9.5 1.7 5.3-.2 6.2-.4 6.2-1.4 0-1-2.5-1.1-6.7-.3zM114.5 461.7c-3 .7-4.3 2.3-1.8 2.3 1.1 0 2.6-.7 3.3-1.5.7-.8 1.1-1.4.9-1.4-.2.1-1.3.3-2.4.6zM265 462c0 .5.6 1 1.4 1 .8 0 1.8-.5 2.1-1 .3-.6-.3-1-1.4-1-1.2 0-2.1.4-2.1 1zM272.4 462.1c-.6 1-.7 1 2.4 1.3 1.2.2 2.2-.1 2.2-.5 0-1.1-3.9-1.8-4.6-.8zM119 463c0 .5.5 1 1 1 .6 0 1-.5 1-1 0-.6-.4-1-1-1-.5 0-1 .4-1 1zM327.2 462.9c-1.1.7-1.1.9 0 1.3 1.8.7 3.9-.2 3.2-1.3-.6-1.1-1.5-1.1-3.2 0zM134 465c-2.3.7-2.3.8-.3.9 1.2.1 2.5-.4 2.8-.9.3-.6.5-1 .3-.9-.2.1-1.4.5-2.8.9zM320.8 464.7c.7.3 1.6.2 1.9-.1.4-.3-.2-.6-1.3-.5-1.1 0-1.4.3-.6.6zM350 466.6c0 .3.7 1.2 1.5 2 1.6 1.7 1.8 1.4.9-1-.6-1.5-2.4-2.3-2.4-1zM156 469.7c-1.3.3-3.4 1.2-4.5 2-1.9 1.5-1.9 1.5.5.8 1.4-.3 3.6-.8 5-.9 3.8-.4 4-.5 4-1.6 0-1-.7-1.1-5-.3zM182.5 470c-1 1.6 1.6 4.3 2.8 3.1 1.1-1.1.2-4.1-1.2-4.1-.5 0-1.3.5-1.6 1zM167 471c0 .5 1.4 1 3 1 1.7 0 3-.4 3-.8s-1.3-.9-3-1c-1.6-.1-3 .2-3 .8zM218 474.6c0 1.5 6.2 2.9 8.7 2 2.6-1 .1-2.7-4.6-3-2.9-.2-4.1.1-4.1 1zM349.5 475c-1.8 1.2-2.4 2-1.4 2 1.8 0 5.6-2.6 4.9-3.4-.3-.3-1.9.4-3.5 1.4zM356 475.9c0 1.1.5 2.3 1 2.6.6.3 1-.3 1-1.4 0-1.1-.4-2.3-1-2.6-.5-.3-1 .3-1 1.4zM339.1 475.9c-.8.6-.9 1.1-.3 1.5.6.3 1.4.1 1.7-.5.9-1.4.2-2-1.4-1zM135 477c0 .6.7 1 1.5 1s1.5-.2 1.5-.4-.7-.6-1.5-1c-.8-.3-1.5-.1-1.5.4zM207 477c-1.1.7-1.2 1.2-.3 2.1 1.4 1.4 4.6.4 4.1-1.3-.6-1.6-2-1.9-3.8-.8zM251.5 477c-.4.6.5 1 2 1s2.4-.4 2-1c-.3-.6-1.2-1-2-1s-1.7.4-2 1zM290.5 477c-.4.6.8 1 2.9 1 2 0 3.6-.5 3.6-1 0-.6-1.3-1-2.9-1-1.7 0-3.3.4-3.6 1zM333.1 476.9c-3.6 1-3.7 2.8-.1 2.3 1.7-.2 3-1 3-1.8s-.1-1.4-.2-1.3c-.2.1-1.4.4-2.7.8zM259 478c0 .5.5 1 1 1 .6 0 1-.5 1-1 0-.6-.4-1-1-1-.5 0-1 .4-1 1zM272 477.9c0 .6.5 1.3 1 1.6.6.3 1-.1 1-.9 0-.9-.4-1.6-1-1.6-.5 0-1 .4-1 .9zM310 478.1c-1.4.4-2.3.7-2 .8.3.1 2 .5 3.8 1.1 3.1.8 3.3.8 2.1-.8-.7-.9-1.3-1.7-1.4-1.8 0 0-1.1.3-2.5.7zM322.8 477.7c.6.2 1.8.2 2.5 0 .6-.3.1-.5-1.3-.5-1.4 0-1.9.2-1.2.5zM314.5 482.4c-3.1.9-3.6 1.3-2.2 1.9.9.3 2.8.1 4.2-.5 1.4-.6 2.8-.8 3.1-.5 1.2 1.2-.6 3.7-2.6 3.7-2.8 0-2.5 2.5.6 3.9s4.4.7 4.4-2.3c0-2.8 2.4-5 4.5-4.2.8.3 1.5.1 1.5-.5 0-.7-1.3-.9-3.5-.5-2.8.6-3.5.4-3.5-.9 0-1.8-1.1-1.8-6.5-.1zM356.3 485.1c-4.4 4.1-5.1 5.5-3.2 6.1.5.2.7 1.1.4 2-.4 1-1.3 1.4-2.2 1.1-1.1-.4-1.4-.2-.9.5.8 1.3 5.2.6 7.4-1.1.9-.7 1.6-.5 2.5.6 1.4 1.7 9.7 2.8 9.7 1.2 0-.5-2-2.7-4.5-4.8-2.9-2.6-4.5-4.8-4.7-6.7l-.3-2.9-4.2 4zm.7 5.4c0 .8-.4 1.5-1 1.5-.5 0-1-.7-1-1.5s.5-1.5 1-1.5c.6 0 1 .7 1 1.5zm7 1.5c0 .5-.4 1-1 1-.5 0-1-.5-1-1 0-.6.5-1 1-1 .6 0 1 .4 1 1zM189 483.4c0 1 .9 1.6 2.1 1.6 2.4 0 2.1-2.3-.4-2.8-1-.2-1.7.3-1.7 1.2zM230 482.7c.1 1.8 1.8 3.5 2.4 2.4.4-.6.4-1.6.1-2.1-.7-1.2-2.5-1.3-2.5-.3zM185.2 488.1c-.7 1.1-1 2.9-.7 4 .4 1.3.2 1.9-.9 1.9-.9 0-1.6.4-1.6 1 0 .5-1.4 1-3.1 1-2.7 0-2.9.2-1.5 1.5 2 2.1 2.6 1.9 7.1-2 2.2-1.9 4.8-3.5 5.7-3.5 1 0 1.8-.5 1.8-1 0-.6.9-1 2-1 2.4 0 2.6-1.3.4-3.1-1.1-.9-1.7-1-2.3-.1-.4.7-1.2.8-2.1.2-2.3-1.5-3.4-1.2-4.8 1.1zM251.1 486.9c-1.8 1.2-.5 3.1 2 3.1 1.4 0 1.9-.6 1.7-1.7-.4-2-1.8-2.6-3.7-1.4zM203 488c-.8.5-1.2 1.2-.9 1.5.4.3 1.2-.1 1.9-1 1.4-1.7 1.1-1.9-1-.5zM223.6 488.5c.4.8 1 1.2 1.5.9 1.4-.8 1-2.4-.6-2.4-.9 0-1.2.6-.9 1.5zM301.5 488c-1.9.7-1.9.7.3 1.4 2.5.8 2.7 1.7 1 3.4-.8.8-.8 1.2-.1 1.2 1.7 0 3.6-2.7 2.3-3.5-.6-.3-.8-1-.5-1.5.8-1.3-.8-1.8-3-1zM309.5 489c.3.5 1.3 1 2.1 1s1.2-.5.9-1c-.3-.6-1.3-1-2.1-1s-1.2.4-.9 1zM291 489.9c0 1.6 3.8 2.9 6.7 2.3 2.5-.5 3.2-2.2.9-2.2-.7 0-2.8-.3-4.5-.6-2-.4-3.1-.3-3.1.5zM237 492c0 .5.7 1 1.5 1s1.5-.5 1.5-1c0-.6-.7-1-1.5-1s-1.5.4-1.5 1zM315.8 494.2c.6.6 1.8.8 2.8.6 1.4-.3 1.2-.5-.9-1-1.9-.3-2.5-.2-1.9.4zM336.4 494c-1.4.6-2.1 1.7-2.1 3.4 0 2.3.4 2.6 3.1 2.5 1.7 0 3.9-.3 4.8-.7 1.4-.6 1.3-1-1-3.3-2.1-2-3.2-2.5-4.8-1.9zM133.7 495.7c-1.4 1.3-.6 2.4 1.5 2.1 2.7-.4 3.6-2.8 1.1-2.8-1.1 0-2.3.3-2.6.7zM308 496c.8.5 2.4.9 3.5.9h2l-2-.9c-1.1-.5-2.7-.9-3.5-.9-1.3-.1-1.3 0 0 .9zM301 497c0 .5.4 1 .9 1s1.8.3 2.8.7c1.6.6 1.6.5.4-1-1.5-1.9-4.1-2.3-4.1-.7z"/><path d="M357 497.4c0 1.5 1.8 3.1 2.6 2.3.7-.7-.7-3.7-1.7-3.7-.5 0-.9.6-.9 1.4zM393 525.5c0 .8.5 1.5 1 1.5.6 0 1-.7 1-1.5s-.4-1.5-1-1.5c-.5 0-1 .7-1 1.5zM384.5 526c.3.5.8 1 1.1 1 .2 0 .4-.5.4-1 0-.6-.5-1-1.1-1-.5 0-.7.4-.4 1z"/></svg>