<?xml version="1.0" standalone="no"?>
<!DOCTYPE svg PUBLIC "-//W3C//DTD SVG 20010904//EN"
 "http://www.w3.org/TR/2001/REC-SVG-20010904/DTD/svg10.dtd">
<svg version="1.0" xmlns="http://www.w3.org/2000/svg"
 width="533.000000pt" height="533.000000pt" viewBox="0 0 533.000000 533.000000"
 preserveAspectRatio="xMidYMid meet">
<metadata>
Created by potrace 1.14, written by Peter Selinger 2001-2017
</metadata>
<g transform="translate(0.000000,533.000000) scale(0.100000,-0.100000)"
fill="#000000" stroke="none">
<path d="M1532 5276 c-6 -29 -8 -63 -5 -75 3 -12 -2 -56 -12 -96 -11 -47 -15
-91 -11 -122 7 -59 8 -70 3 -109 -5 -43 -15 -56 -39 -48 -17 5 -20 3 -15 -10
4 -9 2 -16 -3 -16 -6 0 -10 5 -10 11 0 5 -4 8 -9 5 -4 -3 -26 3 -47 13 -22 11
-41 18 -42 16 -8 -8 22 -84 59 -148 37 -65 38 -70 25 -101 -15 -35 -41 -55
-101 -75 -22 -7 -66 -29 -98 -47 -32 -19 -65 -34 -73 -34 -7 0 -14 -4 -14 -10
0 -5 -7 -10 -15 -10 -9 0 -18 -7 -21 -15 -4 -8 -10 -15 -16 -15 -20 0 -53 -49
-78 -117 -7 -18 -23 -39 -36 -48 -33 -21 -48 -53 -34 -70 9 -11 25 -7 88 21
81 37 235 110 314 150 26 13 55 24 63 24 9 0 31 15 50 33 77 72 98 88 137 108
22 11 51 19 64 16 16 -3 24 0 24 9 0 10 16 14 61 14 43 0 60 -3 57 -12 -3 -7
-13 -15 -24 -18 -24 -6 -124 -89 -124 -103 0 -5 -11 -20 -25 -33 -28 -26 -33
-47 -10 -37 9 3 24 -2 35 -12 19 -17 18 -18 -16 -41 -19 -13 -48 -24 -64 -24
-16 0 -31 -4 -34 -9 -3 -5 -15 -7 -25 -4 -13 3 -25 -3 -36 -21 -15 -23 -30
-34 -125 -93 -21 -13 -52 -22 -77 -23 -23 0 -44 -4 -48 -9 -3 -5 -42 -22 -88
-37 -52 -17 -95 -39 -119 -60 -21 -19 -50 -36 -65 -40 -16 -3 -33 -7 -39 -9
-15 -4 -35 9 -38 26 -11 56 -19 69 -43 69 -13 0 -33 5 -45 11 -15 8 -32 7 -70
-6 -50 -16 -102 -13 -114 6 -8 14 38 79 56 79 8 0 26 12 40 26 33 34 118 97
155 117 37 19 98 81 101 103 3 18 -5 29 -60 88 -21 22 -49 57 -61 76 -36 56
-70 85 -142 120 -101 49 -126 70 -147 129 -26 74 -80 100 -127 63 -18 -15 -22
-28 -21 -62 2 -36 10 -51 52 -97 43 -47 50 -60 50 -97 0 -23 -4 -46 -9 -52 -4
-5 -16 -30 -26 -56 -12 -32 -38 -67 -78 -105 -111 -108 -126 -124 -132 -153
-9 -39 -39 -76 -69 -84 -25 -6 -137 6 -168 19 -17 7 -18 -4 -18 -134 l0 -141
25 0 c39 0 73 -20 78 -46 6 -33 -44 -77 -79 -68 l-24 6 0 -514 0 -515 30 -1
c16 0 32 4 35 9 4 5 14 5 26 -2 16 -8 25 -7 37 4 9 8 28 17 42 19 22 3 25 8
23 37 -2 39 -22 83 -35 75 -4 -3 -8 0 -8 5 0 6 -10 11 -22 11 -14 0 -27 9 -34
23 -9 21 -7 26 20 44 17 11 51 23 75 27 24 4 51 11 61 16 24 13 19 64 -10 95
-20 21 -21 53 0 40 4 -3 15 6 24 19 14 23 14 25 -2 28 -9 2 -27 0 -38 -5 -17
-7 -27 -4 -43 12 -24 24 -28 51 -7 51 8 0 18 5 21 10 8 13 -23 63 -34 55 -5
-3 -19 4 -32 14 -23 18 -23 20 -6 38 9 11 17 27 17 36 0 27 16 28 30 2 15 -28
46 -35 36 -9 -5 13 -2 15 14 11 11 -3 20 -2 20 2 0 10 70 31 103 31 39 0 40
14 10 69 -27 48 -27 51 -10 68 13 14 39 18 118 21 91 4 101 6 109 26 4 11 5
25 2 30 -12 20 -1 90 19 122 44 72 139 112 154 65 9 -29 46 -38 225 -56 91 -9
184 -20 207 -25 27 -6 52 -6 67 0 29 11 60 64 51 87 -3 9 0 42 6 75 11 54 15
60 47 74 19 8 40 21 46 29 10 14 16 13 55 -6 24 -11 53 -18 65 -15 30 7 61 37
62 59 2 47 5 57 17 57 7 0 20 8 29 18 40 40 56 52 71 52 10 0 17 5 17 11 0 5
13 15 29 20 45 16 45 50 1 71 -22 10 -28 17 -17 17 9 1 22 12 28 25 9 19 25
27 73 37 33 8 87 14 118 15 50 1 56 0 49 -15 -15 -27 -44 -49 -71 -53 -14 -1
-26 -10 -28 -19 -2 -13 9 -18 54 -23 50 -6 65 -3 109 19 29 14 56 25 60 25 13
0 99 43 112 56 7 7 38 20 70 30 32 9 81 32 108 49 84 54 154 90 160 83 14 -14
-8 -48 -70 -111 -69 -68 -78 -87 -44 -87 27 0 59 -18 59 -33 0 -7 -18 -28 -40
-46 -33 -27 -38 -36 -29 -52 8 -16 5 -24 -17 -43 l-28 -23 35 5 34 5 -21 -24
c-12 -13 -24 -32 -27 -41 -4 -10 -11 -18 -16 -18 -6 0 -8 -7 -4 -17 5 -13 2
-15 -18 -10 -13 4 -63 12 -111 19 -49 6 -88 15 -88 20 0 4 9 8 19 8 32 0 35
19 7 47 -29 29 -33 43 -11 43 9 0 12 6 9 15 -4 10 0 15 15 15 12 0 21 5 21 10
0 6 8 10 18 10 19 0 62 31 62 45 0 15 -65 -6 -90 -30 -28 -27 -70 -45 -105
-45 -29 0 -33 -6 -39 -56 -4 -30 -14 -47 -43 -72 -21 -18 -49 -35 -63 -38 -14
-4 -32 -12 -40 -19 -8 -7 -24 -15 -35 -18 -11 -3 -53 -17 -93 -32 -40 -15 -78
-25 -85 -22 -15 5 -89 -26 -128 -54 -16 -11 -29 -16 -29 -10 0 6 -6 11 -14 11
-8 0 -16 7 -20 15 -7 20 -76 21 -76 1 0 -7 9 -16 20 -19 14 -3 20 -14 20 -31
0 -14 -5 -26 -10 -26 -6 0 -15 -11 -21 -23 -6 -13 -25 -32 -42 -42 -18 -11
-39 -27 -47 -37 -16 -19 -72 -54 -103 -65 -29 -9 -15 -37 23 -45 19 -4 145 -7
280 -7 278 0 293 4 284 61 -5 30 -2 35 30 52 19 10 36 17 38 16 2 -2 13 2 26
9 19 10 22 9 22 -6 0 -45 -104 -367 -126 -392 -2 -2 -22 17 -45 42 -22 26 -49
47 -60 47 -11 0 -28 5 -39 12 -17 11 -24 8 -50 -17 -29 -28 -31 -34 -25 -75 8
-56 32 -96 90 -149 40 -36 44 -44 31 -56 -8 -8 -23 -54 -34 -102 -17 -72 -18
-89 -7 -96 24 -13 12 -101 -18 -141 -30 -39 -35 -77 -12 -96 8 -7 15 -21 15
-32 0 -33 87 -104 163 -133 50 -19 69 -41 48 -54 -6 -4 -14 -18 -16 -32 -3
-13 -10 -26 -15 -27 -7 -3 -7 -8 -1 -16 13 -15 -14 -117 -35 -132 -10 -8 -11
-13 -3 -16 7 -2 1 -14 -15 -28 -14 -14 -26 -30 -26 -37 0 -6 -9 -15 -21 -18
-16 -5 -19 -12 -15 -31 4 -14 2 -24 -4 -24 -6 0 -8 -5 -5 -10 3 -6 -1 -13 -10
-16 -27 -11 -37 -51 -21 -89 14 -32 13 -35 -9 -59 -13 -14 -20 -26 -15 -26 19
0 10 -18 -12 -24 -22 -7 -22 -7 -3 -16 11 -5 17 -9 12 -9 -4 -1 -1 -11 8 -24
8 -13 12 -27 9 -30 -4 -4 -1 -13 6 -22 7 -8 9 -15 5 -15 -4 0 -2 -7 5 -14 6
-8 10 -25 9 -38 -2 -13 6 -37 17 -53 31 -45 36 -65 17 -72 -14 -6 -14 -7 1
-18 15 -11 14 -13 -9 -19 -17 -4 -25 -12 -23 -23 2 -12 -6 -19 -27 -23 -16 -3
-29 -10 -28 -16 1 -5 -14 -9 -32 -10 -42 -1 -89 -30 -81 -51 5 -11 2 -14 -11
-9 -9 4 -20 1 -24 -6 -5 -7 -14 -13 -21 -13 -32 -1 -98 -18 -98 -25 0 -4 -22
-10 -50 -14 -47 -6 -80 -26 -44 -26 16 0 15 -3 -3 -23 -17 -18 -20 -31 -16
-67 3 -25 10 -49 17 -53 6 -4 31 -5 56 -2 25 3 91 9 146 14 56 5 107 12 114
16 7 4 25 -2 41 -14 19 -14 43 -21 73 -21 43 0 69 15 49 29 -5 3 -12 14 -16
24 -4 12 -1 17 11 18 9 0 29 2 44 4 15 2 30 -1 33 -6 4 -5 2 -9 -3 -9 -19 0
-1 -84 22 -106 31 -28 193 -54 309 -50 55 2 87 -1 87 -8 0 -6 4 -6 11 1 7 7
21 8 39 3 16 -5 32 -4 38 2 6 6 17 5 30 -3 20 -13 150 -5 315 19 32 4 60 6 63
3 10 -10 78 -10 90 0 6 5 18 7 26 4 9 -4 22 1 31 9 20 20 28 20 21 1 -4 -8 -1
-15 5 -15 6 0 11 5 11 11 0 7 10 1 23 -12 29 -30 75 -69 82 -69 3 0 5 7 5 15
0 18 12 19 29 3 10 -11 12 -10 9 1 -2 7 3 16 11 19 22 8 7 -22 -17 -33 -26
-11 -31 -55 -6 -55 8 0 12 5 9 10 -3 5 -1 10 4 10 6 0 11 -7 11 -15 0 -8 9
-19 20 -25 11 -6 20 -17 20 -25 0 -9 9 -15 21 -15 15 0 19 -4 15 -16 -8 -22
32 -87 50 -80 7 3 16 1 19 -4 4 -7 13 -6 25 0 25 13 26 13 27 -10 1 -11 -7
-25 -18 -30 -11 -6 -17 -15 -14 -20 4 -6 16 -3 30 6 21 14 23 22 22 85 -1 48
-6 70 -16 74 -9 4 -12 15 -8 34 4 18 2 31 -5 33 -7 3 -9 12 -4 24 12 28 12 93
1 98 -5 3 -2 5 8 5 13 1 16 5 9 17 -5 9 -5 33 0 58 5 22 10 55 11 71 4 39 24
75 42 75 22 0 18 -39 -5 -58 -17 -15 -18 -19 -5 -36 15 -19 15 -19 15 5 0 19
2 21 10 9 8 -12 10 -10 10 8 0 13 4 21 9 18 5 -3 12 5 15 18 3 13 9 31 12 40
4 11 1 16 -10 16 -16 0 -16 1 -20 128 -1 22 6 40 21 54 12 11 25 35 29 52 4
17 22 60 40 96 19 35 34 76 34 90 0 15 8 35 19 46 25 28 39 54 50 100 5 22 18
62 28 89 11 28 18 56 15 63 -2 8 3 12 13 10 15 -2 18 6 21 47 4 51 7 69 17 95
3 8 11 33 18 55 7 22 21 46 31 54 21 14 42 58 39 80 -1 7 3 10 9 6 6 -4 15 6
21 24 6 17 15 31 20 31 5 0 26 15 45 33 49 44 64 51 77 38 8 -8 7 -11 -3 -11
-7 0 -10 -3 -7 -7 4 -3 15 1 25 10 12 11 40 16 102 18 47 1 88 6 92 12 7 12
125 10 180 -2 32 -7 37 -6 42 12 5 19 6 19 30 4 14 -10 33 -17 43 -17 15 0 15
2 -3 15 -18 14 -18 14 6 15 23 0 67 -19 45 -20 -17 -1 19 -20 37 -20 11 0 15
6 11 20 -5 19 -2 20 32 17 22 -2 44 -12 51 -22 11 -14 26 -18 66 -17 87 3 321
13 348 16 38 4 81 28 76 43 -7 18 12 16 32 -3 10 -11 17 -13 20 -5 2 6 15 11
29 11 21 0 23 -2 13 -15 -10 -12 -6 -13 26 -8 27 4 35 3 30 -5 -4 -7 -17 -12
-29 -12 -32 0 -8 -17 36 -25 35 -7 37 -6 37 18 0 19 -7 26 -32 33 l-33 8 33 3
c30 4 32 6 32 47 0 23 -5 47 -12 54 -9 9 -9 12 0 12 9 0 12 290 12 1275 l0
1275 -1721 0 -1721 0 -24 -22 c-13 -13 -24 -28 -24 -35 0 -6 -9 -9 -20 -6 -14
4 -20 0 -20 -11 0 -9 -8 -16 -18 -16 -10 0 -26 -6 -36 -13 -18 -13 -18 -15 -1
-40 11 -17 15 -36 11 -51 -4 -15 0 -28 9 -36 28 -24 11 -66 -23 -56 -15 5 -20
15 -20 36 1 17 -6 38 -15 48 -10 10 -17 24 -17 31 0 7 -5 9 -12 5 -8 -5 -9 -2
-5 10 15 39 18 64 9 70 -7 4 -7 18 -1 39 11 39 12 56 1 42 -4 -6 -19 -16 -35
-23 -24 -10 -30 -9 -47 8 -36 36 -56 26 -68 -34z m2576 -168 c-3 -7 -15 -15
-28 -16 -21 -3 -22 -2 -11 12 16 19 44 21 39 4z m212 2 c0 -5 -3 -10 -7 -10
-5 0 -23 -14 -42 -30 -18 -17 -41 -30 -50 -30 -14 -1 -14 -2 2 -14 15 -12 15
-15 3 -26 -23 -18 -35 -4 -33 38 2 32 5 37 30 40 15 2 32 12 37 23 11 20 60
27 60 9z m-2503 -127 c10 -26 10 -33 1 -33 -23 1 -60 39 -54 56 9 25 38 12 53
-23z m2323 10 c13 -13 12 -16 -8 -31 -13 -9 -38 -32 -55 -50 -109 -114 -178
-182 -185 -182 -17 0 -63 -50 -56 -61 4 -8 9 -7 15 2 5 9 10 5 14 -13 10 -39
2 -71 -20 -83 -68 -36 -66 -33 -50 -64 12 -25 12 -31 1 -40 -10 -9 -16 -9 -21
-1 -5 8 -12 8 -23 -2 -47 -37 -94 -49 -107 -27 -25 39 48 155 91 145 47 -12
47 54 1 93 -8 6 -18 27 -21 46 -7 34 -1 47 32 78 61 58 74 73 79 99 5 26 9 29
32 23 16 -3 21 -2 13 3 -9 6 -6 12 12 22 29 15 56 8 56 -16 0 -32 25 -6 28 29
3 34 6 37 35 38 18 1 43 5 57 9 30 9 60 3 80 -17z m-1195 -151 c17 -12 36 -52
30 -62 -4 -6 -12 -10 -20 -10 -7 0 -16 -11 -19 -24 -3 -14 -19 -30 -35 -37
-16 -7 -27 -17 -25 -21 3 -4 -6 -10 -20 -14 -13 -3 -33 -17 -43 -30 -10 -13
-23 -24 -29 -24 -7 0 -25 -7 -40 -15 -16 -8 -48 -15 -71 -15 -40 0 -43 2 -43
26 0 18 14 39 44 67 61 57 68 62 107 82 19 10 37 22 40 27 10 15 83 57 99 58
8 0 20 -4 25 -8z m1465 -280 c0 -4 -9 -15 -20 -25 -22 -19 -25 -15 -10 14 11
19 30 26 30 11z m-503 -79 c4 -12 -23 -43 -38 -43 -5 0 -13 10 -18 23 -7 18
-4 23 13 28 26 8 39 6 43 -8z m278 -73 c-3 -5 -6 -34 -6 -65 -1 -38 -5 -55
-14 -55 -7 0 -16 6 -18 13 -5 11 -11 -27 -8 -46 4 -26 -22 -87 -39 -92 -12 -4
-19 -14 -18 -23 2 -13 -6 -16 -41 -17 -56 0 -63 18 -22 57 17 16 31 36 31 44
0 11 6 13 19 9 11 -3 22 -1 26 5 4 7 -2 14 -14 17 -17 4 -19 8 -10 19 9 11 15
11 25 3 11 -9 16 -6 23 14 5 14 15 27 21 29 6 2 13 15 14 28 4 39 16 70 27 70
6 0 7 -4 4 -10z m-1582 -51 c-3 -12 -14 -19 -29 -19 -15 0 -24 -6 -24 -15 0
-8 -7 -15 -15 -15 -33 0 -1 65 39 79 24 10 36 -2 29 -30z m1058 -96 c-3 -32
-21 -47 -21 -18 0 8 -9 31 -21 52 l-21 37 28 25 29 25 5 -45 c3 -24 3 -59 1
-76z m199 52 c0 -8 -5 -15 -11 -15 -5 0 -7 -4 -4 -10 3 -6 -1 -7 -9 -4 -19 7
-21 30 -3 37 21 9 27 7 27 -8z m716 -78 c9 3 14 -1 14 -13 -1 -23 -23 -54 -39
-54 -14 0 -14 17 0 26 6 3 8 18 5 33 -3 14 -3 21 0 14 3 -7 12 -9 20 -6z
m-571 -16 c3 -5 1 -12 -5 -16 -5 -3 -10 1 -10 9 0 18 6 21 15 7z m-1515 -31
c0 -5 -4 -10 -9 -10 -6 0 -13 5 -16 10 -3 6 1 10 9 10 9 0 16 -4 16 -10z m183
-14 c21 -16 22 -39 1 -56 -27 -23 -38 -52 -23 -61 11 -6 9 -9 -5 -15 -21 -8
-65 22 -82 55 -19 38 -6 67 34 78 51 14 55 14 75 -1z m552 -16 c3 -5 1 -10 -4
-10 -6 0 -11 5 -11 10 0 6 2 10 4 10 3 0 8 -4 11 -10z m640 -26 c24 -16 34
-44 16 -44 -5 0 -18 -15 -30 -32 -11 -18 -21 -27 -21 -20 0 6 -6 12 -14 12
-22 0 -39 28 -32 53 4 19 30 41 54 46 1 1 14 -6 27 -15z m121 -45 c10 -17 -13
-36 -27 -22 -12 12 -4 33 11 33 5 0 12 -5 16 -11z m-1429 -75 c-3 -3 -12 -4
-19 -1 -8 3 -5 6 6 6 11 1 17 -2 13 -5z m-1007 -134 c0 -5 -2 -10 -4 -10 -3 0
-8 5 -11 10 -3 6 -1 10 4 10 6 0 11 -4 11 -10z m-1327 -297 c-14 -3 -23 -12
-23 -22 0 -26 -24 -43 -56 -39 -33 4 -45 28 -14 28 13 0 24 8 27 20 4 16 13
20 47 19 23 -1 31 -4 19 -6z m-146 -195 c-3 -8 -6 -5 -6 6 -1 11 2 17 5 13 3
-3 4 -12 1 -19z m2928 -8 c-3 -5 1 -10 9 -10 9 0 16 5 16 10 0 12 34 6 108
-21 30 -11 57 -17 62 -14 5 3 12 0 16 -6 3 -6 1 -15 -5 -19 -19 -11 83 -51
141 -55 28 -2 54 -7 57 -12 3 -4 26 -15 51 -24 37 -13 46 -21 48 -43 3 -25 6
-27 30 -21 15 4 41 8 59 9 17 1 41 10 52 20 17 15 23 16 35 6 9 -6 18 -20 21
-30 6 -19 22 -26 120 -55 33 -9 67 -20 75 -25 9 -4 31 -11 50 -15 18 -4 42
-17 51 -29 16 -19 28 -21 146 -22 70 -1 135 -3 143 -5 9 -3 15 3 15 13 0 27
16 34 31 14 7 -11 11 -29 8 -41 -5 -21 -1 -22 78 -29 45 -4 87 -11 92 -16 6
-6 18 -10 28 -10 25 0 22 -19 -4 -29 -21 -8 -21 -10 -5 -16 13 -5 23 -1 33 14
21 29 33 26 49 -13 17 -41 67 -56 96 -30 17 15 19 15 25 0 6 -16 34 -23 34 -8
0 18 117 18 135 0 3 -3 22 -2 43 1 57 10 94 3 90 -17 -2 -9 -12 -18 -22 -20
-14 -3 -17 0 -13 12 6 16 -13 23 -26 10 -4 -4 -23 -8 -44 -9 -287 -21 -371
-31 -356 -46 5 -5 23 -5 43 1 43 11 115 15 200 11 61 -4 63 -4 25 -11 -37 -7
-38 -7 -10 -10 17 -1 34 -2 39 -1 5 1 17 -6 27 -15 18 -16 19 -16 19 -1 0 19
16 23 22 5 2 -6 19 -11 37 -11 31 0 32 -2 15 -14 -10 -7 -31 -13 -47 -13 -25
0 -28 -2 -17 -15 11 -13 1 -15 -82 -15 -76 0 -103 4 -138 21 -40 19 -56 21
-158 17 -81 -4 -112 -2 -109 6 2 6 14 11 26 11 12 0 26 7 30 14 5 7 13 11 19
7 5 -3 12 1 16 9 8 22 -9 26 -30 7 -11 -11 -29 -16 -46 -14 -21 3 -28 0 -28
-12 0 -20 -19 -20 -48 0 -12 8 -31 13 -41 9 -11 -3 -28 -1 -38 4 -10 6 -34 15
-53 20 -35 8 -35 9 -10 18 16 7 30 7 41 0 12 -8 27 -5 55 9 l39 19 -49 3 c-27
2 -61 -2 -77 -8 -15 -7 -41 -9 -58 -5 -20 4 -31 3 -31 -4 0 -13 -22 -10 -32 4
-4 5 -15 2 -26 -9 -12 -10 -22 -13 -26 -7 -4 5 -22 7 -41 4 -22 -4 -35 -2 -35
5 0 19 41 34 75 28 18 -4 54 -2 79 4 58 13 196 16 259 6 41 -7 46 -6 41 8 -5
13 -1 15 24 10 26 -5 30 -3 34 20 5 26 -5 35 -17 16 -9 -15 -27 -12 -19 3 4 6
-5 1 -19 -12 -15 -14 -30 -21 -34 -17 -4 4 -1 11 6 15 13 8 2 11 -94 26 -78
12 -166 10 -175 -5 -5 -8 -7 -17 -4 -21 5 -9 -35 -23 -43 -15 -4 3 -1 6 5 6 7
0 12 5 12 10 0 6 -7 10 -15 10 -8 0 -15 -7 -15 -15 0 -9 -10 -16 -27 -17 -34
-1 -65 -5 -78 -8 -15 -4 -59 -6 -195 -10 -69 -2 -136 -7 -149 -12 -14 -5 -49
-4 -84 3 -50 9 -63 8 -72 -3 -5 -8 -19 -12 -29 -10 -14 3 -17 0 -13 -12 4 -10
1 -16 -8 -16 -8 0 -15 7 -15 15 0 8 -9 19 -20 25 -28 15 -25 27 10 32 17 3 30
1 30 -4 0 -11 41 -10 60 2 9 6 17 5 21 -2 4 -6 14 -8 23 -5 15 6 15 8 -2 25
-10 10 -27 18 -37 19 -27 2 -80 10 -80 13 0 5 -192 7 -212 3 -27 -6 -21 -23 8
-23 11 0 18 -4 15 -9 -3 -4 12 -15 34 -24 22 -8 40 -20 40 -26 0 -13 -6 -14
-29 -1 -14 7 -24 4 -39 -11 -12 -10 -25 -18 -29 -18 -16 4 -43 -14 -43 -27 0
-8 -4 -14 -9 -14 -21 0 -41 -34 -41 -70 0 -21 -4 -42 -10 -45 -5 -3 -10 -13
-10 -21 0 -8 5 -12 10 -9 17 10 11 -4 -10 -25 -20 -20 -40 -19 -40 1 0 6 -7
17 -15 25 -12 12 -15 13 -17 2 0 -7 -2 -17 -2 -23 -1 -5 -5 -16 -9 -22 -6 -9
-1 -13 14 -13 17 0 20 -4 16 -21 -7 -25 2 -51 14 -44 5 3 16 21 25 40 9 19 20
35 24 35 5 0 23 26 41 58 44 77 68 98 115 100 22 1 50 3 63 4 13 2 26 -3 28
-10 3 -8 -1 -10 -11 -6 -19 7 -126 -79 -126 -102 0 -8 -5 -14 -11 -14 -5 0 -8
4 -4 9 10 17 -15 23 -30 8 -8 -9 -19 -17 -25 -19 -6 -2 -12 -21 -14 -43 -2
-22 -5 -44 -6 -50 -1 -5 -2 -17 -1 -25 1 -13 2 -13 11 0 6 9 10 10 10 3 0 -6
-5 -15 -11 -19 -8 -5 -7 -9 1 -14 10 -6 8 -15 -9 -37 -20 -24 -21 -28 -7 -31
20 -4 21 -36 1 -52 -17 -14 -21 -35 -5 -25 6 3 10 2 10 -4 0 -17 -17 -21 -29
-7 -12 14 -61 10 -61 -5 0 -5 -7 -9 -16 -9 -8 0 -13 -4 -10 -9 3 -5 16 -7 28
-3 l21 5 -21 -21 c-12 -12 -30 -22 -39 -22 -15 0 -16 2 -3 10 13 8 11 11 -7
16 -24 7 -26 31 -5 56 15 19 6 28 -28 28 -15 0 -33 6 -39 13 -11 15 -10 74 2
94 5 8 -1 11 -19 10 -28 -2 -34 9 -36 66 -1 15 -5 27 -8 27 -4 0 -6 19 -6 43
1 29 5 42 15 42 25 0 23 25 -3 34 -17 7 -24 17 -23 33 0 13 5 25 9 29 4 3 3
20 -2 38 -5 19 -7 38 -4 43 6 9 -22 38 -64 66 -14 9 -21 21 -17 30 3 8 1 20
-5 27 -8 10 -2 15 29 20 56 9 103 44 115 83 14 49 -12 65 -100 62 l-42 -1 3
56 c2 33 11 67 22 83 10 15 26 44 35 66 15 32 22 37 41 32 12 -4 43 -9 70 -12
38 -4 47 -2 47 11 0 8 5 15 11 15 5 0 7 -4 4 -10z m573 -171 c-2 -6 -8 -10
-13 -10 -5 0 -11 4 -13 10 -2 6 4 11 13 11 9 0 15 -5 13 -11z m462 -9 c0 -5
-4 -10 -10 -10 -5 0 -10 5 -10 10 0 6 5 10 10 10 6 0 10 -4 10 -10z m419 -186
c-17 -21 -31 -17 -19 6 6 11 15 18 21 14 6 -4 6 -11 -2 -20z m-2509 -43 c0 -9
-41 -23 -48 -16 -2 2 -1 8 3 14 8 13 45 15 45 2z m2968 -3 c-6 -18 -28 -21
-28 -4 0 9 7 16 16 16 9 0 14 -5 12 -12z m-2961 -38 c-1 -11 -7 -20 -14 -20
-11 0 -11 5 -3 20 6 11 13 20 15 20 2 0 3 -9 2 -20z m2726 -14 c16 -12 16 -14
1 -20 -22 -9 -54 -7 -54 2 0 9 21 32 30 32 3 0 13 -7 23 -14z m322 -6 c3 -5 1
-10 -4 -10 -6 0 -11 5 -11 10 0 6 2 10 4 10 3 0 8 -4 11 -10z m-195 -10 c0 -5
-8 -10 -17 -10 -15 0 -16 2 -3 10 19 12 20 12 20 0z m-1453 -46 c-3 -3 -12 -4
-19 -1 -8 3 -5 6 6 6 11 1 17 -2 13 -5z m580 -11 c4 -11 -90 -23 -142 -18 -16
1 -39 3 -49 4 -11 0 -16 4 -13 8 21 21 197 27 204 6z m-529 -19 c1 -1 -9 -9
-24 -19 -19 -12 -29 -14 -37 -6 -8 8 -5 11 11 11 12 0 22 5 22 10 0 6 -5 10
-11 10 -5 0 -7 5 -4 10 5 8 12 7 23 -2 10 -7 18 -13 20 -14z m582 10 c0 -2 -9
-4 -20 -4 -11 0 -20 4 -20 9 0 5 9 7 20 4 11 -3 20 -7 20 -9z m1099 -13 c-3
-6 -10 -7 -18 -2 -7 5 -10 14 -6 21 9 14 29 -2 24 -19z m-1829 12 c0 -5 -11
-13 -25 -20 -29 -13 -31 -11 -9 11 16 17 34 21 34 9z m1680 3 c0 -18 -15 -36
-31 -36 -17 0 -18 3 -7 20 11 17 38 28 38 16z m-1300 -26 c0 -5 -4 -10 -10
-10 -5 0 -10 5 -10 10 0 6 5 10 10 10 6 0 10 -4 10 -10z m553 3 c-7 -2 -19 -2
-25 0 -7 3 -2 5 12 5 14 0 19 -2 13 -5z m857 -13 c0 -5 -2 -10 -4 -10 -3 0 -8
5 -11 10 -3 6 -1 10 4 10 6 0 11 -4 11 -10z m-1449 -14 c-10 -12 -8 -15 11
-19 13 -2 9 -4 -9 -3 -18 1 -30 0 -28 -3 5 -4 -34 -41 -45 -41 -3 0 -28 -20
-56 -45 -27 -24 -52 -44 -56 -45 -14 0 -8 16 12 38 24 25 26 52 5 52 -18 0
-20 -20 -2 -20 6 0 1 -9 -13 -20 -23 -18 -26 -18 -37 -3 -10 13 -15 14 -28 3
-8 -7 -15 -20 -16 -29 0 -16 -89 -88 -89 -72 0 4 9 20 21 35 13 16 16 26 8 26
-7 0 -3 10 10 24 l23 25 -23 -5 c-23 -5 -23 -4 5 21 28 26 30 26 37 9 7 -17 8
-17 8 -1 1 16 25 23 74 19 9 -1 17 3 17 9 0 6 8 9 18 7 11 -2 26 3 35 10 9 8
38 20 64 27 63 17 68 17 54 1z m1399 4 c0 -5 -4 -10 -10 -10 -5 0 -10 5 -10
10 0 6 5 10 10 10 6 0 10 -4 10 -10z m253 3 c15 -2 27 -9 27 -14 0 -6 -5 -7
-12 -3 -6 4 -17 -1 -24 -11 -10 -13 -17 -15 -26 -8 -23 18 -71 22 -85 7 -8 -8
-23 -14 -34 -14 -10 0 -19 -5 -19 -11 0 -8 -5 -8 -15 1 -18 15 -9 34 12 26 8
-3 11 -1 8 4 -3 6 3 10 14 10 11 0 22 4 25 9 7 10 84 13 129 4z m-964 -19 c11
-10 -10 -13 -52 -8 -26 4 -44 11 -41 16 5 8 83 2 93 -8z m-4232 0 c-3 -3 -12
-4 -19 -1 -8 3 -5 6 6 6 11 1 17 -2 13 -5z m4101 -1 c-10 -2 -28 -2 -40 0 -13
2 -5 4 17 4 22 1 32 -1 23 -4z m192 -13 c0 -5 -4 -10 -10 -10 -5 0 -10 5 -10
10 0 6 5 10 10 10 6 0 10 -4 10 -10z m-620 -19 c0 -5 -11 -11 -25 -13 -20 -4
-23 -3 -14 8 13 16 39 19 39 5z m190 -15 c0 -9 -40 -13 -46 -5 -3 5 6 9 20 9
14 0 26 -2 26 -4z m305 -6 c3 -5 1 -10 -4 -10 -6 0 -11 5 -11 10 0 6 2 10 4
10 3 0 8 -4 11 -10z m-380 -11 c10 -15 4 -18 -27 -12 -15 3 -25 9 -22 14 7 12
41 11 49 -2z m120 1 c3 -5 -1 -10 -10 -10 -9 0 -13 5 -10 10 3 6 8 10 10 10 2
0 7 -4 10 -10z m-390 -10 c-3 -5 3 -10 15 -10 12 0 18 -5 15 -10 -4 -6 7 -8
29 -5 44 5 48 -13 9 -41 -54 -39 -59 -41 -40 -11 17 27 17 27 -5 28 -37 2 -62
-2 -72 -12 -15 -14 -26 -11 -26 6 0 8 5 15 11 15 6 0 8 7 5 16 -4 10 0 15 12
13 30 -3 37 1 22 11 -12 8 -10 10 8 10 13 0 20 -4 17 -10z m160 -15 c-22 -7
-44 -10 -49 -7 -14 8 24 21 59 20 28 0 28 -1 -10 -13z m765 5 c0 -13 -11 -13
-30 0 -12 8 -11 10 8 10 12 0 22 -4 22 -10z m90 0 c0 -5 -5 -10 -11 -10 -5 0
-7 5 -4 10 3 6 8 10 11 10 2 0 4 -4 4 -10z m80 0 c0 -13 -30 -13 -50 0 -11 7
-7 10 18 10 17 0 32 -4 32 -10z m-730 -15 c0 -8 -6 -15 -14 -15 -7 0 -19 -7
-26 -15 -14 -17 -30 -20 -30 -6 0 7 51 45 68 50 1 1 2 -6 2 -14z m50 5 c0 -5
-5 -10 -11 -10 -5 0 -7 5 -4 10 3 6 8 10 11 10 2 0 4 -4 4 -10z m390 0 c0 -5
-6 -10 -14 -10 -8 0 -18 5 -21 10 -3 6 3 10 14 10 12 0 21 -4 21 -10z m-584
-25 c-11 -8 -27 -15 -35 -15 -13 1 -12 4 3 15 11 8 27 15 35 15 13 -1 12 -4
-3 -15z m-416 -5 c0 -5 -5 -10 -11 -10 -5 0 -7 5 -4 10 3 6 8 10 11 10 2 0 4
-4 4 -10z m985 0 c-3 -5 -12 -7 -20 -3 -21 7 -19 13 6 13 11 0 18 -4 14 -10z
m-675 -15 c-7 -9 -15 -13 -17 -11 -7 7 7 26 19 26 6 0 6 -6 -2 -15z m-267 -35
c3 -11 -2 -25 -11 -32 -13 -11 -15 -10 -9 10 4 18 2 22 -9 18 -8 -3 -14 -1
-14 4 0 5 8 11 18 13 9 3 18 5 18 6 1 0 4 -8 7 -19z m81 -4 c-5 -21 -3 -23 23
-19 27 5 27 5 10 -13 -10 -11 -31 -19 -47 -19 -27 0 -27 1 -13 18 11 11 12 17
4 17 -9 0 -9 5 -1 20 15 28 32 25 24 -4z m263 6 c10 -16 7 -20 -24 -31 -47
-17 -86 -21 -99 -10 -13 11 -44 -14 -44 -34 0 -7 -4 -7 -12 2 -11 10 -9 14 6
23 10 6 27 19 38 30 11 11 37 23 57 25 20 3 38 7 40 9 10 9 27 3 38 -14z
m-569 -14 c15 -15 16 -38 2 -38 -5 0 -10 9 -10 21 0 11 -4 17 -10 14 -5 -3
-10 -1 -10 4 0 14 13 14 28 -1z m412 -2 c0 -2 -7 -6 -15 -10 -8 -3 -15 -1 -15
4 0 6 7 10 15 10 8 0 15 -2 15 -4z m-350 -40 c0 -2 -7 -7 -16 -10 -8 -3 -12
-2 -9 4 6 10 25 14 25 6z m103 -13 c-7 -3 -13 -11 -13 -19 0 -12 -3 -12 -14
-2 -14 13 -11 32 4 23 5 -3 12 0 15 6 4 5 10 7 14 3 3 -4 0 -9 -6 -11z m-68
-3 c-3 -5 -11 -10 -16 -10 -6 0 -7 5 -4 10 3 6 11 10 16 10 6 0 7 -4 4 -10z
m249 -5 c-4 -8 -10 -15 -15 -15 -4 0 -6 7 -3 15 4 8 10 15 15 15 4 0 6 -7 3
-15z m-224 -50 c8 5 8 1 -1 -13 -13 -20 -43 -35 -53 -25 -3 3 2 16 11 30 11
17 18 20 23 12 4 -6 13 -8 20 -4z m-138 -47 c-7 -7 -12 -8 -12 -2 0 14 12 26
19 19 2 -3 -1 -11 -7 -17z m505 6 c-3 -3 -12 -4 -19 -1 -8 3 -5 6 6 6 11 1 17
-2 13 -5z m-482 -34 c-3 -5 -11 -10 -16 -10 -6 0 -7 5 -4 10 3 6 11 10 16 10
6 0 7 -4 4 -10z m-50 -110 c-4 -12 -9 -19 -12 -17 -3 3 -2 15 2 27 4 12 9 19
12 17 3 -3 2 -15 -2 -27z m-81 -25 c-4 -8 -8 -15 -10 -15 -2 0 -4 7 -4 15 0 8
4 15 10 15 5 0 7 -7 4 -15z m476 -365 c0 -6 -10 -24 -22 -40 -13 -18 -21 -42
-20 -65 1 -19 -3 -35 -8 -35 -6 0 -10 3 -11 8 0 4 -2 22 -3 40 -2 17 1 32 6
32 6 0 8 6 5 14 -3 8 3 23 14 35 21 23 39 27 39 11z m-360 -249 c0 -9 -24 -21
-42 -21 -6 0 -6 6 2 15 14 16 40 20 40 6z m-1430 -361 c-11 -21 -48 -45 -57
-37 -10 10 8 46 25 50 38 10 43 8 32 -13z m1390 0 c0 -5 -4 -10 -10 -10 -5 0
-10 5 -10 10 0 6 5 10 10 10 6 0 10 -4 10 -10z m-140 -9 c0 -6 -4 -13 -10 -16
-5 -3 -10 1 -10 9 0 9 5 16 10 16 6 0 10 -4 10 -9z m284 -57 c9 -22 8 -24 -9
-18 -8 4 -15 12 -15 20 0 19 16 18 24 -2z m-138 -30 c-3 -8 -10 -13 -15 -9 -5
3 -16 -4 -24 -15 -7 -11 -17 -17 -20 -13 -12 11 -8 23 8 23 8 0 15 7 15 15 0
17 33 38 38 24 2 -5 1 -17 -2 -25z m81 -10 c-9 -9 -28 6 -21 18 4 6 10 6 17
-1 6 -6 8 -13 4 -17z m-143 -55 c-6 -11 -24 -2 -24 11 0 5 7 7 15 4 8 -4 12
-10 9 -15z"/>
<path d="M4020 4970 c0 -5 4 -10 9 -10 6 0 13 5 16 10 3 6 -1 10 -9 10 -9 0
-16 -4 -16 -10z"/>
<path d="M4080 4970 c0 -5 5 -10 10 -10 6 0 10 5 10 10 0 6 -4 10 -10 10 -5 0
-10 -4 -10 -10z"/>
<path d="M3832 4848 c-15 -15 -16 -38 -2 -38 6 0 10 6 10 13 0 9 2 9 9 -1 6
-11 11 -10 25 3 9 9 14 21 11 26 -9 13 -39 11 -53 -3z"/>
<path d="M4080 4199 c0 -5 5 -7 10 -4 6 3 10 8 10 11 0 2 -4 4 -10 4 -5 0 -10
-5 -10 -11z"/>
<path d="M3243 3029 c-12 -4 -10 -8 10 -22 29 -19 53 -22 62 -7 3 6 45 8 102
5 87 -4 145 6 129 23 -8 7 -282 9 -303 1z"/>
<path d="M3570 3015 c0 -9 5 -15 11 -13 6 2 11 8 11 13 0 5 -5 11 -11 13 -6 2
-11 -4 -11 -13z"/>
<path d="M4096 2982 c-3 -3 -3 -9 0 -13 7 -12 54 -12 54 0 0 10 -47 21 -54 13z"/>
<path d="M3718 2943 c7 -3 16 -2 19 1 4 3 -2 6 -13 5 -11 0 -14 -3 -6 -6z"/>
<path d="M3978 2929 c13 -13 62 -22 62 -11 0 5 -16 12 -35 14 -19 2 -32 1 -27
-3z"/>
<path d="M3910 2919 c0 -5 5 -7 10 -4 6 3 10 8 10 11 0 2 -4 4 -10 4 -5 0 -10
-5 -10 -11z"/>
<path d="M3118 2913 c6 -2 18 -2 25 0 6 3 1 5 -13 5 -14 0 -19 -2 -12 -5z"/>
<path d="M3205 2890 c3 -5 13 -10 21 -10 8 0 14 5 14 10 0 6 -9 10 -21 10 -11
0 -17 -4 -14 -10z"/>
<path d="M4355 2820 c-8 -13 5 -13 25 0 13 8 13 10 -2 10 -9 0 -20 -4 -23 -10z"/>
<path d="M2907 2799 c-10 -11 -16 -24 -13 -27 6 -6 35 27 36 41 0 11 -4 9 -23
-14z"/>
<path d="M3064 2784 c3 -9 6 -18 6 -20 0 -2 4 -4 9 -4 5 0 7 9 4 20 -3 11 -10
20 -15 20 -6 0 -7 -7 -4 -16z"/>
<path d="M4773 2756 c-18 -6 -33 -13 -33 -17 0 -14 21 -21 33 -11 8 7 26 7 55
-1 32 -8 45 -8 54 1 9 9 8 12 -4 12 -9 0 -18 6 -21 14 -6 16 -38 16 -84 2z"/>
<path d="M3245 2752 c-6 -4 -17 -16 -25 -26 -16 -20 -13 -19 48 20 2 1 -1 4
-5 7 -5 3 -13 3 -18 -1z"/>
<path d="M2977 2744 c-4 -4 -4 -19 0 -33 5 -22 4 -24 -9 -14 -8 7 -18 10 -21
6 -4 -3 -7 -1 -7 5 0 7 -7 12 -15 12 -21 0 -19 -13 5 -28 11 -7 20 -18 20 -26
0 -7 10 -16 23 -20 34 -9 37 -8 37 14 0 11 5 20 10 20 6 0 10 12 9 28 l-1 27
-8 -25 c-8 -24 -9 -23 -14 22 -1 14 -20 21 -29 12z"/>
<path d="M2920 2610 c-8 -5 -12 -11 -9 -14 2 -3 11 -1 19 4 8 5 12 11 9 14 -2
3 -11 1 -19 -4z"/>
<path d="M2997 2520 c-3 -13 0 -20 9 -20 8 0 14 9 14 20 0 11 -4 20 -9 20 -5
0 -11 -9 -14 -20z"/>
<path d="M3110 2499 c0 -11 5 -17 10 -14 6 3 10 13 10 21 0 8 -4 14 -10 14 -5
0 -10 -9 -10 -21z"/>
<path d="M3082 2468 c-14 -14 -16 -35 -3 -42 5 -3 11 8 13 24 3 17 4 30 3 30
0 0 -6 -5 -13 -12z"/>
<path d="M3100 2401 c0 -5 7 -11 15 -15 9 -3 15 0 15 9 0 8 -7 15 -15 15 -8 0
-15 -4 -15 -9z"/>
<path d="M3095 2370 c-3 -5 -1 -10 4 -10 6 0 11 5 11 10 0 6 -2 10 -4 10 -3 0
-8 -4 -11 -10z"/>
<path d="M3510 2755 c0 -8 5 -15 10 -15 6 0 10 7 10 15 0 8 -4 15 -10 15 -5 0
-10 -7 -10 -15z"/>
<path d="M1775 5290 c-3 -5 -1 -10 4 -10 6 0 11 5 11 10 0 6 -2 10 -4 10 -3 0
-8 -4 -11 -10z"/>
<path d="M2288 4159 c-30 -17 -20 -28 20 -22 45 7 51 11 32 23 -19 12 -31 12
-52 -1z"/>
<path d="M1350 3961 c-5 -11 -10 -31 -10 -45 0 -21 5 -26 25 -26 14 0 25 -4
25 -10 0 -20 25 -9 38 17 21 47 16 70 -19 77 -45 9 -47 8 -59 -13z"/>
<path d="M1147 3598 c-57 -65 -84 -130 -70 -169 6 -15 7 -33 2 -40 -14 -22
-10 -56 6 -62 18 -8 24 1 27 46 1 21 5 37 9 37 4 0 13 24 19 54 6 30 18 60 26
67 10 8 13 21 9 37 -4 18 -1 25 15 29 13 3 20 14 20 29 0 35 -12 30 -63 -28z"/>
<path d="M448 3183 c-10 -2 -18 -11 -18 -19 0 -10 12 -14 41 -14 33 0 40 3 35
16 -3 9 -6 18 -6 20 0 5 -28 3 -52 -3z"/>
<path d="M35 2700 c-11 -4 -23 -6 -27 -3 -5 2 -8 -64 -8 -147 0 -118 3 -150
12 -144 7 5 32 20 56 35 34 22 51 26 80 22 46 -7 45 -5 32 -38 -6 -15 -13 -25
-17 -22 -3 4 -18 -2 -33 -13 -34 -24 -40 -25 -40 -4 0 8 -5 12 -10 9 -6 -4 -8
-15 -5 -26 5 -15 1 -19 -15 -19 -15 0 -20 5 -17 15 7 17 -9 30 -18 15 -4 -6
-11 -8 -16 -5 -5 4 -9 -29 -9 -79 0 -93 3 -97 51 -69 23 13 31 15 41 5 9 -9 9
-12 0 -12 -6 0 -9 -7 -5 -17 6 -14 0 -15 -40 -10 l-47 7 0 -144 c0 -124 2
-145 16 -150 16 -6 16 -8 0 -24 -14 -16 -16 -47 -16 -210 0 -173 2 -191 17
-195 17 -4 17 -5 1 -6 -16 -1 -17 -48 -18 -736 l0 -735 665 0 c375 0 665 4
665 9 0 19 -31 33 -63 28 -33 -5 -67 11 -67 32 0 6 6 11 14 11 21 0 31 21 16
30 -7 5 -10 17 -7 30 5 19 3 21 -19 16 -14 -4 -24 -2 -24 4 0 5 5 10 10 10 6
0 10 7 10 15 0 8 -7 15 -15 15 -8 0 -15 -7 -15 -15 0 -8 -7 -15 -15 -15 -9 0
-18 7 -21 15 -4 8 -12 15 -20 15 -8 0 -14 4 -14 9 0 6 8 10 18 10 9 0 36 1 59
3 36 3 44 0 53 -20 5 -13 15 -20 20 -17 6 4 8 12 4 18 -3 7 3 2 14 -10 11 -12
23 -19 26 -15 4 4 20 7 35 8 26 1 29 -2 40 -51 11 -50 12 -74 1 -85 -3 -3 -11
-15 -18 -27 l-12 -23 186 0 185 0 -7 23 c-4 12 -9 28 -11 35 -3 6 2 12 12 12
11 0 15 5 12 14 -3 8 0 19 7 25 10 8 27 5 67 -14 34 -15 72 -25 102 -25 26 0
47 -4 47 -10 0 -5 -7 -10 -15 -10 -12 0 -35 -28 -35 -44 0 -3 299 -6 665 -6
l665 0 0 23 c0 30 24 62 39 53 9 -6 9 -11 1 -21 -15 -18 -3 -55 17 -55 12 0
14 8 10 35 -3 20 -2 35 4 35 6 0 7 -4 4 -10 -3 -5 -1 -10 5 -10 6 0 8 -10 4
-25 l-6 -25 221 0 c129 0 221 4 221 9 0 5 -12 19 -26 30 -25 19 -25 21 -6 21
13 0 22 8 25 22 4 22 4 22 6 2 1 -15 10 -23 31 -27 21 -5 31 -14 36 -32 l6
-25 123 0 123 0 7 51 c4 27 4 53 1 57 -4 3 -26 7 -49 8 -57 2 -57 2 -57 19 0
20 -26 19 -34 0 -4 -10 3 -19 18 -25 28 -10 34 -23 28 -62 -4 -29 -22 -40 -22
-13 0 8 -4 15 -10 15 -5 0 -10 -4 -10 -8 0 -12 -58 -13 -65 -2 -3 5 -12 7 -20
4 -10 -4 -13 2 -10 22 1 14 -5 41 -14 58 -9 17 -16 32 -16 33 0 1 -13 5 -29 9
-26 6 -29 5 -24 -14 8 -29 -40 -72 -56 -50 -6 7 -19 12 -29 10 -10 -2 -25 2
-33 9 -14 12 -14 14 1 25 9 7 14 17 11 23 -9 14 25 46 55 54 16 4 31 0 49 -16
14 -12 22 -18 18 -13 -4 4 -1 15 7 23 24 24 19 86 -9 113 -23 21 -26 21 -41 6
-9 -9 -22 -16 -30 -16 -7 0 -23 -12 -36 -26 -13 -14 -34 -29 -46 -34 -28 -12
-29 -26 -3 -33 23 -6 27 -27 5 -27 -8 0 -15 4 -15 9 0 12 -56 22 -120 19 -94
-3 -106 -1 -140 15 -25 13 -36 14 -47 6 -17 -15 -54 15 -46 37 3 8 -1 14 -9
14 -24 0 -68 24 -68 38 0 18 -11 15 -37 -9 -18 -18 -25 -20 -37 -10 -18 15
-93 22 -121 11 -11 -4 -32 -10 -47 -14 -23 -5 -26 -3 -21 10 5 15 1 16 -35 11
-42 -5 -66 6 -37 17 8 3 15 14 15 25 0 11 5 23 11 26 6 4 8 13 5 21 -3 8 -1
14 4 14 23 0 7 22 -25 35 -25 11 -41 12 -61 5 -20 -8 -34 -7 -57 5 -39 19 -51
19 -43 -1 8 -21 -3 -37 -17 -26 -7 5 -27 12 -45 15 l-33 7 21 -30 c12 -17 26
-28 31 -25 5 4 9 1 9 -4 0 -6 7 -11 15 -11 8 0 15 7 15 16 0 13 9 14 58 8 31
-3 60 -8 65 -11 14 -8 7 -23 -12 -23 -27 0 -51 -10 -51 -22 0 -15 -27 -38 -45
-38 -13 0 -16 -7 -13 -30 4 -24 1 -30 -13 -30 -10 0 -21 -5 -24 -10 -4 -6 -14
-10 -23 -9 -34 3 -41 -2 -47 -30 -9 -43 -47 -65 -93 -54 -36 9 -57 33 -28 33
9 0 16 7 16 15 0 9 -6 12 -15 9 -8 -4 -15 -10 -15 -15 0 -16 -18 -10 -47 16
-26 23 -27 26 -10 36 9 5 14 15 11 21 -4 6 -3 8 3 5 5 -3 22 1 37 9 36 18 46
18 46 -2 0 -9 7 -14 18 -12 25 5 27 50 4 65 -16 10 -26 7 -55 -13 -42 -28 -51
-30 -43 -9 5 13 1 13 -27 2 -33 -14 -61 -12 -51 4 8 13 -10 11 -24 -3 -16 -16
-49 14 -57 53 -9 39 -21 44 -51 20 -32 -25 -51 -26 -75 -5 -12 11 -27 13 -53
9 -36 -7 -45 -18 -26 -30 6 -4 8 -11 4 -16 -4 -6 -12 -5 -22 4 -12 11 -24 12
-40 6 -26 -10 -25 -34 1 -34 9 0 16 -4 14 -10 -1 -5 -13 -10 -27 -10 -30 0
-52 -13 -45 -26 6 -9 -49 -1 -75 11 -8 4 -31 8 -50 8 -19 0 -36 6 -39 13 -2 6
-12 19 -22 27 -25 22 -25 24 16 46 34 19 47 46 22 46 -7 0 -18 5 -25 12 -17
17 -52 20 -69 7 -11 -9 -16 -8 -26 6 -8 10 -31 19 -58 22 -42 5 -46 3 -102
-49 -43 -41 -56 -59 -51 -74 5 -18 5 -18 -10 0 -12 15 -19 17 -28 8 -6 -6 -9
-15 -5 -19 12 -11 117 -16 117 -5 0 6 -5 12 -12 14 -6 2 7 4 31 4 39 -1 71
-22 71 -47 0 -4 -41 -7 -92 -8 -50 0 -96 -5 -101 -10 -13 -13 -67 -3 -89 17
-23 19 -64 8 -71 -19 -6 -22 -28 -22 -35 0 -2 6 10 17 27 24 39 14 35 30 -10
37 -38 6 -47 33 -12 38 33 5 36 30 5 46 -22 11 -33 11 -57 1 -24 -11 -33 -10
-50 1 -10 8 -27 14 -37 14 -10 0 -18 5 -18 10 0 6 8 10 19 10 12 0 20 9 23 25
4 20 2 23 -12 15 -21 -11 -34 -1 -20 16 6 6 19 10 29 7 12 -3 20 2 23 15 4 12
21 24 52 33 25 7 46 17 46 22 0 4 -17 15 -37 23 -78 33 -103 47 -103 59 0 7 4
15 10 17 5 2 7 13 4 25 -5 18 -11 22 -30 17 -18 -5 -24 -2 -24 10 0 18 -11 21
-26 6 -8 -8 -19 -7 -37 1 -24 11 -25 13 -10 24 14 11 12 13 -16 17 -28 4 -32
2 -28 -14 3 -10 1 -18 -4 -18 -5 0 -9 9 -9 19 0 25 -16 36 -24 15 -3 -8 -11
-12 -17 -8 -8 4 -7 9 2 15 7 4 10 11 6 15 -9 10 69 43 101 43 13 1 21 5 17 11
-3 5 -12 7 -20 4 -11 -5 -13 1 -10 25 5 40 -15 41 -48 1 -20 -23 -34 -30 -62
-30 -39 0 -75 -15 -75 -30 0 -15 47 -12 53 3 4 9 6 9 6 -1 1 -7 -11 -17 -26
-23 -36 -13 -103 -2 -103 18 0 18 -32 13 -38 -6 -3 -10 0 -12 11 -8 9 3 21 -1
28 -10 7 -8 24 -19 37 -24 15 -6 22 -15 19 -23 -4 -9 3 -16 19 -20 27 -7 33
-26 8 -26 -10 0 -14 -6 -11 -15 8 -19 -10 -30 -28 -15 -10 8 -15 8 -22 -4 -4
-8 -20 -18 -35 -21 -24 -6 -28 -4 -28 14 0 15 6 21 22 21 12 0 18 3 15 7 -4 3
-2 12 4 20 9 10 6 13 -13 13 -13 0 -29 -5 -35 -11 -9 -9 -14 -5 -19 15 -3 14
-9 26 -13 26 -4 0 -7 9 -8 20 -1 14 4 20 18 20 11 0 18 4 14 10 -3 5 -13 6
-22 3 -11 -4 -14 -2 -11 8 3 8 10 13 16 12 5 -1 9 12 8 29 -1 23 4 33 17 36 9
2 17 -1 17 -7 0 -6 -7 -11 -15 -11 -33 0 -12 -18 25 -22 22 -2 40 0 40 4 0 5
15 8 33 8 l32 1 -45 24 c-25 13 -52 22 -60 20 -8 -3 -22 0 -30 5 -15 9 -13 11
13 14 6 1 11 11 9 22 -4 27 29 37 57 17 12 -8 21 -10 21 -4 0 6 5 11 10 11 6
0 10 -6 10 -14 0 -10 9 -14 27 -12 17 2 33 -3 39 -13 10 -13 14 -13 28 -2 20
17 21 41 1 41 -9 0 -12 -6 -8 -17 6 -15 5 -16 -9 -3 -9 8 -12 17 -7 20 19 13
-9 29 -41 25 -49 -8 -170 -14 -142 -8 12 2 22 10 22 18 0 7 6 16 12 18 7 3 2
6 -11 6 -24 1 -21 16 2 16 7 1 11 6 10 13 -2 7 4 12 12 12 8 0 15 7 15 15 0
19 19 19 26 0 5 -13 8 -13 27 0 27 19 63 19 70 1 5 -13 -14 -28 -38 -30 -13
-1 -19 -36 -6 -36 6 0 11 5 11 10 0 6 7 10 15 10 8 0 15 -3 15 -7 0 -5 16 -8
35 -8 39 0 47 11 13 18 l-23 4 23 2 c21 1 33 31 12 31 -5 0 -7 7 -4 15 4 8 12
15 19 15 8 0 17 5 21 12 5 8 -3 9 -31 5 -34 -6 -36 -5 -19 8 11 8 25 15 32 15
6 0 12 5 12 10 0 15 -16 12 -30 -5 -9 -11 -16 -12 -26 -4 -18 15 -37 1 -31
-23 5 -16 3 -17 -10 -7 -12 10 -16 10 -24 -2 -7 -11 -9 -10 -9 5 0 15 -5 17
-27 12 l-28 -6 28 15 c28 16 34 29 17 40 -6 4 -8 10 -5 15 7 12 -97 5 -122 -9
-28 -14 -33 -14 -33 4 0 10 -9 13 -32 10 -17 -2 -47 3 -67 12 -32 13 -34 16
-16 23 28 12 75 12 75 0 0 -5 4 -10 10 -10 5 0 9 5 7 11 -1 6 4 14 11 16 6 3
12 -1 12 -9 0 -7 11 -18 24 -24 21 -10 24 -9 24 12 0 27 -22 49 -39 39 -6 -4
-15 -1 -20 6 -6 10 -9 11 -9 2 0 -7 -5 -13 -11 -13 -6 0 -7 5 -2 13 4 6 8 22
8 34 1 20 -1 21 -15 8 -28 -25 -73 -18 -102 15 -24 28 -25 30 -7 30 11 0 18
-4 14 -10 -10 -16 40 -42 69 -34 14 3 26 10 26 15 0 5 7 9 15 9 9 0 15 -9 15
-24 0 -32 16 -41 36 -22 8 9 20 16 25 16 5 0 9 5 9 11 0 5 -4 7 -10 4 -5 -3
-10 -1 -10 4 0 6 7 11 16 11 13 0 15 -7 11 -35 -5 -30 -2 -38 18 -51 14 -9 30
-14 37 -11 7 2 1 8 -14 12 -25 6 -27 11 -24 48 2 23 9 43 15 45 26 9 9 24 -21
18 -40 -8 -58 -23 -52 -44 2 -9 -2 -3 -10 13 -17 37 -11 42 62 51 49 6 52 8
37 23 -21 24 -20 26 21 46 48 23 38 28 -22 11 -27 -8 -66 -17 -88 -21 -29 -5
-36 -9 -27 -18 16 -16 14 -24 -8 -30 -25 -6 -34 2 -20 19 7 9 5 14 -10 19 -26
8 -27 25 -2 25 23 0 54 28 46 41 -4 5 1 9 9 9 9 0 16 6 16 14 0 11 -10 13 -39
9 -23 -3 -41 -1 -45 6 -5 7 2 11 19 11 20 0 26 4 22 15 -4 8 -2 17 3 20 16 10
11 25 -7 25 -15 0 -16 -2 -3 -10 12 -8 9 -10 -12 -10 -14 0 -28 4 -30 10 -4
11 -75 15 -105 5 -14 -4 -23 -3 -23 3 0 6 9 14 20 17 11 4 18 11 15 16 -4 5
-14 5 -25 -1 -13 -7 -21 -7 -25 0 -3 5 -15 10 -25 10 -16 0 -17 3 -7 30 9 23
9 33 0 38 -6 4 -10 19 -10 33 2 27 2 27 39 12 28 -11 41 -12 57 -3 30 16 26
39 -9 51 -35 13 -38 25 -10 34 11 3 20 11 20 16 0 5 14 9 30 9 17 0 30 -3 30
-7 0 -14 69 -14 77 0 4 6 22 12 38 12 27 0 30 3 28 28 -2 24 1 26 24 21 22 -6
25 -4 20 10 -7 18 10 56 31 69 25 16 1 27 -27 12 -22 -11 -27 -19 -24 -39 4
-21 2 -24 -16 -19 -14 4 -21 1 -21 -10 0 -25 -27 -42 -45 -27 -10 9 -15 9 -15
1 0 -6 -5 -11 -11 -11 -6 0 -19 -10 -30 -22 l-18 -23 -1 26 c0 36 -8 40 -42
23 -42 -22 -81 -15 -88 16 -4 17 -16 27 -38 34 -22 6 -32 15 -32 28 0 11 -9
22 -20 25 -16 4 -20 14 -20 44 0 42 -6 46 -34 26 -16 -12 -17 -16 -5 -35 12
-19 11 -24 -3 -38 -10 -10 -21 -13 -30 -8 -7 5 -22 8 -33 9 -11 0 -19 6 -17
13 3 19 -16 14 -21 -5 -3 -12 -5 -8 -6 9 -1 30 14 45 32 30 8 -7 16 -6 24 3
15 16 -8 39 -49 49 -16 4 -33 18 -42 38 -24 46 -21 60 12 56 23 -3 27 -7 24
-30 -1 -16 2 -28 8 -28 5 0 10 4 10 8 0 14 48 33 55 22 4 -6 0 -10 -8 -10 -14
0 -27 -20 -27 -41 0 -20 41 -8 52 16 14 32 26 32 39 -2 8 -20 12 -24 22 -14 8
8 8 14 2 19 -15 11 -18 51 -5 67 6 8 10 24 8 37 -2 18 -8 22 -30 20 -20 -2
-28 2 -33 18 -6 19 -13 21 -46 18 -21 -2 -39 0 -39 4 0 5 5 8 12 8 6 0 20 8
31 18 11 9 35 17 55 17 28 0 38 5 40 19 3 11 0 16 -7 12 -6 -4 -11 -2 -11 3 0
6 -13 23 -30 38 -37 33 -38 51 -3 59 27 7 65 43 57 55 -2 3 -41 5 -87 4 -57
-1 -84 2 -83 10 2 18 -64 87 -78 82 -8 -3 -17 -2 -22 3 -5 4 -18 4 -29 0z m95
-100 c-12 -7 -12 -12 -1 -34 12 -21 11 -27 -2 -40 -13 -13 -20 -14 -41 -4 -31
13 -31 17 -8 57 12 22 24 31 42 31 19 0 22 -2 10 -10z m175 -20 c4 -6 -5 -10
-19 -10 -14 0 -26 5 -26 10 0 6 9 10 19 10 11 0 23 -4 26 -10z m-155 -445 c0
-8 -2 -15 -4 -15 -2 0 -12 -3 -21 -6 -15 -6 -15 -4 -4 15 16 25 29 27 29 6z
m71 -159 c-9 -11 -9 -16 0 -22 7 -4 15 -2 17 4 7 22 42 14 42 -10 0 -20 1 -21
20 -3 11 10 20 24 20 31 0 8 6 11 15 8 9 -4 15 -1 15 7 0 7 11 3 27 -12 14
-13 23 -18 19 -11 -5 7 -1 12 10 12 14 0 15 -7 10 -39 -5 -34 -3 -39 16 -44
35 -10 16 -17 -26 -10 -25 4 -40 12 -43 24 -7 24 -41 31 -52 11 -7 -12 -13
-13 -23 -5 -7 6 -30 13 -50 17 -40 7 -50 30 -26 54 16 16 24 6 9 -12z m-171
-36 c0 -5 -7 -10 -15 -10 -8 0 -15 5 -15 10 0 6 7 10 15 10 8 0 15 -4 15 -10z
m227 -102 c-3 -8 -6 -5 -6 6 -1 11 2 17 5 13 3 -3 4 -12 1 -19z m-92 2 c-3 -5
-12 -10 -18 -10 -7 0 -6 4 3 10 19 12 23 12 15 0z m45 -29 c0 -5 -9 -11 -20
-14 -23 -6 -25 -2 -7 17 12 14 27 12 27 -3z m120 5 c0 -3 -4 -8 -10 -11 -5 -3
-10 -1 -10 4 0 6 5 11 10 11 6 0 10 -2 10 -4z m7 -48 c-3 -8 -6 -5 -6 6 -1 11
2 17 5 13 3 -3 4 -12 1 -19z m-257 -8 c0 -5 -6 -10 -14 -10 -8 0 -18 5 -21 10
-3 6 3 10 14 10 12 0 21 -4 21 -10z m80 -9 c0 -6 -4 -13 -10 -16 -5 -3 -10 1
-10 9 0 9 5 16 10 16 6 0 10 -4 10 -9z m100 -11 c0 -5 -7 -10 -16 -10 -8 0
-12 5 -9 10 3 6 10 10 16 10 5 0 9 -4 9 -10z m175 -90 c3 -5 -1 -10 -10 -10
-9 0 -13 5 -10 10 3 6 8 10 10 10 2 0 7 -4 10 -10z m-235 -20 c-9 -18 -8 -20
16 -20 21 0 24 3 15 14 -9 11 -6 15 16 19 35 7 37 5 29 -35 -6 -31 -8 -33 -45
-32 -21 1 -43 4 -50 8 -6 4 -11 3 -11 -3 0 -5 6 -11 13 -14 6 -2 9 -8 5 -12
-13 -13 -38 4 -38 25 0 26 30 69 48 70 10 0 10 -5 2 -20z m315 0 c-18 -19 -17
-20 2 -20 25 0 49 -25 33 -35 -22 -13 -8 -23 25 -18 22 3 35 2 35 -5 0 -6 -12
-12 -27 -14 -22 -2 -28 -8 -26 -25 2 -19 -1 -21 -35 -18 -31 4 -32 3 -8 -3 17
-4 29 -11 28 -17 0 -5 8 -10 18 -9 11 0 20 -5 20 -13 0 -7 6 -13 14 -13 8 0
18 -5 22 -12 4 -7 3 -8 -4 -4 -7 4 -12 2 -12 -3 0 -18 -24 -12 -38 9 -6 11
-39 32 -72 47 -45 20 -60 31 -60 47 0 12 -3 31 -6 44 -5 16 -2 22 11 22 11 0
15 -6 11 -17 -3 -10 0 -25 7 -35 16 -20 69 -28 74 -10 3 8 -7 12 -31 12 -27 0
-34 3 -30 15 4 8 17 15 30 15 15 0 24 6 24 15 0 9 -9 15 -24 15 -13 0 -26 7
-30 15 -6 16 19 34 48 35 18 0 18 -1 1 -20z m-148 -11 c-14 -8 -22 -8 -30 0
-8 8 -3 11 19 11 25 -1 27 -2 11 -11z m-357 -39 c0 -5 -2 -10 -4 -10 -3 0 -8
5 -11 10 -3 6 -1 10 4 10 6 0 11 -4 11 -10z m317 -6 c-3 -3 -12 -4 -19 -1 -8
3 -5 6 6 6 11 1 17 -2 13 -5z m64 -8 c-9 -11 -7 -15 11 -19 25 -7 17 -21 -19
-32 -21 -6 -22 -4 -17 25 6 25 4 29 -10 24 -9 -3 -16 -10 -16 -15 0 -5 -5 -9
-12 -9 -6 0 -3 9 7 20 21 23 75 29 56 6z m-201 -56 c0 -5 -4 -10 -10 -10 -5 0
-10 5 -10 10 0 6 5 10 10 10 6 0 10 -4 10 -10z m526 -22 c5 -8 2 -9 -10 -5
-14 5 -17 3 -12 -8 3 -9 0 -15 -8 -15 -17 0 -38 24 -29 33 11 11 51 8 59 -5z
m-455 -28 c5 0 9 -5 9 -10 0 -6 -11 -8 -25 -4 -21 5 -24 3 -19 -11 5 -13 3
-16 -7 -13 -18 6 -13 39 9 56 14 11 18 10 20 -2 2 -9 8 -16 13 -16z m-124 -6
c-3 -3 -12 -4 -19 -1 -8 3 -5 6 6 6 11 1 17 -2 13 -5z m-47 -14 c0 -5 -5 -10
-11 -10 -5 0 -7 5 -4 10 3 6 8 10 11 10 2 0 4 -4 4 -10z m340 -15 c0 -13 -14
-35 -22 -35 -6 0 -5 6 2 15 10 12 9 15 -8 15 -15 0 -19 -5 -15 -20 4 -15 0
-20 -15 -20 -11 0 -22 7 -26 15 -3 9 0 15 8 15 8 0 16 6 19 14 3 9 15 12 31 9
14 -3 26 -7 26 -8z m105 -16 c-10 -15 -25 -10 -19 6 4 8 10 12 15 9 5 -3 7
-10 4 -15z m-275 2 c0 -5 -7 -11 -14 -14 -10 -4 -13 -1 -9 9 6 15 23 19 23 5z
m300 -16 c0 -8 -7 -15 -16 -15 -14 0 -14 3 -4 15 7 8 14 15 16 15 2 0 4 -7 4
-15z m-235 -5 c3 -5 -1 -10 -10 -10 -9 0 -13 5 -10 10 3 6 8 10 10 10 2 0 7
-4 10 -10z m109 -25 c-4 -8 -8 -15 -10 -15 -2 0 -4 7 -4 15 0 8 4 15 10 15 5
0 7 -7 4 -15z m-88 -22 c13 -13 14 -18 3 -22 -7 -2 -15 1 -17 8 -2 6 -10 11
-18 11 -9 0 -12 5 -9 10 9 14 21 12 41 -7z m162 5 c-3 -7 -15 -14 -29 -16 -24
-4 -24 -3 -4 12 24 19 38 20 33 4z m62 -17 c0 -10 -40 -22 -52 -15 -18 11 -6
24 22 24 17 0 30 -4 30 -9z m-495 -31 c-3 -5 -10 -10 -16 -10 -5 0 -9 5 -9 10
0 6 7 10 16 10 8 0 12 -4 9 -10z m185 0 c0 -5 -4 -10 -10 -10 -5 0 -10 5 -10
10 0 6 5 10 10 10 6 0 10 -4 10 -10z m100 0 c0 -5 -4 -10 -9 -10 -6 0 -13 5
-16 10 -3 6 1 10 9 10 9 0 16 -4 16 -10z m-50 -20 c0 -5 -4 -10 -10 -10 -5 0
-10 5 -10 10 0 6 5 10 10 10 6 0 10 -4 10 -10z m-250 -10 c0 -5 -8 -10 -17
-10 -15 0 -16 2 -3 10 19 12 20 12 20 0z m110 -10 c0 -5 -4 -10 -10 -10 -5 0
-10 5 -10 10 0 6 5 10 10 10 6 0 10 -4 10 -10z m270 -4 c0 -6 -14 -11 -30 -12
-17 -1 -30 4 -30 10 0 6 14 11 30 12 17 1 30 -4 30 -10z m-106 -42 c8 -22 8
-24 -6 -24 -6 0 -8 3 -5 7 4 3 2 12 -4 20 -7 8 -8 13 -1 13 5 0 13 -7 16 -16z
m186 12 c0 -3 -4 -8 -10 -11 -5 -3 -10 -1 -10 4 0 6 5 11 10 11 6 0 10 -2 10
-4z m78 -2 c19 -5 20 -9 10 -22 -11 -13 -9 -14 15 -8 21 5 28 3 25 -6 -3 -7
-15 -15 -28 -18 -20 -5 -21 -7 -6 -19 8 -7 13 -17 10 -22 -8 -13 -42 -11 -50
3 -5 8 -2 9 9 5 21 -8 22 7 1 27 -8 9 -11 16 -5 16 6 0 11 9 11 20 0 25 -20
27 -21 3 0 -11 -3 -13 -6 -5 -2 6 -11 12 -19 12 -8 0 -14 5 -14 10 0 11 33 13
68 4z m72 -4 c0 -5 -5 -10 -11 -10 -5 0 -7 5 -4 10 3 6 8 10 11 10 2 0 4 -4 4
-10z m-250 -20 c0 -5 -4 -10 -10 -10 -5 0 -10 5 -10 10 0 6 5 10 10 10 6 0 10
-4 10 -10z m138 -49 c2 -17 -1 -31 -7 -31 -6 0 -11 9 -11 20 0 11 -4 20 -10
20 -5 0 -7 -6 -4 -14 4 -11 0 -13 -15 -9 -12 3 -21 1 -21 -6 0 -11 13 -15 36
-12 7 1 14 -6 18 -14 4 -12 0 -14 -22 -9 -40 10 -49 21 -34 44 12 20 6 24 -35
23 -7 -1 -13 4 -13 9 0 6 11 7 24 4 15 -4 28 0 36 9 19 23 54 3 58 -34z m127
39 c-3 -5 -10 -10 -16 -10 -5 0 -9 5 -9 10 0 6 7 10 16 10 8 0 12 -4 9 -10z
m-378 -6 c-3 -3 -12 -4 -19 -1 -8 3 -5 6 6 6 11 1 17 -2 13 -5z m-197 -14 c0
-5 -12 -10 -26 -10 -14 0 -23 4 -19 10 3 6 15 10 26 10 10 0 19 -4 19 -10z
m295 0 c-3 -5 0 -10 8 -10 8 0 17 -6 20 -13 3 -8 -4 -12 -22 -11 -55 2 -57 4
-32 24 25 22 36 26 26 10z m65 -30 c0 -5 -4 -10 -10 -10 -5 0 -10 5 -10 10 0
6 5 10 10 10 6 0 10 -4 10 -10z m-363 -6 c-3 -3 -12 -4 -19 -1 -8 3 -5 6 6 6
11 1 17 -2 13 -5z m60 0 c-3 -3 -12 -4 -19 -1 -8 3 -5 6 6 6 11 1 17 -2 13 -5z
m183 2 c0 -3 -4 -8 -10 -11 -5 -3 -10 -1 -10 4 0 6 5 11 10 11 6 0 10 -2 10
-4z m226 -42 c-3 -9 -6 -18 -6 -20 0 -2 -7 -4 -15 -4 -13 0 -13 3 -3 20 15 24
33 27 24 4z m44 6 c-10 -6 -11 -10 -2 -10 6 0 12 -4 12 -10 0 -14 -27 -13 -36
1 -7 11 12 29 31 29 6 0 3 -5 -5 -10z m-110 -30 c0 -5 -6 -10 -14 -10 -8 0
-16 -5 -18 -10 -2 -6 -9 -1 -16 10 -11 18 -10 20 18 20 16 0 30 -4 30 -10z
m-149 -34 c-14 -17 0 -29 23 -20 20 8 21 -12 2 -31 -12 -12 -15 -11 -19 6 -3
12 -10 18 -16 14 -6 -3 -11 0 -12 7 0 10 -2 10 -6 1 -6 -16 -23 -17 -23 -2 0
15 30 38 49 39 10 0 11 -3 2 -14z m444 -25 c-6 -5 -25 10 -25 20 0 5 6 4 14
-3 8 -7 12 -15 11 -17z m-565 5 c0 -2 -7 -9 -15 -16 -12 -10 -15 -10 -15 4 0
9 7 16 15 16 8 0 15 -2 15 -4z m301 -14 c-7 -2 -18 1 -23 6 -8 8 -4 9 13 5 13
-4 18 -8 10 -11z m64 -2 c-34 -7 -40 -5 -31 8 3 5 18 7 33 4 l28 -6 -30 -6z
m-75 -29 c0 -16 -12 -41 -20 -41 -4 0 -5 11 -2 25 4 23 22 36 22 16z m68 -51
c11 -18 10 -20 -13 -20 -24 0 -34 18 -18 33 10 11 17 8 31 -13z m-8 -40 c0 -5
-7 -10 -15 -10 -8 0 -15 5 -15 10 0 6 7 10 15 10 8 0 15 -4 15 -10z m-45 -10
c3 -5 -1 -10 -9 -10 -9 0 -16 5 -16 10 0 6 4 10 9 10 6 0 13 -4 16 -10z m-224
-43 c-8 -8 -11 -7 -11 4 0 20 13 34 18 19 3 -7 -1 -17 -7 -23z m499 -22 c0
-17 -2 -18 -25 -9 -13 5 -14 8 -3 15 19 13 28 11 28 -6z m50 -20 c0 -8 -9 -15
-20 -15 -20 0 -26 11 -13 23 12 13 33 7 33 -8z m160 -45 c0 -5 -7 -10 -15 -10
-8 0 -15 5 -15 10 0 6 7 10 15 10 8 0 15 -4 15 -10z m-330 -91 c-9 -16 -14
-18 -26 -9 -7 7 -21 10 -29 6 -8 -3 -15 -2 -15 3 0 13 7 16 45 19 33 2 35 1
25 -19z m90 11 c0 -5 -4 -10 -10 -10 -5 0 -10 5 -10 10 0 6 5 10 10 10 6 0 10
-4 10 -10z m-40 -10 c0 -5 -4 -10 -10 -10 -5 0 -10 5 -10 10 0 6 5 10 10 10 6
0 10 -4 10 -10z m-293 -36 c-3 -3 -12 -4 -19 -1 -8 3 -5 6 6 6 11 1 17 -2 13
-5z m140 0 c-3 -3 -12 -4 -19 -1 -8 3 -5 6 6 6 11 1 17 -2 13 -5z m313 -35 c0
-22 -4 -28 -12 -22 -7 4 -24 7 -38 6 -25 -2 -25 -2 3 9 15 7 27 18 27 25 0 7
5 13 10 13 6 0 10 -14 10 -31z m120 -53 c0 -11 -19 -15 -25 -6 -3 5 1 10 9 10
9 0 16 -2 16 -4z m-460 -73 c0 -26 -1 -26 -15 -7 -19 25 -19 34 0 34 10 0 15
-10 15 -27z m490 -32 c0 -6 -4 -13 -10 -16 -5 -3 -10 1 -10 9 0 9 5 16 10 16
6 0 10 -4 10 -9z m573 -58 c-7 -2 -19 -2 -25 0 -7 3 -2 5 12 5 14 0 19 -2 13
-5z m-443 -23 c0 -5 -9 -10 -20 -10 -11 0 -20 5 -20 10 0 6 9 10 20 10 11 0
20 -4 20 -10z m944 4 c23 -9 20 -23 -4 -17 -11 3 -20 9 -20 14 0 11 3 11 24 3z
m-1336 -36 c-3 -7 -13 -15 -24 -17 -16 -3 -17 -1 -5 13 16 19 34 21 29 4z
m-133 -7 c7 -12 -12 -24 -25 -16 -11 7 -4 25 10 25 5 0 11 -4 15 -9z m62 3
c-3 -3 -12 -4 -19 -1 -8 3 -5 6 6 6 11 1 17 -2 13 -5z m1415 -17 c-12 -6 -25
-7 -29 -3 -11 10 18 25 35 18 13 -4 11 -8 -6 -15z m563 -27 c-4 -6 14 -10 47
-10 42 -1 49 -3 35 -11 -24 -14 -101 -3 -117 16 -10 13 -8 15 14 15 16 0 25
-4 21 -10z m-1495 -10 c0 -5 -5 -10 -11 -10 -5 0 -7 5 -4 10 3 6 8 10 11 10 2
0 4 -4 4 -10z m155 -20 c-3 -5 -15 -10 -25 -10 -10 0 -22 5 -25 10 -4 6 7 10
25 10 18 0 29 -4 25 -10z m555 -25 c-12 -15 -30 -12 -30 6 0 5 10 9 21 9 18 0
19 -2 9 -15z m961 -5 c13 -10 19 -19 13 -20 -6 0 -14 3 -18 7 -4 4 -17 8 -28
8 -12 0 -23 6 -25 13 -7 19 32 14 58 -8z m-104 4 c-3 -3 -12 -4 -19 -1 -8 3
-5 6 6 6 11 1 17 -2 13 -5z m-377 -35 c0 -11 -27 -12 -34 0 -3 4 -3 11 0 14 8
8 34 -3 34 -14z m-535 1 c3 -5 -1 -10 -9 -10 -9 0 -16 5 -16 10 0 6 4 10 9 10
6 0 13 -4 16 -10z m420 -16 c8 -3 15 -1 15 6 0 15 42 9 48 -8 3 -9 -3 -11 -22
-6 -27 6 -34 -4 -15 -23 17 -17 -3 -20 -41 -7 -19 7 -31 13 -26 13 5 1 3 7 -3
14 -13 16 -3 30 16 22 7 -3 20 -8 28 -11z m-908 -16 c-3 -8 -6 -5 -6 6 -1 11
2 17 5 13 3 -3 4 -12 1 -19z m1529 -26 c4 -26 -12 -38 -31 -22 -11 9 -12 16
-2 31 15 24 29 20 33 -9z m-1796 -6 c0 -2 -9 -6 -20 -9 -11 -3 -20 -1 -20 4 0
5 9 9 20 9 11 0 20 -2 20 -4z m70 -6 c0 -5 -4 -10 -10 -10 -5 0 -10 5 -10 10
0 6 5 10 10 10 6 0 10 -4 10 -10z"/>
<path d="M958 2649 c-39 -15 -41 -35 -7 -64 23 -18 42 -25 74 -25 24 0 47 5
50 10 3 6 15 10 26 10 10 0 19 5 19 10 0 6 11 10 24 10 13 0 31 3 40 6 31 12
15 24 -31 24 -27 0 -66 5 -88 11 -67 18 -79 18 -107 8z"/>
<path d="M627 2623 c-4 -3 -7 -15 -7 -25 0 -13 7 -18 25 -18 28 0 29 3 15 31
-11 20 -22 24 -33 12z"/>
<path d="M5115 2620 c-3 -5 1 -10 10 -10 9 0 13 5 10 10 -3 6 -8 10 -10 10 -2
0 -7 -4 -10 -10z"/>
<path d="M5160 2620 c8 -5 26 -9 40 -9 23 0 23 1 5 9 -11 5 -29 9 -40 9 -17 1
-17 -1 -5 -9z"/>
<path d="M415 2519 c-22 -11 -50 -26 -63 -33 l-22 -13 20 -23 c11 -13 20 -31
20 -40 0 -19 40 -60 59 -60 7 0 26 14 42 31 23 24 27 35 19 49 -13 24 -13 60
0 60 6 0 10 10 10 23 0 30 -31 32 -85 6z"/>
<path d="M718 2507 c-37 -14 -35 -29 6 -51 29 -15 37 -16 55 -4 27 16 26 25
-1 49 -26 21 -24 21 -60 6z"/>
<path d="M877 2483 c-4 -3 -7 -11 -7 -17 0 -6 5 -5 12 2 6 6 9 14 7 17 -3 3
-9 2 -12 -2z"/>
<path d="M1140 2386 c0 -9 7 -16 16 -16 17 0 14 22 -4 28 -7 2 -12 -3 -12 -12z"/>
<path d="M573 2353 c-21 -8 -15 -30 9 -36 25 -7 38 -1 38 18 0 10 -25 28 -33
24 -1 0 -8 -3 -14 -6z"/>
<path d="M970 2310 c0 -5 7 -10 15 -10 8 0 15 5 15 10 0 6 -7 10 -15 10 -8 0
-15 -4 -15 -10z"/>
<path d="M1115 2300 c-4 -6 5 -10 19 -10 14 0 26 5 26 10 0 6 -9 10 -19 10
-11 0 -23 -4 -26 -10z"/>
<path d="M376 2255 c-15 -14 -24 -30 -21 -35 8 -13 45 -13 45 0 0 6 6 10 14
10 22 0 30 19 16 35 -17 20 -23 19 -54 -10z"/>
<path d="M626 2273 c-12 -12 -6 -41 15 -64 14 -17 22 -20 25 -11 3 6 16 12 28
12 29 0 58 47 37 59 -16 10 -96 13 -105 4z"/>
<path d="M470 2125 c0 -9 9 -15 25 -15 28 0 34 15 9 24 -25 10 -34 7 -34 -9z"/>
<path d="M235 2100 c-3 -5 -1 -10 4 -10 6 0 11 5 11 10 0 6 -2 10 -4 10 -3 0
-8 -4 -11 -10z"/>
<path d="M538 2094 c-15 -8 -40 -12 -55 -10 -18 3 -37 -2 -53 -14 l-25 -19 25
-9 c14 -5 30 -6 35 -2 18 13 95 28 116 23 19 -5 20 -4 10 15 -16 30 -23 32
-53 16z"/>
<path d="M610 2062 c0 -5 14 -12 30 -14 19 -3 29 -1 27 6 -4 14 -57 21 -57 8z"/>
<path d="M1494 2055 c-11 -7 -13 -14 -7 -18 14 -9 74 3 68 13 -9 15 -44 18
-61 5z"/>
<path d="M486 2008 c-21 -29 -20 -38 3 -38 11 0 23 9 26 20 3 11 13 20 21 20
8 0 14 5 14 10 0 19 -49 10 -64 -12z"/>
<path d="M655 2010 c-3 -5 -1 -10 4 -10 6 0 11 5 11 10 0 6 -2 10 -4 10 -3 0
-8 -4 -11 -10z"/>
<path d="M870 1990 c0 -5 7 -7 15 -4 8 4 15 8 15 10 0 2 -7 4 -15 4 -8 0 -15
-4 -15 -10z"/>
<path d="M1335 1989 c-4 -6 -5 -13 -2 -16 7 -7 27 6 27 18 0 12 -17 12 -25 -2z"/>
<path d="M791 1976 c-9 -10 -8 -15 4 -20 10 -4 15 1 15 14 0 24 -4 25 -19 6z"/>
<path d="M3890 1969 c0 -11 5 -17 10 -14 6 3 10 13 10 21 0 8 -4 14 -10 14 -5
0 -10 -9 -10 -21z"/>
<path d="M3633 1888 c-24 -32 -38 -94 -23 -103 5 -3 12 4 15 16 4 12 19 32 33
44 16 14 23 28 19 38 -8 20 -31 22 -44 5z"/>
<path d="M555 1860 c-19 -8 -19 -9 3 -9 12 -1 22 -7 22 -15 0 -7 -10 -16 -22
-20 -23 -6 -23 -6 4 -20 35 -18 60 -12 75 21 14 29 9 45 -11 37 -8 -3 -17 -1
-21 5 -7 13 -22 13 -50 1z"/>
<path d="M1101 1814 c-13 -19 -27 -34 -32 -34 -5 0 -9 -7 -9 -15 0 -22 78 -21
87 1 4 10 0 22 -10 29 -10 7 -13 15 -7 21 5 5 6 14 2 21 -5 8 -15 0 -31 -23z"/>
<path d="M878 1812 c-3 -11 1 -34 8 -51 l14 -33 25 29 c21 24 26 26 35 13 6
-9 10 -10 10 -3 0 17 -29 43 -49 43 -9 0 -22 5 -28 11 -7 7 -12 5 -15 -9z"/>
<path d="M680 1791 c0 -6 7 -11 16 -11 12 0 9 -6 -11 -21 -17 -14 -29 -18 -34
-11 -8 14 -61 3 -61 -13 0 -7 7 -18 15 -25 12 -10 15 -10 15 2 0 18 90 34 100
18 4 -6 13 -5 26 5 10 8 31 15 47 15 20 0 27 5 27 21 0 11 -4 18 -9 14 -5 -3
-13 0 -17 6 -5 9 -10 8 -18 -2 -6 -8 -19 -20 -28 -28 -16 -12 -18 -11 -18 2 0
9 8 18 18 20 11 3 7 5 -10 6 -14 0 -33 4 -42 7 -9 3 -16 1 -16 -5z"/>
<path d="M446 1771 c-9 -14 11 -51 28 -51 18 0 16 27 -5 46 -11 10 -19 12 -23
5z"/>
<path d="M1510 1730 c0 -6 7 -10 15 -10 8 0 15 2 15 4 0 2 -7 6 -15 10 -8 3
-15 1 -15 -4z"/>
<path d="M1078 1720 c-14 -4 -55 -8 -90 -9 -41 0 -76 -7 -101 -20 -20 -10 -51
-18 -67 -17 -25 2 -30 -2 -30 -20 0 -15 -7 -24 -21 -26 -12 -2 -27 -12 -33
-23 -6 -11 -18 -25 -26 -32 -13 -11 -13 -12 -1 -13 11 0 9 -4 -5 -15 -18 -14
-18 -14 6 -15 15 0 31 5 37 11 8 8 36 15 77 18 5 1 3 8 -5 17 -10 13 -10 17 2
25 8 5 21 9 29 9 11 0 11 -3 2 -12 -7 -7 -12 -15 -12 -19 0 -11 59 -32 75 -26
8 4 19 -1 24 -11 10 -16 10 -16 11 1 0 21 23 22 40 2 15 -18 105 -21 116 -3 7
12 -24 41 -36 33 -4 -3 -10 17 -14 43 -5 41 -3 49 16 64 14 10 27 13 34 8 6
-6 19 -3 33 7 18 12 20 17 10 24 -17 10 -35 10 -71 -1z m-87 -50 c4 0 6 -6 3
-14 -3 -7 -23 -16 -44 -20 -22 -3 -45 -15 -53 -26 -16 -22 -27 -18 -20 8 5 21
72 61 91 56 8 -2 18 -4 23 -4z m-224 -96 c-3 -3 -12 -4 -19 -1 -8 3 -5 6 6 6
11 1 17 -2 13 -5z"/>
<path d="M3525 1720 c-3 -5 -1 -10 4 -10 6 0 11 5 11 10 0 6 -2 10 -4 10 -3 0
-8 -4 -11 -10z"/>
<path d="M555 1711 c-3 -5 -1 -12 5 -16 5 -3 10 1 10 9 0 18 -6 21 -15 7z"/>
<path d="M670 1685 c7 -8 17 -15 22 -15 6 0 5 7 -2 15 -7 8 -17 15 -22 15 -6
0 -5 -7 2 -15z"/>
<path d="M753 1663 c-18 -7 -16 -23 2 -23 8 0 15 7 15 15 0 8 -1 15 -2 14 -2
0 -9 -3 -15 -6z"/>
<path d="M662 1639 c2 -7 10 -15 17 -17 8 -3 12 1 9 9 -2 7 -10 15 -17 17 -8
3 -12 -1 -9 -9z"/>
<path d="M3480 1613 c0 -5 5 -15 10 -23 8 -12 10 -11 10 8 0 12 -4 22 -10 22
-5 0 -10 -3 -10 -7z"/>
<path d="M855 1515 c36 -29 61 -32 68 -6 4 15 -2 20 -32 25 -62 10 -68 7 -36
-19z"/>
<path d="M934 1488 c-2 -3 9 -11 25 -16 25 -9 30 -8 34 8 4 16 0 19 -25 17
-16 -1 -32 -5 -34 -9z"/>
<path d="M1036 1483 c-12 -12 -5 -23 14 -23 11 0 20 4 20 9 0 11 -26 22 -34
14z"/>
<path d="M1470 1480 c0 -5 5 -10 10 -10 6 0 10 5 10 10 0 6 -4 10 -10 10 -5 0
-10 -4 -10 -10z"/>
<path d="M1107 1468 c-9 -6 -9 -10 2 -17 18 -11 51 -2 51 15 0 14 -33 15 -53
2z"/>
<path d="M940 1410 c0 -5 5 -10 10 -10 6 0 10 5 10 10 0 6 -4 10 -10 10 -5 0
-10 -4 -10 -10z"/>
<path d="M3710 1405 c0 -8 7 -15 15 -15 8 0 15 7 15 15 0 8 -7 15 -15 15 -8 0
-15 -7 -15 -15z"/>
<path d="M1038 1403 c7 -3 16 -2 19 1 4 3 -2 6 -13 5 -11 0 -14 -3 -6 -6z"/>
<path d="M818 1386 c-36 -27 -15 -60 22 -36 13 8 13 11 1 19 -7 5 -10 14 -7
20 9 14 5 14 -16 -3z"/>
<path d="M1080 1391 c0 -18 17 -20 36 -6 18 14 18 14 -8 15 -16 0 -28 -4 -28
-9z"/>
<path d="M755 1370 c-3 -5 -1 -18 4 -27 6 -10 11 -13 11 -6 0 6 3 18 6 27 7
17 -11 22 -21 6z"/>
<path d="M1038 1353 c-24 -6 -23 -23 1 -23 10 0 21 7 25 15 6 15 4 16 -26 8z"/>
<path d="M1140 1340 c0 -5 5 -10 11 -10 5 0 7 5 4 10 -3 6 -8 10 -11 10 -2 0
-4 -4 -4 -10z"/>
<path d="M1170 1327 c0 -9 13 -11 43 -8 33 3 38 5 22 12 -31 12 -65 10 -65 -4z"/>
<path d="M845 1310 c3 -5 8 -10 11 -10 2 0 4 5 4 10 0 6 -5 10 -11 10 -5 0 -7
-4 -4 -10z"/>
<path d="M3618 1243 c7 -3 16 -2 19 1 4 3 -2 6 -13 5 -11 0 -14 -3 -6 -6z"/>
<path d="M3985 1240 c3 -5 8 -10 11 -10 2 0 4 5 4 10 0 6 -5 10 -11 10 -5 0
-7 -4 -4 -10z"/>
<path d="M3850 1214 c-15 -38 -12 -56 8 -52 12 2 18 14 20 41 4 43 -14 50 -28
11z"/>
<path d="M3610 1175 c-7 -9 -9 -19 -5 -23 4 -4 10 -2 12 4 2 7 13 10 24 7 15
-4 18 -2 13 11 -8 20 -28 21 -44 1z"/>
<path d="M1430 1140 c0 -5 5 -10 10 -10 6 0 10 5 10 10 0 6 -4 10 -10 10 -5 0
-10 -4 -10 -10z"/>
<path d="M1030 1100 c-12 -8 -9 -10 13 -10 16 0 26 4 22 10 -8 12 -16 12 -35
0z"/>
<path d="M3578 1103 c-20 -5 -23 -18 -8 -28 12 -7 40 12 40 26 0 9 -4 10 -32
2z"/>
<path d="M2738 1083 c7 -3 16 -2 19 1 4 3 -2 6 -13 5 -11 0 -14 -3 -6 -6z"/>
<path d="M1255 1060 c3 -5 8 -10 11 -10 2 0 4 5 4 10 0 6 -5 10 -11 10 -5 0
-7 -4 -4 -10z"/>
<path d="M1298 1053 c7 -3 16 -2 19 1 4 3 -2 6 -13 5 -11 0 -14 -3 -6 -6z"/>
<path d="M2645 1050 c3 -5 13 -10 21 -10 8 0 12 5 9 10 -3 6 -13 10 -21 10 -8
0 -12 -4 -9 -10z"/>
<path d="M2700 1050 c0 -5 7 -10 15 -10 8 0 15 5 15 10 0 6 -7 10 -15 10 -8 0
-15 -4 -15 -10z"/>
<path d="M1935 1040 c3 -5 10 -10 16 -10 5 0 9 5 9 10 0 6 -7 10 -16 10 -8 0
-12 -4 -9 -10z"/>
<path d="M1887 1033 c-12 -12 -7 -22 8 -17 8 4 15 10 15 15 0 11 -14 12 -23 2z"/>
<path d="M2850 1029 c0 -5 4 -8 9 -5 5 3 14 -1 21 -9 7 -8 24 -15 39 -15 22 1
24 2 8 11 -9 5 -21 8 -26 5 -5 -3 -14 1 -21 9 -14 17 -30 20 -30 4z"/>
<path d="M2780 1010 c0 -5 9 -10 21 -10 11 0 17 5 14 10 -3 6 -13 10 -21 10
-8 0 -14 -4 -14 -10z"/>
<path d="M722 998 c3 -7 13 -15 23 -17 17 -3 17 -2 3 13 -20 19 -31 21 -26 4z"/>
<path d="M1020 1000 c0 -5 6 -10 14 -10 8 0 18 5 21 10 3 6 -3 10 -14 10 -12
0 -21 -4 -21 -10z"/>
<path d="M1086 1002 c-3 -6 -1 -14 5 -17 14 -9 20 -2 10 14 -6 8 -11 9 -15 3z"/>
<path d="M910 981 c0 -6 4 -13 10 -16 6 -3 7 1 4 9 -7 18 -14 21 -14 7z"/>
<path d="M1653 982 c-24 -2 -43 -7 -43 -13 0 -5 -13 -9 -30 -9 -16 0 -30 -4
-30 -9 0 -18 38 -18 76 0 22 9 50 16 64 14 90 -14 142 -15 138 -3 -5 14 -104
25 -175 20z"/>
<path d="M3092 962 c-18 -12 34 -35 60 -26 15 4 17 9 7 20 -13 15 -47 18 -67
6z"/>
<path d="M1050 920 c-15 -10 -15 -10 25 -10 3 0 5 3 6 7 1 12 -15 13 -31 3z"/>
<path d="M2920 922 c1 -23 20 -34 51 -29 34 5 96 -16 111 -37 5 -7 8 -7 8 2 0
8 8 10 25 6 21 -5 25 -3 25 15 0 16 -6 21 -27 21 -16 0 -44 4 -63 9 -53 14
-130 22 -130 13z"/>
<path d="M1513 903 c-7 -19 -6 -20 55 -28 35 -5 52 -3 52 4 0 6 -9 11 -19 11
-11 0 -22 4 -25 9 -10 16 -57 19 -63 4z"/>
<path d="M2840 909 c0 -5 5 -7 10 -4 6 3 10 8 10 11 0 2 -4 4 -10 4 -5 0 -10
-5 -10 -11z"/>
<path d="M3822 878 c-16 -16 -15 -28 3 -28 8 0 15 9 15 20 0 23 -2 24 -18 8z"/>
<path d="M1690 869 c0 -5 11 -9 25 -9 14 0 25 2 25 4 0 2 -11 6 -25 8 -14 3
-25 1 -25 -3z"/>
<path d="M3159 878 c-12 -43 -6 -56 30 -63 13 -2 22 3 27 17 7 24 -12 40 -40
32 -12 -4 -16 -2 -12 5 4 6 5 11 2 11 -3 0 -6 -1 -7 -2z"/>
<path d="M965 850 c3 -5 8 -10 11 -10 2 0 4 5 4 10 0 6 -5 10 -11 10 -5 0 -7
-4 -4 -10z"/>
<path d="M1040 837 c-25 -10 -25 -10 -2 -14 12 -3 31 -3 42 -1 20 3 20 4 3 14
-13 8 -26 8 -43 1z"/>
<path d="M2647 843 c-22 -6 -17 -27 8 -31 18 -4 37 16 29 30 -5 8 -8 8 -37 1z"/>
<path d="M2480 807 c-23 -12 -35 -37 -17 -37 4 0 18 0 32 0 22 0 24 3 15 19
-7 14 -6 21 3 24 6 3 8 6 2 6 -5 0 -21 -5 -35 -12z"/>
<path d="M2190 799 c0 -5 5 -7 10 -4 6 3 10 8 10 11 0 2 -4 4 -10 4 -5 0 -10
-5 -10 -11z"/>
<path d="M1060 790 c0 -5 7 -10 16 -10 8 0 12 5 9 10 -3 6 -10 10 -16 10 -5 0
-9 -4 -9 -10z"/>
<path d="M2808 768 c-41 -14 -34 -28 12 -28 28 0 40 4 40 14 0 19 -20 25 -52
14z"/>
<path d="M3345 767 c-45 -26 -45 -27 -24 -48 11 -11 25 -17 32 -12 7 4 20 6
30 5 9 -2 17 2 17 7 0 6 -6 11 -14 11 -9 0 -12 8 -8 25 5 27 -2 29 -33 12z"/>
<path d="M3260 750 c0 -5 4 -10 9 -10 6 0 13 5 16 10 3 6 -1 10 -9 10 -9 0
-16 -4 -16 -10z"/>
<path d="M1750 730 c0 -5 6 -10 14 -10 28 0 29 -23 4 -44 -17 -14 -24 -27 -19
-38 5 -15 10 -16 30 -5 14 7 32 26 41 42 18 31 19 31 100 20 l45 -6 -25 21
c-19 17 -32 21 -62 16 -23 -4 -38 -2 -38 4 0 5 -20 10 -45 10 -25 0 -45 -4
-45 -10z"/>
<path d="M1633 723 c-32 -6 -29 -19 5 -17 53 2 62 4 62 14 0 10 -25 11 -67 3z"/>
<path d="M1145 713 c-30 -7 -43 -23 -18 -23 11 0 26 7 33 15 7 8 11 14 9 14
-2 -1 -13 -3 -24 -6z"/>
<path d="M2650 710 c0 -5 6 -10 14 -10 8 0 18 5 21 10 3 6 -3 10 -14 10 -12 0
-21 -4 -21 -10z"/>
<path d="M2724 709 c-6 -10 -7 -10 24 -13 12 -2 22 1 22 5 0 11 -39 18 -46 8z"/>
<path d="M1190 700 c0 -5 5 -10 10 -10 6 0 10 5 10 10 0 6 -4 10 -10 10 -5 0
-10 -4 -10 -10z"/>
<path d="M3272 701 c-11 -7 -11 -9 0 -13 18 -7 39 2 32 13 -6 11 -15 11 -32 0z"/>
<path d="M1340 680 c-23 -7 -23 -8 -3 -9 12 -1 25 4 28 9 3 6 5 10 3 9 -2 -1
-14 -5 -28 -9z"/>
<path d="M3208 683 c7 -3 16 -2 19 1 4 3 -2 6 -13 5 -11 0 -14 -3 -6 -6z"/>
<path d="M3500 664 c0 -3 7 -12 15 -20 16 -17 18 -14 9 10 -6 15 -24 23 -24
10z"/>
<path d="M1560 633 c-13 -3 -34 -12 -45 -20 -19 -15 -19 -15 5 -8 14 3 36 8
50 9 38 4 40 5 40 16 0 10 -7 11 -50 3z"/>
<path d="M1825 630 c-10 -16 16 -43 28 -31 11 11 2 41 -12 41 -5 0 -13 -5 -16
-10z"/>
<path d="M1670 620 c0 -5 14 -10 30 -10 17 0 30 4 30 8 0 4 -13 9 -30 10 -16
1 -30 -2 -30 -8z"/>
<path d="M2180 584 c0 -15 62 -29 87 -20 26 10 1 27 -46 30 -29 2 -41 -1 -41
-10z"/>
<path d="M3495 580 c-18 -12 -24 -20 -14 -20 18 0 56 26 49 34 -3 3 -19 -4
-35 -14z"/>
<path d="M3560 571 c0 -11 5 -23 10 -26 6 -3 10 3 10 14 0 11 -4 23 -10 26 -5
3 -10 -3 -10 -14z"/>
<path d="M3391 571 c-8 -6 -9 -11 -3 -15 6 -3 14 -1 17 5 9 14 2 20 -14 10z"/>
<path d="M1350 560 c0 -6 7 -10 15 -10 8 0 15 2 15 4 0 2 -7 6 -15 10 -8 3
-15 1 -15 -4z"/>
<path d="M2070 560 c-11 -7 -12 -12 -3 -21 14 -14 46 -4 41 13 -6 16 -20 19
-38 8z"/>
<path d="M2515 560 c-4 -6 5 -10 20 -10 15 0 24 4 20 10 -3 6 -12 10 -20 10
-8 0 -17 -4 -20 -10z"/>
<path d="M2905 560 c-4 -6 8 -10 29 -10 20 0 36 5 36 10 0 6 -13 10 -29 10
-17 0 -33 -4 -36 -10z"/>
<path d="M3331 561 c-36 -10 -37 -28 -1 -23 17 2 30 10 30 18 0 8 -1 14 -2 13
-2 -1 -14 -4 -27 -8z"/>
<path d="M2590 550 c0 -5 5 -10 10 -10 6 0 10 5 10 10 0 6 -4 10 -10 10 -5 0
-10 -4 -10 -10z"/>
<path d="M2720 551 c0 -6 5 -13 10 -16 6 -3 10 1 10 9 0 9 -4 16 -10 16 -5 0
-10 -4 -10 -9z"/>
<path d="M3100 549 c-14 -4 -23 -7 -20 -8 3 -1 20 -5 38 -11 31 -8 33 -8 21 8
-7 9 -13 17 -14 18 0 0 -11 -3 -25 -7z"/>
<path d="M3228 553 c6 -2 18 -2 25 0 6 3 1 5 -13 5 -14 0 -19 -2 -12 -5z"/>
<path d="M3145 506 c-31 -9 -36 -13 -22 -19 9 -3 28 -1 42 5 14 6 28 8 31 5
12 -12 -6 -37 -26 -37 -28 0 -25 -25 6 -39 31 -14 44 -7 44 23 0 28 24 50 45
42 8 -3 15 -1 15 5 0 7 -13 9 -35 5 -28 -6 -35 -4 -35 9 0 18 -11 18 -65 1z"/>
<path d="M3563 479 c-44 -41 -51 -55 -32 -61 5 -2 7 -11 4 -20 -4 -10 -13 -14
-22 -11 -11 4 -14 2 -9 -5 8 -13 52 -6 74 11 9 7 16 5 25 -6 14 -17 97 -28 97
-12 0 5 -20 27 -45 48 -29 26 -45 48 -47 67 l-3 29 -42 -40z m7 -54 c0 -8 -4
-15 -10 -15 -5 0 -10 7 -10 15 0 8 5 15 10 15 6 0 10 -7 10 -15z m70 -15 c0
-5 -4 -10 -10 -10 -5 0 -10 5 -10 10 0 6 5 10 10 10 6 0 10 -4 10 -10z"/>
<path d="M1890 496 c0 -10 9 -16 21 -16 24 0 21 23 -4 28 -10 2 -17 -3 -17
-12z"/>
<path d="M2300 503 c1 -18 18 -35 24 -24 4 6 4 16 1 21 -7 12 -25 13 -25 3z"/>
<path d="M1852 449 c-7 -11 -10 -29 -7 -40 4 -13 2 -19 -9 -19 -9 0 -16 -4
-16 -10 0 -5 -14 -10 -31 -10 -27 0 -29 -2 -15 -15 20 -21 26 -19 71 20 22 19
48 35 57 35 10 0 18 5 18 10 0 6 9 10 20 10 24 0 26 13 4 31 -11 9 -17 10 -23
1 -4 -7 -12 -8 -21 -2 -23 15 -34 12 -48 -11z"/>
<path d="M2511 461 c-18 -12 -5 -31 20 -31 14 0 19 6 17 17 -4 20 -18 26 -37
14z"/>
<path d="M2030 450 c-8 -5 -12 -12 -9 -15 4 -3 12 1 19 10 14 17 11 19 -10 5z"/>
<path d="M2236 445 c4 -8 10 -12 15 -9 14 8 10 24 -6 24 -9 0 -12 -6 -9 -15z"/>
<path d="M3015 450 c-19 -7 -19 -7 3 -14 25 -8 27 -17 10 -34 -8 -8 -8 -12 -1
-12 17 0 36 27 23 35 -6 3 -8 10 -5 15 8 13 -8 18 -30 10z"/>
<path d="M3095 440 c3 -5 13 -10 21 -10 8 0 12 5 9 10 -3 6 -13 10 -21 10 -8
0 -12 -4 -9 -10z"/>
<path d="M2910 431 c0 -16 38 -29 67 -23 25 5 32 22 9 22 -7 0 -28 3 -45 6
-20 4 -31 3 -31 -5z"/>
<path d="M2370 410 c0 -5 7 -10 15 -10 8 0 15 5 15 10 0 6 -7 10 -15 10 -8 0
-15 -4 -15 -10z"/>
<path d="M3158 388 c6 -6 18 -8 28 -6 14 3 12 5 -9 10 -19 3 -25 2 -19 -4z"/>
<path d="M3364 390 c-14 -6 -21 -17 -21 -34 0 -23 4 -26 31 -25 17 0 39 3 48
7 14 6 13 10 -10 33 -21 20 -32 25 -48 19z"/>
<path d="M1337 373 c-14 -13 -6 -24 15 -21 27 4 36 28 11 28 -11 0 -23 -3 -26
-7z"/>
<path d="M3080 370 c8 -5 24 -9 35 -9 l20 0 -20 9 c-11 5 -27 9 -35 9 -13 1
-13 0 0 -9z"/>
<path d="M3010 360 c0 -5 4 -10 9 -10 5 0 18 -3 28 -7 16 -6 16 -5 4 10 -15
19 -41 23 -41 7z"/>
<path d="M3570 356 c0 -15 18 -31 26 -23 7 7 -7 37 -17 37 -5 0 -9 -6 -9 -14z"/>
<path d="M3930 75 c0 -8 5 -15 10 -15 6 0 10 7 10 15 0 8 -4 15 -10 15 -5 0
-10 -7 -10 -15z"/>
<path d="M3845 70 c3 -5 8 -10 11 -10 2 0 4 5 4 10 0 6 -5 10 -11 10 -5 0 -7
-4 -4 -10z"/>
</g>
</svg>
