<svg width="2403" height="1467" xmlns="http://www.w3.org/2000/svg" xmlns:xlink="http://www.w3.org/1999/xlink" xml:space="preserve" overflow="hidden"><defs><clipPath id="clip0"><rect x="2708" y="633" width="2403" height="1467"/></clipPath></defs><g clip-path="url(#clip0)" transform="translate(-2708 -633)"><rect x="2709" y="634" width="2400" height="1464" fill="#FFFFFF"/><g><path d="M2839.5 1860.56 5058.5 1860.56M2839.5 1729.56 5058.5 1729.56M2839.5 1598.55 5058.5 1598.55M2839.5 1467.55 5058.5 1467.55M2839.5 1336.54 5058.5 1336.54M2839.5 1205.54 5058.5 1205.54M2839.5 1074.54 5058.5 1074.54M2839.5 943.531 5058.5 943.531M2839.5 812.5 5058.5 812.5" stroke="#D9D9D9" stroke-width="3.4375" stroke-linejoin="round" stroke-miterlimit="10" fill="none"/></g><g><path d="M2839.5 1991.5 5058.5 1991.5" stroke="#D9D9D9" stroke-width="3.4375" stroke-linejoin="round" stroke-miterlimit="10" fill="none" fill-rule="evenodd"/></g><g><path d="M3960.51 956.537C3960.51 962.612 3955.58 967.537 3949.51 967.537 3943.43 967.537 3938.51 962.612 3938.51 956.537 3938.51 950.462 3943.43 945.537 3949.51 945.537 3955.58 945.537 3960.51 950.462 3960.51 956.537Z" stroke="#255E91" stroke-width="3.4375" stroke-linejoin="round" stroke-miterlimit="10" fill="#255E91"/></g><g><text fill="#404040" font-family="Calibri,Calibri_MSFontService,sans-serif" font-weight="400" font-size="41" transform="matrix(1 0 0 1 3917.75 913)">395</text></g><g><text fill="#595959" font-family="Calibri,Calibri_MSFontService,sans-serif" font-weight="400" font-size="41" transform="matrix(1 0 0 1 2780.6 2003)">0</text></g><g><text fill="#595959" font-family="Calibri,Calibri_MSFontService,sans-serif" font-weight="400" font-size="41" transform="matrix(1 0 0 1 2759.7 1872)">50</text></g><g><text fill="#595959" font-family="Calibri,Calibri_MSFontService,sans-serif" font-weight="400" font-size="41" transform="matrix(1 0 0 1 2738.8 1741)">100</text></g><g><text fill="#595959" font-family="Calibri,Calibri_MSFontService,sans-serif" font-weight="400" font-size="41" transform="matrix(1 0 0 1 2738.8 1610)">150</text></g><g><text fill="#595959" font-family="Calibri,Calibri_MSFontService,sans-serif" font-weight="400" font-size="41" transform="matrix(1 0 0 1 2738.8 1479)">200</text></g><g><text fill="#595959" font-family="Calibri,Calibri_MSFontService,sans-serif" font-weight="400" font-size="41" transform="matrix(1 0 0 1 2738.8 1348)">250</text></g><g><text fill="#595959" font-family="Calibri,Calibri_MSFontService,sans-serif" font-weight="400" font-size="41" transform="matrix(1 0 0 1 2738.8 1217)">300</text></g><g><text fill="#595959" font-family="Calibri,Calibri_MSFontService,sans-serif" font-weight="400" font-size="41" transform="matrix(1 0 0 1 2738.8 1086)">350</text></g><g><text fill="#595959" font-family="Calibri,Calibri_MSFontService,sans-serif" font-weight="400" font-size="41" transform="matrix(1 0 0 1 2738.8 955)">400</text></g><g><text fill="#595959" font-family="Calibri,Calibri_MSFontService,sans-serif" font-weight="400" font-size="41" transform="matrix(1 0 0 1 2738.8 824)">450</text></g><g><text fill="#595959" font-family="Calibri,Calibri_MSFontService,sans-serif" font-weight="400" font-size="41" transform="matrix(1 0 0 1 3907.87 2056)">312a</text></g><g><text fill="#595959" font-family="DengXian,DengXian_MSFontService,sans-serif" font-weight="400" font-size="64" transform="matrix(1 0 0 1 3748.51 730)">总分折线图</text></g><rect x="2709.5" y="634.5" width="2400" height="1464" stroke="#D9D9D9" stroke-width="3.4375" stroke-linejoin="round" stroke-miterlimit="10" fill="none"/></g></svg>