<svg width="2498" height="1488" xmlns="http://www.w3.org/2000/svg" xmlns:xlink="http://www.w3.org/1999/xlink" xml:space="preserve" overflow="hidden"><defs><clipPath id="clip0"><rect x="229" y="459" width="2498" height="1488"/></clipPath></defs><g clip-path="url(#clip0)" transform="translate(-229 -459)"><rect x="230" y="460" width="2495" height="1485" fill="#FFFFFF"/><g><path d="M339.5 1596.55 2675.5 1596.55M339.5 1459.55 2675.5 1459.55M339.5 1322.54 2675.5 1322.54M339.5 1185.54 2675.5 1185.54M339.5 1048.53 2675.5 1048.53M339.5 912.53 2675.5 912.53M339.5 775.526 2675.5 775.526M339.5 638.5 2675.5 638.5" stroke="#D9D9D9" stroke-width="3.4375" stroke-linejoin="round" stroke-miterlimit="10" fill="none"/></g><g><path d="M339.5 1733.5 2675.5 1733.5" stroke="#D9D9D9" stroke-width="3.4375" stroke-linejoin="round" stroke-miterlimit="10" fill="none" fill-rule="evenodd"/></g><g><path d="M924 1241 2091 748" stroke="#5B9BD5" stroke-width="10.3125" stroke-linecap="round" stroke-linejoin="round" stroke-miterlimit="10" fill="none"/></g><g><path d="M934.321 1240.14C934.321 1246.22 929.396 1251.14 923.321 1251.14 917.246 1251.14 912.322 1246.22 912.322 1240.14 912.322 1234.07 917.246 1229.14 923.321 1229.14 929.396 1229.14 934.321 1234.07 934.321 1240.14Z" stroke="#5B9BD5" stroke-width="3.4375" stroke-linejoin="round" stroke-miterlimit="10" fill="#5B9BD5"/><path d="M2102.32 747.143C2102.32 753.218 2097.4 758.143 2091.32 758.143 2085.25 758.143 2080.32 753.218 2080.32 747.143 2080.32 741.068 2085.25 736.143 2091.32 736.143 2097.4 736.143 2102.32 741.068 2102.32 747.143Z" stroke="#5B9BD5" stroke-width="3.4375" stroke-linejoin="round" stroke-miterlimit="10" fill="#5B9BD5"/></g><g><text fill="#595959" font-family="Calibri,Calibri_MSFontService,sans-serif" font-weight="400" font-size="41" transform="matrix(1 0 0 1 280.513 1745)">0</text></g><g><text fill="#595959" font-family="Calibri,Calibri_MSFontService,sans-serif" font-weight="400" font-size="41" transform="matrix(1 0 0 1 259.613 1608)">10</text></g><g><text fill="#595959" font-family="Calibri,Calibri_MSFontService,sans-serif" font-weight="400" font-size="41" transform="matrix(1 0 0 1 259.613 1471)">20</text></g><g><text fill="#595959" font-family="Calibri,Calibri_MSFontService,sans-serif" font-weight="400" font-size="41" transform="matrix(1 0 0 1 259.613 1334)">30</text></g><g><text fill="#595959" font-family="Calibri,Calibri_MSFontService,sans-serif" font-weight="400" font-size="41" transform="matrix(1 0 0 1 259.613 1197)">40</text></g><g><text fill="#595959" font-family="Calibri,Calibri_MSFontService,sans-serif" font-weight="400" font-size="41" transform="matrix(1 0 0 1 259.613 1060)">50</text></g><g><text fill="#595959" font-family="Calibri,Calibri_MSFontService,sans-serif" font-weight="400" font-size="41" transform="matrix(1 0 0 1 259.613 924)">60</text></g><g><text fill="#595959" font-family="Calibri,Calibri_MSFontService,sans-serif" font-weight="400" font-size="41" transform="matrix(1 0 0 1 259.613 787)">70</text></g><g><text fill="#595959" font-family="Calibri,Calibri_MSFontService,sans-serif" font-weight="400" font-size="41" transform="matrix(1 0 0 1 259.613 650)">80</text></g><g><text fill="#595959" font-family="Calibri,Calibri_MSFontService,sans-serif" font-weight="400" font-size="41" transform="matrix(1 0 0 1 882.291 1799)">312a</text></g><g><text fill="#595959" font-family="Calibri,Calibri_MSFontService,sans-serif" font-weight="400" font-size="41" transform="matrix(1 0 0 1 2038.55 1799)">403b1</text></g><g><text fill="#595959" font-family="DengXian,DengXian_MSFontService,sans-serif" font-weight="400" font-size="64" transform="matrix(1 0 0 1 1413.47 556)">生物</text></g><g><path d="M1396 1878 1484 1878" stroke="#5B9BD5" stroke-width="10.3125" stroke-linecap="round" stroke-linejoin="round" stroke-miterlimit="10" fill="none" fill-rule="evenodd"/></g><g><path d="M1450 1878C1450 1884.07 1445.08 1889 1439 1889 1432.93 1889 1428 1884.07 1428 1878 1428 1871.92 1432.93 1867 1439 1867 1445.08 1867 1450 1871.92 1450 1878Z" stroke="#5B9BD5" stroke-width="3.4375" stroke-linejoin="round" stroke-miterlimit="10" fill="#5B9BD5"/></g><g><text fill="#595959" font-family="DengXian,DengXian_MSFontService,sans-serif" font-weight="400" font-size="41" transform="matrix(1 0 0 1 1493.1 1888)">分数</text></g><rect x="230.5" y="460.5" width="2495" height="1485" stroke="#D9D9D9" stroke-width="3.4375" stroke-linejoin="round" stroke-miterlimit="10" fill="none"/></g></svg>