<svg width="2476" height="1479" xmlns="http://www.w3.org/2000/svg" xmlns:xlink="http://www.w3.org/1999/xlink" xml:space="preserve" overflow="hidden"><defs><clipPath id="clip0"><rect x="223" y="377" width="2476" height="1479"/></clipPath></defs><g clip-path="url(#clip0)" transform="translate(-223 -377)"><rect x="224" y="378" width="2473" height="1476" fill="#FFFFFF"/><g><path d="M354.5 1542.55 2646.5 1542.55M354.5 1441.55 2646.5 1441.55M354.5 1340.54 2646.5 1340.54M354.5 1239.54 2646.5 1239.54M354.5 1139.54 2646.5 1139.54M354.5 1038.53 2646.5 1038.53M354.5 937.531 2646.5 937.531M354.5 836.528 2646.5 836.528M354.5 735.524 2646.5 735.524M354.5 635.5 2646.5 635.5" stroke="#D9D9D9" stroke-width="3.4375" stroke-linejoin="round" stroke-miterlimit="10" fill="none"/></g><g><path d="M354.5 1643.5 2646.5 1643.5" stroke="#D9D9D9" stroke-width="3.4375" stroke-linejoin="round" stroke-miterlimit="10" fill="none" fill-rule="evenodd"/></g><g><path d="M737 1643 1501.05 857.028 2265 736" stroke="#5B9BD5" stroke-width="10.3125" stroke-linecap="round" stroke-linejoin="round" stroke-miterlimit="10" fill="none"/></g><g><path d="M747.428 1643.62C747.428 1649.7 742.503 1654.62 736.428 1654.62 730.353 1654.62 725.428 1649.7 725.428 1643.62 725.428 1637.55 730.353 1632.62 736.428 1632.62 742.503 1632.62 747.428 1637.55 747.428 1643.62Z" stroke="#5B9BD5" stroke-width="3.4375" stroke-linejoin="round" stroke-miterlimit="10" fill="#5B9BD5"/><path d="M1511.43 856.624C1511.43 862.699 1506.5 867.624 1500.43 867.624 1494.35 867.624 1489.43 862.699 1489.43 856.624 1489.43 850.549 1494.35 845.625 1500.43 845.625 1506.5 845.625 1511.43 850.549 1511.43 856.624Z" stroke="#5B9BD5" stroke-width="3.4375" stroke-linejoin="round" stroke-miterlimit="10" fill="#5B9BD5"/><path d="M2275.43 735.624C2275.43 741.699 2270.5 746.624 2264.43 746.624 2258.35 746.624 2253.43 741.699 2253.43 735.624 2253.43 729.549 2258.35 724.625 2264.43 724.625 2270.5 724.625 2275.43 729.549 2275.43 735.624Z" stroke="#5B9BD5" stroke-width="3.4375" stroke-linejoin="round" stroke-miterlimit="10" fill="#5B9BD5"/></g><g><path d="M737 1643 1501.05 1532 2265 1562.05" stroke="#ED7D31" stroke-width="10.3125" stroke-linecap="round" stroke-linejoin="round" stroke-miterlimit="10" fill="none"/></g><g><path d="M747.428 1643.62C747.428 1649.7 742.503 1654.62 736.428 1654.62 730.353 1654.62 725.428 1649.7 725.428 1643.62 725.428 1637.55 730.353 1632.62 736.428 1632.62 742.503 1632.62 747.428 1637.55 747.428 1643.62Z" stroke="#ED7D31" stroke-width="3.4375" stroke-linejoin="round" stroke-miterlimit="10" fill="#ED7D31"/><path d="M1511.43 1532.62C1511.43 1538.7 1506.5 1543.62 1500.43 1543.62 1494.35 1543.62 1489.43 1538.7 1489.43 1532.62 1489.43 1526.55 1494.35 1521.62 1500.43 1521.62 1506.5 1521.62 1511.43 1526.55 1511.43 1532.62Z" stroke="#ED7D31" stroke-width="3.4375" stroke-linejoin="round" stroke-miterlimit="10" fill="#ED7D31"/><path d="M2275.43 1562.62C2275.43 1568.7 2270.5 1573.62 2264.43 1573.62 2258.35 1573.62 2253.43 1568.7 2253.43 1562.62 2253.43 1556.55 2258.35 1551.62 2264.43 1551.62 2270.5 1551.62 2275.43 1556.55 2275.43 1562.62Z" stroke="#ED7D31" stroke-width="3.4375" stroke-linejoin="round" stroke-miterlimit="10" fill="#ED7D31"/></g><g><path d="M737 1643 1501.05 1532 2265 1623.05" stroke="#A5A5A5" stroke-width="10.3125" stroke-linecap="round" stroke-linejoin="round" stroke-miterlimit="10" fill="none"/></g><g><path d="M747.428 1643.62C747.428 1649.7 742.503 1654.62 736.428 1654.62 730.353 1654.62 725.428 1649.7 725.428 1643.62 725.428 1637.55 730.353 1632.62 736.428 1632.62 742.503 1632.62 747.428 1637.55 747.428 1643.62Z" stroke="#A5A5A5" stroke-width="3.4375" stroke-linejoin="round" stroke-miterlimit="10" fill="#A5A5A5"/><path d="M1511.43 1532.62C1511.43 1538.7 1506.5 1543.62 1500.43 1543.62 1494.35 1543.62 1489.43 1538.7 1489.43 1532.62 1489.43 1526.55 1494.35 1521.62 1500.43 1521.62 1506.5 1521.62 1511.43 1526.55 1511.43 1532.62Z" stroke="#A5A5A5" stroke-width="3.4375" stroke-linejoin="round" stroke-miterlimit="10" fill="#A5A5A5"/><path d="M2275.43 1622.62C2275.43 1628.7 2270.5 1633.62 2264.43 1633.62 2258.35 1633.62 2253.43 1628.7 2253.43 1622.62 2253.43 1616.55 2258.35 1611.62 2264.43 1611.62 2270.5 1611.62 2275.43 1616.55 2275.43 1622.62Z" stroke="#A5A5A5" stroke-width="3.4375" stroke-linejoin="round" stroke-miterlimit="10" fill="#A5A5A5"/></g><g><text fill="#595959" font-family="Calibri,Calibri_MSFontService,sans-serif" font-weight="400" font-size="41" transform="matrix(1 0 0 1 295.52 1655)">0</text></g><g><text fill="#595959" font-family="Calibri,Calibri_MSFontService,sans-serif" font-weight="400" font-size="41" transform="matrix(1 0 0 1 274.62 1554)">10</text></g><g><text fill="#595959" font-family="Calibri,Calibri_MSFontService,sans-serif" font-weight="400" font-size="41" transform="matrix(1 0 0 1 274.62 1453)">20</text></g><g><text fill="#595959" font-family="Calibri,Calibri_MSFontService,sans-serif" font-weight="400" font-size="41" transform="matrix(1 0 0 1 274.62 1352)">30</text></g><g><text fill="#595959" font-family="Calibri,Calibri_MSFontService,sans-serif" font-weight="400" font-size="41" transform="matrix(1 0 0 1 274.62 1251)">40</text></g><g><text fill="#595959" font-family="Calibri,Calibri_MSFontService,sans-serif" font-weight="400" font-size="41" transform="matrix(1 0 0 1 274.62 1151)">50</text></g><g><text fill="#595959" font-family="Calibri,Calibri_MSFontService,sans-serif" font-weight="400" font-size="41" transform="matrix(1 0 0 1 274.62 1050)">60</text></g><g><text fill="#595959" font-family="Calibri,Calibri_MSFontService,sans-serif" font-weight="400" font-size="41" transform="matrix(1 0 0 1 274.62 949)">70</text></g><g><text fill="#595959" font-family="Calibri,Calibri_MSFontService,sans-serif" font-weight="400" font-size="41" transform="matrix(1 0 0 1 274.62 848)">80</text></g><g><text fill="#595959" font-family="Calibri,Calibri_MSFontService,sans-serif" font-weight="400" font-size="41" transform="matrix(1 0 0 1 274.62 747)">90</text></g><g><text fill="#595959" font-family="Calibri,Calibri_MSFontService,sans-serif" font-weight="400" font-size="41" transform="matrix(1 0 0 1 253.72 647)">100</text></g><g><text fill="#595959" font-family="Calibri,Calibri_MSFontService,sans-serif" font-weight="400" font-size="41" transform="matrix(1 0 0 1 695.437 1708)">312a</text></g><g><text fill="#595959" font-family="Calibri,Calibri_MSFontService,sans-serif" font-weight="400" font-size="41" transform="matrix(1 0 0 1 1447.98 1708)">403b1</text></g><g><text fill="#595959" font-family="Calibri,Calibri_MSFontService,sans-serif" font-weight="400" font-size="41" transform="matrix(1 0 0 1 2211.93 1708)">403b2</text></g><g><text fill="#595959" font-family="DengXian,DengXian_MSFontService,sans-serif" font-weight="400" font-size="64" transform="matrix(1 0 0 1 1396.28 474)">化学</text></g><g><path d="M953 1788 1041 1788" stroke="#5B9BD5" stroke-width="10.3125" stroke-linecap="round" stroke-linejoin="round" stroke-miterlimit="10" fill="none" fill-rule="evenodd"/></g><g><path d="M1008 1788C1008 1794.07 1003.08 1799 997 1799 990.925 1799 986 1794.07 986 1788 986 1781.92 990.925 1777 997 1777 1003.08 1777 1008 1781.92 1008 1788Z" stroke="#5B9BD5" stroke-width="3.4375" stroke-linejoin="round" stroke-miterlimit="10" fill="#5B9BD5"/></g><g><text fill="#595959" font-family="DengXian,DengXian_MSFontService,sans-serif" font-weight="400" font-size="41" transform="matrix(1 0 0 1 1050.35 1798)">分数</text></g><g><path d="M1193 1788 1281 1788" stroke="#ED7D31" stroke-width="10.3125" stroke-linecap="round" stroke-linejoin="round" stroke-miterlimit="10" fill="none" fill-rule="evenodd"/></g><g><path d="M1248 1788C1248 1794.07 1243.08 1799 1237 1799 1230.93 1799 1226 1794.07 1226 1788 1226 1781.92 1230.93 1777 1237 1777 1243.08 1777 1248 1781.92 1248 1788Z" stroke="#ED7D31" stroke-width="3.4375" stroke-linejoin="round" stroke-miterlimit="10" fill="#ED7D31"/></g><g><text fill="#595959" font-family="DengXian,DengXian_MSFontService,sans-serif" font-weight="400" font-size="41" transform="matrix(1 0 0 1 1290.29 1798)">非能力因素失分</text></g><g><path d="M1639 1788 1727 1788" stroke="#A5A5A5" stroke-width="10.3125" stroke-linecap="round" stroke-linejoin="round" stroke-miterlimit="10" fill="none" fill-rule="evenodd"/></g><g><path d="M1694.02 1788C1694.02 1794.07 1689.31 1799 1683.5 1799 1677.69 1799 1672.98 1794.07 1672.98 1788 1672.98 1781.92 1677.69 1777 1683.5 1777 1689.31 1777 1694.02 1781.92 1694.02 1788Z" stroke="#A5A5A5" stroke-width="3.4375" stroke-linejoin="round" stroke-miterlimit="10" fill="#A5A5A5"/></g><g><text fill="#595959" font-family="DengXian,DengXian_MSFontService,sans-serif" font-weight="400" font-size="41" transform="matrix(1 0 0 1 1736.48 1798)">能力因素失分</text></g><rect x="224.5" y="378.5" width="2473" height="1476" stroke="#D9D9D9" stroke-width="3.4375" stroke-linejoin="round" stroke-miterlimit="10" fill="none"/></g></svg>