<svg width="2405" height="1361" xmlns="http://www.w3.org/2000/svg" xmlns:xlink="http://www.w3.org/1999/xlink" xml:space="preserve" overflow="hidden"><defs><clipPath id="clip0"><rect x="459" y="489" width="2405" height="1361"/></clipPath></defs><g clip-path="url(#clip0)" transform="translate(-459 -489)"><rect x="460" y="490" width="2402" height="1358" fill="#FFFFFF"/><g><path d="M590.5 1475.55 2811.5 1475.55M590.5 1314.54 2811.5 1314.54M590.5 1152.54 2811.5 1152.54M590.5 991.533 2811.5 991.533M590.5 830.527 2811.5 830.527M590.5 668.5 2811.5 668.5" stroke="#D9D9D9" stroke-width="3.4375" stroke-linejoin="round" stroke-miterlimit="10" fill="none"/></g><g><path d="M590.5 1637.5 2811.5 1637.5" stroke="#D9D9D9" stroke-width="3.4375" stroke-linejoin="round" stroke-miterlimit="10" fill="none" fill-rule="evenodd"/></g><g><path d="M1711.14 858.589C1711.14 864.664 1706.22 869.588 1700.14 869.588 1694.07 869.588 1689.14 864.664 1689.14 858.589 1689.14 852.514 1694.07 847.589 1700.14 847.589 1706.22 847.589 1711.14 852.514 1711.14 858.589Z" stroke="#5B9BD5" stroke-width="3.4375" stroke-linejoin="round" stroke-miterlimit="10" fill="#5B9BD5"/></g><g><text fill="#595959" font-family="Calibri,Calibri_MSFontService,sans-serif" font-weight="400" font-size="41" transform="matrix(1 0 0 1 531.234 1649)">0</text></g><g><text fill="#595959" font-family="Calibri,Calibri_MSFontService,sans-serif" font-weight="400" font-size="41" transform="matrix(1 0 0 1 510.334 1487)">20</text></g><g><text fill="#595959" font-family="Calibri,Calibri_MSFontService,sans-serif" font-weight="400" font-size="41" transform="matrix(1 0 0 1 510.334 1326)">40</text></g><g><text fill="#595959" font-family="Calibri,Calibri_MSFontService,sans-serif" font-weight="400" font-size="41" transform="matrix(1 0 0 1 510.334 1165)">60</text></g><g><text fill="#595959" font-family="Calibri,Calibri_MSFontService,sans-serif" font-weight="400" font-size="41" transform="matrix(1 0 0 1 510.334 1003)">80</text></g><g><text fill="#595959" font-family="Calibri,Calibri_MSFontService,sans-serif" font-weight="400" font-size="41" transform="matrix(1 0 0 1 489.434 842)">100</text></g><g><text fill="#595959" font-family="Calibri,Calibri_MSFontService,sans-serif" font-weight="400" font-size="41" transform="matrix(1 0 0 1 489.434 680)">120</text></g><g><text fill="#595959" font-family="Calibri,Calibri_MSFontService,sans-serif" font-weight="400" font-size="41" transform="matrix(1 0 0 1 1659.75 1702)">312a</text></g><g><text fill="#595959" font-family="DengXian,DengXian_MSFontService,sans-serif" font-weight="400" font-size="64" transform="matrix(1 0 0 1 1596.64 586)">语文</text></g><g><path d="M1579 1782 1667 1782" stroke="#5B9BD5" stroke-width="10.3125" stroke-linecap="round" stroke-linejoin="round" stroke-miterlimit="10" fill="none" fill-rule="evenodd"/></g><g><path d="M1633 1782.5C1633 1788.31 1628.08 1793.02 1622 1793.02 1615.93 1793.02 1611 1788.31 1611 1782.5 1611 1776.69 1615.93 1771.98 1622 1771.98 1628.08 1771.98 1633 1776.69 1633 1782.5Z" stroke="#5B9BD5" stroke-width="3.4375" stroke-linejoin="round" stroke-miterlimit="10" fill="#5B9BD5"/></g><g><text fill="#595959" font-family="DengXian,DengXian_MSFontService,sans-serif" font-weight="400" font-size="41" transform="matrix(1 0 0 1 1676.27 1792)">分数</text></g><rect x="460.5" y="490.5" width="2402" height="1358" stroke="#D9D9D9" stroke-width="3.4375" stroke-linejoin="round" stroke-miterlimit="10" fill="none"/></g></svg>