<svg width="2503" height="1476" xmlns="http://www.w3.org/2000/svg" xmlns:xlink="http://www.w3.org/1999/xlink" xml:space="preserve" overflow="hidden"><defs><clipPath id="clip0"><rect x="95" y="635" width="2503" height="1476"/></clipPath></defs><g clip-path="url(#clip0)" transform="translate(-95 -635)"><rect x="95.9999" y="636" width="2500" height="1473" fill="#FFFFFF"/><g><path d="M264.5 1805.56 2525.5 1805.56M264.5 1650.55 2525.5 1650.55M264.5 1494.55 2525.5 1494.55M264.5 1339.54 2525.5 1339.54M264.5 1184.54 2525.5 1184.54M264.5 1029.53 2525.5 1029.53M264.5 874.5 2525.5 874.5" stroke="#D9D9D9" stroke-width="3.4375" stroke-linejoin="round" stroke-miterlimit="10" fill="none"/></g><g><path d="M264.5 1960.5 2525.5 1960.5" stroke="#D9D9D9" stroke-width="3.4375" stroke-linejoin="round" stroke-miterlimit="10" fill="none" fill-rule="evenodd"/></g><g><path d="M401.68 1211.84C401.68 1217.92 396.756 1222.84 390.681 1222.84 384.606 1222.84 379.681 1217.92 379.681 1211.84 379.681 1205.77 384.606 1200.84 390.681 1200.84 396.756 1200.84 401.68 1205.77 401.68 1211.84Z" stroke="#5B9BD5" stroke-width="3.4375" stroke-linejoin="round" stroke-miterlimit="10" fill="#5B9BD5"/></g><g><path d="M401.68 1223.84C401.68 1229.92 396.756 1234.84 390.681 1234.84 384.606 1234.84 379.681 1229.92 379.681 1223.84 379.681 1217.77 384.606 1212.84 390.681 1212.84 396.756 1212.84 401.68 1217.77 401.68 1223.84Z" stroke="#ED7D31" stroke-width="3.4375" stroke-linejoin="round" stroke-miterlimit="10" fill="#ED7D31"/></g><g><path d="M401.68 971.842C401.68 977.917 396.756 982.842 390.681 982.842 384.606 982.842 379.681 977.917 379.681 971.842 379.681 965.767 384.606 960.842 390.681 960.842 396.756 960.842 401.68 965.767 401.68 971.842Z" stroke="#A5A5A5" stroke-width="3.4375" stroke-linejoin="round" stroke-miterlimit="10" fill="#A5A5A5"/></g><g><path d="M401.68 1650.84C401.68 1656.92 396.756 1661.84 390.681 1661.84 384.606 1661.84 379.681 1656.92 379.681 1650.84 379.681 1644.77 384.606 1639.84 390.681 1639.84 396.756 1639.84 401.68 1644.77 401.68 1650.84Z" stroke="#FFC000" stroke-width="3.4375" stroke-linejoin="round" stroke-miterlimit="10" fill="#FFC000"/></g><g><path d="M401.68 1960.84C401.68 1966.92 396.756 1971.84 390.681 1971.84 384.606 1971.84 379.681 1966.92 379.681 1960.84 379.681 1954.77 384.606 1949.84 390.681 1949.84 396.756 1949.84 401.68 1954.77 401.68 1960.84Z" stroke="#4472C4" stroke-width="3.4375" stroke-linejoin="round" stroke-miterlimit="10" fill="#4472C4"/></g><g><path d="M401.68 1681.84C401.68 1687.92 396.756 1692.84 390.681 1692.84 384.606 1692.84 379.681 1687.92 379.681 1681.84 379.681 1675.77 384.606 1670.84 390.681 1670.84 396.756 1670.84 401.68 1675.77 401.68 1681.84Z" stroke="#70AD47" stroke-width="3.4375" stroke-linejoin="round" stroke-miterlimit="10" fill="#70AD47"/></g><g><text fill="#595959" font-family="Calibri,Calibri_MSFontService,sans-serif" font-weight="400" font-size="41" transform="matrix(1 0 0 1 205.251 1972)">0</text></g><g><text fill="#595959" font-family="Calibri,Calibri_MSFontService,sans-serif" font-weight="400" font-size="41" transform="matrix(1 0 0 1 184.351 1817)">20</text></g><g><text fill="#595959" font-family="Calibri,Calibri_MSFontService,sans-serif" font-weight="400" font-size="41" transform="matrix(1 0 0 1 184.351 1662)">40</text></g><g><text fill="#595959" font-family="Calibri,Calibri_MSFontService,sans-serif" font-weight="400" font-size="41" transform="matrix(1 0 0 1 184.351 1507)">60</text></g><g><text fill="#595959" font-family="Calibri,Calibri_MSFontService,sans-serif" font-weight="400" font-size="41" transform="matrix(1 0 0 1 184.351 1351)">80</text></g><g><text fill="#595959" font-family="Calibri,Calibri_MSFontService,sans-serif" font-weight="400" font-size="41" transform="matrix(1 0 0 1 163.451 1196)">100</text></g><g><text fill="#595959" font-family="Calibri,Calibri_MSFontService,sans-serif" font-weight="400" font-size="41" transform="matrix(1 0 0 1 163.451 1041)">120</text></g><g><text fill="#595959" font-family="Calibri,Calibri_MSFontService,sans-serif" font-weight="400" font-size="41" transform="matrix(1 0 0 1 163.451 886)">140</text></g><g><text fill="#595959" font-family="Calibri,Calibri_MSFontService,sans-serif" font-weight="400" font-size="41" transform="matrix(1 0 0 1 348.808 2026)">312a</text></g><g><text fill="#595959" font-family="DengXian,DengXian_MSFontService,sans-serif" font-weight="400" font-size="64" transform="matrix(1 0 0 1 1074.47 751)">大考各科成绩折线图</text></g><g><path d="M701 2043 789 2043" stroke="#5B9BD5" stroke-width="10.3125" stroke-linecap="round" stroke-linejoin="round" stroke-miterlimit="10" fill="none" fill-rule="evenodd"/></g><g><path d="M755 2043C755 2049.07 750.075 2054 744 2054 737.925 2054 733 2049.07 733 2043 733 2036.92 737.925 2032 744 2032 750.075 2032 755 2036.92 755 2043Z" stroke="#5B9BD5" stroke-width="3.4375" stroke-linejoin="round" stroke-miterlimit="10" fill="#5B9BD5"/></g><g><text fill="#595959" font-family="DengXian,DengXian_MSFontService,sans-serif" font-weight="400" font-size="41" transform="matrix(1 0 0 1 797.945 2053)">语文</text></g><g><path d="M926 2043 1014 2043" stroke="#ED7D31" stroke-width="10.3125" stroke-linecap="round" stroke-linejoin="round" stroke-miterlimit="10" fill="none" fill-rule="evenodd"/></g><g><path d="M981 2043C981 2049.07 976.075 2054 970 2054 963.925 2054 959 2049.07 959 2043 959 2036.92 963.925 2032 970 2032 976.075 2032 981 2036.92 981 2043Z" stroke="#ED7D31" stroke-width="3.4375" stroke-linejoin="round" stroke-miterlimit="10" fill="#ED7D31"/></g><g><text fill="#595959" font-family="DengXian,DengXian_MSFontService,sans-serif" font-weight="400" font-size="41" transform="matrix(1 0 0 1 1023.45 2053)">数学</text></g><g><path d="M1152 2043 1240 2043" stroke="#A5A5A5" stroke-width="10.3125" stroke-linecap="round" stroke-linejoin="round" stroke-miterlimit="10" fill="none" fill-rule="evenodd"/></g><g><path d="M1206 2043C1206 2049.07 1201.08 2054 1195 2054 1188.93 2054 1184 2049.07 1184 2043 1184 2036.92 1188.93 2032 1195 2032 1201.08 2032 1206 2036.92 1206 2043Z" stroke="#A5A5A5" stroke-width="3.4375" stroke-linejoin="round" stroke-miterlimit="10" fill="#A5A5A5"/></g><g><text fill="#595959" font-family="DengXian,DengXian_MSFontService,sans-serif" font-weight="400" font-size="41" transform="matrix(1 0 0 1 1248.95 2053)">英语</text></g><g><path d="M1377 2043 1465 2043" stroke="#FFC000" stroke-width="10.3125" stroke-linecap="round" stroke-linejoin="round" stroke-miterlimit="10" fill="none" fill-rule="evenodd"/></g><g><path d="M1432 2043C1432 2049.07 1427.07 2054 1421 2054 1414.92 2054 1410 2049.07 1410 2043 1410 2036.92 1414.92 2032 1421 2032 1427.07 2032 1432 2036.92 1432 2043Z" stroke="#FFC000" stroke-width="3.4375" stroke-linejoin="round" stroke-miterlimit="10" fill="#FFC000"/></g><g><text fill="#595959" font-family="DengXian,DengXian_MSFontService,sans-serif" font-weight="400" font-size="41" transform="matrix(1 0 0 1 1474.45 2053)">物理</text></g><g><path d="M1603 2043 1691 2043" stroke="#4472C4" stroke-width="10.3125" stroke-linecap="round" stroke-linejoin="round" stroke-miterlimit="10" fill="none" fill-rule="evenodd"/></g><g><path d="M1657 2043C1657 2049.07 1652.08 2054 1646 2054 1639.93 2054 1635 2049.07 1635 2043 1635 2036.92 1639.93 2032 1646 2032 1652.08 2032 1657 2036.92 1657 2043Z" stroke="#4472C4" stroke-width="3.4375" stroke-linejoin="round" stroke-miterlimit="10" fill="#4472C4"/></g><g><text fill="#595959" font-family="DengXian,DengXian_MSFontService,sans-serif" font-weight="400" font-size="41" transform="matrix(1 0 0 1 1699.95 2053)">化学</text></g><g><path d="M1828 2043 1916 2043" stroke="#70AD47" stroke-width="10.3125" stroke-linecap="round" stroke-linejoin="round" stroke-miterlimit="10" fill="none" fill-rule="evenodd"/></g><g><path d="M1883 2043C1883 2049.07 1878.07 2054 1872 2054 1865.92 2054 1861 2049.07 1861 2043 1861 2036.92 1865.92 2032 1872 2032 1878.07 2032 1883 2036.92 1883 2043Z" stroke="#70AD47" stroke-width="3.4375" stroke-linejoin="round" stroke-miterlimit="10" fill="#70AD47"/></g><g><text fill="#595959" font-family="DengXian,DengXian_MSFontService,sans-serif" font-weight="400" font-size="41" transform="matrix(1 0 0 1 1925.45 2053)">生物</text></g><rect x="96.5001" y="636.5" width="2500" height="1473" stroke="#D9D9D9" stroke-width="3.4375" stroke-linejoin="round" stroke-miterlimit="10" fill="none"/></g></svg>