<svg width="2511" height="1375" xmlns="http://www.w3.org/2000/svg" xmlns:xlink="http://www.w3.org/1999/xlink" xml:space="preserve" overflow="hidden"><defs><clipPath id="clip0"><rect x="180" y="421" width="2511" height="1375"/></clipPath></defs><g clip-path="url(#clip0)" transform="translate(-180 -421)"><rect x="181" y="422" width="2508" height="1372" fill="#FFFFFF"/><g><path d="M311.5 1442.55 2638.5 1442.55M311.5 1302.54 2638.5 1302.54M311.5 1162.54 2638.5 1162.54M311.5 1021.53 2638.5 1021.53M311.5 881.529 2638.5 881.529M311.5 741.525 2638.5 741.525M311.5 600.5 2638.5 600.5" stroke="#D9D9D9" stroke-width="3.4375" stroke-linejoin="round" stroke-miterlimit="10" fill="none"/></g><g><path d="M311.5 1583.5 2638.5 1583.5" stroke="#D9D9D9" stroke-width="3.4375" stroke-linejoin="round" stroke-miterlimit="10" fill="none" fill-rule="evenodd"/></g><g><path d="M699 1232 1475.05 685 2251 1022.03" stroke="#5B9BD5" stroke-width="10.3125" stroke-linecap="round" stroke-linejoin="round" stroke-miterlimit="10" fill="none"/></g><g><path d="M710.213 1232.82C710.213 1238.9 705.289 1243.82 699.214 1243.82 693.139 1243.82 688.214 1238.9 688.214 1232.82 688.214 1226.75 693.139 1221.82 699.214 1221.82 705.289 1221.82 710.213 1226.75 710.213 1232.82Z" stroke="#5B9BD5" stroke-width="3.4375" stroke-linejoin="round" stroke-miterlimit="10" fill="#5B9BD5"/><path d="M1486.21 685.821C1486.21 691.896 1481.29 696.82 1475.21 696.82 1469.14 696.82 1464.21 691.896 1464.21 685.821 1464.21 679.746 1469.14 674.821 1475.21 674.821 1481.29 674.821 1486.21 679.746 1486.21 685.821Z" stroke="#5B9BD5" stroke-width="3.4375" stroke-linejoin="round" stroke-miterlimit="10" fill="#5B9BD5"/><path d="M2261.21 1021.82C2261.21 1027.9 2256.29 1032.82 2250.21 1032.82 2244.14 1032.82 2239.21 1027.9 2239.21 1021.82 2239.21 1015.75 2244.14 1010.82 2250.21 1010.82 2256.29 1010.82 2261.21 1015.75 2261.21 1021.82Z" stroke="#5B9BD5" stroke-width="3.4375" stroke-linejoin="round" stroke-miterlimit="10" fill="#5B9BD5"/></g><g><text fill="#595959" font-family="Calibri,Calibri_MSFontService,sans-serif" font-weight="400" font-size="41" transform="matrix(1 0 0 1 210.506 1595)">115</text></g><g><text fill="#595959" font-family="Calibri,Calibri_MSFontService,sans-serif" font-weight="400" font-size="41" transform="matrix(1 0 0 1 210.506 1454)">120</text></g><g><text fill="#595959" font-family="Calibri,Calibri_MSFontService,sans-serif" font-weight="400" font-size="41" transform="matrix(1 0 0 1 210.506 1314)">125</text></g><g><text fill="#595959" font-family="Calibri,Calibri_MSFontService,sans-serif" font-weight="400" font-size="41" transform="matrix(1 0 0 1 210.506 1174)">130</text></g><g><text fill="#595959" font-family="Calibri,Calibri_MSFontService,sans-serif" font-weight="400" font-size="41" transform="matrix(1 0 0 1 210.506 1033)">135</text></g><g><text fill="#595959" font-family="Calibri,Calibri_MSFontService,sans-serif" font-weight="400" font-size="41" transform="matrix(1 0 0 1 210.506 893)">140</text></g><g><text fill="#595959" font-family="Calibri,Calibri_MSFontService,sans-serif" font-weight="400" font-size="41" transform="matrix(1 0 0 1 210.506 753)">145</text></g><g><text fill="#595959" font-family="Calibri,Calibri_MSFontService,sans-serif" font-weight="400" font-size="41" transform="matrix(1 0 0 1 210.506 612)">150</text></g><g><text fill="#595959" font-family="Calibri,Calibri_MSFontService,sans-serif" font-weight="400" font-size="41" transform="matrix(1 0 0 1 658.115 1648)">312a</text></g><g><text fill="#595959" font-family="Calibri,Calibri_MSFontService,sans-serif" font-weight="400" font-size="41" transform="matrix(1 0 0 1 1422.44 1648)">403b1</text></g><g><text fill="#595959" font-family="Calibri,Calibri_MSFontService,sans-serif" font-weight="400" font-size="41" transform="matrix(1 0 0 1 2198.18 1648)">403b2</text></g><g><text fill="#595959" font-family="DengXian,DengXian_MSFontService,sans-serif" font-weight="400" font-size="64" transform="matrix(1 0 0 1 1370.74 519)">英语</text></g><g><path d="M1353 1728 1441 1728" stroke="#5B9BD5" stroke-width="10.3125" stroke-linecap="round" stroke-linejoin="round" stroke-miterlimit="10" fill="none" fill-rule="evenodd"/></g><g><path d="M1408.02 1728C1408.02 1734.07 1403.31 1739 1397.5 1739 1391.69 1739 1386.98 1734.07 1386.98 1728 1386.98 1721.92 1391.69 1717 1397.5 1717 1403.31 1717 1408.02 1721.92 1408.02 1728Z" stroke="#5B9BD5" stroke-width="3.4375" stroke-linejoin="round" stroke-miterlimit="10" fill="#5B9BD5"/></g><g><text fill="#595959" font-family="DengXian,DengXian_MSFontService,sans-serif" font-weight="400" font-size="41" transform="matrix(1 0 0 1 1450.38 1738)">分数</text></g><rect x="181.5" y="422.5" width="2508" height="1372" stroke="#D9D9D9" stroke-width="3.4375" stroke-linejoin="round" stroke-miterlimit="10" fill="none"/></g></svg>