<svg width="2735" height="1437" xmlns="http://www.w3.org/2000/svg" xmlns:xlink="http://www.w3.org/1999/xlink" xml:space="preserve" overflow="hidden"><defs><clipPath id="clip0"><rect x="545" y="576" width="2735" height="1437"/></clipPath></defs><g clip-path="url(#clip0)" transform="translate(-545 -576)"><rect x="546" y="577" width="2732" height="1434" fill="#FFFFFF"/><g><path d="M676.5 1669.55 3227.5 1669.55M676.5 1538.55 3227.5 1538.55M676.5 1408.55 3227.5 1408.55M676.5 1277.54 3227.5 1277.54M676.5 1147.54 3227.5 1147.54M676.5 1016.53 3227.5 1016.53M676.5 885.529 3227.5 885.529M676.5 755.5 3227.5 755.5" stroke="#D9D9D9" stroke-width="3.4375" stroke-linejoin="round" stroke-miterlimit="10" fill="none"/></g><g><path d="M676.5 1800.5 3227.5 1800.5" stroke="#D9D9D9" stroke-width="3.4375" stroke-linejoin="round" stroke-miterlimit="10" fill="none" fill-rule="evenodd"/></g><g><path d="M1102 1180 1952.06 964.032 2803 928" stroke="#5B9BD5" stroke-width="10.3125" stroke-linecap="round" stroke-linejoin="round" stroke-miterlimit="10" fill="none"/></g><g><path d="M1113.57 1179.02C1113.57 1185.09 1108.65 1190.02 1102.57 1190.02 1096.5 1190.02 1091.57 1185.09 1091.57 1179.02 1091.57 1172.94 1096.5 1168.02 1102.57 1168.02 1108.65 1168.02 1113.57 1172.94 1113.57 1179.02Z" stroke="#5B9BD5" stroke-width="3.4375" stroke-linejoin="round" stroke-miterlimit="10" fill="#5B9BD5"/><path d="M1963.57 964.017C1963.57 970.092 1958.65 975.017 1952.57 975.017 1946.5 975.017 1941.57 970.092 1941.57 964.017 1941.57 957.942 1946.5 953.018 1952.57 953.018 1958.65 953.018 1963.57 957.942 1963.57 964.017Z" stroke="#5B9BD5" stroke-width="3.4375" stroke-linejoin="round" stroke-miterlimit="10" fill="#5B9BD5"/><path d="M2813.57 928.017C2813.57 934.092 2808.65 939.017 2802.57 939.017 2796.5 939.017 2791.57 934.092 2791.57 928.017 2791.57 921.942 2796.5 917.017 2802.57 917.017 2808.65 917.017 2813.57 921.942 2813.57 928.017Z" stroke="#5B9BD5" stroke-width="3.4375" stroke-linejoin="round" stroke-miterlimit="10" fill="#5B9BD5"/></g><g><path d="M1102 1800 1952.06 1657 2803 1722.06" stroke="#ED7D31" stroke-width="10.3125" stroke-linecap="round" stroke-linejoin="round" stroke-miterlimit="10" fill="none"/></g><g><path d="M1113.57 1800.02C1113.57 1806.09 1108.65 1811.02 1102.57 1811.02 1096.5 1811.02 1091.57 1806.09 1091.57 1800.02 1091.57 1793.94 1096.5 1789.02 1102.57 1789.02 1108.65 1789.02 1113.57 1793.94 1113.57 1800.02Z" stroke="#ED7D31" stroke-width="3.4375" stroke-linejoin="round" stroke-miterlimit="10" fill="#ED7D31"/><path d="M1963.57 1656.02C1963.57 1662.09 1958.65 1667.02 1952.57 1667.02 1946.5 1667.02 1941.57 1662.09 1941.57 1656.02 1941.57 1649.94 1946.5 1645.02 1952.57 1645.02 1958.65 1645.02 1963.57 1649.94 1963.57 1656.02Z" stroke="#ED7D31" stroke-width="3.4375" stroke-linejoin="round" stroke-miterlimit="10" fill="#ED7D31"/><path d="M2813.57 1721.02C2813.57 1727.09 2808.65 1732.02 2802.57 1732.02 2796.5 1732.02 2791.57 1727.09 2791.57 1721.02 2791.57 1714.94 2796.5 1710.02 2802.57 1710.02 2808.65 1710.02 2813.57 1714.94 2813.57 1721.02Z" stroke="#ED7D31" stroke-width="3.4375" stroke-linejoin="round" stroke-miterlimit="10" fill="#ED7D31"/></g><g><path d="M1102 1800 1952.06 1800 2803 1771" stroke="#A5A5A5" stroke-width="10.3125" stroke-linecap="round" stroke-linejoin="round" stroke-miterlimit="10" fill="none"/></g><g><path d="M1113.57 1800.02C1113.57 1806.09 1108.65 1811.02 1102.57 1811.02 1096.5 1811.02 1091.57 1806.09 1091.57 1800.02 1091.57 1793.94 1096.5 1789.02 1102.57 1789.02 1108.65 1789.02 1113.57 1793.94 1113.57 1800.02Z" stroke="#A5A5A5" stroke-width="3.4375" stroke-linejoin="round" stroke-miterlimit="10" fill="#A5A5A5"/><path d="M1963.57 1800.02C1963.57 1806.09 1958.65 1811.02 1952.57 1811.02 1946.5 1811.02 1941.57 1806.09 1941.57 1800.02 1941.57 1793.94 1946.5 1789.02 1952.57 1789.02 1958.65 1789.02 1963.57 1793.94 1963.57 1800.02Z" stroke="#A5A5A5" stroke-width="3.4375" stroke-linejoin="round" stroke-miterlimit="10" fill="#A5A5A5"/><path d="M2813.57 1770.02C2813.57 1776.09 2808.65 1781.02 2802.57 1781.02 2796.5 1781.02 2791.57 1776.09 2791.57 1770.02 2791.57 1763.94 2796.5 1759.02 2802.57 1759.02 2808.65 1759.02 2813.57 1763.94 2813.57 1770.02Z" stroke="#A5A5A5" stroke-width="3.4375" stroke-linejoin="round" stroke-miterlimit="10" fill="#A5A5A5"/></g><g><text fill="#595959" font-family="Calibri,Calibri_MSFontService,sans-serif" font-weight="400" font-size="41" transform="matrix(1 0 0 1 617.663 1812)">0</text></g><g><text fill="#595959" font-family="Calibri,Calibri_MSFontService,sans-serif" font-weight="400" font-size="41" transform="matrix(1 0 0 1 596.763 1681)">20</text></g><g><text fill="#595959" font-family="Calibri,Calibri_MSFontService,sans-serif" font-weight="400" font-size="41" transform="matrix(1 0 0 1 596.763 1551)">40</text></g><g><text fill="#595959" font-family="Calibri,Calibri_MSFontService,sans-serif" font-weight="400" font-size="41" transform="matrix(1 0 0 1 596.763 1420)">60</text></g><g><text fill="#595959" font-family="Calibri,Calibri_MSFontService,sans-serif" font-weight="400" font-size="41" transform="matrix(1 0 0 1 596.763 1289)">80</text></g><g><text fill="#595959" font-family="Calibri,Calibri_MSFontService,sans-serif" font-weight="400" font-size="41" transform="matrix(1 0 0 1 575.863 1159)">100</text></g><g><text fill="#595959" font-family="Calibri,Calibri_MSFontService,sans-serif" font-weight="400" font-size="41" transform="matrix(1 0 0 1 575.863 1028)">120</text></g><g><text fill="#595959" font-family="Calibri,Calibri_MSFontService,sans-serif" font-weight="400" font-size="41" transform="matrix(1 0 0 1 575.863 897)">140</text></g><g><text fill="#595959" font-family="Calibri,Calibri_MSFontService,sans-serif" font-weight="400" font-size="41" transform="matrix(1 0 0 1 575.863 767)">160</text></g><g><text fill="#595959" font-family="Calibri,Calibri_MSFontService,sans-serif" font-weight="400" font-size="41" transform="matrix(1 0 0 1 1060.79 1865)">312a</text></g><g><text fill="#595959" font-family="Calibri,Calibri_MSFontService,sans-serif" font-weight="400" font-size="41" transform="matrix(1 0 0 1 1899.76 1865)">403b1</text></g><g><text fill="#595959" font-family="Calibri,Calibri_MSFontService,sans-serif" font-weight="400" font-size="41" transform="matrix(1 0 0 1 2750.15 1865)">403b2</text></g><g><text fill="#595959" font-family="DengXian,DengXian_MSFontService,sans-serif" font-weight="400" font-size="64" transform="matrix(1 0 0 1 1848.07 673)">数学</text></g><g><path d="M1405 1945 1493 1945" stroke="#5B9BD5" stroke-width="10.3125" stroke-linecap="round" stroke-linejoin="round" stroke-miterlimit="10" fill="none" fill-rule="evenodd"/></g><g><path d="M1459 1945C1459 1951.07 1454.08 1956 1448 1956 1441.93 1956 1437 1951.07 1437 1945 1437 1938.92 1441.93 1934 1448 1934 1454.08 1934 1459 1938.92 1459 1945Z" stroke="#5B9BD5" stroke-width="3.4375" stroke-linejoin="round" stroke-miterlimit="10" fill="#5B9BD5"/></g><g><text fill="#595959" font-family="DengXian,DengXian_MSFontService,sans-serif" font-weight="400" font-size="41" transform="matrix(1 0 0 1 1502.14 1955)">分数</text></g><g><path d="M1645 1945 1733 1945" stroke="#ED7D31" stroke-width="10.3125" stroke-linecap="round" stroke-linejoin="round" stroke-miterlimit="10" fill="none" fill-rule="evenodd"/></g><g><path d="M1699 1945C1699 1951.07 1694.08 1956 1688 1956 1681.93 1956 1677 1951.07 1677 1945 1677 1938.92 1681.93 1934 1688 1934 1694.08 1934 1699 1938.92 1699 1945Z" stroke="#ED7D31" stroke-width="3.4375" stroke-linejoin="round" stroke-miterlimit="10" fill="#ED7D31"/></g><g><text fill="#595959" font-family="DengXian,DengXian_MSFontService,sans-serif" font-weight="400" font-size="41" transform="matrix(1 0 0 1 1742.08 1955)">非能力因素失分</text></g><g><path d="M2091 1945 2179 1945" stroke="#A5A5A5" stroke-width="10.3125" stroke-linecap="round" stroke-linejoin="round" stroke-miterlimit="10" fill="none" fill-rule="evenodd"/></g><g><path d="M2145.02 1945C2145.02 1951.07 2140.31 1956 2134.5 1956 2128.69 1956 2123.98 1951.07 2123.98 1945 2123.98 1938.92 2128.69 1934 2134.5 1934 2140.31 1934 2145.02 1938.92 2145.02 1945Z" stroke="#A5A5A5" stroke-width="3.4375" stroke-linejoin="round" stroke-miterlimit="10" fill="#A5A5A5"/></g><g><text fill="#595959" font-family="DengXian,DengXian_MSFontService,sans-serif" font-weight="400" font-size="41" transform="matrix(1 0 0 1 2188.26 1955)">能力因素失分</text></g><rect x="546.5" y="577.5" width="2732" height="1434" stroke="#D9D9D9" stroke-width="3.4375" stroke-linejoin="round" stroke-miterlimit="10" fill="none"/></g></svg>