<svg width="2217" height="1321" xmlns="http://www.w3.org/2000/svg" xmlns:xlink="http://www.w3.org/1999/xlink" xml:space="preserve" overflow="hidden"><defs><clipPath id="clip0"><rect x="262" y="412" width="2217" height="1321"/></clipPath></defs><g clip-path="url(#clip0)" transform="translate(-262 -412)"><rect x="263" y="413" width="2214" height="1318" fill="#FFFFFF"/><g><path d="M393.5 1364.54 2426.5 1364.54M393.5 1210.54 2426.5 1210.54M393.5 1055.53 2426.5 1055.53M393.5 901.53 2426.5 901.53M393.5 746.525 2426.5 746.525M393.5 592.5 2426.5 592.5" stroke="#D9D9D9" stroke-width="3.4375" stroke-linejoin="round" stroke-miterlimit="10" fill="none"/></g><g><path d="M393.5 1519.5 2426.5 1519.5" stroke="#D9D9D9" stroke-width="3.4375" stroke-linejoin="round" stroke-miterlimit="10" fill="none" fill-rule="evenodd"/></g><g><path d="M648 1210 1156.04 1025.03 1664.05 863.028 2172 747" stroke="#5B9BD5" stroke-width="10.3125" stroke-linecap="round" stroke-linejoin="round" stroke-miterlimit="10" fill="none"/></g><g><path d="M659.714 1210.98C659.714 1217.06 654.789 1221.98 648.714 1221.98 642.639 1221.98 637.715 1217.06 637.715 1210.98 637.715 1204.91 642.639 1199.98 648.714 1199.98 654.789 1199.98 659.714 1204.91 659.714 1210.98Z" stroke="#5B9BD5" stroke-width="3.4375" stroke-linejoin="round" stroke-miterlimit="10" fill="#5B9BD5"/><path d="M1167.71 1024.98C1167.71 1031.06 1162.79 1035.98 1156.71 1035.98 1150.64 1035.98 1145.71 1031.06 1145.71 1024.98 1145.71 1018.91 1150.64 1013.98 1156.71 1013.98 1162.79 1013.98 1167.71 1018.91 1167.71 1024.98Z" stroke="#5B9BD5" stroke-width="3.4375" stroke-linejoin="round" stroke-miterlimit="10" fill="#5B9BD5"/><path d="M1675.71 862.982C1675.71 869.057 1670.79 873.981 1664.71 873.981 1658.64 873.981 1653.71 869.057 1653.71 862.982 1653.71 856.907 1658.64 851.982 1664.71 851.982 1670.79 851.982 1675.71 856.907 1675.71 862.982Z" stroke="#5B9BD5" stroke-width="3.4375" stroke-linejoin="round" stroke-miterlimit="10" fill="#5B9BD5"/><path d="M2183.71 746.982C2183.71 753.057 2178.79 757.982 2172.71 757.982 2166.64 757.982 2161.71 753.057 2161.71 746.982 2161.71 740.907 2166.64 735.982 2172.71 735.982 2178.79 735.982 2183.71 740.907 2183.71 746.982Z" stroke="#5B9BD5" stroke-width="3.4375" stroke-linejoin="round" stroke-miterlimit="10" fill="#5B9BD5"/></g><g><path d="M648 1519 1156.04 1303 1664.05 1427.05 2172 1519" stroke="#ED7D31" stroke-width="10.3125" stroke-linecap="round" stroke-linejoin="round" stroke-miterlimit="10" fill="none"/></g><g><path d="M659.714 1519.98C659.714 1526.06 654.789 1530.98 648.714 1530.98 642.639 1530.98 637.715 1526.06 637.715 1519.98 637.715 1513.91 642.639 1508.98 648.714 1508.98 654.789 1508.98 659.714 1513.91 659.714 1519.98Z" stroke="#ED7D31" stroke-width="3.4375" stroke-linejoin="round" stroke-miterlimit="10" fill="#ED7D31"/><path d="M1167.71 1302.98C1167.71 1309.06 1162.79 1313.98 1156.71 1313.98 1150.64 1313.98 1145.71 1309.06 1145.71 1302.98 1145.71 1296.91 1150.64 1291.98 1156.71 1291.98 1162.79 1291.98 1167.71 1296.91 1167.71 1302.98Z" stroke="#ED7D31" stroke-width="3.4375" stroke-linejoin="round" stroke-miterlimit="10" fill="#ED7D31"/><path d="M1675.71 1426.98C1675.71 1433.06 1670.79 1437.98 1664.71 1437.98 1658.64 1437.98 1653.71 1433.06 1653.71 1426.98 1653.71 1420.91 1658.64 1415.98 1664.71 1415.98 1670.79 1415.98 1675.71 1420.91 1675.71 1426.98Z" stroke="#ED7D31" stroke-width="3.4375" stroke-linejoin="round" stroke-miterlimit="10" fill="#ED7D31"/><path d="M2183.71 1519.98C2183.71 1526.06 2178.79 1530.98 2172.71 1530.98 2166.64 1530.98 2161.71 1526.06 2161.71 1519.98 2161.71 1513.91 2166.64 1508.98 2172.71 1508.98 2178.79 1508.98 2183.71 1513.91 2183.71 1519.98Z" stroke="#ED7D31" stroke-width="3.4375" stroke-linejoin="round" stroke-miterlimit="10" fill="#ED7D31"/></g><g><path d="M648 1519 1156.04 1458 1664.05 1496.05 2172 1519" stroke="#A5A5A5" stroke-width="10.3125" stroke-linecap="round" stroke-linejoin="round" stroke-miterlimit="10" fill="none"/></g><g><path d="M659.714 1519.98C659.714 1526.06 654.789 1530.98 648.714 1530.98 642.639 1530.98 637.715 1526.06 637.715 1519.98 637.715 1513.91 642.639 1508.98 648.714 1508.98 654.789 1508.98 659.714 1513.91 659.714 1519.98Z" stroke="#A5A5A5" stroke-width="3.4375" stroke-linejoin="round" stroke-miterlimit="10" fill="#A5A5A5"/><path d="M1167.71 1457.98C1167.71 1464.06 1162.79 1468.98 1156.71 1468.98 1150.64 1468.98 1145.71 1464.06 1145.71 1457.98 1145.71 1451.91 1150.64 1446.98 1156.71 1446.98 1162.79 1446.98 1167.71 1451.91 1167.71 1457.98Z" stroke="#A5A5A5" stroke-width="3.4375" stroke-linejoin="round" stroke-miterlimit="10" fill="#A5A5A5"/><path d="M1675.71 1496.98C1675.71 1503.06 1670.79 1507.98 1664.71 1507.98 1658.64 1507.98 1653.71 1503.06 1653.71 1496.98 1653.71 1490.91 1658.64 1485.98 1664.71 1485.98 1670.79 1485.98 1675.71 1490.91 1675.71 1496.98Z" stroke="#A5A5A5" stroke-width="3.4375" stroke-linejoin="round" stroke-miterlimit="10" fill="#A5A5A5"/><path d="M2183.71 1519.98C2183.71 1526.06 2178.79 1530.98 2172.71 1530.98 2166.64 1530.98 2161.71 1526.06 2161.71 1519.98 2161.71 1513.91 2166.64 1508.98 2172.71 1508.98 2178.79 1508.98 2183.71 1513.91 2183.71 1519.98Z" stroke="#A5A5A5" stroke-width="3.4375" stroke-linejoin="round" stroke-miterlimit="10" fill="#A5A5A5"/></g><g><text fill="#595959" font-family="Calibri,Calibri_MSFontService,sans-serif" font-weight="400" font-size="41" transform="matrix(1 0 0 1 334.806 1531)">0</text></g><g><text fill="#595959" font-family="Calibri,Calibri_MSFontService,sans-serif" font-weight="400" font-size="41" transform="matrix(1 0 0 1 313.906 1376)">20</text></g><g><text fill="#595959" font-family="Calibri,Calibri_MSFontService,sans-serif" font-weight="400" font-size="41" transform="matrix(1 0 0 1 313.906 1222)">40</text></g><g><text fill="#595959" font-family="Calibri,Calibri_MSFontService,sans-serif" font-weight="400" font-size="41" transform="matrix(1 0 0 1 313.906 1067)">60</text></g><g><text fill="#595959" font-family="Calibri,Calibri_MSFontService,sans-serif" font-weight="400" font-size="41" transform="matrix(1 0 0 1 313.906 913)">80</text></g><g><text fill="#595959" font-family="Calibri,Calibri_MSFontService,sans-serif" font-weight="400" font-size="41" transform="matrix(1 0 0 1 293.006 758)">100</text></g><g><text fill="#595959" font-family="Calibri,Calibri_MSFontService,sans-serif" font-weight="400" font-size="41" transform="matrix(1 0 0 1 293.006 604)">120</text></g><g><text fill="#595959" font-family="Calibri,Calibri_MSFontService,sans-serif" font-weight="400" font-size="41" transform="matrix(1 0 0 1 606.818 1585)">312a</text></g><g><text fill="#595959" font-family="Calibri,Calibri_MSFontService,sans-serif" font-weight="400" font-size="41" transform="matrix(1 0 0 1 1103.55 1585)">403b1</text></g><g><text fill="#595959" font-family="Calibri,Calibri_MSFontService,sans-serif" font-weight="400" font-size="41" transform="matrix(1 0 0 1 1611.69 1585)">403b2</text></g><g><text fill="#595959" font-family="Calibri,Calibri_MSFontService,sans-serif" font-weight="400" font-size="41" transform="matrix(1 0 0 1 2119.84 1585)">403b3</text></g><g><text fill="#595959" font-family="DengXian,DengXian_MSFontService,sans-serif" font-weight="400" font-size="64" transform="matrix(1 0 0 1 1305.92 510)">物理</text></g><g><path d="M863 1664 951 1664" stroke="#5B9BD5" stroke-width="10.3125" stroke-linecap="round" stroke-linejoin="round" stroke-miterlimit="10" fill="none" fill-rule="evenodd"/></g><g><path d="M917 1664C917 1670.07 912.075 1675 906 1675 899.925 1675 895 1670.07 895 1664 895 1657.92 899.925 1653 906 1653 912.075 1653 917 1657.92 917 1664Z" stroke="#5B9BD5" stroke-width="3.4375" stroke-linejoin="round" stroke-miterlimit="10" fill="#5B9BD5"/></g><g><text fill="#595959" font-family="DengXian,DengXian_MSFontService,sans-serif" font-weight="400" font-size="41" transform="matrix(1 0 0 1 959.995 1674)">分数</text></g><g><path d="M1103 1664 1191 1664" stroke="#ED7D31" stroke-width="10.3125" stroke-linecap="round" stroke-linejoin="round" stroke-miterlimit="10" fill="none" fill-rule="evenodd"/></g><g><path d="M1157 1664C1157 1670.07 1152.07 1675 1146 1675 1139.92 1675 1135 1670.07 1135 1664 1135 1657.92 1139.92 1653 1146 1653 1152.07 1653 1157 1657.92 1157 1664Z" stroke="#ED7D31" stroke-width="3.4375" stroke-linejoin="round" stroke-miterlimit="10" fill="#ED7D31"/></g><g><text fill="#595959" font-family="DengXian,DengXian_MSFontService,sans-serif" font-weight="400" font-size="41" transform="matrix(1 0 0 1 1199.93 1674)">非能力因素失分</text></g><g><path d="M1549 1664 1637 1664" stroke="#A5A5A5" stroke-width="10.3125" stroke-linecap="round" stroke-linejoin="round" stroke-miterlimit="10" fill="none" fill-rule="evenodd"/></g><g><path d="M1603 1664C1603 1670.07 1598.08 1675 1592 1675 1585.93 1675 1581 1670.07 1581 1664 1581 1657.92 1585.93 1653 1592 1653 1598.08 1653 1603 1657.92 1603 1664Z" stroke="#A5A5A5" stroke-width="3.4375" stroke-linejoin="round" stroke-miterlimit="10" fill="#A5A5A5"/></g><g><text fill="#595959" font-family="DengXian,DengXian_MSFontService,sans-serif" font-weight="400" font-size="41" transform="matrix(1 0 0 1 1646.12 1674)">能力因素失分</text></g><rect x="263.5" y="413.5" width="2214" height="1318" stroke="#D9D9D9" stroke-width="3.4375" stroke-linejoin="round" stroke-miterlimit="10" fill="none"/></g></svg>